<mxfile host="app.diagrams.net" agent="Mozilla/5.0 (Windows NT 10.0; Win64; x64; rv:132.0) Gecko/20100101 Firefox/132.0" version="24.8.6">
  <diagram name="Page-1" id="_Y02BYiccrV_I4BYz_zP">
    <mxGraphModel dx="1195" dy="628" grid="1" gridSize="10" guides="1" tooltips="1" connect="1" arrows="1" fold="1" page="1" pageScale="1" pageWidth="850" pageHeight="1100" math="0" shadow="0">
      <root>
        <mxCell id="0" />
        <mxCell id="1" parent="0" />
        <mxCell id="HewII5I395oueKauFgrz-3" style="edgeStyle=orthogonalEdgeStyle;rounded=0;orthogonalLoop=1;jettySize=auto;html=1;entryX=0;entryY=0.25;entryDx=0;entryDy=0;" edge="1" parent="1" source="HewII5I395oueKauFgrz-1" target="HewII5I395oueKauFgrz-9">
          <mxGeometry relative="1" as="geometry" />
        </mxCell>
        <mxCell id="HewII5I395oueKauFgrz-7" value="&lt;div&gt;Able to turn off/on&lt;/div&gt;&lt;div&gt;&amp;amp; manage&lt;br&gt;&lt;/div&gt;" style="edgeLabel;html=1;align=center;verticalAlign=middle;resizable=0;points=[];fontFamily=Fira Code;" vertex="1" connectable="0" parent="HewII5I395oueKauFgrz-3">
          <mxGeometry x="0.0074" y="-2" relative="1" as="geometry">
            <mxPoint y="-2" as="offset" />
          </mxGeometry>
        </mxCell>
        <UserObject label="PiKVM" link="https://pikvm.org/" id="HewII5I395oueKauFgrz-1">
          <mxCell style="shape=image;verticalLabelPosition=bottom;labelBackgroundColor=default;verticalAlign=top;aspect=fixed;imageAspect=0;image=data:image/jpeg,/9j/4AAQSkZJRgABAQEAAAAAAAD/4QBCRXhpZgAATU0AKgAAAAgAAYdpAAQAAAABAAAAGgAAAAAAAkAAAAMAAAABAAAAAEABAAEAAAABAAAAAAAAAAAAAP/bAEMACwkJBwkJBwkJCQkLCQkJCQkJCwkLCwwLCwsMDRAMEQ4NDgwSGRIlGh0lHRkfHCkpFiU3NTYaKjI+LSkwGTshE//bAEMBBwgICwkLFQsLFSwdGR0sLCwsLCwsLCwsLCwsLCwsLCwsLCwsLCwsLCwsLCwsLCwsLCwsLCwsLCwsLCwsLCwsLP/AABEIAdoB2gMBIgACEQEDEQH/xAAfAAABBQEBAQEBAQAAAAAAAAAAAQIDBAUGBwgJCgv/xAC1EAACAQMDAgQDBQUEBAAAAX0BAgMABBEFEiExQQYTUWEHInEUMoGRoQgjQrHBFVLR8CQzYnKCCQoWFxgZGiUmJygpKjQ1Njc4OTpDREVGR0hJSlNUVVZXWFlaY2RlZmdoaWpzdHV2d3h5eoOEhYaHiImKkpOUlZaXmJmaoqOkpaanqKmqsrO0tba3uLm6wsPExcbHyMnK0tPU1dbX2Nna4eLj5OXm5+jp6vHy8/T19vf4+fr/xAAfAQADAQEBAQEBAQEBAAAAAAAAAQIDBAUGBwgJCgv/xAC1EQACAQIEBAMEBwUEBAABAncAAQIDEQQFITEGEkFRB2FxEyIygQgUQpGhscEJIzNS8BVictEKFiQ04SXxFxgZGiYnKCkqNTY3ODk6Q0RFRkdISUpTVFVWV1hZWmNkZWZnaGlqc3R1dnd4eXqCg4SFhoeIiYqSk5SVlpeYmZqio6Slpqeoqaqys7S1tre4ubrCw8TFxsfIycrS09TV1tfY2dri4+Tl5ufo6ery8/T19vf4+fr/2gAMAwEAAhEDEQA/APXKKKKACiiigAooooAKKKKACiiigAooooAKKKKACiiigAooooAKKKKACiiigAooooAKKKKACiiigAooooAKKKKACiiigAooooAKKKKACiiigAooooAKKKKACiiigAooooAKKKKACiiigAooooAKKKKACiiigAooooAKKKKACiiigAooooAKKKKACiiigAooooAKKKKACiiigAooooAKKKKACiiigAooooAKKKKACiiigAooooAKKKKACiiigAooooAKKKKACiiigAooooAKKKKACiiigAooooAKKKKACiiigAooooAKKKKACiiigAooooAKKKKACiiigAooooAKKKKACiiigAooooAKKKKACiiigAooooAKKKKACiiigAooooAKKKKACiiigAooooAKKKKACiiigAooooAKKKKACiiigAooooAKKKKACiiigAooooAKKKKACiiigAooooAKKKKACiiigAooooAKKKKACiiigAooooAKKKKACiiigAooooAKKKKACiimySRRJJLK6RxxqXkeRgqIqjJZmbgAUAOorgdS+KvhCykeG1W81BkJBe1RUg49JJWBP4Kaw7/4wwvaXC6dpU0V6y7YJLqSN4Yyf42VOSR2H+SAetVm6lrugaRs/tPUrS1Z+VSaQCRh6iMZbH4V88y+NvHE0jStrt+GLFsRSeWg74CRgL+lYlzdXd5PNdXc8s9xMxeWWZi7ux7kmgD6bsfFHhTUn8uy1iwlk4xH5ypIc/3Ukwx/Ksy/+IXgfTrhrWXUvNlRisn2SKWdEI4IMkY2/kTXzm8csZAdHQkBhvUqSDyCM0IkkjqkalnY4VVGSx9AKQH1JpWv6BrcfmaZqFvc8ZaNG2zJ3+eJ8OPyq8Lm1MnlCeEy9NgkQv8A985zXycrTwSZRpIpUJGVLI6noRkYNIJJVcSK7iQHcHDEOD6hhzTA+t6K+eLD4k+NrC1W0W8iuFTASW9i86dVAxt3kjP45re0T4t6vFcRx67bwXFo7KrzWkflTxA9WC52t9OPr6gHtNFQWd5Z6ha295ZzJNbXCCSGWM5VlP8AX1FT0AFFFFABRRRQAUUV5h4s+KMWn3E2n6BHBdTwkpPeS5e3VxwVhVCN2O5zj69aAPT6jkntodvnTRR7vu+Y6pn6bjXgh+KfjkpKvnWILqwVxarujz3TJxke4Ncde32oajO9zfXU9zO5JaSd2duewz2oA+qLq/06xga6vLu3t7dRkyzSoiY9mY1yx+JXgIXAt/7RkI3bfOFtceQDnH3tuce+K+emlmdUR5ZGSPOxWZiqZ67QeKDFKqJIyMI3JCMQQrEddpNID6im8Q+Gbe2hvJtX05LaZBJDIbmLEq+qAHJ/AVBZeLfCGoTJb2ms2Mk7nCRmTYznphRIBk/SvmHk4AyT0ApzJLE2HR0cYOGBVh3BweaAPreivmKPxd4yiSJI9d1NUiRUjX7Q5AVRgDmuz8P/ABY1Cyt5INdt5NQZdv2e4hMcU2OcrNkbT2wcfnTA9qorza1+L3hqWQJdWGo2ynjzFEUyr7sFYN+QNd7puqaXq9ql5pt1Fc27HG+I8qw6q6n5gfYgUAXKKKKACiiigAooooAKKKKACiiigAooooAKKKKACiiigAooooAKKKKACiiigAooooAKKKKACiiigAoopGBKsAcEggH0zQB5D4t+KGowX11p3h9YY4rWR4JbyZBK8sqEq3lI3yhQe5Bzjt34TUvGPi7V7WSx1DU5ZbWRlaSIRwxhtpyAxiQHHfGf5VkXtvPaXl7a3AInt7iaGYHOd6OVPWuj0LRdB1a0MjPcrcwkJcRrImOfuuo25wf6VhWrRoR557Eykoq7ObtLS4vZ47a3CGWQkIHdUBI5xliBWu3hPxCq5EMTH+6s0eR+ZA/WulXwhoiFWD3oZSCpWZQQQcggha6BV2qi7mbaoXc5yzYGMsR3rxsRm1mvY/iv+CYSrfynmUWnXVjdQjVNMuHtnYJIAHUgMcbo5I+MjtXS3PguwfcbW6nhbssyrKn6Yauq5pK46uZ1ptSjo/w+5mbqyexiaRpd/bW9zY6oba7tEKfY9w8whTncuHGQOmKqal4Ss5sy6a32WcHcELMYWI9DywNdNRXMsZVjN1Iu1/u+4n2kk7oyr/Q7HU7eNbkAXiRIv2uMASF1XBLjuCfWsHSfDM6XWowanAj2fkhI5VOC8hYFXhbqMDOfrXZ0U6eNrU4OCej/AA9AVSSVjzLWtDudIlByZbSViIZgMe+yQDo38/5N1bRbnSzBLzJaTojRSgYwzLu8t/Q/z/l6ZLDBOhjmjSSMlWKSKGXcpyDg+lNuLe3u4Zbe4QPDKu11P8wfUdq74ZtNcvMtt/P/AIJoqz0ueX2us67Yw/Z7PU7+3g3F/Kt7maOPcep2owFemeC/iZKZLfSvEkoZXKx22otgMrHgLddsf7X5+o5K28Iv9vvoLksbMW7ta3Cf33ICZHqvO4f41zd/Y3OnXUtrcLh0OQw+66Ho6n0Ne5SxNKrLlg7vc6VNS0R9XgggEEEEZBHIINFeWfDDxe90i+HNRl3TwxltLlc/NJCgy0BJ7qOV9uP4efU66Sgrh/Gvj208No9jZBLjWZEyEPMVorDh5sd+4X88D72h418UReGNJeaMo2o3W6HT4m5G/HzSsP7qdfrgd+PnOee5u55ri4keW4nkaSWSQlnd2OSSaANS58U+LLuS5kn1rUT9oDiVEuJI4ircFRGhCgewFZltbXN5PFb28bSSyNtVV/mT6DvXRJ4Vuf7HluWR21GTypIYF6pETypH94g59sV0mhaLFpNvucK17Mo8+QchB18tD6Dv615lfMaVODcHd3t/XkZSqpLQ4i90W6ttRh0yHdPcPFCx2jCl3XcdpP8ACPX2ropPCy2ukXYhAuNTeNSWPQKGBeOAHuRxnv7ZrqvJg84XHlp54jMQl2jf5ZO7bu9KfXj1MzqyUUum/m/8jB1m7HK6L4VhgWO51NVlnIDJbnmOLv8AvOxPt0+tWNQ8NtqepG5uLrbZJFFHFDEuHUKOUHG0DPPfrXRUVzvHVnN1L6/l6Ee0le5npplpYWs66Xa28d15TiB5V3sZMfKXdsmufi8IXNxI9xqmoFpZDvkEI3sWPJzI+B+ldhRU08ZWp35Xq+vUFOS2OB1vSLOye2sNOsrqe5lQSvOxeTCklQqKgC545OP51Ti8L+IpRn7IIwf+e0kaH8s5/SvS8mkrrjmtWEFFK77vUtVmlY8t1DRNU0yNJbtIlR22KUlRiW68Lnd+lO0jX9e0J7h9KvZLZrhAkwUI6sAcglZAVyOxx3967rUNA07U5/PupLsvtCoqygRoo7IpX8TVCXwn4ehjlmlmukiiQySMZE+VVGSfu16NHNKbilU+LyRrGsrahpHxU8V2c8X9pNFqFpuAlR444p9pPJjkiAGfqD/Ue46ffWmp2VnqFo++2u4UmibodrDoR6jofpXynObczTG3V1g3nyhIQz7O24gAZr6M+H1tcWvhDQI59294prhQwwVjmmklQc+xB/GvYRudTRRRTAKKKKACiiigAooooAKKKKACiiigAooooAKKKKACiiigAooooAKKKKACiiigAooooAKq6leJp2n6jfuNy2dpcXRX+95SF8fjirVQ3dtDe2t3aTDMN1BLbygddkilDj86APlW/vbrUry8v7p99xdzPPM2MAs5zgD0HQVpeHbi4sNVtCySrFcEW8wKtgrJwCeOxwaq63pF3oWqX+l3QHm2spVWHSSM/Mkg9mGD+NdR4Z1+OWKHTb2TbPGAlrK54lToIyT3HQev8+LGylGi7R5l1M6jajsdXRRRXxhwiM6INzsFUdS3AH1NKCCAQQVPIIOQfoRRVCbTTlpbC5lspidxEeHtpG/6aQN8v5Yq4qL0bsNWL9FYMmtahprBNZsT5ROFvLHLwt2+ZG5H5/hWtaX1hfJvtLiOYYyQh+df95D8w/KtJ0JwXM1p3WqG4taliiiisCQooooAKxfEWkrqdkzxr/plqrSQEDl16tEfr29/rW1RWlKpKlNTjuhptO6PIrS6urC6tby2do7m1mjnhcdVkjbcMj+dfT+h6vb63pGnarEVVbmAPKuciKVflkQn/ZIIr528UaeLLU5HjXEN4PtEYHQMTh1H48/jWx4e8WSaV4U8W6T5u2ecRHTRkhgbk+RcbfouGFfb0qiqwU49T0Iu6uZ/jXxA/iHXr25VybO3Y2lgvYQRkjf/AMCOW/H2p3hTSFu52v7hM29qwESsPlkn6/kvX8q5qON5ZI4oxueR1jQDuzHAFes2FnFYWdraRjiGMBj/AHpDy7H6nNefmeJdGlyR3l+XUyqy5VZFmiiivlDjCiiigAoopGZEVndlRFGWZyFUD3J4oAWisSfxHZeb9m06GbULo8KtuCIgfUyHt+FTRWms3eH1O6EMR5+x6eSg+ks4O8/QEfWuh4eUVep7vrv9xXK1uafmR7zHvXeOqg5YfUCnVHDDBboI4I0jQdkGM+5PUmpKwdr6EhXMeMLqaOztrKIOTdOXl2gn93HjCnHqcflXT1Q1TVbPSrczTsDIwPkQg/PK4/kPU10YWTjWi1HmfYqGkkeVsrocOrKcA4YEHB9jX0N8ONZn1jw1bi4O6fTZW053xjekSK0ZPvtIB+nvXgF1c3N/dTXMzF5p3yfx4CqPQdBX0X4H0CTw94fs7SfH2ydmvLwDossoH7vP+yAAfcGvtVeyvuegdNRRRVAFFFFABRRRQAUUUUAFFFFABRRRQAUUUUAFFFFABRRRQAUUUUAFFFFABRRRQAUUUUAFFFFAHzh8Qbe5t/F2veeG/fyxXELH+KJ4l2kH0GCPw9qztE0ux1Zpbd7t7e7X54hsVkljHUDkHcP89K9f+Kei6feaE+sSEx3ulmNYpFUHzYppVjML+2TkenP96vConljkjkiZllRlaNkJDBgeCMVnUjKUWoOz7id2tD1q0gktbaC3eeS4aJdnmygB2A6Zx6dKnrD0HWpdSjMF1DJHeRLln2MI5lHG7OMBvUf5G5XxNenOnUcam558k09QooorEQjKrqyOqsjDDKwDKw9CDxXN6h4WjLm60iY2dyvzCMMyxMf9hhyv8vpXS0VvRr1KLvBlRk47HGQeJdY0yb7JrVs77eN+Ak2P7wI+Rh/nNdTZahp+ox+ZaTrIAPmTpInsyHmnXllZX8Jgu4VlTnbnhkPqjDkGuI1Pw9qWkSfbdOklkgjO4PESJ4R/theo9xXfGOHxenwT/B/1/VzRcs/Jnf0VxuleL/uQaqvoouol6e8qD+Y/KuwilhmjSWGRJInGUeNgysPYiuKvhqmHdpr/ACM5Qcdx1FFFcxJzPjKBZNOtp8fNb3IXPfbKpBH5gVwNeieLpFTR2Un5pbmBVHrt3Mf5V53X1mVNvD692dlH4Ta8L24uNZs933YBJcEe8a8frivSq878ISImsIrHmW2uI192wH/oa9Erys2b9uk+xjW+IKKKK8gxCmvJHEjySuiRoMs8jBVUe5PFYuq+JNO03dFHi5uxx5cbfJGf+mjj+Q/SuTDeIfE9xs3M0atkj7lrAD3OO/5mvRoYCdRe0qPlj3ZrGm3q9EdBqPi+0hJh06P7TLkr5jhlhB6DaB8x/Sq1vo+va2yXOs3MsNsSGSAfK5HUbY/ur9SM1s6V4e07Swkm0T3YAJnkA+U/9Ml6D69a2KqWJpUfdwy/7ee/y7A5qOkCtZ2Njp8XlWkCRLxuI5dz6u55NWaKK86UnJ3k7sy3CiiipAK5DXdEtEN3qt/qU7K2RFFsTezn7kKHOMfh711F5dRWVvNcyrIyRj7sSl3YnoABXmmr6nqGpziW5DRxjIt4cEJGvtnqfU/5Hr5ZRqynzRdl1/yRtSi27oz445JZI4o1ZpJHWONVGWZmO0KB6mvq+xjmhsrCGZi00VrbxyseS0iRqrH868V+FGiafqOq32pXWXl0cW0lrCQNnmzeYBKxPddvyj1Oe1e5V9SdgUUUUAFFFFABRRRQAUUUUAFFFFABRRRQAUUUUAFFFFABRRRQAUUUUAFFFFABRRRQAUUUUAFFFFAGX4h0ldc0XVdLLBWu4CsTsMqkykSRscdgQM18x3tlf6Zd3FneQyQXVtIUkR+CrDoQfQ9Qa+sK8m+MWnStHoOqJGDHE1xZ3DqgyDJtkj3sOccNj/6/IByug+KEdY7LU5NrgBIbpuj46LMfX0P5+tdd6EYIPII5BHqCK8itDZCeP7asxtycSeQyiRR/eG4EV6Zo8enR2aDT7qW4tiQVMsvmGPjG0LgFfpivmczwtOk+eGl/u/4ByVoJao0aKKK8UwCiiigAooooA5nWvC0F55lzp4SG6OWeLpFMevHo36fTrXK2Op6todw6LuXa+2e2nB2MR1yp6H3FeoVk61odrq8WfljvEXEM+OoH8EmOo/l+h9fC4+y9liNY/kbQqfZlsSaVrNhq0eYW2TqMy27n51919R71pEgAkkAAEkk4AA5JJNeSyR3+l3ZVvMt7q3fIKnBBHQqR1Bq5f+IdY1GJIJpVSIKBIsC7BKR/FJj+XT2replPNNOlL3X/AF8y3Ru9Niz4m1ePUrpIbdt1pablRh0lkP3nHt2H/wBesCiivdo0o0YKEdkdEUoqyJrW4ltLi3uYjiSCRZF9ypzg/WvU9P1C11O2jurdhg8SIT88T90YfyryarVlf32nS+daTNG/AYDlHHo6ngiuPHYJYmKa0kjOpT5z1aee3tonnuJUiiQZZ3OAPYe9cLrPiq5u/Mt7DfBbHKtJ0mlH1HQe3/6qydT1fUNVkV7lwEQfu4o8rEhxgkKSeTXQeHvDQcR3+pRnacPb2zj7w6h5R6eg/wAnhp4Wlgoe1xGr7GahGmuaRS0Tw1cahsurzfDZE5XtLP8A7meg9/8AI7y3t7e1iSC3iSKFBhUQYH1J6k+9S/8A6hRXlYrF1MTK8tuxjObnuFFFFcZAUUUUAFFFIwBVskqNpywO0qMdc9qAMzVtbstJjO9hJdMv7q3U/Mc9DJjotec3t9eajcvcXLl5HOFUfdReyIo7Vo66mgxTOljPdXNyXzPNJKJIge4DYyT6nOP6anw506W/8V6UwiDw2Pm3lwWXciqiFVJzxncVx/8AWr67AYWnShzpavqztpwUVc9O+Gfhy70PSLi7vUMd5qrxTeUwIeK3jU+Wrg/xHLEj3Hfp3lFFekahRRRQAUUUUAFFFFABRRRQAUUUUAFFFFABRRRQAUUUUAFFFFABRRRQAUUUUAFFFFABRRRQAUUUUAFVdQ0+x1SzurC+hWa1uUMcqNxx1BUjkEdQatUUAfO3jDwNqPhd/tSOLnSZZRHDcZUSxu2SI5k9eDyBg+3SuZsLrULSdGsp2ilcheGCq/orhvlx9a+mfEWi2/iDR7/S5m2faEBhkxnyp0IdHx7Ec+2fWvm3V9F1jQrqSz1K1khkUkIxBMUqj+OKToRUyipKzA9D0qfWpoSdTs44HAGx0dT5ue/lqTj860K8usNd1jTgqQXBaIdIZh5kY+gPI/Aiuw0XxDc6pIkL6dIvXfcQkmBcDOW39PzNfL4vL6lNuokreX/BOOdNrU6GiiivJMQooooAKKKytZ1q20mBuVe8dT5EPU57PIOyj9f5aU6cqslCCu2NJt2RzHjK5hlvra3QKXtYcSuMbt0h3BCfYfzrl6fLLLNJLNKxeSV2d2bqzMck0yvtcPS9jTjT7HfGPKrBRRRW5QUUUUATWsqwXNrMyK6xTRyMjAEMqsCQQa9cSSOVI5Y2DRyosiMOQVYZBrx2uu8Ma/HAq6bfSbYs/wCizOflTJyY3J7eh7fy8fNMNKrBThuvyMK0HJXR21FFFfLnIFFFFABRRVLUr6TT7f7QtnPdc7SsGPk9GfqcfhVQi5yUY7sEr6FqVpVilaGMSyqpMcZcRh27AuQcV59r1/4jd/Jvx9lifJW2idMFRxl9rFj+NLe+LdauNyQ+XaIeMQjMv0Mj8/kBWJHFe31wscST3N1O2FVFeWWRj6AZJr6XAYGVF81RL83/AJHXTpuOrNDQPD+reI74WGnIhcJ5s0krbYoYgQpdz17joCa+g/C3hbTfC1iba2/e3U21726dQHncZwAOyj+Ef1Oaxvh34RuPDljcXWoKq6nqIj8yMEMbaBMlYiw4yc5b8B2rua9k3CiiigAooooAKKKKACiiigAooooAKKKKACiiigAooooAKKKKACiiigAooooAKKKKACiiigAooooAKKKKACiiigAqG6tLK9iaC8toLiFs7o7iNJEORj7rgipqKAPnLxz4XuvD2sXbR27LpV5M81hKinykVzuMGRwCvQD0AP05+01PVLDi0u5olJyUVsxk+uxsr+lfTWuX/h/T9Pnl1x7YWTAq0dyiyCY4zsSIglj7Yr518Saj4e1G9Mmh6Oum2qbh/rHZ584wzRlii+wH/wCqZRUlaSuhWvuSJ4u19cbntpMf34VGfrsxXX6LfapeW7TajDbwbtvkbCVaRTklmRmJA6YrzCl3N/eP5muCvl9KrG0Eo+djOVJNaHr0l1ZxDMlzboPV5ox/M1m3HiPw/bA5vFlbn5bZWkP5j5f1rzPax6A/kaQgjqCPrXLDJ6a+KTf4Eqgup1l/4yupQ0enwCAHI86XDy4/2V+6P1rlpJZZpHlld5JHOXdyWZj7k0yivUo4enQVqasaxio7BRT445ZXCRozuegUZNa1vojHDXMm3/Yj5P4seK2bsd2FwNfFO1KN/Pp95jUV1Uem6dGOIFY+shLH9eKl+y2f/PvB/wB+0/wpcx7kOG6zXvTS+9nIUV1b6fp8g5t0HumVP/jtUJ9EQ5NvKQf7svI/76H+FHMjnrZBiqavC0vTf8TDoqae2uLZts0ZU9j1VvoRxUNUeDOEoScZqzNrTPEmqaaFi3C4tl4EU5J2j0R+orqrXxbok4UTma2c9RIu9M+zp/hXndFcFfAUKzu1Z+RjKnGR61DqOlz48m+tXzzgTID+RINSyyN5UrW7QPMEYxK8gCM4HAYqc4ryClBYdCR9DXC8nje6n+Bn7Bdzp7rxV4jglkhlgtoJEJBUwkkfizEGs248Ra/cgq97IiEYKwBYgfxQA/rWSST1JP1qzYz2tvdW811ZpeW6NmW2kkliWVfTfEQwr04YWjDVQV/Q1UIroSaZpmp6zewWNhA89zO+ABkhQTy8jdAo6kmvpXQfD+laDY2dta21us8VvHHcXKRIstxIFAd3cDccnnrWN4K1rwTqFr5Og21tp9yBuuLHaiXGR1bd1ce+T74rsK6iwooooAKKKKACiiigAooooAKKKKACiiigAooooAKKKKACiiigAooooAKKKKACiiigAooooAKKKKACiiigAooooAKKKKACuc8WeLdM8LWYlmxNfTqwsrNWAeQjje57IO5/Ae1/X9asvD+l3mp3ZykK7YowcNNM3CRL9f5ZPavmnV9W1DW9QutRv5TJPO2cfwRoPuxxjso7f4nkAk1rXdX8QXj3upXDSycrEg+WKFP7kSDgD+ffNVLazubpsRJ8oOGduEX6mrOnaebo+ZJlYFOOOC5H8I/rXRIiRqqIoVFGAqjAFS3Y+iyzJpYpKrW0j+L/AOAZsGjWqAGZmlb0Hyp+nP61fjt7WLiOCJfogz+Z5qWioufY0MFh8OrU4Jfn9+4ceg/KmuItrNIE2qCWLgEADqeadWDqmoCUtbQH92D+8Yfxkdh7UJXIx2Mp4Ok5z36LuzNuHjknneNQqM7FFAwAPpUlnZy3kmxOEXBkc9FH+PpVaursIEt7WFR1dRI59WYZ/wDrVbdj4nLMH9fxDdTZav8AyJLe2gtU2QrjpuY/eY+rGpqKKzP0KEI04qEFZIKKKKCgooooAZJHHKjRyIroeoYZrndQ05rU+ZHloGOMnkoT2b+ldLTXRJEeNxlHBVh7GmnY83MMvp42nZ6S6P8Aroc1pi2slyI7hAwdSIwxIG/qM4roRaWS9LaEf8AX+tcrNG1vPLHk7opCARweDwa6HTr9btNjkC4QfMP74H8Q/rVS7ng5HWoxbwtaK5r6Oy18iybWybrbwn/gC1Xk0rTpM4iKH1jYj9DkVeoqbn1E8JQqK04J/JGBcaLMgLW7iQf3W+V/w7VlMjozI6lWU4IYYI/A12lVruzt7tMSDDgfJIB8y/8A1qpS7nz+N4fpzTlhtH26f8A5i3uLm1mhuLaWSGeFxJFLExV0YdCrDmvbvA3xCi1nydJ1lki1XAW3n4SK9x/DjoJPboe3pXiVzbTWspilHPVSOjD1FRKzoyOjMrowZGUkMrA5BBHOao+MnCVOThNWaPriiuI+H3i4+ItPa0vXB1fT0UTk4BuYfurOAO/Zvfn+Ljt6ZAUUUUAFFFFABRRRQAUUUUAFFFFABRRRQAUUUUAFFFFABRRRQAUUUUAFFFFABRRRQAUUUUAFFFFABRRRQAUUVW1C7jsLHUL6THl2drPctk4GIkL4/SgDxL4p6+2o6yukQuTaaQNsgB+V7xxlyf8AdGFH4+tcHaW7XU8cK8Bjlz/dUck025uJru4ubqZt01zNJPK3q8jF2P61s6JAFimnI5kby1/3V5P+fak9EejluF+t4iNN7bv0X9WNVESNEjQYRAFUDsBTqKKyP01JJWQUUhKqGZiAqgliTgADuTWBqGqNNugtyRD0d+hk9h7U0rnDjsdSwUOae/RdWSalqe7fb2zfL0kkH8X+yvtWNRRWiVj86xeLqYuo6lR/8AK6fTLlbi2jXP7yFRG474HAauYqWCea3kWWJtrD8iPQihq505Zjngq3O1eL0Z2FFZ1rqtrOAspEUvTDH5CfZq0RyARyD0I6VmfodDE0sRHnpSugooopHQFFFFAgpCQASTgAEknoAOc0yWaCBd00ioP9o8n6DrWFf6o1wGhgBWE8Mx4Z/wD61NK55+NzCjg4tzfvdF1KN1KJrm4lH3XkYr9OgqOOSSJ1kjYq6nKkdjTaK1PzWVSUpuo927nUWF/HeJtOFnUfOvZsfxLV2uMR3jZXRirqcqR1BrorDUo7oCOUhbgfgsnuvv7Vm42PtsqzhV7Ua7tLo+//AAfzNGiiipPpSpfWi3cDLj96mWib/a/u/Q1yxBBIIwQSCD2IrtK5vV4BFdeYows67/8AgQ4b/H8auL6HyXEODTisTFarR/o/0JfDmtXGgaxp+pxFisMgW4QH/W27/LIh+o6e4HpX1BDNFcQwXELBop4o5omHRkdQykfUV8k19C/DPU21HwtZxyNul02WWwb12JiSPP0VgPwqz407SiiigAooooAKKKKACiiigAooooAKKKKACiiigAooooAKKKKACiiigAooooAKKKKACiiigAooooAKKKKACuS+I10bXwhrZBIa4FvajHpLMgYflmutrz/4suV8LxKDgSapaIR6gRyvj9KAPBq6yxQR2dov/TMMfq3zVyddjDxDB6CKP/0EVEj6rhuKdWpLsl+f/AJKjmnht0MkrhVHT1Y+gFUrvVba33JFiWXphT8in3YVgT3E9y5kmcs3YdAo9FFJRuetmGdUsMnCl70vwXr/AJFm+1Ga7O0ZSAHhAeT7sao0VNb21xdPshXJ6sTwqj1Y1ex8RUqVsXVvK8pMhpyRySHCI7H0VSf5V0NtpFrEA0376T3yIx9BWiqqgCoqqo7KAB+lLmPfw3DtWa5q0uXy3f8Al+ZyYsb8jP2ab/vg1G8NxF/rIpE/3lYD8zXY0HkYPIPY8ilzHbLhunb3ajv6HFVNFdXUH+qmdR6A/L+R4rfutKtJwTGBDL2ZB8pP+0tc/cW81tIY5Vw3UHqGHqDVJpnz+Ly/E5fLnvp3X9aF1NZv1+95b/7yYP8A47ipBrlz3hiP4sP61k0UWREc0xkdFUf5/mara3eH7scI/Bj/AFqvJqmoycedsHpGAv6jmqVS29vNcyLFEMsep7KO5JoshPH4yu1Dnbb6L/gDGaSRsszOx4ySWJ/OrcOl6hMARFsU9DKdv6df0rdtLC2tFBUB5f4pGHP/AAEdqt1Ll2PoMLw8mufEy17L9WYA0O6xzNCD6fOf6VE+jaggJURv7I/P5NiukopczPQlkGDask18zjZIZoW2yxuh9GBH5UwEgggkEHII6g12bxxyqUkRXU9mAI/WsW90fAaS0yQOWiJycf7BqlI8LG5DVoLnovmX4/8AB/rQfYasDthuzg9FlPQ+z/41s+h7HpiuKIIJBGCOCDV+y1Ke1wj5kh/uk8r/ALppOPY3y3PHTtSxWq79fn3/ADOmrK1uPdbRSd45cfgw/wDrVfgube5XdC4b1Xoy/UVW1YZsZvZoz/49Urc+hx/JXwVRxd1Zv7tTma9c+Dd027xJZHO3FndKM8A/vI24/wC+fyryOvSfg/IRr2qxZ4k0l3P1S4hA/nWp+ZnuFFFFABRRRQAUUUUAFFFFABRRRQAUUUUAFFFFABRRRQAUUUUAFFFFABRRRQAUUUUAFFFFABRRRQAUUUEqoLMQFUEkk4AA5JJNAASACTwByc14n8UfFVlqclpomnTxz21pKbm8miIZGuQGjWNHHB2gnOPX/Zpnj34gT6nJcaPoszR6YhaO5uYyQ96w4Kow6R/z+nB81oAKla5umRYmmkMajAXccY9MVYj0vUJI/MWLAxkKxCsw9gapkMpKsCCCQQeCCOxpHRKnXoK8k4qXqriUUU5EeR0jQZZ2CqPUnimYJNuyLFlZyXkuxeEXmR+yj/H0rp4YIbeNYol2qPzY+rH1plrbJawpEvJHLt/ec9T/AIVPWbdz9FyvLY4OnzSXvvfy8kFFFFSewFFFFAwqteWsd3C0bYDjJiburf4HvVmimZ1acasHTmrpnGOrIzowwyMVYHsRxTa1dagCXCTAcTL83++vB/pWVWi1Py7F4d4avKi+j/4YK6jTrQWsC5H72UB5D3HcL+FYOnwia8t0Iyobe30T5q6upk+h9Jw7hU+bES6aL9QoooqD7AKKKKACiiigDK1TTxKrXEK/vlGZFH/LQDuB61z9drXN6taC3n81BiKbJAHRX7j+tXF9D47PcuUV9apL1/z/AMygjyRsGRmVh0Kkg/mKsS397PF5Msm5Mgn5VBOOmSBVWpre3muZViiALHJJPAUDuTVHzVGpW/hUm/e0supDXR+C/EA8Oa7aXsnNpKptL7Aywt5SpLr7qQG/DHes240m7gTepWVQMt5edy++DWdRuKvhquHly1Y2Z9Z2t1Z3tvDdWc8U9vMoeKWFw6MPYipq+a/Cfi/VPC92HiLTafKw+2WbN8jj+/HngOOx/A+30Rpmpafq9ja6hYSiW2uU3ow4IPQo47MDwRTMC5RRRQAUUUUAFFFFABRRRQAUUUUAFFFFABRRRQAUUUUAFFFFABRRRQAUUUUAFFFFABRRRQAV5f8AFLxW9lAvh6wlK3N3GJNRkQ4aO2b7sOR3fqfb/er0bUb620ywv9QuTiCzt5biT1IRc7R7noPrXy3qV/dapf32o3Tbp7yd55D2G48KPYDAH0oAqAEkAAkk4AHUk10On6YkAWa4UNOeVU8rH/8AXqvo1mGJu5BwpKwg/wB7u34dq3KiT6H2WSZXHlWJrK7ey/X/AC+8K53WYRHcrIowJk3H/eBwf6V0VY2ur8lo3+1Iv6A0o7npZ5TU8HJvpZ/jb9TDrX0W3DSS3DDiIbE/326n8B/Osiun0uPy7KDjmQtIfxOBVS2Pl8joKti03tHX/IvUUUVmfoQUUUUAFFFFAwooooEZetqDaxN3SYf+PKa56uj1ogWaj+9MmPwDGucrSOx+f5+l9cduyNTRADdSH+7C36kCuhrndFbF2y/34XA+oINdFUy3Po8gt9TVu7CiiipPdCiiigYUUUUCCqmoQCe0nXHzIPNT6rz/AI1bowDweh4P40zOtSVanKnLZqxxVb+iRAQzzY+Z3EYP+yoz/WsOZPLlmT+5I6/kcV0ekjFjD7tIf/HiKuWx8LkNK+N977Kf+X6l+snUtNWQPcW64kGWkRejjqSB61rUVGx9risLTxVN06i/4HmcVXc/DvxY+g6mthdyH+ytSkSOTcfltrg4VJxngDs/tz/DXM6vaCGUTIMRzE5A6LJ1I/HrWZWm5+ZYrDzw1WVKe6PrmiuQ+HmvNrnh2289y17pzfYbkk5ZwgBjkP1XGfcGuvpnOFFFFABRRRQAUUUUAFFFFABRRRQAUUUUAFFFFABRRRQAUUUUAFFFFABRRRQAUUUUAedfFrU2tdBs9PRiG1O7AkwcZgtwJGH/AH0UrwxVLMqjqxCj6k4r0v4wXJfWtHtcnFvppmx23TzOD/6CK8+05A97agjID7j/AMBBaka0aftakafdpfedNDEsMUUS9I0C/UjqakoorI/WIxUUox2QVj66f3VoP9uQ/oK2KxNdb5rRfRZGP4kCqjueVnUrYKfy/NGLXXWgAtbQD/njH/KuRrq9PcPZWpHZNh+qkiqkfP8ADcl7aa8v1LVFFFZn24UUUUCCiiigAoopCQASTgAEknoAOc0AYuuSj/RoQeQGlYfX5R/WsWrF7cfabmaX+Enansi8Cq9arRH5hmOIWJxM6i2vp6LQsWU3kXVvIegcBv8Adb5TXW1xVdRptyLm2TJ/eRYjk9TgcN+NTJHvcO4lJyw8uuq/Uu0UUVB9iFFFFABRRRQAUUUhIUFj0UFj9AM0Btuclef8fd3/ANd5P/QjXQaSc2MPs0g/8eJrmpH3ySP/AH3ZvzOa6HRm3WbL/cmcfmAa0lsfDZJUTx0muqf5pmlRRRWZ9yVb+ET2lwmMsq+Yn+8nNcpXa4B4PQ8H6GuMkXa8i/3XZfyOKuJ8bxJSSnTqrrdfd/w56F8JtTNr4guNPZsR6naOqjsZ7f8Aeqfy317rXzD4SuTaeJvDU47anaxt2+WVxEf0NfT1WfJhRRRQAUUUUAFFFFABRRRQAUUUUAFFFFABRRRQAUUUUAFFFFABRRRQAUUUUAFFFFAHgvxZDDxTGT0Ol2hX6b5RXHaV/wAf1v8A8D/9BNeh/GK0KaloV8F+Weylti3q0Eu/H/j9ea2cnlXVq56CVc/QnBpPY6cJNQxFOT6NfmddRRRWR+rBXOay+67C/wDPOJF/E5b+tdHXI3kvnXVzIOjSNj6DgVUdz5viKry4eMO7/L+kQVuaJcArNbMeQfNj9weGFYdSQyyQSxyxnDocj0Psatq58lgMU8JXjV6dfQ7GioLW5iuolkjPPR17o3oanrI/TadSNSKnB3TCiiigsKKKKACsnV70RobWM/O4/ekfwr/d/Gpb/Uo7YNFEQ1weOORH7n3rnGZnZmYksxJYnkkmrij5fOs1jCLw1F6vd9vL1Eoooqz4kKs2V09pMsg5Q/LIv95T/X0qtRQaUqkqU1Ug7NHZxyRyokkbBkcZUinVy9jfy2bY5eFj86Z6e6+9dHBcQXKCSFww7j+JfZhWbVj9Fy7M6eNjbafVf5eRLRRRUnqhRRRQMKztWuRDbGMH95P8gHcJ/Ef6VbubmC1jMkp/3VH3nPoBXLXNxLdTPLJ1PCgdFUdAKqKPn86zCOHpOjB+/L8F/WxDW3oT8Xcf+5IP1U1iVoaRL5d7GD0lVo/xIyP5Vb2Pk8qq+yxlOT72+/Q6Wiiisj9LAdRXGzHM059ZHP5sa66aQRQzSHokbN+Q4rjjzk+tXE+Q4lmv3cPV/kX9FDHWNDC53HUrEDHJz56YxX1VXzN4LtDe+KfDcO0sFv4rhgP7tvmcn/x2vpmrPkAooooAKKKKACiiigAooooAKKKKACiiigAooooAKKKKACiiigAooooAKKKKACiiigDhvifpJ1Hw1LcxqWm0qZL1cdTCf3co/AHd/wABr5/r62liinilhlRXimjeKVGGVdHBVlI9CK+ZfFOg3HhzWb3TnDGAMZrKQ9JbVyShz6j7re4NAGhZTi5toZM/NjZJ/vrwf8as1zOmXv2WUq5/cy4D/wCyezf410wIIBByCAQRyCD3FZNWP0rKsasXQTb95aP/AD+ZXvZhb2s8medpVP8AebgVyVausXYlkW3jOUiJLkdDJ0x+FZVXFaHyWeYtYjEckXpHT59f8vkFFFFUeESwXE9s4kiYq3cdQw9CK3LfWLWQATgxP3PLIfxHNc9RSauejg8yr4PSm9Oz2OxSa3kGUljYezrTi8YGS6Ae7KK4yip5T3FxLK2tPX1/4B1UupafCDmYO392L5z+Y4/Wsi61i4mBSEeUhyCQcuR9e1ZlSQwyzyJFGuXY4HoPc0+VI8/EZzi8V+7hpfot389/uGqryMFUMzscADJJJrVt9FlbDXL+WP7iYL/ieladnYw2aDaA0pHzyEcn2X2q3Scux7GByCEUp4rV9ui9e/8AW5Tj03TogMQK59ZSWP68fpVgQWw4EEI/7Zp/hUlFSfRQw1GmrQgl8kQPZ2T/AHreE/RAD+YqlNoto4JhZ4m7A/On5Hn9a1KKLmVbA4asrVIJ/LX70cnc2V1aH96mUJwHXlD+NQxyywsHidkYd1OPzrsWVXVldQysMMrDII9xXPajppt8zQgmAn5h1MZP9KtSufJZjk08L+/w7bivvRLBrcqgC4iD/wC0nyt+I6VdXWNOYctInsyE/wDoOa5qijlRy0c8xlJWb5vVf8MdM2r6aBxI7eyxt/XFU59b4It4sH+/Lzj6KP8AGsWijlQ6ue4uorJqPov87j5Zpp3Mkrs7Hue3sBTKKKo8WUnJ80ndhTkdo3R1+8jBh9Qc1MllfSDKW8pHrtIH60yW3uIMebE6Z6blIB/HpQaexqwXtOVpd7M62ORZY45V+7Iocfj2p9Yuj3i4+ySNg5JhJPBz1T/CtW4nitomllOAOg7sfQVk0fpOExtOvh1Xbtpr5PqZ+s3ASFLdT80p3Njsi/4n+Vc/UtxPJczSTP1Y8DsqjoBSQQT3M0FvBG0k88iRQxoMs8jnaqge9aJWR8BmOM+uYh1FtsvQ9M+EOkmbUdT1mRT5dlALSBiODPPyxH0Uc/79e01ieFdCj8O6JYaaMGZVM1246PcyYZz9Bwo9gK26Z54UUUUAFFFFABRRRQAUUUUAFFFFABRRRQAUUUUAFFFFABRRRQAUUUUAFFFFABRRRQAVynjfwpF4o0zbEFTU7MPLYSNwGJHzQOf7rYH0IB+vV0UAfJU0M9vNNbzxtHNBI8UsbjDJIhKspHqKkS9vY4vJSd1j5GAegPYHrXS/EWwNh4t1jAwl4Y7+PjGfPUFj/wB9Bq5KguFSdN3g2vQOSfUmtODRruRQ0jJEDyA2S+PcD/GjR7dZbhpWGVgUMAem88D+tdFUN2Ppsoyiniaft6+z2X6mE2hSgfJcIT6MjL+oJqjcWF5bZMkZKD+NPmX8SK6uilzM9WtkGFmv3d4v7/z/AMziqK6G80mGbdJb4jl5JXojn+hrAkjkido5FKupwQ3UVadz5HG5fWwUrVFp0fRjaKKKZ54V0mlWgggEzD97OA3+6nUD8etYNrF59xbxdnkUH6Zya6/jt0HT6VEmfVcO4VTnLES6aL16/wBeYUUUVB9oFFFFAwooooEFIyq6sjAFWBVgehB7UtFANX0Zyd7bG1uJIv4fvRn1Q9KrVv63FuhhmA5jfYT/ALLcisCtU7o/MszwqwuJlTjtuvR/1YKKKuWNjJeP3WFT+8f/ANlX3pnHRozrzVOmrtkdraXF2+2JflGN7twqj3NdDa6daWoBCh5e8jjJz/sjoKsxRRQoscShUXoB39yfWn1m5XPv8vyilhEpT96fft6f5hTWVHVkdQyMMMrDINOoqT2mk1ZnKX1sbS4eMZ2HDxH/AGT0/LpVd5JZNu93bbwNzE4+ma3NciBhgmA5RzGT7MMj+VYNarVH5pmeH+q4mdKPwvVf15BXsXwx8HNCIfEupRjzJEJ0mFhkojAqblh6kcJ7c9xjyK3gkubi2togTJcTRQRgckvIwQDH419W2VtHZWdlZx/6u1toLZMf3YkCD+VM8wnooooAKKKKACiiigAooooAKKKKACiiigAooooAKKKKACiiigAooooAKKKKACiiigAooooAKKKKAPKfjBpJkttH1qNSTbu9hckf3Jf3kZP0IYf8CrxyvqPxJpS63oer6aQC9xbP5BIzieP95GfzAr5dZWRmRwVZGKsDwQQcEGgDe0MDyLhu5lA/Jc1rVkaGwMNyncSK34EY/pWvWT3P0rKLfUqdu36sKKKKR6gVTvrGK8Tssyj92/8A7K3tVyimZVqMK8HTqK6ZxskckLvHIpV0OCDTK6PVbMTxGZB++hGTjq6Dkj8O1c5Widz83zHAywVbkeqez8i/pIBvofZZD/46a6auV02QR3tqxOAX2H/gQK11VRLc+q4dkvq0l/e/RBRRRUn0YUUUUDCiiigQUUUUAUtVANjcZ7GMj/voVy9dJrDhbMrnmSRFH/AfmNc2ASQAMk8ACtI7HwfELTxaS6RX5ss2dpJdzCNeEHzSN/dX/H0rqYoo4Y0ijUKiDAA/mfeq9hai0t0Qj94+HlP+0e34VbqW7n0eUZesJS5pL35b+Xl/n5hRRRUntBRRRQIo6qu6xuP9kxsPwYVzFdTqZxY3PvsH5sK5atI7HwnEVvrMf8K/NnZ/DbSTqfiixkZcwaYrahKccbo/liHP+0Qfwr6Grzr4TaR9j0O51SRcS6rOfLJHP2a3LRr+bb/0r0WqPnAooooAKKKKACiiigAooooAKKKKACiiigAooooAKKKKACiiigAooooAKKKKACiiigAooooAKKKKACvmHxZZHT/EniG1IIC6hPJGMY/dzN5yY/BhX09Xivxd0hoNS07WY1/dX0P2WcjtcQcqT9VwB/uUAcJosoS5eM9JoyB/vL8w/rXQ1xsMrQyxSr96Ngw/DtXYRukqRyIcq6hl+hqJH3PDuIU6LoveL/B/8EdRRRUH0wUUUUAFcrqNv9mupFUYR/3kf+63b8K6qsnW4t0MMwHMblD/ALrDNVHc8LPMOq2Fc+sdf8/68jBBKkEHBBBB9xXXWs63MEUwxlhhx6OOCK5Cr+m332SQq+TBIRv/ANk9mA/nVSVz5nJscsJW5Z/DLfy7M6aikBVgrKQVYZUjkEHuDS1mfoW+oUUUUAFFFFABRRVDUb9bSMohBuHGFH9wH+I/0pmNevDD03UqOyRmaxcCW4WFTlIAQcd3PX8ulM0m3E10rMMpCPMPoW6KP8+lZ5JJJJyScknua6LRoglq0mOZpD/3ynyj+tW9EfDYG+YZh7Sfr92y/I06KKKzP0AKKKKACiiigRl61IFtY4+8ko/JRn/CuerQ1a4E9yUU5SAeWD2LZyx/z6Vf8H6S2teItHstu6ETrcXXoLeD94+frjH41otEfm+cYhV8XJx2Wn3f8E+hfDlkdO0HQbJhh4NPtVkHT94UDP8AqTWrRRVHkhRRRQAUUUUAFFFFABRRRQAUUUUAFFFFABRRRQAUUUUAFFFFABRRRQAUUUUAFFFFABRRRQAUUUUAFYninQovEWiX+mttEzKJrR26R3MeSjHHY8g+xNbdFAHyVPDPbTT288bRzQSPFLG4wyOh2spHtWrpF8FxaSnAJJhY9AT1U/XtXpPxN8GvOJPEmmRZlRB/asEa8uijAuVA7gcP7c9jnx3pSep14PFTwlVVYf8ADo7WisjT9UVwsFy2HGAkh6N7MfWtes2rH6ThcXSxdP2lN/5r1CiiikdYVT1JQ1jdD0VWH1VgauVT1Nwljc5/iCoPqWFNHJjbfVql/wCV/kctRRRWp+Vl6y1Ge0+Q/PCTyhPI91Nb9veWlyB5Ug3d0bhx+BrkqASORwfapcbntYHOK+EXI/ej2f6M7WiuUj1DUIgAs7kDs+GH/j1WBrOoD/nkfqn+BqeVn0UOIsM17ya+7/M6OkZkRSzsqqOpYgD8zXNPq+ot0kVf9xFH86qSTTzHMsjuf9pifyp8plW4jopfuoNvz0/zNq71iNAUtfnfp5hHyr/ug9aw3d5GZ3YszHLFjkk02iqSsfLYzH1sZK9V6dF0QV1tioWztB/0yUn6t81clXW2TBrS0I/55KPxX5aUj2uG7e2n3t+pYooorM+2CiiigArP1O+FrGY0P7+QYGOqKeN3+FPvb+K0UjhpyPlT092rmpJJJneSRizuckmqSufOZxmqoRdCi/fe/l/wfyGV7l8K/DjadpsutXUe261RVW2DD5o7JTkH/gZ5+gHrXAeA/B8viS/FxdIy6PZSK10xyPtEg+YW6EevVvQe5FfQqqiKiIoVEUKqqMBVAwAAK0PhBaKKKACiiigAooooAKKKKACiiigAooooAKKKKACiiigAooooAKKKKACiiigAooooAKKKKACiiigAooooAKKKKAAgEEEZB4IPevG/HXw5lga41jw/AXt23S3dhECXhPVnt1HJXuV7duOF9kooA+RuRkHqOtX7TVLm2ARv3sQ6K5OVH+y1e4+KfhzouvNLeWZXT9Tc7nkjXNvO3rNEO59R+Oa8e1vwf4o0AyNfWMhtkIH2u3zLbEHgEuo4/ECkb0MRUw8uelKzLEOqWEwGZPLb+7KMfqOKuCSJhlZIyPUMp/ka4yip5T6GlxHWirVIJ/h/mdhJcW0QzJNGo92GfyHNYOp6gt0Uiiz5KHdkjBdumcelZtFNRscmOzqri4Oklyp79wooq7a6bdXWGAEcR/jfv/ujqao8ijQqV5clKN2UqUAk4AJPoOa6OHSLGLBcNK3+2cL/AN8iryRwxjEcaIP9hQP5VPMfQ0eHa0taslH8f+Acotpev923mP8AwBsfrUn9nakf+XaT8hXVc0UuY9CPDdH7U3+Byh07UR1tpPwAP8qie3uY/vwyr/vIwH54rsKOaOYUuG6LXuza+5/5HFUV18ttaTAiWGNvfaA35jmsy50VCC1q5B/55yHIPsGp8x5eI4fxFJc1NqS+5/d/wTDrY0rUIolNvO21dxaNz0GeqmsmSOSJ2jkUq6nDA9RTabVzyMLiauDre0huuj/JnaKVcBkIZT0KkEfmKXB9K4xZJU+47r/usR/KnGe5bhppSPd2P8zU8p9PHiWNtaevr/wDq5bm1gBMsyL7ZBY/QDmsm61okFLVSo6eY4+b/gK1jVoaZout6zKYdLsbi6dcbzEnyR54BkkOEH4kU+VHm4rPsRWXLT91eW/3lBmZ2LMSzMckk5JPua67wf4I1PxPMs8ge20iNwJ7plwZcHmO3B6n1PQfoe08NfCiGForvxHKkzqQ62Fux8oEc4nlGCfoOPc16nFFDBHFDDGkcMSqkccahURVGAqqOMVR8/e+rINP0+w0uztrCxhSG1t0CRon6sx6knqTVqiigAooooAKKKKACiiigAooooAKKKKACiiigAooooAKKKKACiiigAooooAKKKKACiiigAooooAKKKKACiiigAooooAKKKKACmyRxyo8cqI8cilHSRQyMpGCrKeMU6igDyXxb8LQxm1Dw0Ap+aSXTWOAT1/0Vm4H+6fwPavJJoLi2llguIpIp4mKSxyqUdGHUMrc19a1geIfCPh7xLHi/t9l0q7Yry3wlynGAC2MEexB/CgD5lortfEPw48TaKZZraM6jYKSRNaKTMi/9NYOWHvjI964oggkEEEEgg8EEdiKALenwxz3cEcnKZLEH+LaM4rquBgDgDgAdAK4xHeN0kQkOjBlI7EV1FlexXkYIwsqj94nofUe1RI+w4dxFKKlRekm7+vl8i3RRRUH14UUUUCCiiigAooqtd3cNpGXfBcg+WmeWP8Ah60yKlSFKDnN2SMrXDH51uBjzBGd+OuM/Ln9ayKfNLJPI8shy7nJ/wABTK0Wh+YY3ELE4idVKybCit/QvCPiXxC6/YLNhbk4a7uMxWy+vzkc/QA17F4Z+G+gaGYrq8xqOoryJJ0H2eFuP9VCcjI9Tn8KZxnnfhP4catrZhvdTEljpRIYbhi6uV6/ukYcA/3iPoD29v0zStL0e0isdOto7e3jHCoPmZu7yMeSx7kmrtFABRRRQAUUUUAFFFFABRRRQAUUUUAFFFFABRRRQAUUUUAFFFFABRRRQAUUUUAFFFFABRRRQAUUUUAFFFFABRRRQAUUUUAFFFFABRRRQAUUUUAFFFFABXP614O8K69ve+0+MXDDH2q2/c3HrkunB/EGugooA+dfGXgi/wDC8/nxeZc6RMwWC5IG6Jj/AMsp9vAPoeh+vA5KOSSJ1kjYq6nII619ZXFvbXcE1tdQxzW86GOWKVQyOp7MDXjXiz4X3tm0194dV7m0OXexJzcwdSfKJ+8o7Dr9etA03F3Rx9prEUmEucRv03j7jfX0rVBVgGUgqehU5B+hFca6PGzJIrI6EqyuCrKRwQQeakhubm3OYZXT2B+U/UHiocex9Pg+IKlNcuIXMu/X/g/gdfRXPx63drxJHE/vyp/Tj9Kl/t0/8+w/7+H/AApcrPcjnmCkruTXyf6G3QSACSQAOpJwB9SawH1y6I/dxRJ7nLH9cVQmu7u4/wBbK7D+7nC/kOKOVnPX4hw8F+6Tk/uX9fI27vV4IQUt8SydN3/LNfx71gSzSzu0krlnPUn+Qpldf4X8Ba74jeKd0az0vIL3c6EGRc8i3Q4LH36e/Y2lY+TxuY1sY/3j07LYxNC0HVfEN/FYafEWc4aaVgRFbx5wZJWHQenr0r3LRPhv4S0gQyzW51C7QKTLfYeMOOcpAPkA9M5+tb+iaDo/h6zWy02ARpw00jYaadwMb5X7n9B2ArUpnniKqIqoiqqKAqqoAUAdgBxS0UUAFFFFABRRRQAUUUUAFFFFABRRRQAUUUUAFFFFABRRRQAUUUUAFFFFABRRRQAUUUUAFFFFABRRRQAUUUUAFFFFABRRRQAUUUUAFFFFABRRRQAUUUUAFFFFABRRRQAUUUUAYGueEPDHiEFtQslFyRgXVsfKuR6ZdRg/iDXnGp/B/Uoyz6RqcE6dVivVaGUe2+MMp/IV7NRQB833Pw/8eWrFW0aeUD+K2eGZT9PLYn9KoHwp4wBIOg6tkcH/AEOc/wAlr6fooA+aYPA/jm4KhNDvRu7zKsIH1MpFdFp3wk8UXDKdQuLKxjOCwDm4mHttj+T/AMfr3SigDi9D+G/hPRmjnlibUbtDkS3wVo1Yd0gHyfnmu0AAAAAAAwAOAAOwoooAKKKKACiiigAooooAKKKKACiiigAooooAKKKKACiiigAooooAKKKKACiiigAooooAKKKKACiiigAooooAKKKKACiiigAooooAKKKKACiiigAooooAKKKKACiiigAooooAKKKKACiiigAooooAKKKKACiiigAooooAKKKKACiiigAooooAKKKKACiiigAooooAKKKKACiiigAooooAKKKKACiiigAooooAKKKKACiiigAooooAKKKKACiiigAooooAKKKKACiiigAooooAKKKKACiiigAooooAKKKKACiiigAooooAKKKKACiiigAooooAKKKKACiiigAooooAKKKKACiiigAooooAKKKKACiiigAooooAKKKKACiiigAooooAKKKKACiiigAooooAKKKKACiiigAooooAKKKKACiiigAooooAKKKKACiiigAooooAKKKKACiiigAooooAKKKKACiiigAooooAKKKKACiiigAooooAKKKKACiiigAooooAKKKKACiiigAooooAKKKKACiiigAooooAKKKKACiiigAooooAKKKKACiiigAooooAKKKKACiiigAooooAKKKKACiiigAooooAKKKKACiiigAooooAKKKKACiiigAooooAKKKKACiiigAooooAKKKKACiiigAooooAKKKKACiiigAooooAKKKKACiiigAooooAKKKKAP/Z;imageBorder=default;fontFamily=Fira Code;" vertex="1" parent="1">
            <mxGeometry x="280" y="170" width="80" height="80" as="geometry" />
          </mxCell>
        </UserObject>
        <mxCell id="HewII5I395oueKauFgrz-9" value="NAS" style="swimlane;whiteSpace=wrap;html=1;" vertex="1" parent="1">
          <mxGeometry x="560" y="80" width="400" height="520" as="geometry">
            <mxRectangle x="570" y="210" width="60" height="30" as="alternateBounds" />
          </mxGeometry>
        </mxCell>
        <mxCell id="HewII5I395oueKauFgrz-11" value="Jellyfin" style="shape=image;verticalLabelPosition=bottom;labelBackgroundColor=default;verticalAlign=top;aspect=fixed;imageAspect=0;image=data:image/jpeg,/9j/4AAQSkZJRgABAQEAAAAAAAD/4QBCRXhpZgAATU0AKgAAAAgAAYdpAAQAAAABAAAAGgAAAAAAAkAAAAMAAAABAAAAAEABAAEAAAABAAAAAAAAAAAAAP/bAEMACwkJBwkJBwkJCQkLCQkJCQkJCwkLCwwLCwsMDRAMEQ4NDgwSGRIlGh0lHRkfHCkpFiU3NTYaKjI+LSkwGTshE//bAEMBBwgICwkLFQsLFSwdGR0sLCwsLCwsLCwsLCwsLCwsLCwsLCwsLCwsLCwsLCwsLCwsLCwsLCwsLCwsLCwsLCwsLP/AABEIAdoB2gMBIgACEQEDEQH/xAAfAAABBQEBAQEBAQAAAAAAAAAAAQIDBAUGBwgJCgv/xAC1EAACAQMDAgQDBQUEBAAAAX0BAgMABBEFEiExQQYTUWEHInEUMoGRoQgjQrHBFVLR8CQzYnKCCQoWFxgZGiUmJygpKjQ1Njc4OTpDREVGR0hJSlNUVVZXWFlaY2RlZmdoaWpzdHV2d3h5eoOEhYaHiImKkpOUlZaXmJmaoqOkpaanqKmqsrO0tba3uLm6wsPExcbHyMnK0tPU1dbX2Nna4eLj5OXm5+jp6vHy8/T19vf4+fr/xAAfAQADAQEBAQEBAQEBAAAAAAAAAQIDBAUGBwgJCgv/xAC1EQACAQIEBAMEBwUEBAABAncAAQIDEQQFITEGEkFRB2FxEyIygQgUQpGhscEJIzNS8BVictEKFiQ04SXxFxgZGiYnKCkqNTY3ODk6Q0RFRkdISUpTVFVWV1hZWmNkZWZnaGlqc3R1dnd4eXqCg4SFhoeIiYqSk5SVlpeYmZqio6Slpqeoqaqys7S1tre4ubrCw8TFxsfIycrS09TV1tfY2dri4+Tl5ufo6ery8/T19vf4+fr/2gAMAwEAAhEDEQA/APXKKKKACiiigAooooAKKKKACiiigAooooAKKKKACiiigAooooAKKKKACiiigAooooAKKKKACiiigAooooAKKKKACiiigAooooAKKKKACiiigAooooAKKKKACiiigAooooAKKKKACiiigAooooAKKKKACiiigAooooAKKKKACiiigAooooAKKKKACiiigAooooAKKKKACiiigAooooAKKKKACiiigAooooAKKKKACiiigAooooAKKKKACiiigAooooAKKKKACiiigAooooAKKKKACiiigAooooAKKKKACiiigAooooAKKKKACiiigAooooAKKKKACiiigAooooAKKKKACiiigAooooAKKKKACiiigAooooAKKKKACiiigAooooAKKKKACiiigAooooAKKKKACiiigAooooAKKKKACiiigAooooAKKKKACiiigAooooAKKKKACiiigAooooAKKKKACiiigAooooAKKKKACiiigAooooAKKKKACiiigAooooAKKKKACiiigAooooAKKKKACiiigAooooAKKKKACikd0jVndgqKCzMxwAB3JrjNY8TySl7bTiUiGVefoz/7noK2o0Z1naJpTpyqOyOjv9a0vT8rNKGl/wCeUXzP+OOlYbeMo93yWLFPVpAG/ICuQJJJZiSxOSSckn1JNJXsQwFKK97U7Fh4LfU9CsvE2k3bKjs1vIeAJsBSfQMOK2wQQCCCDyCOQRXkVbOk6/e6aVjctNa55jY/Mg9UJrCtl+l6X3GM6K3ieiUVXtLy1voVntpA6N1/vKfRh61YryWmnZnKFFFFIAooooAKKKKACiiigAooooAKKKKACiiigAooooAKKKKACiiigAooooAKKKKACiiigAooooAKKKKACiiigAooooAKKKKACiiigAooooAKKKKACiiigAooooAKKKKACiiigApkssUEbyyuqRoCzMxwABTndEVndgqKCzMxwABySTXAa9rj6jIYIGK2UbcDoZWH8Te3pXRh6Eq0rLY2pUnUdugmt67NqTtDAWSzU8DoZSP4m9vQVh0UV9FTpxpx5YnpqKgrIKKKK0IbCiiimZNl3TdSu9MnE0DEqcCWMn5ZF9CPX0r0XT9QtdSt1nt29pEP3o29GFeW1d03UrrTLhZoTlTgSxn7siehHr6VxYrCqsuaPxHNUjfU9QoqtZXttf28dxA2VYcj+JG7qw9as18804uzOcKKKKQBRRRQAUUUUAFFFFABRRRQAUUUUAFFFFABRRRQAUUUUAFFFFABRRRQAUUUUAFFFFABRRRQAUUUUAFFFFABRRRQAUUUUAFFFFABRRRQAUUUUAFFFFABRRRQAUUVzHiXWvs6Np9s/wC/kX9+6n/Vof4QfU1rSpSqy5Yl04OcuVGf4j1s3LvY2rf6OhxO6n/WsP4R7CuZoor6OlSjSjyxPXjFQjyoKKKK2JbCiiigybCiiimZNhRRRTMWzS0fVptLuQ4y1vIQJ4/Uf3l9xXo8M0NxFHNCweORQyMO4NeS10Hh3WTYSi1uG/0SZuCekTnjP0PevNxuF9oueG6/Exkd9RQCCARyDyCKK8EkKKKKACiiigAooooAKKKKACiiigAooooAKKKKACiiigAooooAKKKKACiiigAooooAKKKKACiiigAooooAKKKKACiiigAooooAKKKKACiiigAooooAKKKhurmC0gluJm2xxqWPqfQD3NNJt2Q0r6Ioa3qsemWpZSDcy5WBPfu5HoK85kkkld5JGLSOxZ2PJJPOatajfz6jdS3Mp6nEadkQdFFU6+hw1BUY67s9ejS9lHzCiiiuspsKKKKZk2FFFFMybCiiigybCkoopmLYUUUUzNs7XwxrPnKNOuX/AHqD/RnY/fQfwE+o7V1NeRxySROkkbFXRgyMOoIr0nRdUj1O0VyQLiMBLhB/e/vD2NeFjsNyP2kdmQmadFFFeWUFFFFABRRRQAUUUUAFFFFABRRRQAUUUUAFFFFABRRRQAUUUUAFFFFABRRRQAUUUUAFFFFABRRRQAUUUUAFFFFABRRRQAUUUUAFFFFABRRRQAVwXiTV/t1x9lgb/RrdiCR0kkHBP0HatzxLq32OD7JA2Lm4U7iOscR4J+p7VwdetgcP/wAvZfI9DC0f+Xj+QUUUV652thRRRTMWwooooMmwop8UM07rHDG8kjdFQEn9K2E8La66bzHEhxkI8q7v04/WonVhD4nYxlJIxKKs3djfWL7LqB4z2JGVb6MOKq1pFqSujNsKKKKoybCiiigxbCr2l6hNpt3HcJkp92ZOzxnqP8Ko0UpRUk4vZmTZ61BPDcwxTwsGjlUOpHoakrh/C+rfZ5fsE7fuZm/cE9EkP8P0NdxXy+IoOhPle3Q2jLmQUUUVzlBRRRQAUUUUAFFFFABRRRQAUUUUAFFFFABRRRQAUUUUAFFFFABRRRQAUUUUAFFFFABRRRQAUUUUAFFFFABRRRQAUUUUAFFFFABVa/vIbC1nuZSNsa/KO7OeiirNcB4j1X7ddG3ib/RrZioweJJOhb+grpw1F1p26dTejS9pK3QyLu6nvLia5mOZJWJPoB2UfSoKKK+jSSVkeu9FZBRRRTM2wooopmTYVf0zSrvVJhHENsSkebKR8qD/ABo0rTLjVLkRR5WJcGaTHCL/AI+lejWdnbWMEdvboFRB+LHuzH1rhxWKVFcsdzlqVLaIi0/TLHTYhHbxjcQPMlbmRz6k1doorwZScneRyXuRT29vdRPDPGskbjBVxn8q4XW/D8unlri2DSWZ693hz2b2967+kZVdWVgGVgQwIyCD2IrfD4iVB3W3YadjyKiuh8QaEbBjdWqk2jt86jnyWPb6Vz1fSUqkaseaImwooorUxbCiiimZNgCQQQcEEEEdQRzmvRfD+qjUbTZIw+1W4CSjuy9A/wDjXnVXNNv5tOu4bmPJCnbKv9+M9RXJi8Oq8LLdbCjPlZ6lRUcE8VzDDPEwaOVA6kehqSvmGraM7AooopAFFFFABRRRQAUUUUAFFFFABRRRQAUUUUAFFFFABRRRQAUUUUAFFFFABRRRQAUUUUAFFFFABRRRQAUUUUAFFFFABRRUVxPDawTXEzbY4lLsfp2FNK+iBa6GN4k1T7Fa/Z4mxc3IKjHVI+hb+grgKtX97Nf3U1zKeXb5F7Ig6KKq19HhqPsYW69T2qNP2ULdQooorpKbCiiimZNhViys7i/uIraBcu55PZF7s1QKruyoilnYhVUckk8ACvRdC0hNMtgXAN1MAZm67e4QH0FcuJxCowv16HNUnyouafYW+nW0dvCOgzI5+9I/djVuiivnJScndnDuFFFFIAooooAbJHHKjxyKGR1KsrDIIPY151rmjyaXcZQE2kzEwt/dPXY307V6PVe9s7e+tpbadcpIOD3Vh0Ye4rrwuIdCfk9xNXPKaKtX9lcafdS20w5Q5RuzoejCqtfTRkpK6OeQUUUVRk2FFFFMybOp8Kar5Uh06ZvklJa3JPCv3T8e1drXkSs6MjoSrqwZSOoI5Br0vRdSXU7KOUkefHiO4X0cd/x614WY4flftY7Pc6aFS/us0qKKK8g6gooooAKKKKACiiigAooooAKKKKACiiigAooooAKKKKACiiigAooooAKKKKACiiigAooooAKKKKACiiigAooooAK4vxVqnmSLp0LfJEQ1wR/E/ZfwrpNX1BNNspp+DKwKQL6yHp+XWvNHd5HeRyWd2LMT1JJyTXp4GhzP2j6HdhKV3zsbRRRXtHoNhRRRQZNhRRWroeltqd2qsCLaEh529R2QfWpnNQi5S2RjKVldm14W0jgalcJyci1Vh27yEH9K66kVVRVRAFVQFUDgADgAUtfNVqrrTcmedKTk7hRRRWJIUUUUAFFFFABRRRQBka9pK6lakoB9qhBaE/3u5Q/WvOWVlZlYFWUlWB4II4INeu1xnirSdjf2lbr8jkLcqB0bs/4969fL8Tyv2UtuhjUjpc5SiiivdORsKKKKDJsStXQtTbTb2NmP+jzERzj0U9G/CsqipnBVIuMtmZ8zi7o9fBVgrKQVYAgjoQeciiub8K6p9ptzYzNma2H7sk8vF2/Kukr5KtSdKbg+h69OanFSQUUUVkWFFFFABRRRQAUUUUAFFFFABRRRQAUUUUAFFFFABRRRQAUUUUAFFFFABRRRQAUUUUAFFFFABRRRQAUEgZJ6DrRWF4l1L7FZmGJsXF1lFx1SP+Jv6CrpwdSSiupcIOclFHMeINSOoXrKjf6NbExxejEfeesaiivpqcFCKiuh7aioRUUFFFFaENhRRRTMmx8UUs8scMSlpJGCIB3Jr0zStPi02zit1wXxvmfu8h6n/CsHwrpW1TqU6/MwK2wYdF6F/wAe1dZXh47Ec8vZx2RwVp3dkFFFFeaYBRRRQAUUUUAFFFFABRRRQAUyWKOaOSKVQ0cilHU9CDxT6KNgPMNW06TTLySBsmM5eB/70Z6fiOhqhXpGvaWupWbBAPtMGZID3JHVPxrzcgqWVgQykgg9QRxg19Rg8R7eGu63PPrR5WJRRRXaczYUUUUzFss2V3NY3UF1EfmiYEj+8vdT9a9RtriG7ghuIjmOVA6+2exryWus8Jansd9Omb5ZMyW2ez/xJ+PUV5eY4f2kPaR3X5HTha3LLkezOzooor509YKKKKACiiigAooooAKKKKACiiigAooooAKKKKACiiigAooooAKKKKACiiigAooooAKKKKACiiigBrukaPI5CoilmJ6AAZJrzLVb99RvZ7hs7MlIV/uxrwK6jxXqXlQpYRN+8nG+Yg/djHQfjXE17OAo8sfaPqenhKfKud9Qooor1DqbCiiimZNhV/SdOfUryKAZES/POw/hjB5/PpVDk4xyTwB6mvRfD+mDTrJS4/0i4xJMe44+VPwrkxVf2MLrd7HNVnyo1o0SJI441CpGoRFHQKBgCnUUV84cAUUUUAFFFUtT1G30y1e4l5b7sSDrI/YD+tVGLk+VbgM1TVbTS4d8x3SPnyolPzOR/SuMl8T65JN5iSpEgOViRAVx6HdyazLy7uL64kuLhizueB2VeyqPSq9fQYfBQpx99XZLZ6BoviGHUStvcBYrvHAB+SXH93Pf2reryJWZWVlJVlIZSOCCOhBrv/D+tDUIvs85AvIV5P8Az1QfxD39a4cZg/Z/vKewlLob1FFFeWWFFFFABXDeKdL+zTi/hXENw2JQOiy+v413NQXlrDe209tKMpKhX6Hsw+ldOGruhUUunUzqQ542PJ6Knu7aazuZ7aUYeJyp9x2YfWoK+rTTV0ePLTQKKKKoxbCnxSyQyRyxsVkjZXQjsQc0yijcybPU9Mvo9Rsre5XGWXEi/wB2QcMKuVwPhfUvsl4bSVsQXZAXPRZR0P49K76vlMXQ9hUcenQ9/DVvawv1CiiiuQ6AooooAKKKKACiiigAooooAKKKKACiiigAooooAKKKKACiiigAooooAKKKKACiiigAqO4nitoZp5TiOJGdj7DtUlcj4t1HAi06JuTiW4x6fwqf51tRpOrNRNaVP2klE5i9u5b26nuZD80rkgf3V7KKr0UV9KkkrI9rRKyCiiiqMmwoop0cck0kcUYLPIyogHUknApmTZu+GdM+2Xf2mVc29qQ3PRpeqj8Otd9VPTLGPTrOC2XG5Rulb+9I3JNXK+axNb21S/ToedUlzO4UUUVzGYUUUUAMlligikmlYLHGpd2PQAV5rq+py6pdvKSRCmUgTsqepHqe9bPinVvMc6bA3yRkG5K/xOOifh3rla93AYfkj7SW7Ewooor1TNsKkgnmtpop4WKyxMGUj27Go6KLX0Zk2eoaXqMOp2kdwmA4+WZO6SDqP8KvV5romqPpl2rkn7PNhLhe2OzD3FekqyuqupBVgGUjkEEZBFfM4vD+wnps9jeEuZC0UUVxlhRRRQBy/izTPOhXUIl/eQDbPgctF2Y/SuIr110SRHjcBkdSjA9CpGCK8x1awfTb2e3IPl53wsf4oz0/LpXv5biOaPspbrY83F07PnRQooor1zzWwooopmLYoLKVZSQykEEdQRzmvTNE1BdRsIZSR50Y8qcdw69/x615lW34b1H7DfpHI2Le6xFJnor/AMLVw4+h7aldbo6MHX9lUs9meiUUUV8sfRBRRRQAUUUUAFFFFABRRRQAUUUUAFFFFABRRRQAUUUUAFFFFABRRRQAUUUUAFFFFAEN3cxWdtcXMhwkKFz7kdB+NeXXNxLdXE9xKcvM5c+2eg/Cun8W6hkxadG3TEtxj1/hU/zrkq9zA0eSHO92erhafLHmfUKKKK9E3bCiiimZNhXU+E9O82Z9QlX5IcxwZ6GQjlvwrm7eCW5nht4hl5XVF/HvXqNnaxWVrb20Y+WJAuf7x7k/WvPx1bkhyLd/kcladlYnooorwTjCiiigArM1vUl0yyeQEefJmOBf9sj734VpkhQSSAACST0AHevNdc1I6leyOpPkQ5jgHbaDy3412YOh7aprsgMxmZ2Z2JLMSzE9STyTSUUV9KQ2FFFFMybCiiimZNhXa+FNU82M6dM37yFS1uSeWj7r+FcVUttcS2s8FxEcSROHX3x1FYYiiq1Nx+4iM+V3PWaKrWN3FfWtvdRH5ZVyR3VhwVP0qzXykk4uzO9O+oUUUUhhWD4m037bZefGuZ7TLrgctH/Ev9a3qCAQQRkEYIPcVpSqOlNTXQicFOLizyCitXXdOOnX8qKMQTEywem1jyv4VlV9hTmqkVKOzPnKicG4sKKKK0MGwo+nbmiigybPSfD+o/2hYRlj+/gxDMO+QOG/GtavOPDuo/YNQQO2ILnEMvoCT8rfhXo9fK46h7Gq7bPVH0uCr+2pa7oKKKK4TtCiiigAooooAKKKKACiiigAooooAKKKKACiiigAooooAKKKKACiiigAqG6uI7S3nuJCAkSM5z3I6Cpq5Hxdf8QafG3XE0+PT+FT/OtqFP2s1E1pU/aTUTlbmeW6nnuJDl5nZ2/HtUVFFfTJWVkey9NEFFFFMybCiipLeCW5nht4hl5XVF/HvRe2rMpM6nwlp2TLqMq8DMVvn1/iYfyrsKhtLaO0tre2jHyxIqfUjqfxqavma9V1ajkedOXM7hRRRWBAUUU13SNHkcgIilmJ6AAZJoAwPFGpfZLQWsTYnuwQcdViHBP49K4KruqXz6he3Fyx+UnbEP7sa8AVSr6fC0fY00uvUTCiiiusybCiiimZNhRRRQZNhRRSUzFs6fwpqXkXDWErfurk7oc9BKB0H1ruK8iR3jdJEJDowdSOzA5Br1DS75NQsbe5BG5l2ygfwyLwRXhZlQ5ZKquu514epdcrLtFFFeQdYUUUUAYviTTvt1g7ouZ7XM0eOpUfeX/PpXnVevkAgg9Dwa8117T/AOz9RmRQRDN++h9MMeV/A17uV196T9UeRmFK1qi+ZlUUUV7Z4zYUUUlMybCvSvD+ofb9PhLNmeACGb1JUcMfrXmtbfhrUPsWoIjtiG6xC+egbPytXDj6HtqTtutTqwOI9jWV9noei0UUV8ofVhRRRQAUUUUAFFFFABRRRQAUUUUAFFFFABRRRQAUUUUAFFFFABRRRQBHPNHbwzTyHCRIzsfYDNeW3lzJeXNxcyfemkZsei9h+Fdf4tv/ACoIbGNvnuD5kuO0angH6n+VcTXt4Clyx531PTwkOWPO+oUUUV6R0thRRRTMWwrqvCNhvkn1CQfLHmGDPdyPmI+lcvGjyyRxoMvI6ooHdmOBXqOn2iWNnbWy4/doNxHdzyxrz8dV5KfKt2ctaVlYtUUUV4JxhRRRQAVzniu/+z2i2aNiS7+/jqIl6/n0royQASTgAEknsBXmOsXpv9QuZ8nyw3lwj0jTgfn1rvwNH2lS72QGfRRRX0Rm2FFFFMybCiiimZNhRRRTMmwpKKKZi2FdJ4U1D7PdvZuf3V1ymeglUcfnXN06OR4njkjJDxsrqR1BU5FZVqSqwcH1JjPkkpI9doqrp92l9Z210v8Ay1QFh/dccMKtV8hKLi2me0mmroKKKKQwrD8Taf8AbNPeVBma0zKuByU/iH9fwrcoIDAqRkEEEHuDxWlKo6U1NdDOpBVIuL6nkFFaGsWJ0/ULmDGIy3mQn1jfkf4Vn19lCSnFSWzPkqkXCTi+gUlFFWYNhSgkEEHBByCOxFJRTMmz07Q78ahp1vKT+9QeVMP9tOM/j1rSrgfCl/8AZr42rtiK7G1c9BKvK/n0rvq+RxtD2NVpbPVH1+BxHt6Kb3WjCiiiuM7gooooAKKKKACiiigAooooAKKKKACiiigAooooAKKKKACkZlVWZjhVBZiewHJNLWH4mvvsmnvEhxLdkwrjqE/iNaU4OpJRXUuEXOSiji9UvGv765uCcqzFYvaNeBVKiivp4xUUoo9rSKsgoooqzNsKKKKDJs6HwrY/aL5rp1zHaDK56GVuB+Vd5WVoFl9h023VhiWYefL67n5A/AVq183i6vtarfRHn1Jc0gooorlMwooooAx/Ed79i02bacS3B8iP1+b7xH0Fec10ni2782+itQfkto8sP9t+a5uvo8DT5KSfV6kthRRRXeZNhRRRTMmwooooMmwoopKZk2FFFFMxbCiiimZNnX+D73/j6sHb/pvCD+TAfoa7CvLdKujZ6hZT5wFkCv7o/wApr1IEEAjoRkV85mVLkq8y6nqYOpzQ5ewUUUV5h2hRRRQBzPi6x861ivUX95bHa+O8Tn+hrha9cnhjuIZoJBlJUaNvowxXlNzbyWtxcW0g+aGRkPuAeDX0WV1uaDpvp+R89mdLlmqi6kNFFFeweK2FFFFMxbHI7xvHIhw6MrqR2IORXqem3iX9la3SkZkQbx6OOGFeVV1vg++2vc6e54f9/Dn+8OGA/nXl5nR9pS51vH8j1MqxHs63s3tL8zs6KKK+YPrQooooAKKKKACiiigAooooAKKKKACiiigAooooAKKKKACvPPEl79r1KVFOYrUeSnoWHLH8/wCVdvql2tjYXdwTgpGRH7u3yqBXl5ZmLMxyzEsx9Sea9XL6d26jO7CQ1c2JRRRXsHa2FFFFMybCtDRrM32o2kJGUDebL/uJ8xrPrsfB9ptju71hy5EEZ/2V5bFc+JqezpORz1JWR1gAAAHQcCiiivmThCiiigAoJwCfSio593kz7fveVJtx67TimtWB5dfzm5vb2cnPmTyEf7oOB+lVqU9T9T/Okr6+KskkZNhRRRVmTYUUUUGTYUUUUzJsKSiimYthRRRTMmwooooMmwr1HR7g3WmafMTlmhVX/wB5PkP8q8ur0Twvu/se2znHmTbc+m415eaRTpJ+Z14GX7xryNuiiivnT2QooooAK4fxfZeVdW96o+W4UpJj/nonr9RXcVleILP7Zpd0gGZIh58fruTk4/DNdmCq+yrJ9NjjxtL2tGS67nmlFFFfXHxrYUUUUzJsKsWVy9ndW10nWGRWI9VzyKr0UnFSVmZ8zi1Jbo9dikSaKKWM5SRFdT7MM0+ud8J332iwa2dsyWjbRnr5bcrXRV8XXpOlUcH0P0DD1lXpRqLqFFFFYm4UUUUAFFFFABRRRQAUUUUAFFFFABRRRQAUUUEhQSTgAEk+gFAHIeMLzJtbFTwP38oHr0UGuRq5qd0b2/vLgn5XlYR+0a/KtU6+mw9P2dNRPYpx5IJBRRRXQDYUUUUGTYc9uvQD1r1DSrUWen2UGPmWJWf3dvmNeeaTb/atRsYSPlMys3+6nzGvUK8jMp/DD5nHWfQKKKK8gwCiiigAooooA5PV/CzSyS3OnsoLku8DnA3HklD/AErlbixv7RitxbTRkcZZDtP0YcV6tSMqsCGAIPUMAQfwNelRzCpTVpK6IcbnkVFenzaPo9xkyWcOT3Vdh/8AHcVQk8KaI/3Vnj/3JP8A4oGu6OZUnumjJ030PP6K7V/Blmf9Xezr/vIjf1FV28GP/Bfg+m6LH8jWyx9B/a/BmTpT7HJUldUfBl5/DewY90f+lJ/whl9/z+2//fElX9dofzGTpT7HLUV1P/CGXve9t8d/kepF8GS/x36/8BiJ4/E0fXqC+1+Zm6FR9DkqK7RPBluPv30zeyxqv65q1H4R0ZMb2uJP95wB+gqHmNBdb/IX1WqzgakiguJ2CQxSSMegjRmP6V6RDoOhwYK2cbEdDJlz+taEcUMQ2xRoi+iKFH6VzzzWK+CJSwMn8TOG0/wpf3DI97/o8PBK5BlYemBwK7iCCG2highULFEoRFHYCpKK8qviqld+9sd1GhCj8IUUUVzG4UUUUAFBAYFSMgggj2PFFFAHlWpWxs7+9t+0cz7PdD8y1UrpvGFt5d9b3AHE8O1v95DiuZr7PDVPa0oz8j4bFU/ZVpQ7MKKKK6DibCiiimYtmz4bvfsepwhjiO5HkSenPKn869HryBWZWVlOGUhlPoQcg16ppt0L2xs7kdZIlLj0ccMPzr5/NqNpKquuh9PkWIvGVF9NUW6KKK8M+lCiiigAooooAKKKKACiiigAooooAKKKKACsvX7v7Jpl04OHlHkR+uX4/lmtSuN8YXW6Wzs1PEatM4/2m4Gf8966MNT9pVSNaMeaaRylFFFfSnqthRRRTMmwooopmTZ0XhGHzNRmlI/1FuSPq5213dcj4MUY1R+4aBPwIY111fO46V6z8jiqO8goooriICiiigAooooAKKKKACiiigAooooAKKKKACiiigAooooAKKKKACiiigAooooAKKKKACiiigDm/GEO/T4Jscw3Cj8HBFcHXpPiRQ2i6gT/AALG4+odRXm1fT5XK9C3ZnyWcR5a9+6CiiivVPDbCiiimYthXa+DrvdDd2THmJhNGP8AZbg4riq1fD139k1W0YnCTEwSemH4GfxxXJjaXtaEl8zry6v7DEwl0ej+Z6XRRRXxp+iBRRRQAUUUUAFFFFABRRRQAUUUUAFFFFABXmWs3P2rU76XOVEhjT/dT5a9FvpxbWd5Of8AllDIw+uOK8qySST1JJP1PJr1suhrKZ24VbyCiiivYOpsKKKKDJsKKKKZk2dX4NmUSajbkjLrFKvvtyp/nXZV5TZ3c9jcw3MJw8Zzg9GHdT9a9E0zWbHU0Xy2CTgfPC5AYH/Z9RXiY+hJT9otmcs1rc0qKKK8sgKKKKACiiigAooooAKKKKACiiigAooooAKKKKACiiigAooooAKKKKACiiigAooooAKKKr3d7Z2MTTXMqxoOmT8zH0UdacYuTshSkoq8noZviiZYtHu1J5nMcSj1JYN/SvOa1tb1mXVZxgFLaInyUPU5/jb3rJr6zA0HQpcst3qfE5liY4itzQ2WgUUUV3nkthRRRTMmwpVZkZHX7yMGH1BzSUlBk2etWc4ubS0uB0lhR/xI5qesDwncGbSljJy1tK8X/AT8w/nW/XxFen7OrKHZn6dhK3tqEKndIKKKKxOkKKKKACiiigAooooAKKKKACiiigDE8UTeVpMyg4MzxxfgTk157XaeMZMW1hH/AHpnY/RVri69/ARtRv3PRw+kAooorvLbCiiimZNhRRSUzFsKcrOjKyMysDkMpIIPsRTaKDJs37LxTqlttSfbcxjj5+JMf7wrobXxVo8+BMz27n/nqpK/99LXn9FclTBUamtrehk2esQ3dncAGG4hkH+w6n9BU1eRKzocozKfVSQf0q9DrOs2+BFezADoGO8fk2a4p5Y/sSJ5z0+iuBi8Wa0mBILeUd90ZVj+KED9KvR+M3/5bWI/7Zyf/FCuaWX11sri9pE7Ciuaj8YaY3+sguE+gVv5GrKeKdBbrNIn+9G39M1i8LWW8WP2ke5uUVlr4g0F/wDl+iH+9uX+YqZdX0Z/u31sf+2i/wBazdGot4v7h80e5eoqut/pzfdu7Y54/wBan+NPF1ZnpcQH6SJ/jUcsl0HdEtFR/aLX/nvD/wB/E/xpfOgPIlj/AO+1/wAaVmF0PoqMz2w6zRD6uv8AjSG5tB1uIR9ZE/xo5X2C6JaKgN7YL966tx3/ANan+NQtq2jp96+th3/1i1SpzeyE5xW7LtFZja9oKdb+E/7pLfyFQP4o0Belw7f7kbn+daLD1XtF/cZuvSW8l95tUVzb+MNJX7kVw/8AwEL/ADNVJPGa8+TYsfTzJAP/AEEVrHA4iX2TGWNoR3kdfRXBy+L9XfPlRW0Q/wB1nI/EnH6Vnza9rs+Q97IAe0QWMf8AjgFdMcrrPdpHNPNaMdk2ekyTQRAtLJGgHUuwX+dZV14k0O2yPtHnOP4YAX5+vT9a86klmlOZZZHP+2xb+dMrsp5TBfHK559XOJv4I2/E6m88YXcgZbKBYQeA8vzv+A6Vzlxc3V1IZbiaSVz3difyHSoaK9Olh6dH4FY8eviqtb+JK4UUUV0HE2FFFFMxbCiiimZNiUUUUGTZ13gybEuoW5P3kjlA9wdprs6898JybNWRc8SQSqfqMEV6FXymaR5cQ33SPvchqc+DS7Nr9f1CiiivMPdCiiigAooooAKKKKACiiigAooooA5DxnnOmemJvz+WuRrtvGEJa1s5gOIpirewccVxNfRYJ3oo9Ci/cQUUUV2DbCiiimZNhSUtJTMWwooopmTYUUUUGTYUUUUzJsKKKKZk2FFFFMxbCk4oopmTYYHoKMAdAB9KKKZk2H4n86Xc395v++jSUUGTYZJ6k/iTQeevP1oopmLYmF9B+VLgelFFMyYUUUUGTYlFFFMybCiiimYthRRRTMmwooopmTYUUUUzJsKKKKDFsKSlpKZk2FFFFMybNjw2SNZscd/NB+mw16TXn3hOFpNVEmPlghkYn0LfKK9Br5fNmnXS8j7vh2LWFbfVv9AoooryD6IKKKKACiiigAooooAKKKKACiiigCtf2cd/aXFrJwJFwp/usOQ1eY3VrcWU8lvcIVkQkc9GHZlPoa9XqjqWlWWpxbJ1w658uVOHQ/X0ruwmK9i7S2ZtTqcmj2PMKK1tS0HUtPLNsM1uOksQJwP9tRyKya96E4zV4u5vzJ7BSUtJWhm2FFFFBk2FFFFMxbCiiimZNhRRRTMmwooopmTYUUUlBi2FFFFMybCiiimZNhRRRTMmwooopmLYUUUUGTYUUUlMybCiiimZNhRRRTMWwooooMmwooopmTYUUUUzJsKKKSmZNhRRRQYthSgMxVVBLMQFAGSSewFXLHS9R1F9ttCxXOGkYbY1+rGu40jw7Z6btmlImu8ffI+SP2Qf1rjxONp4dau77HoYLK6+MldK0e7/AE7h4c0ptOtDJMMXNzhpB/cUdE/xrcoor5KrVlVm5y3Z+iYehDD01ShsgooorI3CiiigAooooAKKKKACiiigAooooAKKKKACsm98P6Re7maHypT/AMtIPlOfUjpWtRVwnKDvF2GnY4a78I6hFua1mjnTsrfJJ/hWJcWGoWpIuLaZMdypK/mOK9UoIVhhgCD2IyP1rvp5jUj8SuPmZ5DRXp1xo2jXWTLZw7j1ZBsb80xWVP4Q018mCaeI+hw4/Xmu2GY0n8V0Js4aiumm8H6guTBcwSD0cMh/qKz5fDuvQ5zaFx6xMr/oDmuuOJoy2kjJ3MmirEllfxEiS1nXHXdG1VyCOoI+oI/nW6aexjIKKKKoybCiiimZNiUUUUzFsKKKKZk2FFFFBk2FFFFMxbCiiimZNhRRRQZNiUUUUzJsKKKKZi2FFFFMzbCiigc9Mn6c/wAqZi2FFTR2l7Ljy7ed89NsbH+lXovD+vTY22Uig95SsY/8eNZyqwh8UkgjRqz+CLfyMuiukh8H6q+DNNbxDuAWdh+Qx+tacHg2yXBuLqWT1CAIPz5Nc08ww8PtX9DqhlWLqfYt66HD1NBa3dyQtvBLKT/zzQkfn0r0e38P6HbYK2kbsP4psyH/AMe4/StJEjjGERVHooAH6VxVM3ivgj9530uHpv8Aizt6anAWnhTWJ9pm8u3Q9fMO5/8Avla6Ky8K6Ta7WmDXMgwcy8Jn2QVv0V5tXMK9XS9l5Hs4fJ8LQ15eZ+ev/AEREjVURVVFGAqgAAewFLRRXnnr7bBRRRQAUUUUAFFFFABRRRQAUUUUAFFFFABRRRQAUUUUAFFFFABRRRQAUUUUAFFFFAAQDwQCPeoXtbOT/WW8Lf70an+Yqaimm1sBnSaJocud9jBn1Clf/QTVV/C2gP0hkT/rnK4/StuitY16sdpP7yXGL6HNv4P0ps7JrlP+BK38xVd/BkH8F7IP96NT/I11lFarG119oh0oPocY3gyf+C9Q/wC9GR/I1E3g7UR925tz9Q4ruKK0WYV11/Ah4em+hwTeEdYHR7c8/wB8j+YqM+FNdGcLbn/tr/8AWr0GirWZVvIh4Smzzs+F9fAz5MZ9hKuab/wjOv8A/Psv/fxK9Goqv7UrdkQ8DTfVnm//AAjniD/nzP8A33H/AI0n/COeIP8AnzP/AH3H/jXpNFP+1KvZf18yP7Pp92ebf8I54g/58z/33H/jT/8AhGdf/wCfZf8Av4n+NejUUf2pV7IX9m0u7POh4X18/wDLCMfWVaePCmvHHyW4z6yjj9K9Copf2pW7IX9mUe7OBHhHWT1a2H/Ayf6VKvg7Uj965tx+Dmu5oqXmdfuvuD+zKHZ/ecWvgy4/jvYx/uoT/Op08Fw/x30h/wB2NR/M11tFQ8wxD+1+CLWW4ZfZ/FnMp4O0sffuLl/xVf5CrKeFNATrFM/+/KxH5Ct2isnjK73mzRYHDraCM2PQdBjwVsIcjuwLH9TVtLOxix5dtAuP7saD+lT0VjKrOXxSbN40acPhil8gAUcAAD2GKKKKzNQooooAKKKKACiiigAooooAKKKKACiiigAooooAKKKKACiiigAooooAKKKKACiiigAooooAKKKKACiiigAooooAKKKKACiiigAooooAKKKKACiiigAooooAKKKKACiiigAooooAKKKKACiiigAooooAKKKKACiiigAooooAKKKKACiiigAooooAKKKKACiiigAooooAKKKKACiiigAooooAKKKKACiiigAooooAKKKKACiiigAooooAKKKKACiiigAooooAKKKKACiiigAooooAKKKKACiiigAooooAKKKKACiiigAooooAKKKKACiiigAooooAKKKKACiiigAooooAKKKKACiiigAooooAKKKKACiiigAooooAKKKKACiiigAooooAKKKKACiiigAooooAKKKKACiiigAooooAKKKKACiiigAooooAKKKKACiiigAooooAKKKKACiiigAooooAKKKKACiiigAooooAKKKKACiiigAooooAKKKKACiiigAooooAKKKKAP/Z;imageBorder=default;fontFamily=Fira Code;" vertex="1" parent="HewII5I395oueKauFgrz-9">
          <mxGeometry x="40" y="80" width="80" height="80" as="geometry" />
        </mxCell>
        <mxCell id="HewII5I395oueKauFgrz-12" value="Immich" style="shape=image;verticalLabelPosition=bottom;labelBackgroundColor=default;verticalAlign=top;aspect=fixed;imageAspect=0;image=data:image/jpeg,/9j/4AAQSkZJRgABAQEAAAAAAAD/4QBCRXhpZgAATU0AKgAAAAgAAYdpAAQAAAABAAAAGgAAAAAAAkAAAAMAAAABAAAAAEABAAEAAAABAAAAAAAAAAAAAP/bAEMACwkJBwkJBwkJCQkLCQkJCQkJCwkLCwwLCwsMDRAMEQ4NDgwSGRIlGh0lHRkfHCkpFiU3NTYaKjI+LSkwGTshE//bAEMBBwgICwkLFQsLFSwdGR0sLCwsLCwsLCwsLCwsLCwsLCwsLCwsLCwsLCwsLCwsLCwsLCwsLCwsLCwsLCwsLCwsLP/AABEIAdoB2gMBIgACEQEDEQH/xAAfAAABBQEBAQEBAQAAAAAAAAAAAQIDBAUGBwgJCgv/xAC1EAACAQMDAgQDBQUEBAAAAX0BAgMABBEFEiExQQYTUWEHInEUMoGRoQgjQrHBFVLR8CQzYnKCCQoWFxgZGiUmJygpKjQ1Njc4OTpDREVGR0hJSlNUVVZXWFlaY2RlZmdoaWpzdHV2d3h5eoOEhYaHiImKkpOUlZaXmJmaoqOkpaanqKmqsrO0tba3uLm6wsPExcbHyMnK0tPU1dbX2Nna4eLj5OXm5+jp6vHy8/T19vf4+fr/xAAfAQADAQEBAQEBAQEBAAAAAAAAAQIDBAUGBwgJCgv/xAC1EQACAQIEBAMEBwUEBAABAncAAQIDEQQFITEGEkFRB2FxEyIygQgUQpGhscEJIzNS8BVictEKFiQ04SXxFxgZGiYnKCkqNTY3ODk6Q0RFRkdISUpTVFVWV1hZWmNkZWZnaGlqc3R1dnd4eXqCg4SFhoeIiYqSk5SVlpeYmZqio6Slpqeoqaqys7S1tre4ubrCw8TFxsfIycrS09TV1tfY2dri4+Tl5ufo6ery8/T19vf4+fr/2gAMAwEAAhEDEQA/APXKKKKACiiigAooooAKKKKACiiigAooooAKKKKACiiigAooooAKKKKACiiigAooooAKKKKACiiigAooooAKKKKACiiigAooooAKKKKACiiigAooooAKKKKACiiigAooooAKKKKACiiigAooooAKKKKACiiigAooooAKKKKACiiigAooooAKKKKACiiigAooooAKKKKACiiigAooooAKKKKACiiigAooooAKKKKACiiigAooooAKKKKACiiigAooooAKKKKACiiigAooooAKKKKACiiigAooooAKKKKACiiigAooooAKKKKACiiigAooooAKKKKACiiigAooooAKKKKACiiigAooooAKKKKACiiigAooooAKKKKACiiigAooooAKKKKACiiigAooooAKKKKACiiigAooooAKKKKACiiigAooooAKKKKACiiigAooooAKKKKACiiigAooooAKKKKACiiigAooooAKKKKACiiigAooooAKKKKACiiigAooooAKKKKACiiigAooooAKKKKACiiigAooooAKKZLNBAjSTSRxxqMlpGCqPqWrBvPF+g2pZYpJLpxxi3X5M+7tgflms51IQ+J2OrD4OviXajBy9EdDRXA3Hjq+bItbKGMdjM7SMP8AvnArLm8V+JJs/wClrGOwhiRcfj1rklj6S21PdpcL46prK0fV/wCVz1KivIW1vX3+9qV4f+2hA/So/wC1dY/6CF3/AN/WrP8AtGP8rO1cI1+tRfcz2KivIF1rXk+7qV4P+2hP86txeKfEsPS93/8AXaNH/mKazGHVMifCWJXwzi/vX6HqlFefW/jnUkIFzaW8q9zGWjc/nkfpW5aeM9DuMLP51q5x/rV3pn/eTP8AKuiGLoz6nlYjIcfQ1dO68tf+D+B0tFRQXFrcoJLeaKVD0aJ1YfmKlrpTvseJKLi7SVmFFFFMQUUUUAFFFFABRRRQAUUUUAFFFFABRRRQAUUUUAFFFFABRRRQAUUUUAFFFFABRRRQAUUUUAFFFFABRRRQAUUUUAFFFFABRRRQAUUUUAFFFFABRRRQAUUVWvr60062kurqQJGg4/vO3ZVHqaTaSuy4QlUkoQV2yeSWKFHlldUjQbndyFVR6kmuN1XxrGheHSoxIw4+0zA+X/wBOp/Gub1nXb7WJT5hMdqrfurdSdoHZn9TWTXjV8c5e7T0Xc/Qsr4Zp00qmM96XbovXv8Al6li7vr++kMl3cSzNnI3t8q/7qjgflVeiivNbbd2fYwhGEVGCsl2CiiikUFFFFABRRRQAUUUUATW91d2kgltZ5YZAQd0TFc49R0NddpfjaRSkOqxBl4H2mEYI93T/CuLoranWnSfus8/GZdhsbG1aN336/ee0wXFtdRJPbypLE4yrxnINS15DpWr3+kTCW2fMbEedA5/dyD6dj716fpWq2WrWwuLZsEYWWJsb4n9GA/Svcw+KjW02Z+bZtklXL3zr3oPr29S/RRRXWeAFFFFABRRRQAUUUUAFFFFABRRRQAUUUUAFFFFABRRRQAUUUUAFFFFABRRRQAUUUUAFFFFABRRRQAUUUUAFFFFABRRRQAUUUUAFFFFABRRRQA2SSOGOSWRgscas7seAFUZJNeU67rE2sXjSZK2sRKWsfYL/fYeprqfG2pNDbwadE2HusyT4PPkqcBT9T/KuArxsfXbl7NbLc/ROGMtUKf1yotXt5Lv8/y9Qoooryz7QKKKKACiiigAooooAKKKKACiiigAooooAKv6VqlzpN3HcwklchZ48/LLHnlT7+lUKKqMnF3RnVpQrQdOorp7ntFrcwXlvBdQNuimQOh9j2PuKmrhfBGpFXuNLkb5WDXFtk9COHUfz/Ou6r6WhV9rBSPx3M8E8DiZUXt09OgUUUVseaFFFFABRRRQAUUUUAFFFFABRRRQAUUUUAFFFFABRRRQAUUUUAFFFFABRRRQAUUUUAFFFFABRRRQAUUUUAFFFFABRRRQAUUUUAFFFIzBVZj0UFj9AM0AeUeI7o3es6i+crFJ9nj9AsXy8fjk/jWTT5XMksztyXlkY/UsTTK+VnLmk5PqfuOHpKjRhSXRJfcFFFFQbhRRRQAUUUUAFFFFABRRRQAUUUUAFFFFABRRRQBb0y6NlqGn3QOBFcRlv9wnaw/ImvY68R9/TmvZbCQy2OnynrJaW7n6tGpr18ul8UT4Li6ir0qvqv1X6lmiiivWPhAooooAKKKKACiiigAooooAKKKKACiiigAooooAKKKKACiiigAooooAKKKKACiiigAooooAKKKKACiiigAooqKa5trdd08qRjtuIBP0HWgaTk7IlorGm8Q2KEiKOWU+uAi/mef0qo3iSXPy2qAf7UhJ/QCr5JHbHL8RLXlOkornF8SPn57RSP8AZkI/mKuQ+INOkwJBLEfVl3L+a8/pRySFPAYiGrj+pr02RS6SIOCyMufqMU2Ke3nXdDKki+qMD+dSVByaxeu55PqegaxpjO00Jkg3EieDLx4J/i7j8aya9uIBBBAIIwQeQRXOar4S0u/Dy2wFpcnJ3Rj905/24+n4ivHrZe1rTfyPvsBxVGVoYuNvNbfNf5fceaUVf1LSNT0qTZdwkISdkyfNE/0b+hqhXmSi4u0kfaUqsK0FOm7p9UFFFFSaBRRRQAUUUUAFFFFABRRRQAUUUUAFFFFACHofpXsWkgjS9JB/58bU/nGprx7rx68V7PZp5VpZR/8APO2gT/vlAK9XLl70mfE8XS/dUo+b/JE9FIzKqszHCqCSfQCsyXWrRMiNHkPr91fzPP6V2YnG4fCK9eaj/Xbc+DpUKlb4Fc1KKwW1y4P3IYgP9osf5Ypo1u87xwn8G/xryHxLgE7cz+5nYssxHb8ToKKxY9cHAlgI942z+h/xrRgvrK4wI5Ru/uv8rfka9DDZtg8U7Uqiv2ej/E56uErUtZRLNFFFemcoUUUUAFFFFABRRRQAUUUUAFFFFABRRRQAUUUUAFFFFABRRRQAUUUUAFFFFABSFlUFmICgZJJwAPUk0O6RqzuwVFBZmPAAHeuR1PVZb1miiJS2B4HQyY7t/QVUYuR14XCzxMrLbqy9f69gtFY4OODMwyP+AA1gSSSysXldnc9Wckn9aZRXQopbH1NDDU6CtBfPqFFFFM6QooooAekkkTB43ZGH8SEg/pWvaa/dRYW6UTJ03LhZB/Q1i0Umk9zCrQp1laaud1a31neLmCUMe6Hhx9VNWa8+R3jZXRmV1OVZSQR+IrdsdfdNsd6Cy9BKg+Yf7yispU+x4WIyuUPepart1OhlihnjeKaNJI3GGSRQyke4NcTrPg0r5lxpPI5ZrVzz/wBsmP8AI120UsUyLJE6ujchlORT65KtCFVWkjnwWYYjL581J27p7P1X9M8TdJIneORGSRCVdHBVlI7EGm16vrGgadq6EyL5VyBiO4jA3j2YdxXm+p6TqGkzeVdR/ISfKmTJikHsfX2rw6+FnR13R+lZXnVDMFy/DPt/l3/MoUUUVyHuhRRRQAUUUUAFFFFABRRRQAUUUUAT2cJuLuygxnzriGP/AL6cCvZxwAPSvK/C9ubjW9PGMrCXuG+iKcH88V6pXtZdG0HI/OuLavNXp0uyv97/AOAVr99lndH/AKZso+rcVyddHrL7bQL/AM9JEX8B81c5XxHFVXmxcYdo/nc4cqjai5d2FFFFfJnrBRRRQBpWeqzwbUmzLF05++o9jXQRTRToskTBlPcdvYiuNqxaXc1pJvQ5U/fQ9GH+NfVZTxBUwzVLEPmh+K/zXl9x5WLy+NVc1PSX5nW0VFb3EVzEssZyD1HdT6Gpa/SYTjUipwd0z5qUXF2e4UUUVYgooooAKKKKACiiigAooooAKKKKACiiigAooooAKKKKACiisrWr/wCyweTGcTzggEdUToW/oP8A61NK7sa0aUq01CO7MvWtSNw5tYW/cRnEjA/6xx2+grFoorpSsrH2VGjGjBQiFFFFM2CiiigAooooAKKKKACiiigCza3l1ZvvgcgE/Mh5RvqK6qw1W1vQE/1c+OY2PX3Q964ylBIIIJBByCOCCO4NTKKkcOJwVPEK70fc9CqG5tbW8hkt7mJJYnGGVxn8R71h6brhG2C9PHASb+kn+NdECGAZSCCAQQcgg9wRXPKNtGfNVaNXCzV9H0a/Q8017wxc6YXubXdNY5JJ6yQD0f1HvXOV7cQGBBAIIIIIyCD2IrhvEPhPb5t9pSfL8zz2o7dy0I/pXi4nBcvv09ux9xk3ESq2oYx2fSXf18/M4qij+nBoryz7YKKKKACiiigAooooAKKKKAOy8C226fUrsjiOOO3Q/wC053t/IV3lYHhG0+zaNbuww9073LeuGOFz+Arfr6TCw5KUUfkGeYj6xjqklsnb7tDC1yTMltEP4VZz/wACOB/Ksereoy+beXDdlbyx9F4qpX5Nm9f6xjak13t92n6Hs4Sn7OjGPkFFFFeWdIUUUUAFFFFAFuxvHs5Q3JifAlX1HqPcV1KsrqrqQVYAqR3Bri62tHvOfskh45aEn8ytfY8N5o6VT6pVfuy28n2+f5+p4+ZYXnj7aO639Dbooor9FPnAooooAKKKKACiiigAooooAKKKKACiiigAooooAKKKKAEZlRWdjhVUsx9ABk1w17dNeXM056McIP7qDgCui1+68m1WBT89wcHHURrya5Stqa6n0WVUOWLqvrsFFFFanthRRRQAUUUUAFFFFABRRRQAUUUUAFFFFABWnpurTWREb7pLYnlP4k90z/Ksyihq+5lUpRqx5Zq6O/hmhuI1lhcOjDgj+RqSuIsb+4sZN0ZzGxHmRn7rD/GuwtLu3vIhLC2R0ZT95G9GFc8o8p8ti8FLDu61j3/zOa8R+F1vfMvdPVUuwC0sIwqz47jsG/nXnzK6MyOpV0Yq6sMMrDggg17bXMeI/DUeoq95ZqEv1XLKMBbgDsf9r0P+R5OKwfN79PfsfS5Hn7pWw2Kfu9H28n5fl6becUUro8bOjqyujFXVgQysOCCDSV4x+ibhRRRSAKKKKACpLeB7me3t0BLzypEoH+0cVHXS+DbL7TqpuGXMdlGZMnp5r/Ko/mfwrWlD2k1HucmNxKwuHnWf2V+PT8T0WCJIIYIE+5FGka/RQBRPIIYZpT/AjN+IHFSVl61Nst0iB5lcZ/3V5Ne1j8QsLhp1ey09en4n41Rg61ZRfV/8Oc+SSST1JJP1PNJRRX4w3fU+zCiiikAUUUUAFFFFABTkdo3R0OGRgykdiOabRTTad0D10Z19tOtzBFMP4l+YejDgipqw9EuMPLbMeGHmJ9R1FblfsWVYz67hY1Xvs/Vf1c+OxdH2FVw6dAooor0zlCiiigAooooAKKKKACiiigAooooAKKKKACiimTSCGGaU9I43c/8AARmgaV3ZHI6zceffzAH5IQIV+o5b9azaczM7M7cszFifcnNNrrSsrH29KmqcFBdAooooNQooooAKKKKACiiigAooooAKKKKACiiigAooooAKsWl3cWUolhPs6n7rr6Gq9FBMoqa5ZLQ7myvYL6ISRnDDiRD95G9DVquDtbqe0mWaE4YcMD911/utXZ2V7BewrLGcHpIhPzI3oa55xsfLY3BPDvmj8P5GD4l8NrqKve2ahb5Fy6DgXCjsf9r0rzllZWZWBVlJVlYYKkcEEGvba5DxV4d+0LJqVjH/AKQo3XUSj/XKB99R/eHf1/n5GMwvN+8hv1PpOH889m1hMS/d6Pt5Py7dvTbgKKKK8Y/QgooooAK9M8IWP2TSY5mGJL1jcNxyE+6g/Ln8a8+06zfUL6zs1B/fSqHIz8sY5Y8e1ewxokaRxoMIiqigdlUYAr1Mvp3k6j6HxXFeM5aUMNHeWr9Ft+P5Dq5nVZ/Ou3UH5YR5Y+vU/wCfauhuJhBBNKf4FJHuegFcgSWLMTksSSfUnmvD4rxfLThho9dX6Lb8fyPl8po3k6r6aCUUUV+fH0AUUUUAFFFFABRRRQAUUUUAS28pgnhlH8Dgn/d6GuwBBAI6EAj8a4quq06XzbO3YnlV2H6rxX3HCeJtOph311X5P9DxM2p6RqfIt0UUV98fPhRRRQAUUUUAFFFFABRRRQAUUUUAFFFFABWdrcvl6dcYODIUjH4nJ/TNaNYniN8W1sn9+bd/3yv/ANeqjujqwceavBeZy9FFFdJ9mFFFFABRRRQAUUUUAFFFFABRRRQAUUUUAFFFFABRV+10rULrBWPy4z/HLlR+A61uW2gWUWGnZp364Pyp+Q5/WpckjirY6jR0bu+yOYjimmbbFG8jeiKW/lWnBoGoy4MpSFT/AHjub/vlf8a6qOKKJQkUaIo7IoA/SnVm6j6HkVc2qS0pq34mND4esUwZnllPpnYv5L/jWnBaWlqCLeFI92N20cnHqamorNyb3PNqYirV+OTYUUUUjA8/8WeH/srvqdmn+jyNm5jQcROf4wB2Pf8A+vXI17ZJHHKkkUih45FKOrDIZSMEEV5X4g0Z9HvCigm0n3Pauew7xk+orxMbhuR+0jsfpHDub/WI/Vaz95bPuv8ANfkY9FFSW8EtzPBbwjMs8iRIP9pjivO30Pr5SUVd7HZ+B9O/4+tTkXr/AKNbE+nV2H6Cu3qtYWcVhZ2tnF92CNUz/ebqzficmrDMFVmY4Cgkn2HNfS0aao01F/M/Gszxjx2KnW6Pb0Wxj63cYEVsp6/vJPoOAKw6muZjcTzTH+NvlHoo4AqGvyPNcZ9cxU6q22Xov6ufQYWj7GkodeoUUUV5h0hRRRQAUUUUAFFFFABRRRQAVv6G+YbiP+5IGH0Yf/WrArX0Nv31wnrEG/Jsf1r3uH6ns8wp+d1+Bw5hHmw8vI3qKKK/WD5IKKKKACiiigAooooAKKKKACiiigAooooAK5/xKflsB/tTH9FroK5/xKPlsD/tTD9Fq4fEd+X/AO8x+f5M5yiiiug+uCiiigAooooAKKKKACiiigAooooAKX+vSr1npd7e4ZV8uL/npICAR/sjqa6Wz0mxs8MF8yUf8tJMEg/7I6CplNI4MRj6VDTd9jn7PRb662s48iI87pB8xH+yvWugtNJ0+0wyx+ZIP+WkvzHPsOgq/RWLm2fP18dWraXsuyCikV0bcFZWKna20g7T6HFLUHCFFFFABRRRQAUUUUAFUdW02DVbKa0lwCw3QvjmOUfdYf1q9RSlFSVmaUqs6U1Ug7Nao8WuLee1nntp1KzQuUdT6juPY9q6zwVpnmzTanKvyQZht8jrIR8zD6Dj8a0vFWgS6g1rd2SA3O9LecAfejY4Eh/3e/t9K6LT7OHT7O1s4vuwRhc/3m6sx+pryqGEcKzvstj7jMs+jXy6Kpu056Ndrb/f08izWZrFz5UAhU/PNwfZB1/OtMkKCxOAAST6AVyd7cG6uJJf4c7Yx6IOlcPEWO+q4V04v3p6fLr/AJfM+Vy6h7WrzPZf0itRRRX5afUhRRRQAUUUUAFFFFABRRRQAUUUUAFaeinF2/vC38wazK1NEGbqQ+kLH82Ar1smv9fpW7nLjP4E/Q6Giiiv2A+OCiiigAooooAKKKKACiiigAooooAKKKKACsbxFHutIXA/1c4z7BgRWzVTUoDcWN3GBlvLLr/vJ8wqouzOjCz9nWjJ9zh6KKK6T7UKKKKACiiigAooooAKKK1tP0W4utss+6KDgjPEjj/ZB7e9DaW5lVrQox5puyM+C3uLmQRQRl3PXHRR6seldJY6FbwbZLrE0owQv/LNT9O9alvbW9rGI4I1RR6dSfUnrUtYSm3sfOYrMp1fdp6L8QAAAAGAOABRVS+1Gw06Iy3cyoP4V6u59FUcmuI1TxZf3e+KyBtbc5G4HM7j3bt+H512YTL6+LfuKy7vY+dxONpYf4nr26nXalrul6YCJZfMn/hghw0hP+12H41xWo+KNWvtyRN9lgPGyEnew/2pOv5YrCJJJJJJJySTkk+5NFfXYTKKGH1a5pd3/kfNYnMq1fRe6vL/ADPRfCC40dXOSZLm4Yk9ThsV0NYfhUY0W093mP5ua3K+Ox7viqnqz6jBq2Hh6IKKKK4jqCiiigAooooAKKKKACiimyyJFG8jnCopYmlKSinKWyGk27IzdYuvLiFup+eblsdkH+Nc9UtxO9xNJM/VzwP7q9hUVfj+bY947Eup9laL0/4O59hhMP7Cko9eoUUUV5R1BRRRQAUUUUAFFFFABRRRQAUUUUAFbWhJ811J6BEH45NYtdLpEXl2isRzKzSfh0FfR8N0XVx8ZdIpv9P1POzKfLQa7mhRRRX6mfKhRRRQAUUUUAFFFFABRRRQAUUUUAFFFFABRRRQBxGpWptLyePGEYmSL02Mc4/DpVOuw1mwN5BvjGZ4Msn+0vdf8K5D68EcEHtXTGV0fX4LEKvST6rcSiiiqO4KKKKACnxxySuscaM7scKqjJNS2lpcXkoihXPd2P3UHqxrrrDTraxTCDdKw/eSsPmPsPQVMpKJwYvGww6tvLsUtO0SKDbNdbZJuoTrGn+JraoqnqGpWOmwma6lCjnYg5kkPoi1lGM6slGKu2fK4jEyqN1Kr/4BcJVQWYgKASSTgADuSa5PV/F0EG+30zbNKOGnbmJD/sDua5/V/EN/qhaMEwWeflhQ8uPWRh1rFr6vA5Io2nidX2/zPlcZmzl7lDRd/wDIluLi5upWmuZXllbqznJ+g7YqKiivpklFWR4LbbuwooopiPS/C3/IFsvrL/6Ga26wvCjbtFtf9mSdfyc1u1+a47/eanq/zPvMJ/Ah6IKKKK4zpCiiigAooooAKKKKACsHWLzewtYz8qHMpHQt2X8K0tQvBaQnaf3smVjHp6t+FcuSSSSckkkk9ya+L4mzP2cfqdJ6v4vTt8/y9T28swvM/bS2WwlFFFfnp9AFFFFABRRRQAUUUUAFFFFABRRRQAUUUUASwQtPNFCvV2A+g7muvRFRERRhUUKB7AYrL0myMKfaJBiSQfID1VD/AI1q1+n8OZe8Lh3VqL3p/gun+Z8xmWIVWpyR2X5hRRRX055YUUUUAFFFFABRRRQAUUUUAFFFFABRRRQAUUUUAFYGr6QXL3VouXPM0S/xf7Sj19a36KabWxvQrzoT54HnvIyDwRwQeoNJXY32j2l5l1/dTn+NBwx/2lrnLrStQtcloi8Y/wCWkWWGPcDmuiM0z6fD46lXVr2fZlGrlhYT38u1PliUjzZCOFHoPel0/T5r+bYMrEhzNJj7o9B7muygghtokhhUKiDAA7+5PrSnO2iMsdjlQXJD4vyG2trb2kSxQrtUck/xMfVjU1Fcp4g8TrbeZZacytccrLOMFYfZOxb+VPDYapiqnJTWv5HyGJxUaUXUqv8AzZf1vxFaaWrQxbZr0j5Ywfljz/FIR/KvPLu8u76Z7i6laSRu56KP7qjoBULM7szuzM7EszMSWYnuSaSvu8Dl9LBx93WXVnx2LxtTEvXRdgooor0jhCiiigAooooA9E8HNnRwv9y5nH5ndXRVyngl82V/H/cugR9GQV1dfnOZx5cXUXn+Z9xgJXw0PQKKKK887QooooAKKKKACmTTRwRvLIcKgyfU+wpxKqCzEBQCSTwABXNajfG7k2oSIEPyj+8f7x/pXj5tmcMvo828nsv19EdmEwrxE7dFuV7q5kupmlfvwq9lUdAKgoor8lqVJVZupN3b3ProxUEox2QUUUVmMKKKKACiiigAooooAKKKKACijrwOtXINOvp8ERlF/vSfKPwHWt6OHq4iXLSi5PyInUjTV5uxTrZ07TCSs9yuFGDHG3U+7CrtppdtbYd/3so/iYfKv+6Kv191lPDnspKti9Wto/5/5HhYvMuZclH7/wDIKKKK+1PECiiigAooooAKKKKACiiigAooooAKKKKACiiigAooooAKKKKACiiigBAqrnaoGTk4AGT6nFLRXJeKNfMAk02zf9+64uZUP+qU/wAAI/iPeunC4aeKqKnD/hjDEYiNCDqTIvEniTHm6fp0nPKXNwh6djHGR+pri6KK/QsJhKeEp+zp/N9z4rE4meInzz/4YKKKK6zmCiiigAooooAKKKKAOw8ES4l1SH1SGQfgWU/0rtq868IS+Xq4Qnie3lQe7DDj+Rr0Wvg87hy4tvuk/wBP0PsMplzYZLs2cl4lur+wv7Oe1nki8y3KsAcoxRyfmU8dx2ptn4vcYW+twf8Appb8H8Ub/Gp/GMWbewnx/q5njP8AwNc/0rjK+PrVZ0qr5WfP4/F18HjJ+zlo7O3TY9MtNY0m8x5N1HvP8Eh2OP8AgLVfrySrttq2rWmPIu5Qo/gc70/Jq0hjv50dVDiDpWh81/k/8z06iuKt/F96mBc20Uo7tGTGx/A5Fa8HivRpcCXzoD38xNy/mmT+ldUcTSl1PXpZthKu07euhvEAgggEHqDyDVd7Gwk+9bx59VG0/mtMh1LS7jHk3luxPQeYob/vlsGrYIPQg/SqnSpV178VJedmepSr9acvuZnPo1g2dvmJ/utkf+PZqBtCj/guGHsyA/qDWxRXnVMkwFTekvlp+R2Rx2IjtIwG0O5H3Zoj9Qw/kKjOjX46eU30bH866OiuKXDOAlsmvn/nc3WZ111X3HMnSdSH/LJT9HX/ABpp0zUR/wAsT+DL/jXUUVzvhXB9JS+9f5F/2tW7L+vmct/Zuo/88G/Nf8aUaXqR/wCWP5sv+NdRRSXCmE6yl+H+Q/7Wrdl/XzOaGkaieqIPq6/0qRdEvD954V/Fj/IV0NFbR4XwMd+Z/P8AyRDzSu9rfcYqaF/z0uPwRP6k1Zj0awX73mSf7zYH/juK0aK76WR4CltST9bv8zCWOxEt5foRRW1rD/qoY1PqFGfzPNS0UV6sKcKa5YJJeRySk5O8ncKKKKskKKKKACiiigAooooAKKKKACiiigAooooAKKKKACiiigAooooAKKKKACiiigDI1/VhpVmWQg3U+Y7dT2OOXI9BXmLM7szuxZ3YszMclmPJJNaevag2o6lcyhswxEwW47bEOMj6nJrLr9ByvBrC0Vf4nq/8vkfF5hiniKrt8K2/zCiiivVPOCiiigAooooAKKKKACiiigDQ0SbyNW0uTOB9oSM/ST92f516tXjSMUdHU4KMrA+hBzXsMEongt5l6SxRyj6OoavkeIafvQqeq/r7z6XJZ+7OHzMvxLD5ukXRA5haOYf8BYA/pmvPK9UvIRcWt3AeksMifmpFeVkEEg8EEgj3HFfBY6NpKR5vEFO1aNTuvy/4cKKKK88+bCiiigAqWK6vIceTcTx4/wCecjqPyBqKimnbYpScXdGnHr2uxYxeyMB2kCOPzIz+tXI/FmsrjettIPeMqfzB/pWBRWqrVFtJnVDHYmHw1H951KeMbr/lpZRH3SRh+hFTr4yg/jsZf+ASIf51x9FWsVVXU6Y5vjI/b/Bf5Har4w08/etbkfih/kakHi7Se8VyP+AA/wBa4air+uVTVZ3i11X3Hdf8Jbo/9y5/79j/ABpp8XaX2huT/wABUf1rh6KPrlUf9uYvuvuO0bxjZD7tncH6tGP61A/jI8+VY/TzJf8A4kVyVFS8VVfUzlnOMf2vwR0Uni7VG/1cNtH9Q7/zIqlN4g12bIN2yA9olVP1xn9ayqKzdapLeRyzx+JqfFUf32/I7HwzrEkzNYXcrPIdz28kjEsw6shJ/MV1VeTxSyQSxTRMVkidZEI7MpzXqFldJe2ltdJ0mjViPRuhH4HNejg6rnHle6PqMkxrrU3Rm9Y/l/wCxRRRXcfQhRRRQAUUUUAFFFFABRRRQAUUUUAFFFFABRRRQAUUUUAFFFFABRRRQAVna3dGz0rUJ1OHEJRP95/kH860a5vxk5XSVQf8tLqEH6Llq68FTVXEQg+rRzYqbp0JyXZnntFFFfpZ8GFFFFABRRRQAUUUUAFFFFABRRRQAV6b4ZuPtGjWRJy0Ie3f6oeP0xXmVdp4Jufl1GzJ+6UuEHsfkb+leJndL2mF5v5Wn+h62U1OTEcvdW/U7KvMtXt/s2pahFjC+czp/uv8/wDWvTa4nxdbbLy1uQOJ4jGx/wBuM8foa/N8ZG9O/Y9DPqXPh1NfZf56f5HNUUUV458QFFFFABRRRQAUUUUAFFFFABRRRQAUUUUAFFFFABRRRQAV2vhC5L2l1bMf9RKHT/dkGa4qul8HuRe3qdnt1P4q9dOFlaqj1coqOGLh53X4HbUUUV7h+ghRRRQAUUUUAFFFFABRRRQAUUUUAFFFFABRRRQAUUUUAFFFFABRRRQAVzXjNCdKif8AuXUWf+BAiulrK8RWxudH1BAMskfnIP8AajO7/GuzAzVPE05PujlxkHOhOK7M8uooor9KPhAooooAKKKKACiiigAooooAKKKKACtjw1dfZdYsyThJ91u/p844J/GsenI7xvHIhw8brIp/2lO4VjWpKtTlTfVWNaVR05qa6M9krD8UWv2jTHkUZe1dZh67fusB/ntWrZ3C3draXK/dnhjkH/Ahk1JNEk8M0L/dljeNvowxX5bWptqUGfb16axFCUP5l/wx5PRUk0T2800DjDwyPG31U4qOvndj8zaadmFFFFIQUUUUAFFFFABRRRQAUUUUAFFFFABRRRQAUUUUAFdL4PXN7et/dtlH/fT1zVdn4PgK217ckf62URofZBz/ADrpwqvVR6uUQc8XDyu/wOoooor3D9BCiiigAooooAKKKKACiiigAooooAKKKKACiiigAooooAKKKKACiiigApGVXVkYZVlKsD3BGCKWigDyTUrR7C+vLVv+WUrbD6o3zKfyqpXc+MdMMkUWpRLl4B5VzjqYiflY/Q/z9q4av0jAYlYqhGp12fqfDYzDvD1nDp09AoooruOMKKKKACiiigAooooAKKKKACiiigD0Dwdeedp8tox+e0lO0Hr5UnzD9c101eaeGL77FqsAY4iugbaTPTLHKn88V6XXwOcYf2OJbW0tf8/xPssrre1w6T3Wn+Rwfiq08jUFuFGEu0DH08xPlb+lYFeheI7L7ZpsrKuZbY+fHjqQvDAfhXntfGYqHJUfmfJ5xh/Y4ltbS1/z/EKKKK5TyAooooAKKKKACiiigAooooAKKKKACiiigAooooAAGYqqglmIVQOpJ4Ar0/TLQWNjaW2PmSMGT3kb5mrj/DGnG6vPtUinyLQhgSOGm6qPw6/lXeV6uCp2Tm+p9hkOF5YvES66L0/r8gooor0D6YKKKKACiiigAooooAKKKKACiiigAooooAKKKKACiiigAooooAKKKKACiiigBskccsckUiho5FZHU9CrDBFeW6zpUuk3jwkEwPl7aTs0eehPqOhr1SqGq6Zb6raPby4Dj5oJMcxyDofp616uWY94Sr73wvf/ADPOx+D+s09PiW3+R5RRU95aXNjcTWtwu2WI4Pow7Mp9DUFffxkpJSjsz42UXF2e4UUUVRIUUUUAFFFFABRRRQAUUUUAKCylWU4ZSGU+hByDXq+k3q6hp9pdA/M6BZR6SL8rCvJ66zwbqAinn06RvluP3sGTwJFHzKPqOfwrw86w3tsPzreOvy6/5nr5VX9lW5HtL8+h3RAYFSMgggg9weK8y1ayawv7m3wRHuMkJPeN+R/hXptc94p0/wC02a3ca5ltMlsdWhPX8uv51+dYunzwut0epnOF9vQ547x1+XU4WiiivFPgwooooAKKKKACiiigAooooAKKKKACiiigAqa2tp7ueG3gXdJKwUegHdj7ColV3ZURSzuQqqoyWJ6ACvQNB0ZdNh82YKbyYDeevlr18tT/ADrooUXVlboejl+BljKnL9lbs0NPsodPtYbaLogy7d3c9WNWqKK9xJJWR+hwhGEVGKskFFFFMoKKKKACiiigAooooAKKKKACiiigAooooAKKKKACiiigAooooAKKKKACiiigAooooAyta0W21eDBxHdRg+RNjp/st/smvNbuzu7Gd7e6jMcqdj0YdmU9CK9fqhqelWOqwmK4XDqD5UygeZGfY+nqK9zLc1lhf3dTWH5f12PJx2XrEe/DSX5nlFFaWqaNf6VIVnQtATiOdAfLb2Pofas2vtqdSFWKnB3TPk505U5cs1ZhRRRWhAUUUUAFFFFABRRRQAVJBPLbTwXERxJDIsiH3U5qOik0mrMabTuj12wvIr+0truL7syBiOpVujKfoasMqurIwBVgVYHoQRgg1znhC1vrewkknYiK5cS28R6quMF/+Bf0966SvzPF0oUq0qcHdJn3mHnKrSjKas2jzTWNOfTb2WHB8l8yW7djGT0+o6Vn16RrWmJqdo0YwLiPL27ns390n0NecyRyRO8cilZEYq6sMEMOCDXzeIo+ylpsz4fNMC8JV934Xt/kNooorlPJCiiigAooooAKKKKACiiigApyJJK6RxqzyOwVFUZLE9gKns7G8v5RDbRl243N0RB6s3Su80jQ7XTEDnEt2w+eUj7v+zGD0FdFGhKq/I9PA5dVxkrrSPV/5FbQtASwC3V0Fe8YfKOqwA9h7+prfoor2oQjTXLE+8w+Hp4eCp01ZBRRRVm4UUUUAFFFFABRRRQAUUUUAFFFFABRRRQAUUUUAFFFFABRRRQAUUUUAFFFFABRRRQAUUUUAFFFFADJYoZ43imjSSNxhkcBlI9wa47VfB7AvPpTZHU20h6f9c3P8jXaUV2YXGVsLK9N/Loc2IwtLEK1RfPqeOzQz28jQzxPFKpwySKVI/Oo69dvNPsL9PLu4I5R2LD5l/3WHNcpfeCz8z6dc8cnyrn+QkX+or6vC55Qq6Vfdf4HzmIymrT1p+8vxONoq/d6PrFkT9os5go/jQb4/wDvpMiqHTrx9eK9yFSFRc0HdeR5MoSg7SVgoooqyAooq9ZaRquoMBbW0hQ/8tXBSIfV24qJ1I01zTdkXCEpvlirso11Ph3w3JdNFfX6bbVTuihcENMR0Zh/d/nWvpPhOzsyk96y3NwuCqY/cofYHkn6103SvlswzpNOlhvv/wAv8z6DBZU01Ur/AHf5gAAAAAABgAcAAUUUV8qfRBXP69oK36m6tQFvFHzL0WdR2Pv6GugoqJwVSPLI58Rh6eJpunUWh5NJHJE7xyIySISrqwwykdiDTa9J1LRrDU1zKuycDCTR8OPZvUVx974c1e0LMkf2iIdHg5bHunX+deRVws6e2qPicZlNfDu8VzR7r9UY1FKyshKurKw4IYEEfgaSuU8cKKKPp+lIAoq3babql3j7PaTOD/Ft2p/302B+tb1n4RuH2tezrGveOH5nI92PH6GtoUZz+FHZQwOIr/w4P16fecuqu7KiKzOxwqqCWJ9gK6PTfC13PtlvyYIuD5Yx5zD37CuqstL03T1xbQKrd5G+aQ/VjzV2u+lg0tZ6n0uEyKEPexDu+y2/4JDa2lrZxLDbRLHGOyjkn1Y9SamoorvSS0R9HGKiuWKsgoooplBRRRQAUUUUAFFFFABRRRQAUUUUAFFFFABRRRQAUUUUAFFFFABRRRQAUUUUAFFFFABRRRQAUUUUAFFFFABRRRQAUUUUAFVZ9O0y5z59nbyE9WaNN3/fWM/rVqiqjOUHeLsTKKkrSVzHfwz4cck/YVUn+48g/wDZqaPC3hwHJs8+zSSY/Q1tUV0/XcStPaP72YfVaG/IvuRRg0fRrbBhsbZSOhKB2H0L5NXuBwOgoornnUnN3m2/U3jCMFaKsFFFFQUFFFFABRRRQAUUUUARS21pP/r4IZP+ukat/MVSfQtCc5axh/Auv/oJFaVFS4RlujGdClU+OKfqjMXQNAU5FjF+LSH+bVaisNOgx5VpboR3WNN354zVmikoRWyFHD0Yaxgl8kFFFFWbhRRRQAUUUUAFFFFABRRRQAUUUUAFFFFABRRRQAUUUUAFFFFABRRRQAUUUUAFFFFABRRRQAUUUUAFFFFABRRRQAUUUUAFFFFABRRRQAUUUUAFFFFABRRRQAUUUUAFFFFABRRRQAUUUUAFFFFABRRRQAUUUUAFFFFABRRRQAUUUUAFFFFABRRRQAUUUUAFFFFABRRRQAUUUUAFFFFABRRRQAUUUUAFFFFABRRRQAUUUUAFFFFABRRRQAUUUUAFFFFABRRRQAUUUUAFFFFABRRRQAUUUUAFFFFABRRRQAUUUUAFFFFABRRRQAUUUUAFFFFABRRRQAUUUUAFFFFABRRRQAUUUUAFFFFABRRRQAUUUUAFFFFABRRRQAUUUUAFFFFABRRRQAUUUUAFFFFABRRRQAUUUUAFFFFABRRRQAUUUUAFFFFABRRRQAUUUUAFFFFABRRRQAUUUUAFFFFABRRRQAUUUUAFFFFABRRRQAUUUUAFFFFABRRRQAUUUUAFFFFABRRRQAUUUUAFFFFABRRRQAUUUUAFFFFABRRRQAUUUUAFFFFABRRRQAUUUUAFFFFABRRRQAUUUUAFFFFABRRRQAUUUUAFFFFABRRRQAUUUUAFFFFABRRRQAUUUUAFFFFABRRRQAUUUUAFFFFABRRRQAUUUUAFFFFABRRRQAUUUUAFFFFABRRRQB//2Q==;imageBorder=default;fontFamily=Fira Code;" vertex="1" parent="HewII5I395oueKauFgrz-9">
          <mxGeometry x="140" y="80" width="80" height="80" as="geometry" />
        </mxCell>
        <mxCell id="HewII5I395oueKauFgrz-17" value="Drive ???" style="shape=image;verticalLabelPosition=bottom;labelBackgroundColor=default;verticalAlign=top;aspect=fixed;imageAspect=0;image=data:image/jpeg,/9j/4AAQSkZJRgABAQEAAAAAAAD/4QBCRXhpZgAATU0AKgAAAAgAAYdpAAQAAAABAAAAGgAAAAAAAkAAAAMAAAABAAAAAEABAAEAAAABAAAAAAAAAAAAAP/bAEMACwkJBwkJBwkJCQkLCQkJCQkJCwkLCwwLCwsMDRAMEQ4NDgwSGRIlGh0lHRkfHCkpFiU3NTYaKjI+LSkwGTshE//bAEMBBwgICwkLFQsLFSwdGR0sLCwsLCwsLCwsLCwsLCwsLCwsLCwsLCwsLCwsLCwsLCwsLCwsLCwsLCwsLCwsLCwsLP/AABEIAdoB2gMBIgACEQEDEQH/xAAfAAABBQEBAQEBAQAAAAAAAAAAAQIDBAUGBwgJCgv/xAC1EAACAQMDAgQDBQUEBAAAAX0BAgMABBEFEiExQQYTUWEHInEUMoGRoQgjQrHBFVLR8CQzYnKCCQoWFxgZGiUmJygpKjQ1Njc4OTpDREVGR0hJSlNUVVZXWFlaY2RlZmdoaWpzdHV2d3h5eoOEhYaHiImKkpOUlZaXmJmaoqOkpaanqKmqsrO0tba3uLm6wsPExcbHyMnK0tPU1dbX2Nna4eLj5OXm5+jp6vHy8/T19vf4+fr/xAAfAQADAQEBAQEBAQEBAAAAAAAAAQIDBAUGBwgJCgv/xAC1EQACAQIEBAMEBwUEBAABAncAAQIDEQQFITEGEkFRB2FxEyIygQgUQpGhscEJIzNS8BVictEKFiQ04SXxFxgZGiYnKCkqNTY3ODk6Q0RFRkdISUpTVFVWV1hZWmNkZWZnaGlqc3R1dnd4eXqCg4SFhoeIiYqSk5SVlpeYmZqio6Slpqeoqaqys7S1tre4ubrCw8TFxsfIycrS09TV1tfY2dri4+Tl5ufo6ery8/T19vf4+fr/2gAMAwEAAhEDEQA/APXKPYUewo6fWgA/nR0o6fWj3NAB9aKPc0dfpQAfyo60dfpR7CgA9hR/OjpwKOn1oAOlHTrR05NHuaAD60fyo6/Sjr9KADr9KPpR7Cj2FAB7Ufzo6fWjp9aADpR9aPc0e5oAOaOv0o6/T+dHWgA+lHsKPYUdOlAB/OjpR0+tHuaAD60fWj3NHX6UAH8qOvTpR1+lHsKAD2FHt3o6cCjp9aADpR060dOTR7mgA+tHNHX6Udfp/OgA6/Sj6Uewo9hQAew60fzo6fWjp9aADpR9aPc0e5oAOaOv0o6/T+dHX6UAHXpR7Cj2FHTgUAH86OlHT60dOTQAfWj60e5o6/SgA/lR1+lHX6UewoAPpR/Oj2FHT60AHSjp1o6cnrR7mgA+tHNHWjr9P50AHX6UUewooAP50dPrRwKPc0AHuaPc0e5o6/SgA6/Sjr9KOv0o9hQAewo6cCjpwKOn1oAOn1o6cmjpyaPc0AHuaOv0o6/Sjr9KADr9KPYUewo9hQAewo6fWjp9aOn1oAOn1o9zR7mjryaAD3NHX6fzo6/T+dHWgA60ewo9hR0470AHTgdaOn1o6fWjpyaAD3NHuaPc0dfpQAdfpR1+lHX6UewoAPYUewo9hR0+tAB0+tHTk0dOTR7mgA9zR1+lHX6Udfp/OgA6/T+dHsKPYUewoAPYUdPrR0+tHT60AHT60e5o9zR7mgA9zR1+n86Ov0/nR1+lAB1o9hR7CjpwKADpwKOn1o6fWj3NAB7mj3NHuaOv0oAOv0o6/Sjr9KPYUAHsKPYUewo6fWgA6fWjpyetHTk0e5oAPc0daOtHX6fzoAOv0/nR14FHXgUewoAPYUUdPrRQAe9HuaKOv0oAOv0o6/Sjr9KPYUAHsKOnAo6cCjp9aADp9aOnJo6cmj3NAB7mjr9KOv0o6/SgA6/Sj2FHsKPYUAHsKOn1o6fWjp9aADp9aPc0e5o9zQAdeTR1+n86Ov0/nR1oAOtHsKPYUdOB1oAOn1o6fWjp9aPc0AHuaPc0e5o6/SgA6/Sjr9KOv0o9hQAewo6cCjpwKOn1oAOn1o6cmjpyaPc0AHuaOv0o6/Sjr9P50AJ1+n86X2FHsKPYUAHsKOn1o6fWjp9aADp9aPc0e5o9zQAe5o6/T+dHX6fzo6/SgA6/Sj2FHsKOnAoAOnAo6fWjp9aPc0AHuaPc0e5o6/SgA6/Sjr9KOv0o9hQAewo9hR7Cjp9aADp9aOnJo6cnrR7mgA9zR1o60dfp/OgA6/T+dHsKPYUewoAPYUdPrR0+tHT60AHT60Ue5ooAOv0o6/SjrR7CgA9hR04FHTgUdPrQAdPrR05NHTk0e5oAPc0dfpR1+lHX6UAHX6Uewo9hR7CgA9hR0+tHT60dPrQAdPrR7mo5Zre3RpbiWOKNeryuqIv1ZjisC68a+ErYkG/E7A422scko/76A2/rQB0fuaOv0/nXGn4i+Gc4EWpEeogjGfzkFH/CxfDX/PDU/wDvxF/8doA7LrR7CuN/4WL4Z7Qan/34i/8AjtJ/wsXwyP8Alhqf/fiL/wCO0Adn06UdPrXGf8LF8Mj/AJYan/34i/8AjtH/AAsXwz18jU/+/EX/AMdoA7P3NHua4z/hYvhnvBqf/fiL/wCO0f8ACxfDJ/5Yan/34i/+O0Adn1+lHX6Vxn/CxfDX/PDU8f8AXCL/AOO0v/CxfDX/ADw1P/vxF/8AHaAOy9hR7CuN/wCFi+Ge0Gp/9+Iv/jtH/CxfDI/5Yan/AN+Iv/jtAHZdPrR05Ncb/wALF8M/88NT/wC/EX/x2k/4WL4Z6+Rqf/fiL/47QB2fuaOv0rjP+Fi+Gf8Anhqf/fiL/wCO0f8ACxfDR/5Yanj/AK4Rf/HaAOz6/T+dHsK43/hYvhn/AJ4an/34i/8AjtH/AAsXwz2g1P8A78Rf/HaAOy9hR0+tcb/wsXwyP+WGp/8AfiL/AOO0n/CxfDP/ADw1P/vxF/8AHaAOz6fWj3NcZ/wsXwz18jU/+/EX/wAdo/4WL4Z/54an/wB+Iv8A47QB2fuaOv0/nXGf8LF8Mn/lhqf/AH4i/wDjtL/wsXw1/wA8NT/78Rf/AB2gDsuv0o9hXG/8LF8NdoNT/wC/EX/x2k/4WL4ZH/LDU/8AvxF/8doA7PpwKOn1rjf+Fi+GR/yw1P8A78Rf/HaT/hYvhnr5Gp/9+Iv/AI7QB2fTk0e5rjP+Fi+Ge8Gp/wDfiL/47R/wsXwyf+WGp/8AfiL/AOO0Adn1+lHX6Vxv/CxfDJ/5Y6nj/rhF/wDHaswePPCUxCtczwZ73FvIAPxTcKAOp9hR7CqtpqGm36b7G7t7hcZJhkVyP94A5H5Va6fWgA6fWjpyaOnJ60e5oAPc0daOtHX6fzoAOv0/nR7Cj2FHsKAD2FHT60dKOn1oAOn1o9zR7mj3NAB7mijr9KKAD2FHTgUfzo6fWgA6fWjpyaOnJo9zQAe5o6/Sjr9KOv0oAOv0o9hR7Cj2FAB7Cjp9aOn1o6fWgA6cmuF8Q+PILNpbPRxHcXKkpJct81vEw4IjA+8R9cfWqfjjxRIHm0TT5Cu0bdRmjOGyR/x7oR/4/wDl6153QBavtQ1LUpTNf3U1w+cjzWyi+yIPlA+gqrRRketMAoqQQXTDK29ww9VhkI/MCl+zXn/Prdf9+Jf/AImgCKipfs15/wA+t1/34l/+Jo+zXn/Prdf9+Jf/AImgCKipfs15/wA+t1/34l/+Jo+zXv8Az63X/fiX/wCJoAioqX7Ne/8APrdf9+Jf/iaPs15/z63X/fiX/wCJoAioqX7Nef8APrdf9+Jf/iaPs15/z63X/fiX/wCJoAioqX7Nef8APrdf9+Jf/iaPs15/z63X/fiX/wCJoAioqX7Ne/8APrdf9+Jf/iaPs17/AM+t1/34l/8AiaAIqKl+zXv/AD63X/fiX/4mj7Nef8+t1/34l/8AiaAIqKl+zXn/AD63X/fiX/4mj7Nef8+t1/34l/8AiaAIqKl+zXn/AD63X/fiX/4mj7Ne/wDPrdf9+Jf/AImgCKipfs17/wA+t1/34l/+Jo+zXn/Prdf9+Jf/AImgCKipfs15/wA+t1/34l/+Jo+zXn/Prdf9+Jf/AImgCKipfs15/wA+t1/34l/+Jo+zXn/Prdf9+Jf/AImgCKipfs15/wA+t1/34l/+Jo+zXv8Az63X/fiX/wCJoAioqX7Ne/8APrdf9+Jf/iaPs15/z63X/fiX/wCJoAioqX7NeD/l1ufxgl/+JqI/KdpBDejDB/I0APilmt5FmglkilU5WSF2RwfZlINdvoXj+9tmjt9aBubfhRdRqBcRj1kUcMPyP1rhaKAPoW3uLa7hiubaVJoJVDxSRncrKfQ1L1rxjwt4ln0K6WOZmfS7hx9pj5PksePPjHqP4h3HuK9lR0lRJEYNG6q6MpyGVhkEEdqQDuv0/nR7CjrwKPYUAHsKOn1o6fWjp9aADp9aPc0e5o9zQAe5o6/Sk6/T+dL1+lAB1+lFHsKKADpR05NHA5o9zQAe5o6/Sjr9KOv0oAOv0o9hR7Cj2FAB7Cjp9aOn1o6fWgA6fWsrX9TGkaTqF/x5scey3B6GeQ7EH5nJ+lavua4L4k3DrY6PbA4We7lmYeohjwM/99UAeZszuzySMWd2Z3ZjkszHJYn3pKKs2Fo9/fWFkhw13cwwbv7odgC34DJpgbnhrwnea832iV2t9NRirTAZkmYdUhB4+p/n29P07w9oGlqq2djCJABmaVRLMSO5kfJ/LFaFtb29nb29pbIEht40ijVeiqowKm6fWkAdMAUdKQlUDMxAABLEkAADnJJrEn8WeE7aRo5dVty6nDCESTAH/eiUj9aANzpyaPc1QsNX0bVMmwvre4K8lI3HmKPUo2G/Sr/X6UAHX6UdfpR1+lHsKAD2FHt3o6cCjp9aADpR060dOTR7n/8AVQAe5oo6/Sjr9P50AHX6UdelHsKPYUAHsKOlHT60dPrQAdOtHuaPc0e5oAPejr9KOv0/nR1oAOtHsKPYUdOBQAe3ejpR0+tHuaADpyaPc0e5o6/SgA6/Sjr9KOv0o9hQAewo9hUF1d2VjEZru4hgiHV53VFz6At3rHHjHwfv2DVYc5xuKTBM/wC8Ux+tAG/0qpeabpd+jJe2dtOrDH72NSw/3WxuH51Lb3NrdRLPbTxTxP8AdkhdXQ+wKnFTe5oA8z8R+Azaxy32i+ZJEgLzWTkvIijktAx5OPQ8+56VwPWvorrzXjXjbTItN1yUwKFgvoxeIq8KrsxWQADtkZ/GgDmq9V+H2rPd6dPpsr5l05l8ok8m2kyVH/ASCPpivKq6vwDcND4hiiBwt1aXMLe+wCUfypgev+wo6fWjp9aOn1pAHT60e5o9zR7mgA9zR1+n86Ov0o6/SgA6/Sj2FHsKOnAoAOnAoo6fWigA96Ov0o/lR1+lAB1+n86PYUewo9hQAewo6fWjp9aOn1oAOn1o9zR7mj3NAB7mvOviZz/wj/pm+/8AaVei9fp/OvOviZ/zL/1vv/aVAHnVbHhf/kYtA/6/V/8AQGrHrY8L/wDIxaB/1+r/AOgNTA9y6dOtHT60dPrVLVZJIdM1aZM+ZHYXbpjqGWJiMUgPLfF3ie51W7uLG1lZNLt5GiCxkj7U6HBkcjqufuj8e/HKUg6D6ClpgPilmgljngkeKaJg0ckTFXRh3DDmvYPCHiJ9dspI7kqNQsiiXBUACZGztlAHrgg+4968crrvh9JIniAxrnZNY3KyemFZGB/P+dAHrnsKOnAo9hR0+tIA6fWjpyaOnJo9zQAe5o6/Sjr9KOv0/nQAdfp/Oj2FJ/IdTWVe+I/Den5W51K1Vxn93G3mycdtkWTQBrewo6fWuJufiNoMWRa2t7cn1KpCh/Fzu/8AHayZviVfkn7PpVsg9Z55JD+SKv8AOgD0zp9aPc15K/xD8Ttysenx+mIZGx+LSVD/AMJ94tP/AC1sv/AYf/FUAewe5o6/T+deRp8QfFK/eFg49Gt2Gf8AvlxVuL4k6uCPO06ykHfynmjJ/PdQB6j1+lHsK4O3+JOmsQLrTbuH1aF45gPwO01u2fjDwpebVj1GOGRuAl2GgOfrIAv60Ab/AE4FHT602OSKRBJG6yI3IaNgyn6EcU73NAB7mj3NHuaOv0oAOv0o6/Sjr9KPYUAHsKo6tqVto+n3d/PysCZVAcGSRjtRB9Tj/Iq97CuF+JMki6ZpcQJ2S3xaT3KRMVz+dAHnmp6pqOr3T3d9KXck+WgJ8qFOyRL0A/nVKiimBpaNrWo6HdJc2bnYWH2i3JPlTp3Vh0z6Ht/P26wvbfUrO0vrc5guYllTPUZ6q3uDkH6V8/1618PJJH0BkYnbFf3KR5/ukJIQPxJpAdh1+n868w+JX/IR0b/ryn/9GivT/YV5h8Sv+Qho3/XlP/6NFAHCV0Xgr/kZtJ+l1/6IeudrovBX/IzaT9Lr/wBEPTA9o6fWj3NHuaPc0gD3NHX6fzo6/T+dHX6UAHX6Uewo9hR04FAB04FHT60dPrR05NAB05NFHuaKADr9KPYUe1HsKAD2FHT60dPrR0+tAB0+tHuaPc0deTQAe5o6/T+dHX6fzo60AHWvOviZ/wAy/wDW+/8AaVei+wrzn4mf8y/9b7/2lQB53Wx4X/5GLQP+v1f/AEBqx62PC/8AyMWgf9fq/wDoDUwPcvc0ySNJY5I5BlJEaN1PdWG0in+5o6/SkB4LrGlXOjahc2M6nEbFrdyOJoCfkdT+h9xWfXvGr6LpWtwCC+h3bMmGVDtmiY943/mOlcRcfDW43n7Jq0Zjz0uYG3gemY2wfyFAHn1ek/DvR5okutZnQqLiP7NZBhgtEG3PLz2JAA+h9as6X8PNMtZEl1G5e9ZSGEITyrfI/vjJYj8RXbqqIqoihVUBVVQAAAMAADjFAC9PrR05NHTk0e5oAPc0dfpUNxcW1rDJcXU0cMEQ3PJKwVVHuTXnuufEJ2Mlvoce1eVN7cLyfeGJv5n8qAO71DVNL0yLzr+6igj/AIfMb539kQfMfwFcPqnxHHzx6PZ56gXF7kD6rChz+bD6V5/cXN1dzPPdTyzzv96SZy7H2ye1LbW13eSrBaW808zdI4EZ2+p20AXdQ17X9ULfbNQndD/yyjbyoR/2zjwPzzWZgDoK7TTfh5rNzsfUJ4bKM4JjXE9xjryFOwf99GuusfAvhazCmW3kvJRj5rxyy59o0wn6GmB48ivI22NWdj0WNSzfkvNaUHh/xJcgNDpN+ynozQtGv5yYFe4W9pZWihba2t4FAxtgiSMY/wCAgVP7mkB4vH4J8YSc/wBnhB/01uLdf03k1N/wgfi8/wDLtbf+BUdexdfp/Ojr9KAPGn8D+MFHFjE3+5dQH/0JhVKbwx4qgzv0i8IHUxIso/8AIRNe5ewo6cDrQB88zQXNudtxBNC3pNG8Z/8AHwKj4+tfQ8kcUilJUSRT1WRQyn8G4rEvfCPhW+DNJp8UMjf8tLPMDD8I/l/NaAPHLPUNS0999jeXFu3/AExkZVP1X7p/Kuu034iarAVTU7eK8jHBkhxDOPcgfIfyFWtR+G8yhpNLvw45IhvV2t9BLGMfmtcZqOkaxpT7NQs5oBnCyEboX/3ZVyv60wPZNK8SaDrO1bS6UTYybaf93OP+AN1/Amtjr9K+dQSCrKSGUgqykggjuCOa6/RfHWsacY4L/df2gwuXIF1Gv+zIev0P50gPW/YUewrP0vWNK1iAT6fcLIBgSRn5ZYie0iHkVodPrQAdPrWB4t0iTWNGuIIRuu4HW6tV/vyRggoP94Ege9b/AE5PWj3NAHzqQylgwKspKsrAgqQcEEHvRXseueDNH1qR7pS9nevy80AUrKfWWM8E++Qa5ofDS+L86tb+Vn7wt5N+P90vj9aAODjjllkjiiRpJZHWONEBLO7HAVQO5r3Hw5pR0fSLGxbHnKrS3JXkefKd7AH26fhVTQvCWj6Gwnj33N7gj7TcAZQHgiJBwM/ifeui9hQAewrzD4lf8hDRv+vKf/0aK9P6fWvMPiV/yENG/wCvKf8A9GigDhK6LwV/yM2k/S6/9J3rna6LwV/yM2k/S6/9J3pge0e5o6/Sjr9KOv0pAHX6Uewo9hR04FAB04FHT60dPrR05NAB05NHuaPc0dfpQAdfpRR1+lFAB7Cjp9aP50dPrQAdPrR7mj3NHXk0AHuaOv0/nR1+n86OtAB1o9hR7Cjpx3oAOnSvOfiZ/wAy/wDW+/8AaVejdPrXnPxM/wCZf+t9/wC0qAPO62PC/wDyMWgf9fi/+gNWPWx4X/5GLQP+v1f/AEBqYHuXX6UdfpR1+lHsKQB7Cj2FHsKOn1oAOn1o6cmjpyaPc0AHuaxNe8SaZoMIM5826kUm3tIyPMftuY9l9z+tZ/inxbBoqNaWmybVHXIU8x2qsOJJcd/7q/06+S3Fxc3c81zcyvNPM26SSQ5Zj/npQBf1jXdW1ybzb2X90rEw20eRBCP9le59zzWfBBcXMsdvbRSTTyHbHHEpZ2PsBWvoPhvVNflxAPKtEbE93Ip8tfVYx/E3t+ZFes6NoGk6HD5VlEDMygTXMmGnlP8AtN6egHFAHGaL8PJH2T63KUBwws7Zhu+kso6fQfnXf2Vhp2mwiCxtYYIx/DEoBY+rN1J9yatdPrR0+tAB0+tHuaPc0e5oAPc0dfp/Ojr9P50dfpQAdfpR7Cj2FHTgUAHTgUdPrR0+tHuaAD3NHuaPc0dfpQAdfpTJI4p0eKWNJInGHSRQysPQq3FP6/Sj2FAHE6z8P9Mu/Mm0lxZXHJ8o5a1c+mPvL+HHtXnGpaVqmkT/AGe/tnhc52MfmilA7xyDg1777Cq15ZWN/bva3sEc8EnVJBnn1U9QfQigDwW0vL2wuI7qynkguI/uvGcEj+6w6EeoIr1Lw141tNUMVnqPl22onCo2cQXJ/wBgnox9D+HoOW8SeCbzShLead5l1p4yzpjdcWy/7QH3lHr19fWuP9/xGKYH0V7mjrXm3hTxqyGHTNalyhIS1vZDyp6CO4J7ejfn6j0jr9P50gF6/T+dHsKPYUewoAPYUdPrR0+tHT60AHT615h8Sv8AkIaN/wBeU/8A6NFen+5rzD4lf8hDRv8Aryn/APRooA4Sui8Ff8jNpP0uv/RD1ztdF4K/5GbSfpdf+iHpge0dfpR7Cj2FHTgUgDpwKOn1o6fWj3NAB05NHuaPc0dfpQAdfpR1+lHX6UewoAPYUUewooAOBzR7mj3o9zQAdeTR1+n86Ov0/nR1oAOtHsKPYUdOnWgA6cDrR0+tHT60e5oAPc15z8TP+Zf+t9/7Sr0b3Nec/Ezn/hH/AK33/tKgDzutjwv/AMjFoH/X6v8A6A1Y9bHhf/kYtA/6/V/9AamB7l7CjpwKPYUdPrSAOn1o6cmjpyaPc0AHuf8A9Vcp4t8UposP2S0ZX1SdMoDhltozx5sg9f7o/HoOdDxJr0Gg2DTkK91NujsoSfvyY+83favU/l3rxW4uLi7nnubmRpZ53MksjdWY/wBPSgBkkksskksrtJJI7PI7ks7uxyWYnvXV+FfCM+ssl7eh4tLVvlAysl2QeQh7L6n8vUHhHwq2syi9vVZdLhfAXkG7kU/cU/3B/Efw+nraqkapHGqqiKFRVACqoGAABxigBkEFvawxW9tEkUMShI441CoijsAKl6fWjp9aOn1oAOn1o9zR7mj3NAB7mjr9P50dfp/Ojr9KADrR7Cj2FHTgUAHTgUdPrR0+tHuaAD3NHuaPc0dfpQAdfpR1+lHX6UewoAPYUewo9hR0+tAB0+tHTk0dOT1o9zQAe5rgPFXgpZxNqWjRBZ+ZLizQALN3LwjoG9R3+vXv+tHX6UAfOpB5BBBBIIIwQRwQQa77wZ4tMLQaPqkv7hiI7G5kP+qJ4EMjH+Hsp7dOnTQ8Z+ExdLNq+mRf6UgL3sEY/wCPhR1kQD+Md/X6/e8x4I9jTA+ivYUdPrXD+CPExvol0i/kzewJ/okrnm4hUfdYn+Jf1H0Ndx0+tIA6fWj3NHuaPc0AHua8w+JX/IQ0b/ryn/8ARor0/r9P515h8Sv+Qho3/XlP/wCjRQBwldF4K/5GbSfpdf8Aoh652ui8Ff8AIzaT9Lr/ANJ3pge0dOBR0+tHT60dOTSAOnJo9zR7mjr9KADr9KOv0o6/Sj2FAB7Cj2FHsKOn1oAOn1oo6fWigAo6/T+dHX6UdaADrR7Cj2FHTgdaADp9aOn1o6fWj3NAB7mj3NHuaOv0oAOv0rzr4mf8y/8AW+/9pV6L1+ledfEz/mX/AK33/tKgDzqtjwv/AMjFoH/X6v8A6A1Y9bHhf/kYtA/6/V/9AamB7l0+tHTk0dOTR7mkAe5qG4uILWCe6uHEcFvG8sjN0VVGSam6/SvN/iFrhZ4tDt3+VdlxqBU9W+9HCf8A0I/hQByOu6xca5qM97LuWLmO1iJ4hgB+Vfqere59qn8N6DPr9+sHzJZwbZL2Yfwx54RT/eboPxPbnIggnuZoLa3QyTzyJFEi9WdzgCvcNB0a30PToLKLDSkeZdSgcyzsPmb6DovsKANGCCC1hhtreNY4YUWOJEGFRFGABUvT60dPrR0+tAB0+tHuaPc0e5oAPc0dfp/Ojr9P50daADrR7Cj2FHTgUAHTgUdPrR0+tHuaAD3NHuaPc0dfpQAdfpR1+lHX6UewoAPYUewo9hR0+tAB0+tHTk0dOT1o9zQAe5o60daOv0/nQAdfp/Oj2FHsKPYUAHsK8u8ceGhZSvrNjHi0nf8A02JBxBM5/wBYAP4WPX0P+9x6j0+tRTwQXEM1vOiyQzo0UqMMh0YYINAHz9DNPbTQ3EEjRzwSLLE69VdTkEV7d4d1qHXNNhvBtWdP3N3ED/q5lAzj2PUfX2ryLX9Gm0PUp7N9zQn97aSH/lpAx4yfUdD9PerfhPWzouqxNKxFleFbe8B+6oJ+SX/gJ6+xNMD2r3NHX6fzpODz27e9L1+lIA6/SvMPiV/yENG/68p//Ror0/2FeYfEr/kIaN/15T/+jRQBwldF4K/5GbSfpdf+iHrna6LwV/yM2k/S6/8ARD0wPaOnJo9zR7mjr9KQB1+lHX6UdfpR7CgA9hR7Cj2FHT60AHT60dPrR069aPc0AHuaKOtFAB7Uewo9hR06UAHTgdaOn1o6fWj3NAB7mj3NHuaOv0oAOv0o6/Sjr9KPYUAHsK86+Jn/ADL/ANb7/wBpV6L04Fec/Ez/AJl/633/ALSoA87rY8L/APIxaB/1+r/6A1Y9bHhf/kYtA/6/F/8AQGpge5e5o6/Sjr9KTr9P50gKep38OmWF7fzf6u2iaTHd36Kg+pwPxrwe5uJ7u4ubqdt09xK80rerOcnHt2FegfEfVONP0eNuv+m3QHoMpEp/8eP4CuAtbae8ubW0gGZrmaOCMf7TnGT9OpoA7v4eaKHefW504jL21gGH8XSWUfT7o/GvSen1qrYWcGnWVnYwDEVtCkS+rYHLH3JyT9atdPrQAdPrR7mj3NHuaAD3NHX6fzo6/T+dHX6UAHWj2FHsP/1UdOBQAdOBR0+tHT60e5oAPc0e5o9zR1+lAB1+lHX6UdfpR7CgA9hR7Cj2FHT60AHT60dOT1o6cnrR7mgA9zR1o60dfp/OgA6/T+dHsKPYUewoAPYUdPrR0+tHT60AHT60e5o9zR7mgDmfGWif2vpUkkSZvbANc22B8zqB+8i/EdPcCvGuCPY19F9fpXini3SRpOtXcca7ba6/0y1x0CyE7kH+6cj6YoA9B8EawdU0hIJXzdaaVtpST8zxY/dP+XB/3a6r2FeMeDNUOm65ahmxb33+hT5PALn92x+jY/M17P04FAB04FeYfEr/AJCGjf8AXlP/AOjRXp/T615h8Sv+Qho3/XlP/wCjRQBwldF4K/5GbSfpdf8ApO9c7XReCv8AkZtJ+l1/6TvTA9o6/Sjr9KOv0o9hSAPYUewo9hR0+tAB0+tHT60dKPc0AHuaOtHWjr9P50AHX6fzoo68UUAH86On1o6Ue5oAPc0e5o9zR1+lAB1+lHX6UdfpR7CgA9hR7Cj2FHT60AHT615z8TP+Zf8Arff+0q9G6cmvOfiZ/wAy/wDW+/8AaVAHndbHhf8A5GLQP+v1f/QGrHrY8L/8jFoH/X6v/oDUwPcuv0/nSE/kOppfYVk+I73+z9D1i5U4dbV44v8ArpL+6XH4nNIDx7XtQOp6xql7nKSXDJD7Qxfu0/QZ/Gui+Hmm/aNUudQdcx6fDtiz08+fK5/Bd351xQGABXsXgWxFn4ftZSMSX8kl4/HO1jsQfkAfxpgdR0+tHuaPc0e5pAHuaOv0/nR1+n86OtAB1+lHsKPYUdOBQAdOBR0+tHT60e5oAPc0e5o9zR1+lAB1+lHX6VDcXNtawy3FzNHDbxKWkkkYKqge5rz3WfiJKWeDRIVVBkfa7pclveOE/wBfyoA9I/zmojcWynaZ4Q3oZEB/ImvCLzV9bv2JvNQu5s/wtKyxj6ImF/SqOB+NAH0SCpGVIIPcc5/EUvTk9a+fLe8v7Rg9rd3MDDoYJpE/RTiuq0rx/rdmyJqKrf24wCxCx3Kj1DqNp/EfjQB6z7mjrWfpWsaXrVv9osZw6rgSRt8s0TH+GRDyP5Vodfp/OgA6/T+dHsKPYUewoAPYUdPrR0+tHT60AHT60e5o9zR7mgA9zR1+n86Ov0o6/SgA6/SuM+IWnC60iK+Rcy6bMGYjr9nmwjj8DtP4V2fsKr3trHe2d5ZyAFLm3lgbPOA6lc0AfPuWBBUkMCGUjqCOQa960W/Gp6Vpl91a4t0Mn/XVfkcfmDXg8kbwySwyDEkMjxOD2ZGKn+Ven/Di98zTdQsmPNndCRB38u4XOB+Ib86AO56cmvMPiV/yENG/68p//Ror0/3NeYfEr/kIaN/15T/+jRQBwldF4K/5GbSfpdf+iHrna6LwV/yM2k/S6/8ARD0wPaPYUewo9hR0+tIA6fWjpz3o6fWj3NAB7mjrR1o6/T+dAB1+n86OvFHXpR7CgA9hRR0+tFAB70e5o96Ov0oAOv0o6/Sjr9KPYUAHsKOnAo9hR0+tAB0+tHTk0dOTR7mgA9zXnPxM/wCZf+t9/wC0q9G6/SvOfiZ/zL/1vv8A2lQB53Wx4X/5GLQP+v1f/QGrHrY8L/8AIxaB/wBfq/8AoDUwPcvYVxPxGufK0iytQebu9Ut7pCjOf12123T615l8SpibzRLfPEdtcTn6yOqf+y0gODVGkZI15aRljX/ec7RX0FaW6WlraWy4228EMC49I0C14f4fgFzrmhQsMq1/bsw/2Y28w/yr3f3NAB7mjr9P50dfp/OjrQAdfpR7Cj2FHTgUAHTgUdPrR0+tHuaAD3NHuaPc0dfpQAdfpUNzcW9rBPc3Eix28EbSyuxwFVRk1N1+leb/ABE1ljJb6JA+EVUur7afvE/6qM/T7x/D0oA5rxH4jvNfuTy8WnwsfstvnAwOBJKB1Y/p+pwqKPQDkngAckk9hTAKK7fRPAF7eRx3OrTPZxOAyW8ag3LKefnLfKv0wT9K6lPAPhJU2tb3LHH33uZd31+UgfpQB4/RXpGqfDm3KPJpF3IkgBIt7wh0f2EqgMPxBrz26tbuyuJrW7heG4hbbJHIMEHsR2wexoAl07Ub/S7qK8spTHNHwe6SJ3SRe6mvatC1u012wju4PkkU+XdQk5aGUDJX6HqD6fp4VXQeEtZfR9Xt2Z8Wl4yWt2CflAY4ST/gJ/QmgD2r2FHT60dPrR0+tIA6fWj3NHuaPc0AHuaOv0/nR1+n86Ov0oAOv0o9hR7CjpwKADpwKOn1o6fWjpyaAPEvF1r9j8RawgGFmlW6THTE6Bzj8c1q/Du58nW7i3J+W7sZAB/twsrj9N1P+I8ATV9PnAx9osNrf70UjD+RFYvhOYweI9Df+/cGA/SWNo/60wPb+v0rzD4lf8hDRv8Aryn/APRor0/r9K8w+JX/ACENG/68p/8A0aKQHCV0Xgr/AJGbSfpdf+iHrna6LwV/yM2k/S6/9EPTA9o6fWjpR0+tHuaQB7mjrR1+lHX6fzoAOv0/nR14o68UewoAPYUdPrR0+tHT60AHT60Ue5ooAOv0o6/SjrR7CgA9hR04FHsKOn1oAOn1o6cmjpyaPc0AHuaOv0o6/Sjr9P50AHX6fzrzr4mf8y/9b7/2lXovsK86+Jn/ADL4977+UVAHnVbHhf8A5GLQP+v1f/QGrHrY8L/8jFoH/X6v/oDUwPcun1ryX4hyFteiU/8ALLT7dfpueRq9a9zXj/j7J8Rzf9ednj8mpAQeCYxJ4l0rP8C3Uv8A3zA4H869n6/T+deO+A+fEtn/ANet5/6BXsXX6UAHWj2FHsKOnAoAOnAo6fWjp9aPc0AHuaPc0e5o6/SgA6/Sjr9KOv0o9hQAf5NeB6veNf6pqt4Tnz7uZl9o1bYg/ICvd7glbe5K/eEMpH1CkivnofqaACu48AaJFeXU+rXKBorF1jtVYZVrkjcX5/ujGPc+1cPXsHgJEXw5asuMvc3bv/veYV5/ACmB1XuaOtHWjr9P50gDr9P51x/jrRIr/TZNRhQfbNNQyFlHMlsOXQ49PvD6H1rsPYVBdqj2l5G+Nj286vnptKEHNAHz5QehFIOAMelLTA928P3jX+iaPducyS2sYkPcyR/u2P5g1qe5rl/AhY+G7Dd/DLdhfp5zGuo9zSAPc0dfpR1+n86Ov0oAOv0o9hR7CjpwKADpwKOn1o6fWjpyaADpyaPc0e5o6/SgDzr4mRjGgTe97H+kbCuH0iQxato0n9zULM/+RVrvfiXg2uhf9fVyP/IYrz2yz9u07H/P5af+jVoA+gvYV5h8Sv8AkIaN/wBeU/8A6NFen+wrzD4lf8hDRv8Aryn/APRooA4Sui8Ff8jNpP0uv/RD1ztdF4J/5GbSfpdf+k70wPaPc0daOv0o6/T+dIA6/T+dHXijrwPxo9hQAewo6fWjpR0+tAB0+tHuaPc0e5oAPc0UdfpRQAe1HTgUfzo6fWgA6fWjpyaOnJo9zQAe5o60dfpR1+n86AE6/T+dL7Cj2FHsKAD2FedfEz/mX/rff+0q9F6fWvOfiZ/zL/1vv/aVAHndbHhf/kYtA/6/F/8AQGrHrY8L/wDIxaB/1+L/AOgNTA9y9zXkXxBQr4gDdpLC2Ye+GkX+leu9fp/OvLviTERqWkzY4kspI8+pjlJ/9mpAZfgZwvibTQf44rxPzhZv6V7L7CvDfDE3keIdBfOAbxIifaUGL+te5dOBQAdOBR0+tHT60e5oAPc0e5o9zR1+lAB1+lHX6UdfpR7CgA9hR7Cj2FHT60AIQCCp5DAg+4PFfPt5bvaXl9auMNbXM8BH+45WvoPpyeteTeP9Kaz1VNRRcW+pKCxA4W5jUKwP1GD+fpQBx1ek/DnVIzDfaRIwEkchvLYH+ONwFkA+hwf+Be1ebVNa3V1ZXEF3aytFcQOJInXqCOxHoehFMD6E6/T+dHsK4/RPHWkX8ccOouljeABWMhItpD0ykh4H0P5mupW8sXUPHdWzJjO5ZYyuPXINICf2FYHi3VI9K0S+bcBcXUbWdqv8TSSqVLAf7Iyfw96NU8W+HNKR912lzcAHbb2bLLIzejFTtH4mvKNc1y/128N1dEKiApbQISY4UJzgZ6k9z/hgAGWBgAenFHTk0VoaLpkusanY2CA7ZZA07D+C3T5pGP4cD3IpgeveE7VrXw9osbjDtb+ewPrOxm5/MVudfpTURFVEQBURQqqOgVRgAU7r9KQB1+lHsKPYUdOBQAdOBR0+tHT60dOTQAdOTR7mj3NHX6UAHX6UdfpR1+lHsKAPPPiY48vQI+/m3j/gFjX+tcHpiGTU9JjHV7+zX85lrr/iTNnUdItwf9VZyykehlk2/wDstc54ZiM3iDQUxnF7HIfpEDIf5UwPc+n415h8Sv8AkIaN/wBeU/8A6NFen9Oe9eYfEr/kIaN/15T/APo0UgOErovBX/IzaT9Lr/0Q9c7XReCv+Rm0n6XX/oh6YHtHX6fzo68CjrxR7CkAewo6fWjp9aOn1oAOn1o9zR7mj3NAB7mjr9KOv0o6/SgA6/Sij2FFAB0o6cmjgc0e5oAPc0dfpR1+lJ1+n86AF6/T+dHsKPYUewoAPYUdPrR0+tHT60AHT615z8TP+Zf+t9/7Sr0b3Nec/Ez/AJl/633/ALSoA87rY8L/APIxaB/1+r/6A1Y9bHhf/kYtA/6/V/8AQGpge5da4P4k2xax0i6A/wBRdyQsfQTR5H6rXeewrA8YWf2zw9qsarmSCNbuMDrmBhIf0zSA8Ygma3ntrhfvQTRTj6xuH/pX0HHIkkccqHKyosiH1VhuFfPHGPrXtnhG9F94f0qRmzJBEbOX1DQHyx+mD+NAG97mj3NHuaOv0oAOv0o6/Sjr9KPYUAHsKPYUewo6fWgA6fWjpyaOnXrR7n/9VAB7ms/WNKtda0+5sbnhZBuikAy0Mq8pIv0/lx3rQ60dfp/OgDwDUdOvtKvJ7K8j2TRHgjOyRD0kjPdT/npVSvdda0LTNdt/Iu0IkQEwXEeBLCx/uk9R6g//AFx5VrPhLXtHZ2aFrq0GStzaqzAL/wBNEGWU/p70wOfpMAcYFLkdqKAAADp+lFH1rQ0zRdZ1eQJYWkki5w0zDZAnu0rfL+WTQBQVXdkRFZndgiIgLMzMcBVA5ya9g8H+G/7EtGnulH9o3iqZ+h8iIcrCD+re/wBKPDfg+w0TbdXDLdalj/WlcRQZGCIFPP4nn6V1PX6UgDr9KPYUewo6cCgA6cCjp9aOn1o6cmgA6cmj3NHuaOv0oAOv0o6/Sjr9KPYUAHsKPYUewpkkkcMcsshwkaPI5PZUBYmgDxzxvci58R6gFOVtkt7UfVEDN+pNT+ALYzeIY5cZW0tLmY+xYCEf+hGubu7l7y7vbx/vXVxNcH/to5YCvQfhrZ7YdY1Bh/rJIrSM+0Y8x/8A0IflTA9C9zXmHxK/5CGjf9eU/wD6NFen9a8w+JX/ACENG/68p/8A0aKQHCV0Xgr/AJGbSfpdf+iHrna6LwV/yM2k/S6/9J3pge0ewo6fWjp9aOn1pAHT60e5o9zR7mgA9zR1+lHX6UdfpQAdfpR7Cj2FHTgUAHTgUUdPrRQAe9HX6Ufyo6/T+dAB1+n86PYUewo9hQAewo6fWjp9aOn1oAOn1o9zR7mj3NAB7mvOfiZz/wAI/wDW+/8AaVejdfp/OvOviZ/zL/1vv/aVAHnVbHhf/kYtA/6/V/8AQGrHrY8L/wDIxaB/1+r/AOgNTA9y6cCmuiSJJHINySKyOD/ErDBFO6fWj3NID5+1CzfT76/sX+9a3EsP1VW+U/iMGu4+G+ohZdT0uRuJAt7bgn+JcRyAf+On8KrfETTTBqFpqaLiO+j8mYjtPCOCfquP++a5XSNQk0rUrDUEzi3mVpFH8cLfLIv4gmmB751+lHX6UyOSOeOKWJg0UqJIjL0ZGG4EU/2FIA9hR7Cj2FHT60AHT60dOTR05NHuaAD3NHWjrR1+n86ADr9P50deBR7Cj2FAB7Cjp9aOn1o6fWgDLvPD/h2/Je7021kkPVxGI5CT6vHhv1rMPgTwgTu+xyr7Lcz4/Vq6f3NHuaAMO18J+FLVlePSrdnXkNPvnP1xMSP0raRERVRFVI1GFVAFUD0AHFO6/Sjr9KADr9KPYUewo6cCgA6cCjp9aOn1o6cmgA6cmj3NHuaOv0oAOv0o6/Sjr9KPYUAHsKPYUewo6fWgA6fWuY8b6j9g0G7RWxPfstlHg4O1+ZCP+Ag/nXT9PrXkfj3VRfauLONswaYhhODwbh8NIfw4X8DQByPQZ9K9v8LaedO0LSoHXErxfaZh38yc+YQfpkD8K8l8O6adW1nTrMrmLzRPc+ggh+ds/XgfjXunsOgoAXr9P515h8Sv+Qho3/XlP/6NFen9eK8w+JX/ACENG/68p/8A0aKAOErovBX/ACM2k/S6/wDRD1ztdF4K/wCRm0n6XX/oh6YHtHT60e5o9zR7mkAe5o6/Sjr9KOv0oAOv0o9hR7CjpwKADpwKOn1o6fWjpyaADpyaKPc0UAHX6Uewo9qPYUAHsKOn1o6fWjp9aADp9aPc0e5o9zQAe5o6/T+dHX6fzo60AHWvOviZ/wAy+P8Ar+/lFXovsK85+Jn/ADL/ANb7/wBpUAed1seF/wDkYtA/6/V/9Aasetjwv/yMWgf9fq/+gNTA9y6cmj3NHuaOv0pAY/iTShrOkXtmoHnBRPaE9p4/mX8+R+NeGkMCVYEMpKsDwQRwQRX0V1+leSeO9FOn6l/aECYtNSZnbA+WO6HLr/wL7w/H0oA6X4f6z9rsJNJmf/SNPGYMnl7Rjxj/AHTx9CK7b2FeBaXqVzpN/aX9vy8D5ZM4EsTcPG31H+eK90sb211C0tb21ffBcxiSM9+eqt7jofpQBZ6fWjpyaOnJ60e5oAPc0daOtHX6fzoAOv0/nR7Cj2FHsKAD2FHT60dPrTWZI1Z3ZVVRlmYhVA9STxQA7p9aPc1y+p+OPDen70ila+uFyPLs8MgPo0x+T8ia5KX4ja604eG0sY7cHiFxI7MP9qQEc/RaAPVfc0dfp/Os/R9Tg1nTrTUIVKLOp3xscmORCUZCR6EVodfpQAdfpR7Cj2FHTgUAHTgUdPrR0+tHTk0AHTk0e5o9zR1+lAB1+lHX6UdfpR7CgA9hR7Cj2FHT60AHT60dPrR060e5/wD1UAZWv6tHoul3d82DKF8q1Q/x3D8IPw6n2Brwt3kkd5JGLSSM0kjNyWdjuLH6103jLXv7Z1LyYHzYWDPFAQflll6PL9Oy+w96yNF0ufWdStLCLIWVt07j/llAnLv/AEHuRQB6B8PNIMFlc6tMuJL4+Vb56i2jPLD/AHj/AOgiu668VHBDDbwwW8ChIYI0ijVeiog2gCpPYUAHsK8w+JX/ACENG/68p/8A0aK9P6fWvMPiV/yENG/68p//AEaKAOErovBX/IzaT9Lr/wBJ3rna6LwT/wAjNpP0uv8A0nemB7R7mjr9KOv0o6/SkAdfpR7Cj2FHTgUAHTgUdPrR0+tHTk0AHTk0e5o9zR1+lAB1+lFHX6UUAHsOtHT60fzo6fWgA6fWj3NHuaPc0AHuaOv0/nR1+n86OtAB1o9hR7D/APVR04FAB04FedfEz/mX/rff+0q9F6fWvOfiZ/zL/wBb7/2lQB53Wx4X/wCRi0D/AK/F/wDQGrHrY8L/APIxaB/1+L/6A1MD3Lr9KOv0o6/Sj2FIA9hWfrGl22safdafPwJVzG4GTFKvKSD6H/PNaHsKOn1oA+fLyzutPurmyuk2XFvIY5B2OOjKfQjkfWup8E+JBpVz/Z15JjT7yQeW7Hi2uG43f7rdD74PrXU+NfDR1W2/tGzjzqNpGdyKObmAclP95eq/l348m9c/Qg/yNMD6K9zR1rz/AMFeKxMsOjanL++UBLCeQ/61R0hcn+Ifw+vTqPm9A6/SkAdfp/Oj2FMkkiiRnkdI41GXeRgqqPctxXLan488O2G6O2Z7+cZG21wIQf8Aamb5fyzQB1nsKz9Q1nRdJTdf3sMJxkRlt0rf7sa5Y/lXlmp+OPEl/vSGVbGBsjZaZ80j/amb5vyxXMszuzO7M7scs7kszH1LNzQB6HqfxH+/HpFlnqBcXvH4rChz+bfhXF6jrOtaqxa/vZplzkRZ2QL9Ikwv6Vn0UwCrmm6ZqGrXSWdjCZJW5Y9I4kzgvI3YVc0Lw/qWv3Hl2y+XbRkfabpwfLiHoPVvQfngV7DpGj6dotqtrZR4HDTStgyzvjG52/l6UAJoelx6Nplnp6P5hhVmlkxjzJXYu5A9MnitL2FHsKOnApAHTgUdPrR0+tHTk0AHTk0e5o9zR1+lAB1+lHX6UdfpR7CgA9hR7Cj2FHT60AHT60dPrR0+tHuaAD3NcR458SCygbSLOTF7dJ/pLoebe3YdMj+J+3oOe4rV8T+JLfQbXCbZNQuFItIDzjt50g/uj9en08bmmnuZpri4kaSaZ2klkc5Z3bkk0AR/y9q9f8F6AdIsDc3KbdQv1V5QR80MPVIfr3b3PtXL+B/DRvp01i9j/wBCtnzaI44uJ1P38H+Ff1P0r1P2FAB7Cjp9aOn1o6fWgA6fWvMPiV/yENG/68p//Ror0/3NeYfEr/kIaN/15T/+jRQBwldF4K/5GbSfpdf+iHrna6LwV/yM2k/S6/8ASd6YHtHX6Uewo9hR04FIA6cCjp9aOn1o6cmgA6cmj3NHuaOv0oAOv0o6/Sjr9KPYUAHsKKPYUUAHTmj3NHvR7mgA9zR1+n86Ov0/nR1oAOv0o9hR7CjpwKADpwKOn1o6fWj3NAB05Nec/Ez/AJl/633/ALSr0b3Nec/Ezn/hH/rff+0qAPO62PC//IxaB/1+r/6A1Y9bHhf/AJGLQP8Ar9X/ANAamB7l7Cj2FHsKOn1pAHT60dOT1o6cnrUcs0ECNNcSxxRqMs8rqiKPdmOKAJPc/wD6q838a+E2Vpta0yIlGzJqFvGMkHqZ41Hb++Px9a2NT8faBZ7ksxJfzDgeT8kAPvK45/AGuJ1Pxp4l1LegnFnbtkeVZZVip4w0p+c/mKAObBPBBIIIIIOCCOQQRXYQ/EDX4bCK08u3kuowU+2z7mcoPuloxgFvU559PXj6sWllqF/J5Njaz3MncQIW2+7N0H4mmBLf6rq+qPvv7ye45yEdsRL/ALsa4QflVLgfyFdzpnw61KbZJql1HaoeTDb4mnx6Fj8g/Wu207w14a0ZTLDaxeZGpZrq7IkkULyW3ycD8AKAPLNM8KeJNV2NDZtDA2D595mGPB7qCN5/BaTVbHRNI32cdy2pakMrPIn7uytW7qoBLM//AALA9M8DofFPjZ7nztP0aRktzlLi8XIeYdCkB6hfU9T245PB8D6UAFdP4Z8JXmuOlzcb7fS1b5pcYkuMHlIM9vVv5npp+FvBMl55OoazG0dpw8Fo2VknHUNN3C+3U+w6+nIiIqRxqqRooVVQBVVQMBVA4xSAhtLOzsbeK0s4Uht4htREGB7knqSe5qx7Cj2FHTgUAHTgUdPrR0+tHTk0AHTk0e5o9zR1+lAB1+lHX6UdfpR7CgA9hR7Cj2FHT60AHT60dOvWjp9aPc//AKqAD3Nc94k8T2WgwlBtm1CVSbe2B6Z48yYjov8AP9Rk+JPHNtZebZ6QyXF6MpJccNb256cdmb9B+leYTTXFzNLPcSvLNKxeWSRizux7kmgCS8vLzULme8vJWluJm3O7foqjoAOgFbfhfw1Pr1zvlDx6ZbuPtMo4MrDnyYj6n+I9h7mk8NeF7zX5hK++HTInxNPjDSkdYoM9/U9vrxXsNra2tjbwWlpEkUEKBI0QcKPU+570APhiht4ooII1jiiRY40QYVEUYAAqTp9aOn1o6fWgA6fWj3NHuaPc0AHua8w+JX/IQ0b/AK8p/wD0aK9P6/SvMPiV/wAhDRv+vKf/ANGigDhK6LwV/wAjNpP0uv8A0Q9c7XReCv8AkZtJ+l1/6IemB7R04FHT60dPrR05NIA6cmj3NHuaOv0oAOv0o6/Sjr9KPYUAHsKPYUewo6fWgA6fWijp9aKACjr9P50dfpR1oAOv0o9hR7CjpwKADpwKOn1o6fWj3NAB7mj3NHuaOv0oAOv0rzn4mf8AMv8A1vv/AGlXo3X6V518TP8AmX/rff8AtKgDzqtjwv8A8jFoH/X6v/oDVj1seF/+Ri0D/r9X/wBAamB7l0+tQ3FzbWcE1zdSpFBCpeWSQ4VVFTdPrXkXjfX5NT1CTT4HP2DT5DGQp+Wa5Xh3bHUL0X8T3pAaWrfEW5d5ItGtkjjBIW5uxukb/aSHoPxJ+lcVe6jqepSebf3c9w2cgSuSi/7qD5R+AqO2tbu9nitrWF5riU7Y44xlj3J9MDua7fTPhzey7ZNWu0gTgmC0xJKfZpG+QfgDTA4LqQO5OAB1J9AK6DTPB/iXVNjram2t2x++vcxAg91jxvP5V6npnh3QNJ2mysoxKAMzy/vZyfXe+SPwxWv7CkBxemfD7RLXY9/JJfzDBKNmK3B/3EO4/i34V18Fva2kaw2sEUMS/djhRUUfgoqXp9az9W1fTdFtWu76XaOVijXBlmfGdka+tAFm6u7Sxt5rq7mSGCJd0kkhwB7D39BXknibxdd62z2ttvt9LVuI+klzjo02O3ov557UNe8Q6lr9x5lwfLtY2JtrVDmOMf3mPdvU/lishUkcsER3KqXYIpYqi9WO3sO9MBFVmZVUEsxCqo5JYnAAFeneFvBMdp5Oo6wiyXfDwWpw0dueoaTsX/Qe56eYdfpW9pPizxDpGyOK5+0Wy4H2e8zIgHojZ3j8D+FAHtnX6Uewri9N+IWh3IRL+OaxlOAWIM1vn/fQbh+K11lrfafexiSzure4QjOYJEfGfXac0gLHTgUdPrR0+tHTk0AHTk0e5o9zR1+lAB1+lHX6UdfpR7CgA9hR7Cj2FMkkhhRpJZEjQcs8jKij6luKAH9PrR0+tcxqPjfwxYb1S4a8nGR5dkN65HYynCfqa4rVfHuvX2+OzCafAcj9yd9wR7ysOPwA+tAHo2reINF0VC19cqJSMx28WHuH+iD+ZwK8y17xlq+s74Ic2VgcgwxMfNlX/ptIP5Dj61zLu8jvJI7PI53O7sWdj6szc1f0vRtX1mXyrC2aQA4kmb5IIv8AfkPH4DJ9qAM/j8Ogrt/DXge5vjFe6wrwWXDx2xys9wOo391X9T7da6jQPBemaQY7m523moLgiR1/cwt/0xjPf3PP0rq/YUARwww28UUEEaRxRKEjSNQqIo6AAVJ0+tHT60dPrQAdPrR7mqV/qmlaXGJtQu4bdW4XzG+ZvZEGWP4CsIePfCJk2m4uQM43m1m2fXgZ/SgDqvc0dfpVWy1DTtSi8+xuobiHoWiYHafRh1B+oq11+lAB1+leYfEr/kIaN/15T/8Ao0V6f7CvMPiV/wAhDRv+vKf/ANGigDhK6LwV/wAjNpP0uv8A0Q9c7XReCv8AkZtJ+l1/6TvTA9o6cmj3NHuaOv0pAHX6UdfpR1+lHsKAD2FHsKPYUdPrQAdPrR0+tHT60e5oAPc0UdeTRQAdeKPYUewo6cCgA6cCjp9aOn1o9zQAdOTR7mj3NHX6UAHX6UdfpR1+lHsKAD2FedfEz/mXx7338oq9F9hXnXxM/wCZf+t9/wC0qAPOq2PC/wDyMWgf9fq/+gNWPWx4X/5GLQP+vxf/AEBqYHs+pXBs9P1K7HDW9pcTL7MkZYV4Blm+ZiSzEsxPUk8kmve9Yge60nWIFBLTWN0iAdSxjbFeBjkD6UgPVPh7pcMOmyao6A3F9JJGjEcrbxNsCqfcgk/h6V2/sK5HwBfRXOhJaBh52nzSxSL32SOZUb6HJH4V13sKAD2FHT60dPrXI+J/GFto4ks7IpPqhGG7xWuf4pcdW9F/P3ANHxB4k07QIMyETX0qk29qjYZu29z2X3/L28f1PVNR1e6e8vpTJKchFHEcKdQkS9hVe4uLm7nmubqV5riZt0kkhyzH/PQVs+HvDOoa/NuXMNhG2J7phxx1SIHq36D9CAUtI0fUtbultbKPOMGaZ8iGBD/FIw/QdT/L2DQvD2m6FbGK3XfNIB9puZAPMmPp7L6D/wDWbmm6Zp+lWsdpYwiKFOT3eRu7yN1JNXev0oA5bWPBGg6oZJYFNjdNkmS2UeU7f7cP3fyxXA6p4M8SabvZbf7Zbrk+bZZcgdfmiPzj8j9a9n9hR04FAHzqQVJUghgcMrAhgfcHmnRySwuJIZJI5B0eJmRh/wACUg17xf6Lompj/TrG3nboHZAso+kiYb9a5a9+HGjy5ayvLq1POEk23EefQbsP/wCPUAcXa+LfFlngJqcsijjbdKk4x6ZkG79a2IPiNryACezsJsd1EsTfozD9KZdfDvxFDk281lcr2Ad4X/Jxt/8AHqyJvCfi2AkPpNw2O8BjlH/kNiaYHVR/EwYHnaOf+2d0P5NHUv8AwsuzP/MIuvwuIv8ACuCfSNci/wBZpeoL9bWb+YWovsWo9PsV5/4DTf8AxNAHfv8AEyHH7vR5c/7d0gH/AI6hqlN8SdWbIt9Ns4/QyySykfgu2uQTTNYk4j06/Y/7NrOf/ZauReGfFU2Nmj3oz0MkYiH5yEUAXbnxv4tuQVF6lup7WsMaH/vptzfrWFc3d9eMXvLq4uHPe4leT8gxxXSW/gDxVMR5qWlsp7zThiP+Awhv51u2fw1gXa2oanI/96O0jWMf99ybj/47QB5vwOvFaum+HfEGrFTZ2UvlH/lvOPKgA9d79fwBr1rT/CvhnTtrQafE0q9JbnM8n1zJkD8AK2vYcAUgOG0n4eafAUm1ac3kgwfIi3R2wPox++36fSu2hgt7eNILeKOGGMbUSJVRFHoAvFSdePzo9hQAewo6fWjp9aOn1oAOn1rN1vVYdF0271CUBmiULDHnHmTOdqJ+fX2FaXua4T4ktINN0lRny2vmL+mVibbn9aAPOb6+vtSupby9maWeUklj91R2RF6BR2FVqKKYF3TNTv8ASLuO8spCkiEb0yfLmTPMci9wf0r3HTNQg1Swsr+34juYg+D1RujIfcHI/CvAa9a+HjSHQJA2dqahdLHn+6VjY/qTSA7DpwK8w+JX/IQ0b/ryn/8ARor0/p9a8w+JX/IQ0b/ryn/9GigDhK6LwT/yM2k/S6/9J3rna6LwV/yM2k/S6/8ASd6YHtHX6UdfpR1+lHsKQB7Cj2FHsKOn1oAOn1o6fWjp9aPc0AHuaPrR15NHX6fzoAOv0/nRR1ooAP50dPrR0o6cmgA9zR7mj3NHX6UAHX6UdfpR1+lHsKAD2FHsKPYUdPrQAdPrXnPxM/5l/wCt9/7Sr0bpyeteffEuJjBoU+DhZrqI+gLorD+RoA82rY8L/wDIxaB/1+L/AOgNWPV/RruOx1bSLyTiK3vIHkPpGW2sfwBNMD3vr9P514p4s0WTRtVnCoRZXjvcWbAfKAxy8WfVT+mK9qBDAFSCCAQRyCDzwao6rpWn6xaSWV7Hujb5kZeJInHR427Ef560gPE9K1bUNGu0vLGQK4GyVHyYpo85KSKO3p6V6HafEfRXjH2yzvIJsDcIVSaMnvtbcp/SuT1jwXr+lu7QRPfWgJKTWykyBf8AprCPmB+mRXNMGQlXVkYdVcFWH4NzTA73WviFLcQyW+jwTW5kyrXc5QShT/zyRSQD7k/h3HAkklmYksxLMzEkknkkk1PbWd9euI7S1uLhzwBBG7/mQMfrXf8AhvwG0bpe66iEphobEMHXPXdcEcH/AHR+PpQBkeF/B1xq5jvtQDwaZkMi8rLdgf3e4T379vUerQW9vbQxW9vEkVvCoSKONQqqo7ACpAAAAAAoAAA4GB7UvX6UgDr9KPYUewo6cCgA6cCjp9aOn1o6cmgA9zR7mj3NHX6UAHX6UdfpR1+lHsKAD2FHsKPYUdPrQAdKOlHTr1o9zQAe5o60daOv0/nQAdfp/OjrwKPpR7CgA9hR0+tHT60dPrQAdPrR7mj3NHuaAD3NYnifSG1vSLm1ix9ojK3NoTwDNHnCk/7QyPxrb6/Sjr9KAPnd0kieSKVGjkjZkkRwVZHU4KsD3pte2a14V0PW2Ms8bw3eAPtNsQkhA6CQEFT+I/GubHw0t9/OsTeX6C2QPj/e34/SmB53BBcXM0NtbxtLPM4jijQZZmPb/GvctB0tdG0qxsMhpI0LzsvR55Dvcj2zwPpUOjeGtE0IFrSFnuWXa9zcEPMR3CnAAH0Ara6cmkAdOTXmHxK/5CGjf9eU/wD6NFen+5ryb4hXkVxrcFvGQfsNoscuOcSSsZCv4Db+dAHHV0Xgr/kZtJ+l1/6IeudrpvAsTSeJbEgcQwXcrH0HlmP+opgeyewo9hR7Cjp9aQB0+tHT60dPrR7mgA9zR15NH1o6/T+dAB1+n86OtHWj2FAB7Cijp0ooAPej3NHvR1+lAB1+lHX6UdfpR7CgA9hR7Cj2FHT60AHT60dOT1o6cmj3NAB7mue8Yaa+p6FepGpae123sCjqzQ5LKPqu4V0PWk6/T+dAHzt157UV1PjHw6+j3r3dsh/sy8kZoyo+W3mb5mhb27r+XbnlqYHofhLxnBDDBpWsS7FiAjtLx+UCDhYpz2x0B/Ppk+io6OivGyujgMrIQysD3BHFfO9XrHV9a0z/AI8b+5gXOfLR8xE+8b5X9KQHvnT61G8FvJzLFE59XRWx+Yrx9fHXjBQAbu3bHdrWHP8A46BTv+E88X/8/Nr/AOAsdAHsCoiDCqqqOgUAD8hTuv0/nXjv/CeeL/8An5tf/AWOj/hPPF//AD82v/gLHQB7F1+lHsK8d/4Tzxf/AM/Nr/4Cx0f8J54v/wCfm1/8BY6APYunAo6fWvHf+E88X/8APza/+AsdH/CeeL/+fm1/8BY6APYunJo9zXjv/CeeL/8An5tf/AWOj/hPPF//AD82v/gLHQB7F1+lHX6V47/wnni//n5tf/AWOj/hPPF//Pza/wDgLHQB7F7Cj2FeO/8ACeeL/wDn5tf/AAFjo/4Tzxf/AM/Nr/4Cx0AexdPrR0+teO/8J54v/wCfm1/8BY6P+E88X/8APza/+AsdAHsXuaOteO/8J54v/wCfm1/8BY6P+E88X/8APza/+AsdAHsXX6fzo68CvHf+E88X/wDPza/+AsdH/CeeL/8An5tf/AWOgD2L2FHT6147/wAJ54v/AOfm1/8AAWOj/hPPF/8Az82v/gLHQB7F0+tHua8d/wCE88X/APPza/8AgLHR/wAJ54v/AOfm1/8AAWOgD2L3NHX6V47/AMJ54v8A+fm1/wDAWOj/AITzxf8A8/Nr/wCAsdAHsXX6Uewrx3/hPPF//Pza/wDgLHR/wnni/wD5+bX/AMBY6APYunAo6fWvHf8AhPPF/wDz82v/AICx0f8ACeeL/wDn5tf/AAFjoA9i6cmj3NeOf8J54v8A+fq2/wDAWP8ArWfe+JvE1+rJc6nceWww0cO2BCPQiED+dAHpPiPxhp+kRy29o8dzqRBVI0IaOA/352HHHp1+nWvIppZriWaeZ2kmmkaWV35Z3Y5JNMopgFejfDjTXVdS1Z1wJMWVsT3VTvkYfjtH4GuJ0jSb3Wr6GxtVOW+aaUjKQQg/NI/9PU17jY2Vtp1naWNsu2G3jWNB3OOrMfUnJP1pAWen1o6UdPrR7mgA9zR70deTR1+n86ADr9P50dfpR1o9hQAewo6fWjp9aOn1oAOn1oo9zRQAfyo6/Sjr9KPYUAHsKPYUewo6fWgA6fWjpyaOnJ60e5oAPc0daOtHX6fzoAOv0/nR7Cj2FHsKAILq1tb23mtLqFJoJlKSxuMqQf6+leVeIfBOo6W0tzp6yXmn5LYUbrm3XriRRyQPUD6jufXOn1o6fWgD51or27U/CvhzVi0lzaLHcN1ntT5MpPqxX5T+INctc/DTkmy1Ugdku4ASB/vxsP8A0GmB51RXbH4b69n5b7TSPUm4H6bDSf8ACuPEH/P7pn/fVx/8boA4qiu1/wCFceIP+f3TP++rj/43R/wrjxB/z+6Z/wB9XH/xugDiqK7X/hXHiD/n90z/AL6uP/jdH/CuPEH/AD+6Z/31cf8AxugDiqK7X/hW/iD/AJ/dM/76uP8A43R/wrfxB/z+6Z/31cf/ABugDiqK7X/hXHiD/n90z/vq4/8AjdH/AArjxB/z+6Z/31cf/G6AOKortf8AhXHiD/n90z/vq4/+N0f8K48Qf8/umf8AfVx/8boA4qiu1/4Vx4g/5/dM/wC+rj/43R/wrfxB/wA/umf99XH/AMboA4qiu1/4Vx4g/wCf3TP++rj/AON0f8K48Qf8/umf99XH/wAboA4qiu1/4Vx4g/5/dM/76uP/AI3R/wAK48Qf8/umf99XH/xugDiqK7X/AIVx4g/5/dM/76uP/jdH/CuPEH/P7pn/AH1cf/G6AOKortf+FceIP+f3TP8Avq4/+N0f8K38Qf8AP7pn/fVx/wDG6AOKortf+FceIP8An90z/vq4/wDjdH/CuPEH/P7pn/fVx/8AG6AOKortf+FceIP+f3TP++rj/wCN0f8ACuPEH/P7pn/fVx/8boA4qiu1/wCFceIP+f3TP++rj/43R/wrjxB/z+6Z/wB9XH/xugDiqK7X/hW/iD/n90z/AL6uP/jdH/CuPEH/AD+6Z/31cf8AxugDiqK7X/hW/iA/8vumY/3rj/43VqD4a3hI+06rAi9/s8DufwMjAfpQBwFbOi+HNY1yRfs0RjtQcSXcwIhUd9vdj7D9K9H07wL4asWR5YpL2ZcHdeMGjBHcRIAn5g11CqkaqiKqqoCqqgKoA7ADikBm6LomnaFai2tFJd8NcTvjzZ3A+8xHYdh2/U6nT60dPrR7mgA9zR15NH1o6/T+dAB1+n86OtHWj2FAB7Cjp9aOnSjp9aADp9aPc0e5o9zQAe5oo6/SigA9qPYUfzo6fWgA6fWjpyaOnJ60e5oAPc0daOtHX6fzoAOv0/nR7Cj2FHsKAD2FHT60dKOn1oAOn1o9zR7mj3NAB7mk6/T+dL1+lHX6UAHX6Uewo9hR04FAB04FHT60dPrR7mgA6cmj3NHuaOv0oAOv0o6/Sjr9KPYUAHsKPYUewo6fWgA6fWjp9aOn1o9zQAe5o60daOv0/nQAdfp/Ojr0/GjrxR7CgA9hR0+tHT60dPrQAdPrR7mj3NHuaAD3NHX6UdfpR1+lAB1+lHsKPYUdOBQAdOBR0+tHT60dOTQAdOTR7mj3NHX6UAHX6UdfpR1+lHsKAD2FHsKPYUdPrQAdPrR0+tHT60e5oAPc0deTR15o6/T+dAB1+n86OtHWj2FAB7Cjp9aOnHejp9aADp9aPc0e5o9zQAe5o6/Sjr9KOv0oAOv0oo9hRQAdKOnJ60dOaPc0AHuaOtHWjr9P50AHX6fzo9hR14FHsKAD2FHT60dPrR0+tAB0+tHuaPc0e5oAPc0dfpSdfp/Ol6/SgA6/Sj2FHsKOnAoAOnAo6fWjp9aOnJoAOnJo9zR7mjr9KADr9KOv0o6/Sj2FAB7Cj2FHsKOn1oAOn1o6fWjp9aPc0AHuaOvNHWjr9P50AHX6fzo+lHXgUewoAPYUdPrR0+tHT60AHT60e5o9zR7mgA9zR1+lHX6UdfpQAdfpR7Cj2FHTgUAHTgUdPrR0+tHTk0AHTk0e5o9zR1+lAB1+lHX6UdfpR7CgA9hR7Cj2FHT60AHT60dPrR0o9zQAe5o+tHXmjr9P50AHX6fzo60dfpR7CgA9hR06UdPrR0+tAB0+tHuaPc0e5oAPc0dfpR1+lHX6UAHX6Uewo9hR7CgA6cCijp9aKAD3o60Udfp/OgA6/T+dHXgUewo9hQAewo6fWjp9aOn1oAOn1o9zR7mj3NAB7mjr9P50dfpR1+lAB1+lHsKPYUdOBQAdOBR0+tHT60dOTQAe5o9zR7mjr9KADr9KOv0o6/Sj2FAB7Cj2FHsKOn1oAOn1o6fWjp9aPc0AHuaOtHWk6/T+dAC9fp/OjrwKPYUewoAPYUdPrR0+tHT60AHT60e5o9zR7mgA9zR1+lHX6UdfpQAdfpR7Cj2FHTgUAHTgUdPrR0+tHTk0AHTk0e5o9zR1+lAB1+lHX6UdfpR7CgA9hR7Cj2FHT60AHT60dPrR0+tHuaAD3NHXmjrR1+n86ADr9P50daOtHsKAD2FHTp1o6fWjp9aADp9aPc0e5o9zQAe5o6/Sjr9KOv0oAOv0o9hR7CjpwKADpwKOn1o6fWjpyaADpyaKPc0UAHX6Uewo9KKAD2FHT60UUAHT60e5oooAPc0dfp/OiigA6/Sj2FFFAB04FHT60UUAHTk0e5oooAOv0o6/SiigA9hR7CiigA6fWjp9aKKAD3NHWiigA6/T+dHXgUUUAHsKOn1oooAOn1o9zRRQAe5o6/SiigA6/Sj2FFFAB04FHT60UUAHTk0e5oooAOv0o6/SiigA9hR7CiigA6fWjp9aKKAD3NH1oooAOv0/nR1oooAPYUdOnWiigA6fWj3NFFAB7mjr9KKKADr9KPYUUUAHTgUdPrRRQAdOTR7miigA6/SiiigD/9k=;imageBorder=default;fontFamily=Fira Code;" vertex="1" parent="HewII5I395oueKauFgrz-9">
          <mxGeometry x="40" y="280" width="80" height="80" as="geometry" />
        </mxCell>
        <mxCell id="HewII5I395oueKauFgrz-18" value="Drive ???" style="shape=image;verticalLabelPosition=bottom;labelBackgroundColor=default;verticalAlign=top;aspect=fixed;imageAspect=0;image=data:image/jpeg,/9j/4AAQSkZJRgABAQEAAAAAAAD/4QBCRXhpZgAATU0AKgAAAAgAAYdpAAQAAAABAAAAGgAAAAAAAkAAAAMAAAABAAAAAEABAAEAAAABAAAAAAAAAAAAAP/bAEMACwkJBwkJBwkJCQkLCQkJCQkJCwkLCwwLCwsMDRAMEQ4NDgwSGRIlGh0lHRkfHCkpFiU3NTYaKjI+LSkwGTshE//bAEMBBwgICwkLFQsLFSwdGR0sLCwsLCwsLCwsLCwsLCwsLCwsLCwsLCwsLCwsLCwsLCwsLCwsLCwsLCwsLCwsLCwsLP/AABEIAdoB2gMBIgACEQEDEQH/xAAfAAABBQEBAQEBAQAAAAAAAAAAAQIDBAUGBwgJCgv/xAC1EAACAQMDAgQDBQUEBAAAAX0BAgMABBEFEiExQQYTUWEHInEUMoGRoQgjQrHBFVLR8CQzYnKCCQoWFxgZGiUmJygpKjQ1Njc4OTpDREVGR0hJSlNUVVZXWFlaY2RlZmdoaWpzdHV2d3h5eoOEhYaHiImKkpOUlZaXmJmaoqOkpaanqKmqsrO0tba3uLm6wsPExcbHyMnK0tPU1dbX2Nna4eLj5OXm5+jp6vHy8/T19vf4+fr/xAAfAQADAQEBAQEBAQEBAAAAAAAAAQIDBAUGBwgJCgv/xAC1EQACAQIEBAMEBwUEBAABAncAAQIDEQQFITEGEkFRB2FxEyIygQgUQpGhscEJIzNS8BVictEKFiQ04SXxFxgZGiYnKCkqNTY3ODk6Q0RFRkdISUpTVFVWV1hZWmNkZWZnaGlqc3R1dnd4eXqCg4SFhoeIiYqSk5SVlpeYmZqio6Slpqeoqaqys7S1tre4ubrCw8TFxsfIycrS09TV1tfY2dri4+Tl5ufo6ery8/T19vf4+fr/2gAMAwEAAhEDEQA/APXKPYUewo6fWgA/nR0o6fWj3NAB9aKPc0dfpQAfyo60dfpR7CgA9hR/OjpwKOn1oAOlHTrR05NHuaAD60fyo6/Sjr9KADr9KPpR7Cj2FAB7Ufzo6fWjp9aADpR9aPc0e5oAOaOv0o6/T+dHWgA+lHsKPYUdOlAB/OjpR0+tHuaAD60fWj3NHX6UAH8qOvTpR1+lHsKAD2FHt3o6cCjp9aADpR060dOTR7mgA+tHNHX6Udfp/OgA6/Sj6Uewo9hQAew60fzo6fWjp9aADpR9aPc0e5oAOaOv0o6/T+dHX6UAHXpR7Cj2FHTgUAH86OlHT60dOTQAfWj60e5o6/SgA/lR1+lHX6UewoAPpR/Oj2FHT60AHSjp1o6cnrR7mgA+tHNHWjr9P50AHX6UUewooAP50dPrRwKPc0AHuaPc0e5o6/SgA6/Sjr9KOv0o9hQAewo6cCjpwKOn1oAOn1o6cmjpyaPc0AHuaOv0o6/Sjr9KADr9KPYUewo9hQAewo6fWjp9aOn1oAOn1o9zR7mjryaAD3NHX6fzo6/T+dHWgA60ewo9hR0470AHTgdaOn1o6fWjpyaAD3NHuaPc0dfpQAdfpR1+lHX6UewoAPYUewo9hR0+tAB0+tHTk0dOTR7mgA9zR1+lHX6Udfp/OgA6/T+dHsKPYUewoAPYUdPrR0+tHT60AHT60e5o9zR7mgA9zR1+n86Ov0/nR1+lAB1o9hR7CjpwKADpwKOn1o6fWj3NAB7mj3NHuaOv0oAOv0o6/Sjr9KPYUAHsKPYUewo6fWgA6fWjpyetHTk0e5oAPc0daOtHX6fzoAOv0/nR14FHXgUewoAPYUUdPrRQAe9HuaKOv0oAOv0o6/Sjr9KPYUAHsKOnAo6cCjp9aADp9aOnJo6cmj3NAB7mjr9KOv0o6/SgA6/Sj2FHsKPYUAHsKOn1o6fWjp9aADp9aPc0e5o9zQAdeTR1+n86Ov0/nR1oAOtHsKPYUdOB1oAOn1o6fWjp9aPc0AHuaPc0e5o6/SgA6/Sjr9KOv0o9hQAewo6cCjpwKOn1oAOn1o6cmjpyaPc0AHuaOv0o6/Sjr9P50AJ1+n86X2FHsKPYUAHsKOn1o6fWjp9aADp9aPc0e5o9zQAe5o6/T+dHX6fzo6/SgA6/Sj2FHsKOnAoAOnAo6fWjp9aPc0AHuaPc0e5o6/SgA6/Sjr9KOv0o9hQAewo9hR7Cjp9aADp9aOnJo6cnrR7mgA9zR1o60dfp/OgA6/T+dHsKPYUewoAPYUdPrR0+tHT60AHT60Ue5ooAOv0o6/SjrR7CgA9hR04FHTgUdPrQAdPrR05NHTk0e5oAPc0dfpR1+lHX6UAHX6Uewo9hR7CgA9hR0+tHT60dPrQAdPrR7mo5Zre3RpbiWOKNeryuqIv1ZjisC68a+ErYkG/E7A422scko/76A2/rQB0fuaOv0/nXGn4i+Gc4EWpEeogjGfzkFH/CxfDX/PDU/wDvxF/8doA7LrR7CuN/4WL4Z7Qan/34i/8AjtJ/wsXwyP8Alhqf/fiL/wCO0Adn06UdPrXGf8LF8Mj/AJYan/34i/8AjtH/AAsXwz18jU/+/EX/AMdoA7P3NHua4z/hYvhnvBqf/fiL/wCO0f8ACxfDJ/5Yan/34i/+O0Adn1+lHX6Vxn/CxfDX/PDU8f8AXCL/AOO0v/CxfDX/ADw1P/vxF/8AHaAOy9hR7CuN/wCFi+Ge0Gp/9+Iv/jtH/CxfDI/5Yan/AN+Iv/jtAHZdPrR05Ncb/wALF8M/88NT/wC/EX/x2k/4WL4Z6+Rqf/fiL/47QB2fuaOv0rjP+Fi+Gf8Anhqf/fiL/wCO0f8ACxfDR/5Yanj/AK4Rf/HaAOz6/T+dHsK43/hYvhn/AJ4an/34i/8AjtH/AAsXwz2g1P8A78Rf/HaAOy9hR0+tcb/wsXwyP+WGp/8AfiL/AOO0n/CxfDP/ADw1P/vxF/8AHaAOz6fWj3NcZ/wsXwz18jU/+/EX/wAdo/4WL4Z/54an/wB+Iv8A47QB2fuaOv0/nXGf8LF8Mn/lhqf/AH4i/wDjtL/wsXw1/wA8NT/78Rf/AB2gDsuv0o9hXG/8LF8NdoNT/wC/EX/x2k/4WL4ZH/LDU/8AvxF/8doA7PpwKOn1rjf+Fi+GR/yw1P8A78Rf/HaT/hYvhnr5Gp/9+Iv/AI7QB2fTk0e5rjP+Fi+Ge8Gp/wDfiL/47R/wsXwyf+WGp/8AfiL/AOO0Adn1+lHX6Vxv/CxfDJ/5Y6nj/rhF/wDHaswePPCUxCtczwZ73FvIAPxTcKAOp9hR7CqtpqGm36b7G7t7hcZJhkVyP94A5H5Va6fWgA6fWjpyaOnJ60e5oAPc0daOtHX6fzoAOv0/nR7Cj2FHsKAD2FHT60dKOn1oAOn1o9zR7mj3NAB7mijr9KKAD2FHTgUfzo6fWgA6fWjpyaOnJo9zQAe5o6/Sjr9KOv0oAOv0o9hR7Cj2FAB7Cjp9aOn1o6fWgA6cmuF8Q+PILNpbPRxHcXKkpJct81vEw4IjA+8R9cfWqfjjxRIHm0TT5Cu0bdRmjOGyR/x7oR/4/wDl6153QBavtQ1LUpTNf3U1w+cjzWyi+yIPlA+gqrRRketMAoqQQXTDK29ww9VhkI/MCl+zXn/Prdf9+Jf/AImgCKipfs15/wA+t1/34l/+Jo+zXn/Prdf9+Jf/AImgCKipfs15/wA+t1/34l/+Jo+zXv8Az63X/fiX/wCJoAioqX7Ne/8APrdf9+Jf/iaPs15/z63X/fiX/wCJoAioqX7Nef8APrdf9+Jf/iaPs15/z63X/fiX/wCJoAioqX7Nef8APrdf9+Jf/iaPs15/z63X/fiX/wCJoAioqX7Ne/8APrdf9+Jf/iaPs17/AM+t1/34l/8AiaAIqKl+zXv/AD63X/fiX/4mj7Nef8+t1/34l/8AiaAIqKl+zXn/AD63X/fiX/4mj7Nef8+t1/34l/8AiaAIqKl+zXn/AD63X/fiX/4mj7Ne/wDPrdf9+Jf/AImgCKipfs17/wA+t1/34l/+Jo+zXn/Prdf9+Jf/AImgCKipfs15/wA+t1/34l/+Jo+zXn/Prdf9+Jf/AImgCKipfs15/wA+t1/34l/+Jo+zXn/Prdf9+Jf/AImgCKipfs15/wA+t1/34l/+Jo+zXv8Az63X/fiX/wCJoAioqX7Ne/8APrdf9+Jf/iaPs15/z63X/fiX/wCJoAioqX7NeD/l1ufxgl/+JqI/KdpBDejDB/I0APilmt5FmglkilU5WSF2RwfZlINdvoXj+9tmjt9aBubfhRdRqBcRj1kUcMPyP1rhaKAPoW3uLa7hiubaVJoJVDxSRncrKfQ1L1rxjwt4ln0K6WOZmfS7hx9pj5PksePPjHqP4h3HuK9lR0lRJEYNG6q6MpyGVhkEEdqQDuv0/nR7CjrwKPYUAHsKOn1o6fWjp9aADp9aPc0e5o9zQAe5o6/Sk6/T+dL1+lAB1+lFHsKKADpR05NHA5o9zQAe5o6/Sjr9KOv0oAOv0o9hR7Cj2FAB7Cjp9aOn1o6fWgA6fWsrX9TGkaTqF/x5scey3B6GeQ7EH5nJ+lavua4L4k3DrY6PbA4We7lmYeohjwM/99UAeZszuzySMWd2Z3ZjkszHJYn3pKKs2Fo9/fWFkhw13cwwbv7odgC34DJpgbnhrwnea832iV2t9NRirTAZkmYdUhB4+p/n29P07w9oGlqq2djCJABmaVRLMSO5kfJ/LFaFtb29nb29pbIEht40ijVeiqowKm6fWkAdMAUdKQlUDMxAABLEkAADnJJrEn8WeE7aRo5dVty6nDCESTAH/eiUj9aANzpyaPc1QsNX0bVMmwvre4K8lI3HmKPUo2G/Sr/X6UAHX6UdfpR1+lHsKAD2FHt3o6cCjp9aADpR060dOTR7n/8AVQAe5oo6/Sjr9P50AHX6UdelHsKPYUAHsKOlHT60dPrQAdOtHuaPc0e5oAPejr9KOv0/nR1oAOtHsKPYUdOBQAe3ejpR0+tHuaADpyaPc0e5o6/SgA6/Sjr9KOv0o9hQAewo9hUF1d2VjEZru4hgiHV53VFz6At3rHHjHwfv2DVYc5xuKTBM/wC8Ux+tAG/0qpeabpd+jJe2dtOrDH72NSw/3WxuH51Lb3NrdRLPbTxTxP8AdkhdXQ+wKnFTe5oA8z8R+Azaxy32i+ZJEgLzWTkvIijktAx5OPQ8+56VwPWvorrzXjXjbTItN1yUwKFgvoxeIq8KrsxWQADtkZ/GgDmq9V+H2rPd6dPpsr5l05l8ok8m2kyVH/ASCPpivKq6vwDcND4hiiBwt1aXMLe+wCUfypgev+wo6fWjp9aOn1pAHT60e5o9zR7mgA9zR1+n86Ov0o6/SgA6/Sj2FHsKOnAoAOnAoo6fWigA96Ov0o/lR1+lAB1+n86PYUewo9hQAewo6fWjp9aOn1oAOn1o9zR7mj3NAB7mvOviZz/wj/pm+/8AaVei9fp/OvOviZ/zL/1vv/aVAHnVbHhf/kYtA/6/V/8AQGrHrY8L/wDIxaB/1+r/AOgNTA9y6dOtHT60dPrVLVZJIdM1aZM+ZHYXbpjqGWJiMUgPLfF3ie51W7uLG1lZNLt5GiCxkj7U6HBkcjqufuj8e/HKUg6D6ClpgPilmgljngkeKaJg0ckTFXRh3DDmvYPCHiJ9dspI7kqNQsiiXBUACZGztlAHrgg+4968crrvh9JIniAxrnZNY3KyemFZGB/P+dAHrnsKOnAo9hR0+tIA6fWjpyaOnJo9zQAe5o6/Sjr9KOv0/nQAdfp/Oj2FJ/IdTWVe+I/Den5W51K1Vxn93G3mycdtkWTQBrewo6fWuJufiNoMWRa2t7cn1KpCh/Fzu/8AHayZviVfkn7PpVsg9Z55JD+SKv8AOgD0zp9aPc15K/xD8Ttysenx+mIZGx+LSVD/AMJ94tP/AC1sv/AYf/FUAewe5o6/T+deRp8QfFK/eFg49Gt2Gf8AvlxVuL4k6uCPO06ykHfynmjJ/PdQB6j1+lHsK4O3+JOmsQLrTbuH1aF45gPwO01u2fjDwpebVj1GOGRuAl2GgOfrIAv60Ab/AE4FHT602OSKRBJG6yI3IaNgyn6EcU73NAB7mj3NHuaOv0oAOv0o6/Sjr9KPYUAHsKo6tqVto+n3d/PysCZVAcGSRjtRB9Tj/Iq97CuF+JMki6ZpcQJ2S3xaT3KRMVz+dAHnmp6pqOr3T3d9KXck+WgJ8qFOyRL0A/nVKiimBpaNrWo6HdJc2bnYWH2i3JPlTp3Vh0z6Ht/P26wvbfUrO0vrc5guYllTPUZ6q3uDkH6V8/1618PJJH0BkYnbFf3KR5/ukJIQPxJpAdh1+n868w+JX/IR0b/ryn/9GivT/YV5h8Sv+Qho3/XlP/6NFAHCV0Xgr/kZtJ+l1/6IeudrovBX/IzaT9Lr/wBEPTA9o6fWj3NHuaPc0gD3NHX6fzo6/T+dHX6UAHX6Uewo9hR04FAB04FHT60dPrR05NAB05NFHuaKADr9KPYUe1HsKAD2FHT60dPrR0+tAB0+tHuaPc0deTQAe5o6/T+dHX6fzo60AHWvOviZ/wAy/wDW+/8AaVei+wrzn4mf8y/9b7/2lQB53Wx4X/5GLQP+v1f/AEBqx62PC/8AyMWgf9fq/wDoDUwPcvc0ySNJY5I5BlJEaN1PdWG0in+5o6/SkB4LrGlXOjahc2M6nEbFrdyOJoCfkdT+h9xWfXvGr6LpWtwCC+h3bMmGVDtmiY943/mOlcRcfDW43n7Jq0Zjz0uYG3gemY2wfyFAHn1ek/DvR5okutZnQqLiP7NZBhgtEG3PLz2JAA+h9as6X8PNMtZEl1G5e9ZSGEITyrfI/vjJYj8RXbqqIqoihVUBVVQAAAMAADjFAC9PrR05NHTk0e5oAPc0dfpUNxcW1rDJcXU0cMEQ3PJKwVVHuTXnuufEJ2Mlvoce1eVN7cLyfeGJv5n8qAO71DVNL0yLzr+6igj/AIfMb539kQfMfwFcPqnxHHzx6PZ56gXF7kD6rChz+bD6V5/cXN1dzPPdTyzzv96SZy7H2ye1LbW13eSrBaW808zdI4EZ2+p20AXdQ17X9ULfbNQndD/yyjbyoR/2zjwPzzWZgDoK7TTfh5rNzsfUJ4bKM4JjXE9xjryFOwf99GuusfAvhazCmW3kvJRj5rxyy59o0wn6GmB48ivI22NWdj0WNSzfkvNaUHh/xJcgNDpN+ynozQtGv5yYFe4W9pZWihba2t4FAxtgiSMY/wCAgVP7mkB4vH4J8YSc/wBnhB/01uLdf03k1N/wgfi8/wDLtbf+BUdexdfp/Ojr9KAPGn8D+MFHFjE3+5dQH/0JhVKbwx4qgzv0i8IHUxIso/8AIRNe5ewo6cDrQB88zQXNudtxBNC3pNG8Z/8AHwKj4+tfQ8kcUilJUSRT1WRQyn8G4rEvfCPhW+DNJp8UMjf8tLPMDD8I/l/NaAPHLPUNS0999jeXFu3/AExkZVP1X7p/Kuu034iarAVTU7eK8jHBkhxDOPcgfIfyFWtR+G8yhpNLvw45IhvV2t9BLGMfmtcZqOkaxpT7NQs5oBnCyEboX/3ZVyv60wPZNK8SaDrO1bS6UTYybaf93OP+AN1/Amtjr9K+dQSCrKSGUgqykggjuCOa6/RfHWsacY4L/df2gwuXIF1Gv+zIev0P50gPW/YUewrP0vWNK1iAT6fcLIBgSRn5ZYie0iHkVodPrQAdPrWB4t0iTWNGuIIRuu4HW6tV/vyRggoP94Ege9b/AE5PWj3NAHzqQylgwKspKsrAgqQcEEHvRXseueDNH1qR7pS9nevy80AUrKfWWM8E++Qa5ofDS+L86tb+Vn7wt5N+P90vj9aAODjjllkjiiRpJZHWONEBLO7HAVQO5r3Hw5pR0fSLGxbHnKrS3JXkefKd7AH26fhVTQvCWj6Gwnj33N7gj7TcAZQHgiJBwM/ifeui9hQAewrzD4lf8hDRv+vKf/0aK9P6fWvMPiV/yENG/wCvKf8A9GigDhK6LwV/yM2k/S6/9J3rna6LwV/yM2k/S6/9J3pge0e5o6/Sjr9KOv0pAHX6Uewo9hR04FAB04FHT60dPrR05NAB05NHuaPc0dfpQAdfpRR1+lFAB7Cjp9aP50dPrQAdPrR7mj3NHXk0AHuaOv0/nR1+n86OtAB1o9hR7Cjpx3oAOnSvOfiZ/wAy/wDW+/8AaVejdPrXnPxM/wCZf+t9/wC0qAPO62PC/wDyMWgf9fi/+gNWPWx4X/5GLQP+v1f/AEBqYHuXX6UdfpR1+lHsKQB7Cj2FHsKOn1oAOn1o6cmjpyaPc0AHuaxNe8SaZoMIM5826kUm3tIyPMftuY9l9z+tZ/inxbBoqNaWmybVHXIU8x2qsOJJcd/7q/06+S3Fxc3c81zcyvNPM26SSQ5Zj/npQBf1jXdW1ybzb2X90rEw20eRBCP9le59zzWfBBcXMsdvbRSTTyHbHHEpZ2PsBWvoPhvVNflxAPKtEbE93Ip8tfVYx/E3t+ZFes6NoGk6HD5VlEDMygTXMmGnlP8AtN6egHFAHGaL8PJH2T63KUBwws7Zhu+kso6fQfnXf2Vhp2mwiCxtYYIx/DEoBY+rN1J9yatdPrR0+tAB0+tHuaPc0e5oAPc0dfp/Ojr9P50dfpQAdfpR7Cj2FHTgUAHTgUdPrR0+tHuaAD3NHuaPc0dfpQAdfpTJI4p0eKWNJInGHSRQysPQq3FP6/Sj2FAHE6z8P9Mu/Mm0lxZXHJ8o5a1c+mPvL+HHtXnGpaVqmkT/AGe/tnhc52MfmilA7xyDg1777Cq15ZWN/bva3sEc8EnVJBnn1U9QfQigDwW0vL2wuI7qynkguI/uvGcEj+6w6EeoIr1Lw141tNUMVnqPl22onCo2cQXJ/wBgnox9D+HoOW8SeCbzShLead5l1p4yzpjdcWy/7QH3lHr19fWuP9/xGKYH0V7mjrXm3hTxqyGHTNalyhIS1vZDyp6CO4J7ejfn6j0jr9P50gF6/T+dHsKPYUewoAPYUdPrR0+tHT60AHT615h8Sv8AkIaN/wBeU/8A6NFen+5rzD4lf8hDRv8Aryn/APRooA4Sui8Ff8jNpP0uv/RD1ztdF4K/5GbSfpdf+iHpge0dfpR7Cj2FHTgUgDpwKOn1o6fWj3NAB05NHuaPc0dfpQAdfpR1+lHX6UewoAPYUUewooAOBzR7mj3o9zQAdeTR1+n86Ov0/nR1oAOtHsKPYUdOnWgA6cDrR0+tHT60e5oAPc15z8TP+Zf+t9/7Sr0b3Nec/Ezn/hH/AK33/tKgDzutjwv/AMjFoH/X6v8A6A1Y9bHhf/kYtA/6/V/9AamB7l7CjpwKPYUdPrSAOn1o6cmjpyaPc0AHuf8A9Vcp4t8UposP2S0ZX1SdMoDhltozx5sg9f7o/HoOdDxJr0Gg2DTkK91NujsoSfvyY+83favU/l3rxW4uLi7nnubmRpZ53MksjdWY/wBPSgBkkksskksrtJJI7PI7ks7uxyWYnvXV+FfCM+ssl7eh4tLVvlAysl2QeQh7L6n8vUHhHwq2syi9vVZdLhfAXkG7kU/cU/3B/Efw+nraqkapHGqqiKFRVACqoGAABxigBkEFvawxW9tEkUMShI441CoijsAKl6fWjp9aOn1oAOn1o9zR7mj3NAB7mjr9P50dfp/Ojr9KADrR7Cj2FHTgUAHTgUdPrR0+tHuaAD3NHuaPc0dfpQAdfpR1+lHX6UewoAPYUewo9hR0+tAB0+tHTk0dOT1o9zQAe5rgPFXgpZxNqWjRBZ+ZLizQALN3LwjoG9R3+vXv+tHX6UAfOpB5BBBBIIIwQRwQQa77wZ4tMLQaPqkv7hiI7G5kP+qJ4EMjH+Hsp7dOnTQ8Z+ExdLNq+mRf6UgL3sEY/wCPhR1kQD+Md/X6/e8x4I9jTA+ivYUdPrXD+CPExvol0i/kzewJ/okrnm4hUfdYn+Jf1H0Ndx0+tIA6fWj3NHuaPc0AHua8w+JX/IQ0b/ryn/8ARor0/r9P515h8Sv+Qho3/XlP/wCjRQBwldF4K/5GbSfpdf8Aoh652ui8Ff8AIzaT9Lr/ANJ3pge0dOBR0+tHT60dOTSAOnJo9zR7mjr9KADr9KOv0o6/Sj2FAB7Cj2FHsKOn1oAOn1oo6fWigAo6/T+dHX6UdaADrR7Cj2FHTgdaADp9aOn1o6fWj3NAB7mj3NHuaOv0oAOv0rzr4mf8y/8AW+/9pV6L1+ledfEz/mX/AK33/tKgDzqtjwv/AMjFoH/X6v8A6A1Y9bHhf/kYtA/6/V/9AamB7l0+tHTk0dOTR7mkAe5qG4uILWCe6uHEcFvG8sjN0VVGSam6/SvN/iFrhZ4tDt3+VdlxqBU9W+9HCf8A0I/hQByOu6xca5qM97LuWLmO1iJ4hgB+Vfqere59qn8N6DPr9+sHzJZwbZL2Yfwx54RT/eboPxPbnIggnuZoLa3QyTzyJFEi9WdzgCvcNB0a30PToLKLDSkeZdSgcyzsPmb6DovsKANGCCC1hhtreNY4YUWOJEGFRFGABUvT60dPrR0+tAB0+tHuaPc0e5oAPc0dfp/Ojr9P50daADrR7Cj2FHTgUAHTgUdPrR0+tHuaAD3NHuaPc0dfpQAdfpR1+lHX6UewoAPYUewo9hR0+tAB0+tHTk0dOT1o9zQAe5o60daOv0/nQAdfp/Oj2FHsKPYUAHsK8u8ceGhZSvrNjHi0nf8A02JBxBM5/wBYAP4WPX0P+9x6j0+tRTwQXEM1vOiyQzo0UqMMh0YYINAHz9DNPbTQ3EEjRzwSLLE69VdTkEV7d4d1qHXNNhvBtWdP3N3ED/q5lAzj2PUfX2ryLX9Gm0PUp7N9zQn97aSH/lpAx4yfUdD9PerfhPWzouqxNKxFleFbe8B+6oJ+SX/gJ6+xNMD2r3NHX6fzpODz27e9L1+lIA6/SvMPiV/yENG/68p//Ror0/2FeYfEr/kIaN/15T/+jRQBwldF4K/5GbSfpdf+iHrna6LwV/yM2k/S6/8ARD0wPaOnJo9zR7mjr9KQB1+lHX6UdfpR7CgA9hR7Cj2FHT60AHT60dPrR069aPc0AHuaKOtFAB7Uewo9hR06UAHTgdaOn1o6fWj3NAB7mj3NHuaOv0oAOv0o6/Sjr9KPYUAHsK86+Jn/ADL/ANb7/wBpV6L04Fec/Ez/AJl/633/ALSoA87rY8L/APIxaB/1+r/6A1Y9bHhf/kYtA/6/F/8AQGpge5e5o6/Sjr9KTr9P50gKep38OmWF7fzf6u2iaTHd36Kg+pwPxrwe5uJ7u4ubqdt09xK80rerOcnHt2FegfEfVONP0eNuv+m3QHoMpEp/8eP4CuAtbae8ubW0gGZrmaOCMf7TnGT9OpoA7v4eaKHefW504jL21gGH8XSWUfT7o/GvSen1qrYWcGnWVnYwDEVtCkS+rYHLH3JyT9atdPrQAdPrR7mj3NHuaAD3NHX6fzo6/T+dHX6UAHWj2FHsP/1UdOBQAdOBR0+tHT60e5oAPc0e5o9zR1+lAB1+lHX6UdfpR7CgA9hR7Cj2FHT60AHT60dOT1o6cnrR7mgA9zR1o60dfp/OgA6/T+dHsKPYUewoAPYUdPrR0+tHT60AHT60e5o9zR7mgDmfGWif2vpUkkSZvbANc22B8zqB+8i/EdPcCvGuCPY19F9fpXini3SRpOtXcca7ba6/0y1x0CyE7kH+6cj6YoA9B8EawdU0hIJXzdaaVtpST8zxY/dP+XB/3a6r2FeMeDNUOm65ahmxb33+hT5PALn92x+jY/M17P04FAB04FeYfEr/AJCGjf8AXlP/AOjRXp/T615h8Sv+Qho3/XlP/wCjRQBwldF4K/5GbSfpdf8ApO9c7XReCv8AkZtJ+l1/6TvTA9o6/Sjr9KOv0o9hSAPYUewo9hR0+tAB0+tHT60dKPc0AHuaOtHWjr9P50AHX6fzoo68UUAH86On1o6Ue5oAPc0e5o9zR1+lAB1+lHX6UdfpR7CgA9hR7Cj2FHT60AHT615z8TP+Zf8Arff+0q9G6cmvOfiZ/wAy/wDW+/8AaVAHndbHhf8A5GLQP+v1f/QGrHrY8L/8jFoH/X6v/oDUwPcuv0/nSE/kOppfYVk+I73+z9D1i5U4dbV44v8ArpL+6XH4nNIDx7XtQOp6xql7nKSXDJD7Qxfu0/QZ/Gui+Hmm/aNUudQdcx6fDtiz08+fK5/Bd351xQGABXsXgWxFn4ftZSMSX8kl4/HO1jsQfkAfxpgdR0+tHuaPc0e5pAHuaOv0/nR1+n86OtAB1+lHsKPYUdOBQAdOBR0+tHT60e5oAPc0e5o9zR1+lAB1+lHX6VDcXNtawy3FzNHDbxKWkkkYKqge5rz3WfiJKWeDRIVVBkfa7pclveOE/wBfyoA9I/zmojcWynaZ4Q3oZEB/ImvCLzV9bv2JvNQu5s/wtKyxj6ImF/SqOB+NAH0SCpGVIIPcc5/EUvTk9a+fLe8v7Rg9rd3MDDoYJpE/RTiuq0rx/rdmyJqKrf24wCxCx3Kj1DqNp/EfjQB6z7mjrWfpWsaXrVv9osZw6rgSRt8s0TH+GRDyP5Vodfp/OgA6/T+dHsKPYUewoAPYUdPrR0+tHT60AHT60e5o9zR7mgA9zR1+n86Ov0o6/SgA6/SuM+IWnC60iK+Rcy6bMGYjr9nmwjj8DtP4V2fsKr3trHe2d5ZyAFLm3lgbPOA6lc0AfPuWBBUkMCGUjqCOQa960W/Gp6Vpl91a4t0Mn/XVfkcfmDXg8kbwySwyDEkMjxOD2ZGKn+Ven/Di98zTdQsmPNndCRB38u4XOB+Ib86AO56cmvMPiV/yENG/68p//Ror0/3NeYfEr/kIaN/15T/+jRQBwldF4K/5GbSfpdf+iHrna6LwV/yM2k/S6/8ARD0wPaPYUewo9hR0+tIA6fWjpz3o6fWj3NAB7mjrR1o6/T+dAB1+n86OvFHXpR7CgA9hRR0+tFAB70e5o96Ov0oAOv0o6/Sjr9KPYUAHsKOnAo9hR0+tAB0+tHTk0dOTR7mgA9zXnPxM/wCZf+t9/wC0q9G6/SvOfiZ/zL/1vv8A2lQB53Wx4X/5GLQP+v1f/QGrHrY8L/8AIxaB/wBfq/8AoDUwPcvYVxPxGufK0iytQebu9Ut7pCjOf12123T615l8SpibzRLfPEdtcTn6yOqf+y0gODVGkZI15aRljX/ec7RX0FaW6WlraWy4228EMC49I0C14f4fgFzrmhQsMq1/bsw/2Y28w/yr3f3NAB7mjr9P50dfp/OjrQAdfpR7Cj2FHTgUAHTgUdPrR0+tHuaAD3NHuaPc0dfpQAdfpUNzcW9rBPc3Eix28EbSyuxwFVRk1N1+leb/ABE1ljJb6JA+EVUur7afvE/6qM/T7x/D0oA5rxH4jvNfuTy8WnwsfstvnAwOBJKB1Y/p+pwqKPQDkngAckk9hTAKK7fRPAF7eRx3OrTPZxOAyW8ag3LKefnLfKv0wT9K6lPAPhJU2tb3LHH33uZd31+UgfpQB4/RXpGqfDm3KPJpF3IkgBIt7wh0f2EqgMPxBrz26tbuyuJrW7heG4hbbJHIMEHsR2wexoAl07Ub/S7qK8spTHNHwe6SJ3SRe6mvatC1u012wju4PkkU+XdQk5aGUDJX6HqD6fp4VXQeEtZfR9Xt2Z8Wl4yWt2CflAY4ST/gJ/QmgD2r2FHT60dPrR0+tIA6fWj3NHuaPc0AHuaOv0/nR1+n86Ov0oAOv0o9hR7CjpwKADpwKOn1o6fWjpyaAPEvF1r9j8RawgGFmlW6THTE6Bzj8c1q/Du58nW7i3J+W7sZAB/twsrj9N1P+I8ATV9PnAx9osNrf70UjD+RFYvhOYweI9Df+/cGA/SWNo/60wPb+v0rzD4lf8hDRv8Aryn/APRor0/r9K8w+JX/ACENG/68p/8A0aKQHCV0Xgr/AJGbSfpdf+iHrna6LwV/yM2k/S6/9EPTA9o6fWjpR0+tHuaQB7mjrR1+lHX6fzoAOv0/nR14o68UewoAPYUdPrR0+tHT60AHT60Ue5ooAOv0o6/SjrR7CgA9hR04FHsKOn1oAOn1o6cmjpyaPc0AHuaOv0o6/Sjr9P50AHX6fzrzr4mf8y/9b7/2lXovsK86+Jn/ADL4977+UVAHnVbHhf8A5GLQP+v1f/QGrHrY8L/8jFoH/X6v/oDUwPcun1ryX4hyFteiU/8ALLT7dfpueRq9a9zXj/j7J8Rzf9ednj8mpAQeCYxJ4l0rP8C3Uv8A3zA4H869n6/T+deO+A+fEtn/ANet5/6BXsXX6UAHWj2FHsKOnAoAOnAo6fWjp9aPc0AHuaPc0e5o6/SgA6/Sjr9KOv0o9hQAf5NeB6veNf6pqt4Tnz7uZl9o1bYg/ICvd7glbe5K/eEMpH1CkivnofqaACu48AaJFeXU+rXKBorF1jtVYZVrkjcX5/ujGPc+1cPXsHgJEXw5asuMvc3bv/veYV5/ACmB1XuaOtHWjr9P50gDr9P51x/jrRIr/TZNRhQfbNNQyFlHMlsOXQ49PvD6H1rsPYVBdqj2l5G+Nj286vnptKEHNAHz5QehFIOAMelLTA928P3jX+iaPducyS2sYkPcyR/u2P5g1qe5rl/AhY+G7Dd/DLdhfp5zGuo9zSAPc0dfpR1+n86Ov0oAOv0o9hR7CjpwKADpwKOn1o6fWjpyaADpyaPc0e5o6/SgDzr4mRjGgTe97H+kbCuH0iQxato0n9zULM/+RVrvfiXg2uhf9fVyP/IYrz2yz9u07H/P5af+jVoA+gvYV5h8Sv8AkIaN/wBeU/8A6NFen+wrzD4lf8hDRv8Aryn/APRooA4Sui8Ff8jNpP0uv/RD1ztdF4J/5GbSfpdf+k70wPaPc0daOv0o6/T+dIA6/T+dHXijrwPxo9hQAewo6fWjpR0+tAB0+tHuaPc0e5oAPc0UdfpRQAe1HTgUfzo6fWgA6fWjpyaOnJo9zQAe5o60dfpR1+n86AE6/T+dL7Cj2FHsKAD2FedfEz/mX/rff+0q9F6fWvOfiZ/zL/1vv/aVAHndbHhf/kYtA/6/F/8AQGrHrY8L/wDIxaB/1+L/AOgNTA9y9zXkXxBQr4gDdpLC2Ye+GkX+leu9fp/OvLviTERqWkzY4kspI8+pjlJ/9mpAZfgZwvibTQf44rxPzhZv6V7L7CvDfDE3keIdBfOAbxIifaUGL+te5dOBQAdOBR0+tHT60e5oAPc0e5o9zR1+lAB1+lHX6UdfpR7CgA9hR7Cj2FHT60AIQCCp5DAg+4PFfPt5bvaXl9auMNbXM8BH+45WvoPpyeteTeP9Kaz1VNRRcW+pKCxA4W5jUKwP1GD+fpQBx1ek/DnVIzDfaRIwEkchvLYH+ONwFkA+hwf+Be1ebVNa3V1ZXEF3aytFcQOJInXqCOxHoehFMD6E6/T+dHsK4/RPHWkX8ccOouljeABWMhItpD0ykh4H0P5mupW8sXUPHdWzJjO5ZYyuPXINICf2FYHi3VI9K0S+bcBcXUbWdqv8TSSqVLAf7Iyfw96NU8W+HNKR912lzcAHbb2bLLIzejFTtH4mvKNc1y/128N1dEKiApbQISY4UJzgZ6k9z/hgAGWBgAenFHTk0VoaLpkusanY2CA7ZZA07D+C3T5pGP4cD3IpgeveE7VrXw9osbjDtb+ewPrOxm5/MVudfpTURFVEQBURQqqOgVRgAU7r9KQB1+lHsKPYUdOBQAdOBR0+tHT60dOTQAdOTR7mj3NHX6UAHX6UdfpR1+lHsKAPPPiY48vQI+/m3j/gFjX+tcHpiGTU9JjHV7+zX85lrr/iTNnUdItwf9VZyykehlk2/wDstc54ZiM3iDQUxnF7HIfpEDIf5UwPc+n415h8Sv8AkIaN/wBeU/8A6NFen9Oe9eYfEr/kIaN/15T/APo0UgOErovBX/IzaT9Lr/0Q9c7XReCv+Rm0n6XX/oh6YHtHX6fzo68CjrxR7CkAewo6fWjp9aOn1oAOn1o9zR7mj3NAB7mjr9KOv0o6/SgA6/Sij2FFAB0o6cmjgc0e5oAPc0dfpR1+lJ1+n86AF6/T+dHsKPYUewoAPYUdPrR0+tHT60AHT615z8TP+Zf+t9/7Sr0b3Nec/Ez/AJl/633/ALSoA87rY8L/APIxaB/1+r/6A1Y9bHhf/kYtA/6/V/8AQGpge5da4P4k2xax0i6A/wBRdyQsfQTR5H6rXeewrA8YWf2zw9qsarmSCNbuMDrmBhIf0zSA8Ygma3ntrhfvQTRTj6xuH/pX0HHIkkccqHKyosiH1VhuFfPHGPrXtnhG9F94f0qRmzJBEbOX1DQHyx+mD+NAG97mj3NHuaOv0oAOv0o6/Sjr9KPYUAHsKPYUewo6fWgA6fWjpyaOnXrR7n/9VAB7ms/WNKtda0+5sbnhZBuikAy0Mq8pIv0/lx3rQ60dfp/OgDwDUdOvtKvJ7K8j2TRHgjOyRD0kjPdT/npVSvdda0LTNdt/Iu0IkQEwXEeBLCx/uk9R6g//AFx5VrPhLXtHZ2aFrq0GStzaqzAL/wBNEGWU/p70wOfpMAcYFLkdqKAAADp+lFH1rQ0zRdZ1eQJYWkki5w0zDZAnu0rfL+WTQBQVXdkRFZndgiIgLMzMcBVA5ya9g8H+G/7EtGnulH9o3iqZ+h8iIcrCD+re/wBKPDfg+w0TbdXDLdalj/WlcRQZGCIFPP4nn6V1PX6UgDr9KPYUewo6cCgA6cCjp9aOn1o6cmgA6cmj3NHuaOv0oAOv0o6/Sjr9KPYUAHsKPYUewpkkkcMcsshwkaPI5PZUBYmgDxzxvci58R6gFOVtkt7UfVEDN+pNT+ALYzeIY5cZW0tLmY+xYCEf+hGubu7l7y7vbx/vXVxNcH/to5YCvQfhrZ7YdY1Bh/rJIrSM+0Y8x/8A0IflTA9C9zXmHxK/5CGjf9eU/wD6NFen9a8w+JX/ACENG/68p/8A0aKQHCV0Xgr/AJGbSfpdf+iHrna6LwV/yM2k/S6/9J3pge0ewo6fWjp9aOn1pAHT60e5o9zR7mgA9zR1+lHX6UdfpQAdfpR7Cj2FHTgUAHTgUUdPrRQAe9HX6Ufyo6/T+dAB1+n86PYUewo9hQAewo6fWjp9aOn1oAOn1o9zR7mj3NAB7mvOfiZz/wAI/wDW+/8AaVejdfp/OvOviZ/zL/1vv/aVAHnVbHhf/kYtA/6/V/8AQGrHrY8L/wDIxaB/1+r/AOgNTA9y6cCmuiSJJHINySKyOD/ErDBFO6fWj3NID5+1CzfT76/sX+9a3EsP1VW+U/iMGu4+G+ohZdT0uRuJAt7bgn+JcRyAf+On8KrfETTTBqFpqaLiO+j8mYjtPCOCfquP++a5XSNQk0rUrDUEzi3mVpFH8cLfLIv4gmmB751+lHX6UyOSOeOKWJg0UqJIjL0ZGG4EU/2FIA9hR7Cj2FHT60AHT60dOTR05NHuaAD3NHWjrR1+n86ADr9P50deBR7Cj2FAB7Cjp9aOn1o6fWgDLvPD/h2/Je7021kkPVxGI5CT6vHhv1rMPgTwgTu+xyr7Lcz4/Vq6f3NHuaAMO18J+FLVlePSrdnXkNPvnP1xMSP0raRERVRFVI1GFVAFUD0AHFO6/Sjr9KADr9KPYUewo6cCgA6cCjp9aOn1o6cmgA6cmj3NHuaOv0oAOv0o6/Sjr9KPYUAHsKPYUewo6fWgA6fWuY8b6j9g0G7RWxPfstlHg4O1+ZCP+Ag/nXT9PrXkfj3VRfauLONswaYhhODwbh8NIfw4X8DQByPQZ9K9v8LaedO0LSoHXErxfaZh38yc+YQfpkD8K8l8O6adW1nTrMrmLzRPc+ggh+ds/XgfjXunsOgoAXr9P515h8Sv+Qho3/XlP/6NFen9eK8w+JX/ACENG/68p/8A0aKAOErovBX/ACM2k/S6/wDRD1ztdF4K/wCRm0n6XX/oh6YHtHT60e5o9zR7mkAe5o6/Sjr9KOv0oAOv0o9hR7CjpwKADpwKOn1o6fWjpyaADpyaKPc0UAHX6Uewo9qPYUAHsKOn1o6fWjp9aADp9aPc0e5o9zQAe5o6/T+dHX6fzo60AHWvOviZ/wAy+P8Ar+/lFXovsK85+Jn/ADL/ANb7/wBpUAed1seF/wDkYtA/6/V/9Aasetjwv/yMWgf9fq/+gNTA9y6cmj3NHuaOv0pAY/iTShrOkXtmoHnBRPaE9p4/mX8+R+NeGkMCVYEMpKsDwQRwQRX0V1+leSeO9FOn6l/aECYtNSZnbA+WO6HLr/wL7w/H0oA6X4f6z9rsJNJmf/SNPGYMnl7Rjxj/AHTx9CK7b2FeBaXqVzpN/aX9vy8D5ZM4EsTcPG31H+eK90sb211C0tb21ffBcxiSM9+eqt7jofpQBZ6fWjpyaOnJ60e5oAPc0daOtHX6fzoAOv0/nR7Cj2FHsKAD2FHT60dPrTWZI1Z3ZVVRlmYhVA9STxQA7p9aPc1y+p+OPDen70ila+uFyPLs8MgPo0x+T8ia5KX4ja604eG0sY7cHiFxI7MP9qQEc/RaAPVfc0dfp/Os/R9Tg1nTrTUIVKLOp3xscmORCUZCR6EVodfpQAdfpR7Cj2FHTgUAHTgUdPrR0+tHTk0AHTk0e5o9zR1+lAB1+lHX6UdfpR7CgA9hR7Cj2FHT60AHT60dPrR060e5/wD1UAZWv6tHoul3d82DKF8q1Q/x3D8IPw6n2Brwt3kkd5JGLSSM0kjNyWdjuLH6103jLXv7Z1LyYHzYWDPFAQflll6PL9Oy+w96yNF0ufWdStLCLIWVt07j/llAnLv/AEHuRQB6B8PNIMFlc6tMuJL4+Vb56i2jPLD/AHj/AOgiu668VHBDDbwwW8ChIYI0ijVeiog2gCpPYUAHsK8w+JX/ACENG/68p/8A0aK9P6fWvMPiV/yENG/68p//AEaKAOErovBX/IzaT9Lr/wBJ3rna6LwT/wAjNpP0uv8A0nemB7R7mjr9KOv0o6/SkAdfpR7Cj2FHTgUAHTgUdPrR0+tHTk0AHTk0e5o9zR1+lAB1+lFHX6UUAHsOtHT60fzo6fWgA6fWj3NHuaPc0AHuaOv0/nR1+n86OtAB1o9hR7D/APVR04FAB04FedfEz/mX/rff+0q9F6fWvOfiZ/zL/wBb7/2lQB53Wx4X/wCRi0D/AK/F/wDQGrHrY8L/APIxaB/1+L/6A1MD3Lr9KOv0o6/Sj2FIA9hWfrGl22safdafPwJVzG4GTFKvKSD6H/PNaHsKOn1oA+fLyzutPurmyuk2XFvIY5B2OOjKfQjkfWup8E+JBpVz/Z15JjT7yQeW7Hi2uG43f7rdD74PrXU+NfDR1W2/tGzjzqNpGdyKObmAclP95eq/l348m9c/Qg/yNMD6K9zR1rz/AMFeKxMsOjanL++UBLCeQ/61R0hcn+Ifw+vTqPm9A6/SkAdfp/Oj2FMkkiiRnkdI41GXeRgqqPctxXLan488O2G6O2Z7+cZG21wIQf8Aamb5fyzQB1nsKz9Q1nRdJTdf3sMJxkRlt0rf7sa5Y/lXlmp+OPEl/vSGVbGBsjZaZ80j/amb5vyxXMszuzO7M7scs7kszH1LNzQB6HqfxH+/HpFlnqBcXvH4rChz+bfhXF6jrOtaqxa/vZplzkRZ2QL9Ikwv6Vn0UwCrmm6ZqGrXSWdjCZJW5Y9I4kzgvI3YVc0Lw/qWv3Hl2y+XbRkfabpwfLiHoPVvQfngV7DpGj6dotqtrZR4HDTStgyzvjG52/l6UAJoelx6Nplnp6P5hhVmlkxjzJXYu5A9MnitL2FHsKOnApAHTgUdPrR0+tHTk0AHTk0e5o9zR1+lAB1+lHX6UdfpR7CgA9hR7Cj2FHT60AHT60dPrR0+tHuaAD3NcR458SCygbSLOTF7dJ/pLoebe3YdMj+J+3oOe4rV8T+JLfQbXCbZNQuFItIDzjt50g/uj9en08bmmnuZpri4kaSaZ2klkc5Z3bkk0AR/y9q9f8F6AdIsDc3KbdQv1V5QR80MPVIfr3b3PtXL+B/DRvp01i9j/wBCtnzaI44uJ1P38H+Ff1P0r1P2FAB7Cjp9aOn1o6fWgA6fWvMPiV/yENG/68p//Ror0/3NeYfEr/kIaN/15T/+jRQBwldF4K/5GbSfpdf+iHrna6LwV/yM2k/S6/8ASd6YHtHX6Uewo9hR04FIA6cCjp9aOn1o6cmgA6cmj3NHuaOv0oAOv0o6/Sjr9KPYUAHsKKPYUUAHTmj3NHvR7mgA9zR1+n86Ov0/nR1oAOv0o9hR7CjpwKADpwKOn1o6fWj3NAB05Nec/Ez/AJl/633/ALSr0b3Nec/Ezn/hH/rff+0qAPO62PC//IxaB/1+r/6A1Y9bHhf/AJGLQP8Ar9X/ANAamB7l7Cj2FHsKOn1pAHT60dOT1o6cnrUcs0ECNNcSxxRqMs8rqiKPdmOKAJPc/wD6q838a+E2Vpta0yIlGzJqFvGMkHqZ41Hb++Px9a2NT8faBZ7ksxJfzDgeT8kAPvK45/AGuJ1Pxp4l1LegnFnbtkeVZZVip4w0p+c/mKAObBPBBIIIIIOCCOQQRXYQ/EDX4bCK08u3kuowU+2z7mcoPuloxgFvU559PXj6sWllqF/J5Njaz3MncQIW2+7N0H4mmBLf6rq+qPvv7ye45yEdsRL/ALsa4QflVLgfyFdzpnw61KbZJql1HaoeTDb4mnx6Fj8g/Wu207w14a0ZTLDaxeZGpZrq7IkkULyW3ycD8AKAPLNM8KeJNV2NDZtDA2D595mGPB7qCN5/BaTVbHRNI32cdy2pakMrPIn7uytW7qoBLM//AALA9M8DofFPjZ7nztP0aRktzlLi8XIeYdCkB6hfU9T245PB8D6UAFdP4Z8JXmuOlzcb7fS1b5pcYkuMHlIM9vVv5npp+FvBMl55OoazG0dpw8Fo2VknHUNN3C+3U+w6+nIiIqRxqqRooVVQBVVQMBVA4xSAhtLOzsbeK0s4Uht4htREGB7knqSe5qx7Cj2FHTgUAHTgUdPrR0+tHTk0AHTk0e5o9zR1+lAB1+lHX6UdfpR7CgA9hR7Cj2FHT60AHT60dOvWjp9aPc//AKqAD3Nc94k8T2WgwlBtm1CVSbe2B6Z48yYjov8AP9Rk+JPHNtZebZ6QyXF6MpJccNb256cdmb9B+leYTTXFzNLPcSvLNKxeWSRizux7kmgCS8vLzULme8vJWluJm3O7foqjoAOgFbfhfw1Pr1zvlDx6ZbuPtMo4MrDnyYj6n+I9h7mk8NeF7zX5hK++HTInxNPjDSkdYoM9/U9vrxXsNra2tjbwWlpEkUEKBI0QcKPU+570APhiht4ooII1jiiRY40QYVEUYAAqTp9aOn1o6fWgA6fWj3NHuaPc0AHua8w+JX/IQ0b/AK8p/wD0aK9P6/SvMPiV/wAhDRv+vKf/ANGigDhK6LwV/wAjNpP0uv8A0Q9c7XReCv8AkZtJ+l1/6IemB7R04FHT60dPrR05NIA6cmj3NHuaOv0oAOv0o6/Sjr9KPYUAHsKPYUewo6fWgA6fWijp9aKACjr9P50dfpR1oAOv0o9hR7CjpwKADpwKOn1o6fWj3NAB7mj3NHuaOv0oAOv0rzn4mf8AMv8A1vv/AGlXo3X6V518TP8AmX/rff8AtKgDzqtjwv8A8jFoH/X6v/oDVj1seF/+Ri0D/r9X/wBAamB7l0+tQ3FzbWcE1zdSpFBCpeWSQ4VVFTdPrXkXjfX5NT1CTT4HP2DT5DGQp+Wa5Xh3bHUL0X8T3pAaWrfEW5d5ItGtkjjBIW5uxukb/aSHoPxJ+lcVe6jqepSebf3c9w2cgSuSi/7qD5R+AqO2tbu9nitrWF5riU7Y44xlj3J9MDua7fTPhzey7ZNWu0gTgmC0xJKfZpG+QfgDTA4LqQO5OAB1J9AK6DTPB/iXVNjram2t2x++vcxAg91jxvP5V6npnh3QNJ2mysoxKAMzy/vZyfXe+SPwxWv7CkBxemfD7RLXY9/JJfzDBKNmK3B/3EO4/i34V18Fva2kaw2sEUMS/djhRUUfgoqXp9az9W1fTdFtWu76XaOVijXBlmfGdka+tAFm6u7Sxt5rq7mSGCJd0kkhwB7D39BXknibxdd62z2ttvt9LVuI+klzjo02O3ov557UNe8Q6lr9x5lwfLtY2JtrVDmOMf3mPdvU/lishUkcsER3KqXYIpYqi9WO3sO9MBFVmZVUEsxCqo5JYnAAFeneFvBMdp5Oo6wiyXfDwWpw0dueoaTsX/Qe56eYdfpW9pPizxDpGyOK5+0Wy4H2e8zIgHojZ3j8D+FAHtnX6Uewri9N+IWh3IRL+OaxlOAWIM1vn/fQbh+K11lrfafexiSzure4QjOYJEfGfXac0gLHTgUdPrR0+tHTk0AHTk0e5o9zR1+lAB1+lHX6UdfpR7CgA9hR7Cj2FMkkhhRpJZEjQcs8jKij6luKAH9PrR0+tcxqPjfwxYb1S4a8nGR5dkN65HYynCfqa4rVfHuvX2+OzCafAcj9yd9wR7ysOPwA+tAHo2reINF0VC19cqJSMx28WHuH+iD+ZwK8y17xlq+s74Ic2VgcgwxMfNlX/ptIP5Dj61zLu8jvJI7PI53O7sWdj6szc1f0vRtX1mXyrC2aQA4kmb5IIv8AfkPH4DJ9qAM/j8Ogrt/DXge5vjFe6wrwWXDx2xys9wOo391X9T7da6jQPBemaQY7m523moLgiR1/cwt/0xjPf3PP0rq/YUARwww28UUEEaRxRKEjSNQqIo6AAVJ0+tHT60dPrQAdPrR7mqV/qmlaXGJtQu4bdW4XzG+ZvZEGWP4CsIePfCJk2m4uQM43m1m2fXgZ/SgDqvc0dfpVWy1DTtSi8+xuobiHoWiYHafRh1B+oq11+lAB1+leYfEr/kIaN/15T/8Ao0V6f7CvMPiV/wAhDRv+vKf/ANGigDhK6LwV/wAjNpP0uv8A0Q9c7XReCv8AkZtJ+l1/6TvTA9o6cmj3NHuaOv0pAHX6UdfpR1+lHsKAD2FHsKPYUdPrQAdPrR0+tHT60e5oAPc0UdeTRQAdeKPYUewo6cCgA6cCjp9aOn1o9zQAdOTR7mj3NHX6UAHX6UdfpR1+lHsKAD2FedfEz/mXx7338oq9F9hXnXxM/wCZf+t9/wC0qAPOq2PC/wDyMWgf9fq/+gNWPWx4X/5GLQP+vxf/AEBqYHs+pXBs9P1K7HDW9pcTL7MkZYV4Blm+ZiSzEsxPUk8kmve9Yge60nWIFBLTWN0iAdSxjbFeBjkD6UgPVPh7pcMOmyao6A3F9JJGjEcrbxNsCqfcgk/h6V2/sK5HwBfRXOhJaBh52nzSxSL32SOZUb6HJH4V13sKAD2FHT60dPrXI+J/GFto4ks7IpPqhGG7xWuf4pcdW9F/P3ANHxB4k07QIMyETX0qk29qjYZu29z2X3/L28f1PVNR1e6e8vpTJKchFHEcKdQkS9hVe4uLm7nmubqV5riZt0kkhyzH/PQVs+HvDOoa/NuXMNhG2J7phxx1SIHq36D9CAUtI0fUtbultbKPOMGaZ8iGBD/FIw/QdT/L2DQvD2m6FbGK3XfNIB9puZAPMmPp7L6D/wDWbmm6Zp+lWsdpYwiKFOT3eRu7yN1JNXev0oA5bWPBGg6oZJYFNjdNkmS2UeU7f7cP3fyxXA6p4M8SabvZbf7Zbrk+bZZcgdfmiPzj8j9a9n9hR04FAHzqQVJUghgcMrAhgfcHmnRySwuJIZJI5B0eJmRh/wACUg17xf6Lompj/TrG3nboHZAso+kiYb9a5a9+HGjy5ayvLq1POEk23EefQbsP/wCPUAcXa+LfFlngJqcsijjbdKk4x6ZkG79a2IPiNryACezsJsd1EsTfozD9KZdfDvxFDk281lcr2Ad4X/Jxt/8AHqyJvCfi2AkPpNw2O8BjlH/kNiaYHVR/EwYHnaOf+2d0P5NHUv8AwsuzP/MIuvwuIv8ACuCfSNci/wBZpeoL9bWb+YWovsWo9PsV5/4DTf8AxNAHfv8AEyHH7vR5c/7d0gH/AI6hqlN8SdWbIt9Ns4/QyySykfgu2uQTTNYk4j06/Y/7NrOf/ZauReGfFU2Nmj3oz0MkYiH5yEUAXbnxv4tuQVF6lup7WsMaH/vptzfrWFc3d9eMXvLq4uHPe4leT8gxxXSW/gDxVMR5qWlsp7zThiP+Awhv51u2fw1gXa2oanI/96O0jWMf99ybj/47QB5vwOvFaum+HfEGrFTZ2UvlH/lvOPKgA9d79fwBr1rT/CvhnTtrQafE0q9JbnM8n1zJkD8AK2vYcAUgOG0n4eafAUm1ac3kgwfIi3R2wPox++36fSu2hgt7eNILeKOGGMbUSJVRFHoAvFSdePzo9hQAewo6fWjp9aOn1oAOn1rN1vVYdF0271CUBmiULDHnHmTOdqJ+fX2FaXua4T4ktINN0lRny2vmL+mVibbn9aAPOb6+vtSupby9maWeUklj91R2RF6BR2FVqKKYF3TNTv8ASLuO8spCkiEb0yfLmTPMci9wf0r3HTNQg1Swsr+34juYg+D1RujIfcHI/CvAa9a+HjSHQJA2dqahdLHn+6VjY/qTSA7DpwK8w+JX/IQ0b/ryn/8ARor0/p9a8w+JX/IQ0b/ryn/9GigDhK6LwT/yM2k/S6/9J3rna6LwV/yM2k/S6/8ASd6YHtHX6UdfpR1+lHsKQB7Cj2FHsKOn1oAOn1o6fWjp9aPc0AHuaPrR15NHX6fzoAOv0/nRR1ooAP50dPrR0o6cmgA9zR7mj3NHX6UAHX6UdfpR1+lHsKAD2FHsKPYUdPrQAdPrXnPxM/5l/wCt9/7Sr0bpyeteffEuJjBoU+DhZrqI+gLorD+RoA82rY8L/wDIxaB/1+L/AOgNWPV/RruOx1bSLyTiK3vIHkPpGW2sfwBNMD3vr9P514p4s0WTRtVnCoRZXjvcWbAfKAxy8WfVT+mK9qBDAFSCCAQRyCDzwao6rpWn6xaSWV7Hujb5kZeJInHR427Ef560gPE9K1bUNGu0vLGQK4GyVHyYpo85KSKO3p6V6HafEfRXjH2yzvIJsDcIVSaMnvtbcp/SuT1jwXr+lu7QRPfWgJKTWykyBf8AprCPmB+mRXNMGQlXVkYdVcFWH4NzTA73WviFLcQyW+jwTW5kyrXc5QShT/zyRSQD7k/h3HAkklmYksxLMzEkknkkk1PbWd9euI7S1uLhzwBBG7/mQMfrXf8AhvwG0bpe66iEphobEMHXPXdcEcH/AHR+PpQBkeF/B1xq5jvtQDwaZkMi8rLdgf3e4T379vUerQW9vbQxW9vEkVvCoSKONQqqo7ACpAAAAAAoAAA4GB7UvX6UgDr9KPYUewo6cCgA6cCjp9aOn1o6cmgA9zR7mj3NHX6UAHX6UdfpR1+lHsKAD2FHsKPYUdPrQAdKOlHTr1o9zQAe5o60daOv0/nQAdfp/OjrwKPpR7CgA9hR0+tHT60dPrQAdPrR7mj3NHuaAD3NYnifSG1vSLm1ix9ojK3NoTwDNHnCk/7QyPxrb6/Sjr9KAPnd0kieSKVGjkjZkkRwVZHU4KsD3pte2a14V0PW2Ms8bw3eAPtNsQkhA6CQEFT+I/GubHw0t9/OsTeX6C2QPj/e34/SmB53BBcXM0NtbxtLPM4jijQZZmPb/GvctB0tdG0qxsMhpI0LzsvR55Dvcj2zwPpUOjeGtE0IFrSFnuWXa9zcEPMR3CnAAH0Ara6cmkAdOTXmHxK/5CGjf9eU/wD6NFen+5ryb4hXkVxrcFvGQfsNoscuOcSSsZCv4Db+dAHHV0Xgr/kZtJ+l1/6IeudrpvAsTSeJbEgcQwXcrH0HlmP+opgeyewo9hR7Cjp9aQB0+tHT60dPrR7mgA9zR15NH1o6/T+dAB1+n86OtHWj2FAB7Cijp0ooAPej3NHvR1+lAB1+lHX6UdfpR7CgA9hR7Cj2FHT60AHT60dOT1o6cmj3NAB7mue8Yaa+p6FepGpae123sCjqzQ5LKPqu4V0PWk6/T+dAHzt157UV1PjHw6+j3r3dsh/sy8kZoyo+W3mb5mhb27r+XbnlqYHofhLxnBDDBpWsS7FiAjtLx+UCDhYpz2x0B/Ppk+io6OivGyujgMrIQysD3BHFfO9XrHV9a0z/AI8b+5gXOfLR8xE+8b5X9KQHvnT61G8FvJzLFE59XRWx+Yrx9fHXjBQAbu3bHdrWHP8A46BTv+E88X/8/Nr/AOAsdAHsCoiDCqqqOgUAD8hTuv0/nXjv/CeeL/8An5tf/AWOj/hPPF//AD82v/gLHQB7F1+lHsK8d/4Tzxf/AM/Nr/4Cx0f8J54v/wCfm1/8BY6APYunAo6fWvHf+E88X/8APza/+AsdH/CeeL/+fm1/8BY6APYunJo9zXjv/CeeL/8An5tf/AWOj/hPPF//AD82v/gLHQB7F1+lHX6V47/wnni//n5tf/AWOj/hPPF//Pza/wDgLHQB7F7Cj2FeO/8ACeeL/wDn5tf/AAFjo/4Tzxf/AM/Nr/4Cx0AexdPrR0+teO/8J54v/wCfm1/8BY6P+E88X/8APza/+AsdAHsXuaOteO/8J54v/wCfm1/8BY6P+E88X/8APza/+AsdAHsXX6fzo68CvHf+E88X/wDPza/+AsdH/CeeL/8An5tf/AWOgD2L2FHT6147/wAJ54v/AOfm1/8AAWOj/hPPF/8Az82v/gLHQB7F0+tHua8d/wCE88X/APPza/8AgLHR/wAJ54v/AOfm1/8AAWOgD2L3NHX6V47/AMJ54v8A+fm1/wDAWOj/AITzxf8A8/Nr/wCAsdAHsXX6Uewrx3/hPPF//Pza/wDgLHR/wnni/wD5+bX/AMBY6APYunAo6fWvHf8AhPPF/wDz82v/AICx0f8ACeeL/wDn5tf/AAFjoA9i6cmj3NeOf8J54v8A+fq2/wDAWP8ArWfe+JvE1+rJc6nceWww0cO2BCPQiED+dAHpPiPxhp+kRy29o8dzqRBVI0IaOA/352HHHp1+nWvIppZriWaeZ2kmmkaWV35Z3Y5JNMopgFejfDjTXVdS1Z1wJMWVsT3VTvkYfjtH4GuJ0jSb3Wr6GxtVOW+aaUjKQQg/NI/9PU17jY2Vtp1naWNsu2G3jWNB3OOrMfUnJP1pAWen1o6UdPrR7mgA9zR70deTR1+n86ADr9P50dfpR1o9hQAewo6fWjp9aOn1oAOn1oo9zRQAfyo6/Sjr9KPYUAHsKPYUewo6fWgA6fWjpyaOnJ60e5oAPc0daOtHX6fzoAOv0/nR7Cj2FHsKAILq1tb23mtLqFJoJlKSxuMqQf6+leVeIfBOo6W0tzp6yXmn5LYUbrm3XriRRyQPUD6jufXOn1o6fWgD51or27U/CvhzVi0lzaLHcN1ntT5MpPqxX5T+INctc/DTkmy1Ugdku4ASB/vxsP8A0GmB51RXbH4b69n5b7TSPUm4H6bDSf8ACuPEH/P7pn/fVx/8boA4qiu1/wCFceIP+f3TP++rj/43R/wrjxB/z+6Z/wB9XH/xugDiqK7X/hXHiD/n90z/AL6uP/jdH/CuPEH/AD+6Z/31cf8AxugDiqK7X/hW/iD/AJ/dM/76uP8A43R/wrfxB/z+6Z/31cf/ABugDiqK7X/hXHiD/n90z/vq4/8AjdH/AArjxB/z+6Z/31cf/G6AOKortf8AhXHiD/n90z/vq4/+N0f8K48Qf8/umf8AfVx/8boA4qiu1/4Vx4g/5/dM/wC+rj/43R/wrfxB/wA/umf99XH/AMboA4qiu1/4Vx4g/wCf3TP++rj/AON0f8K48Qf8/umf99XH/wAboA4qiu1/4Vx4g/5/dM/76uP/AI3R/wAK48Qf8/umf99XH/xugDiqK7X/AIVx4g/5/dM/76uP/jdH/CuPEH/P7pn/AH1cf/G6AOKortf+FceIP+f3TP8Avq4/+N0f8K38Qf8AP7pn/fVx/wDG6AOKortf+FceIP8An90z/vq4/wDjdH/CuPEH/P7pn/fVx/8AG6AOKortf+FceIP+f3TP++rj/wCN0f8ACuPEH/P7pn/fVx/8boA4qiu1/wCFceIP+f3TP++rj/43R/wrjxB/z+6Z/wB9XH/xugDiqK7X/hW/iD/n90z/AL6uP/jdH/CuPEH/AD+6Z/31cf8AxugDiqK7X/hW/iA/8vumY/3rj/43VqD4a3hI+06rAi9/s8DufwMjAfpQBwFbOi+HNY1yRfs0RjtQcSXcwIhUd9vdj7D9K9H07wL4asWR5YpL2ZcHdeMGjBHcRIAn5g11CqkaqiKqqoCqqgKoA7ADikBm6LomnaFai2tFJd8NcTvjzZ3A+8xHYdh2/U6nT60dPrR7mgA9zR15NH1o6/T+dAB1+n86OtHWj2FAB7Cjp9aOnSjp9aADp9aPc0e5o9zQAe5oo6/SigA9qPYUfzo6fWgA6fWjpyaOnJ60e5oAPc0daOtHX6fzoAOv0/nR7Cj2FHsKAD2FHT60dKOn1oAOn1o9zR7mj3NAB7mk6/T+dL1+lHX6UAHX6Uewo9hR04FAB04FHT60dPrR7mgA6cmj3NHuaOv0oAOv0o6/Sjr9KPYUAHsKPYUewo6fWgA6fWjp9aOn1o9zQAe5o60daOv0/nQAdfp/Ojr0/GjrxR7CgA9hR0+tHT60dPrQAdPrR7mj3NHuaAD3NHX6UdfpR1+lAB1+lHsKPYUdOBQAdOBR0+tHT60dOTQAdOTR7mj3NHX6UAHX6UdfpR1+lHsKAD2FHsKPYUdPrQAdPrR0+tHT60e5oAPc0deTR15o6/T+dAB1+n86OtHWj2FAB7Cjp9aOnHejp9aADp9aPc0e5o9zQAe5o6/Sjr9KOv0oAOv0oo9hRQAdKOnJ60dOaPc0AHuaOtHWjr9P50AHX6fzo9hR14FHsKAD2FHT60dPrR0+tAB0+tHuaPc0e5oAPc0dfpSdfp/Ol6/SgA6/Sj2FHsKOnAoAOnAo6fWjp9aOnJoAOnJo9zR7mjr9KADr9KOv0o6/Sj2FAB7Cj2FHsKOn1oAOn1o6fWjp9aPc0AHuaOvNHWjr9P50AHX6fzo+lHXgUewoAPYUdPrR0+tHT60AHT60e5o9zR7mgA9zR1+lHX6UdfpQAdfpR7Cj2FHTgUAHTgUdPrR0+tHTk0AHTk0e5o9zR1+lAB1+lHX6UdfpR7CgA9hR7Cj2FHT60AHT60dPrR0o9zQAe5o+tHXmjr9P50AHX6fzo60dfpR7CgA9hR06UdPrR0+tAB0+tHuaPc0e5oAPc0dfpR1+lHX6UAHX6Uewo9hR7CgA6cCijp9aKAD3o60Udfp/OgA6/T+dHXgUewo9hQAewo6fWjp9aOn1oAOn1o9zR7mj3NAB7mjr9P50dfpR1+lAB1+lHsKPYUdOBQAdOBR0+tHT60dOTQAe5o9zR7mjr9KADr9KOv0o6/Sj2FAB7Cj2FHsKOn1oAOn1o6fWjp9aPc0AHuaOtHWk6/T+dAC9fp/OjrwKPYUewoAPYUdPrR0+tHT60AHT60e5o9zR7mgA9zR1+lHX6UdfpQAdfpR7Cj2FHTgUAHTgUdPrR0+tHTk0AHTk0e5o9zR1+lAB1+lHX6UdfpR7CgA9hR7Cj2FHT60AHT60dPrR0+tHuaAD3NHXmjrR1+n86ADr9P50daOtHsKAD2FHTp1o6fWjp9aADp9aPc0e5o9zQAe5o6/Sjr9KOv0oAOv0o9hR7CjpwKADpwKOn1o6fWjpyaADpyaKPc0UAHX6Uewo9KKAD2FHT60UUAHT60e5oooAPc0dfp/OiigA6/Sj2FFFAB04FHT60UUAHTk0e5oooAOv0o6/SiigA9hR7CiigA6fWjp9aKKAD3NHWiigA6/T+dHXgUUUAHsKOn1oooAOn1o9zRRQAe5o6/SiigA6/Sj2FFFAB04FHT60UUAHTk0e5oooAOv0o6/SiigA9hR7CiigA6fWjp9aKKAD3NH1oooAOv0/nR1oooAPYUdOnWiigA6fWj3NFFAB7mjr9KKKADr9KPYUUUAHTgUdPrRRQAdOTR7miigA6/SiiigD/9k=;imageBorder=default;fontFamily=Fira Code;" vertex="1" parent="HewII5I395oueKauFgrz-9">
          <mxGeometry x="140" y="280" width="80" height="80" as="geometry" />
        </mxCell>
        <mxCell id="HewII5I395oueKauFgrz-19" value="Drive ???" style="shape=image;verticalLabelPosition=bottom;labelBackgroundColor=default;verticalAlign=top;aspect=fixed;imageAspect=0;image=data:image/jpeg,/9j/4AAQSkZJRgABAQEAAAAAAAD/4QBCRXhpZgAATU0AKgAAAAgAAYdpAAQAAAABAAAAGgAAAAAAAkAAAAMAAAABAAAAAEABAAEAAAABAAAAAAAAAAAAAP/bAEMACwkJBwkJBwkJCQkLCQkJCQkJCwkLCwwLCwsMDRAMEQ4NDgwSGRIlGh0lHRkfHCkpFiU3NTYaKjI+LSkwGTshE//bAEMBBwgICwkLFQsLFSwdGR0sLCwsLCwsLCwsLCwsLCwsLCwsLCwsLCwsLCwsLCwsLCwsLCwsLCwsLCwsLCwsLCwsLP/AABEIAdoB2gMBIgACEQEDEQH/xAAfAAABBQEBAQEBAQAAAAAAAAAAAQIDBAUGBwgJCgv/xAC1EAACAQMDAgQDBQUEBAAAAX0BAgMABBEFEiExQQYTUWEHInEUMoGRoQgjQrHBFVLR8CQzYnKCCQoWFxgZGiUmJygpKjQ1Njc4OTpDREVGR0hJSlNUVVZXWFlaY2RlZmdoaWpzdHV2d3h5eoOEhYaHiImKkpOUlZaXmJmaoqOkpaanqKmqsrO0tba3uLm6wsPExcbHyMnK0tPU1dbX2Nna4eLj5OXm5+jp6vHy8/T19vf4+fr/xAAfAQADAQEBAQEBAQEBAAAAAAAAAQIDBAUGBwgJCgv/xAC1EQACAQIEBAMEBwUEBAABAncAAQIDEQQFITEGEkFRB2FxEyIygQgUQpGhscEJIzNS8BVictEKFiQ04SXxFxgZGiYnKCkqNTY3ODk6Q0RFRkdISUpTVFVWV1hZWmNkZWZnaGlqc3R1dnd4eXqCg4SFhoeIiYqSk5SVlpeYmZqio6Slpqeoqaqys7S1tre4ubrCw8TFxsfIycrS09TV1tfY2dri4+Tl5ufo6ery8/T19vf4+fr/2gAMAwEAAhEDEQA/APXKPYUewo6fWgA/nR0o6fWj3NAB9aKPc0dfpQAfyo60dfpR7CgA9hR/OjpwKOn1oAOlHTrR05NHuaAD60fyo6/Sjr9KADr9KPpR7Cj2FAB7Ufzo6fWjp9aADpR9aPc0e5oAOaOv0o6/T+dHWgA+lHsKPYUdOlAB/OjpR0+tHuaAD60fWj3NHX6UAH8qOvTpR1+lHsKAD2FHt3o6cCjp9aADpR060dOTR7mgA+tHNHX6Udfp/OgA6/Sj6Uewo9hQAew60fzo6fWjp9aADpR9aPc0e5oAOaOv0o6/T+dHX6UAHXpR7Cj2FHTgUAH86OlHT60dOTQAfWj60e5o6/SgA/lR1+lHX6UewoAPpR/Oj2FHT60AHSjp1o6cnrR7mgA+tHNHWjr9P50AHX6UUewooAP50dPrRwKPc0AHuaPc0e5o6/SgA6/Sjr9KOv0o9hQAewo6cCjpwKOn1oAOn1o6cmjpyaPc0AHuaOv0o6/Sjr9KADr9KPYUewo9hQAewo6fWjp9aOn1oAOn1o9zR7mjryaAD3NHX6fzo6/T+dHWgA60ewo9hR0470AHTgdaOn1o6fWjpyaAD3NHuaPc0dfpQAdfpR1+lHX6UewoAPYUewo9hR0+tAB0+tHTk0dOTR7mgA9zR1+lHX6Udfp/OgA6/T+dHsKPYUewoAPYUdPrR0+tHT60AHT60e5o9zR7mgA9zR1+n86Ov0/nR1+lAB1o9hR7CjpwKADpwKOn1o6fWj3NAB7mj3NHuaOv0oAOv0o6/Sjr9KPYUAHsKPYUewo6fWgA6fWjpyetHTk0e5oAPc0daOtHX6fzoAOv0/nR14FHXgUewoAPYUUdPrRQAe9HuaKOv0oAOv0o6/Sjr9KPYUAHsKOnAo6cCjp9aADp9aOnJo6cmj3NAB7mjr9KOv0o6/SgA6/Sj2FHsKPYUAHsKOn1o6fWjp9aADp9aPc0e5o9zQAdeTR1+n86Ov0/nR1oAOtHsKPYUdOB1oAOn1o6fWjp9aPc0AHuaPc0e5o6/SgA6/Sjr9KOv0o9hQAewo6cCjpwKOn1oAOn1o6cmjpyaPc0AHuaOv0o6/Sjr9P50AJ1+n86X2FHsKPYUAHsKOn1o6fWjp9aADp9aPc0e5o9zQAe5o6/T+dHX6fzo6/SgA6/Sj2FHsKOnAoAOnAo6fWjp9aPc0AHuaPc0e5o6/SgA6/Sjr9KOv0o9hQAewo9hR7Cjp9aADp9aOnJo6cnrR7mgA9zR1o60dfp/OgA6/T+dHsKPYUewoAPYUdPrR0+tHT60AHT60Ue5ooAOv0o6/SjrR7CgA9hR04FHTgUdPrQAdPrR05NHTk0e5oAPc0dfpR1+lHX6UAHX6Uewo9hR7CgA9hR0+tHT60dPrQAdPrR7mo5Zre3RpbiWOKNeryuqIv1ZjisC68a+ErYkG/E7A422scko/76A2/rQB0fuaOv0/nXGn4i+Gc4EWpEeogjGfzkFH/CxfDX/PDU/wDvxF/8doA7LrR7CuN/4WL4Z7Qan/34i/8AjtJ/wsXwyP8Alhqf/fiL/wCO0Adn06UdPrXGf8LF8Mj/AJYan/34i/8AjtH/AAsXwz18jU/+/EX/AMdoA7P3NHua4z/hYvhnvBqf/fiL/wCO0f8ACxfDJ/5Yan/34i/+O0Adn1+lHX6Vxn/CxfDX/PDU8f8AXCL/AOO0v/CxfDX/ADw1P/vxF/8AHaAOy9hR7CuN/wCFi+Ge0Gp/9+Iv/jtH/CxfDI/5Yan/AN+Iv/jtAHZdPrR05Ncb/wALF8M/88NT/wC/EX/x2k/4WL4Z6+Rqf/fiL/47QB2fuaOv0rjP+Fi+Gf8Anhqf/fiL/wCO0f8ACxfDR/5Yanj/AK4Rf/HaAOz6/T+dHsK43/hYvhn/AJ4an/34i/8AjtH/AAsXwz2g1P8A78Rf/HaAOy9hR0+tcb/wsXwyP+WGp/8AfiL/AOO0n/CxfDP/ADw1P/vxF/8AHaAOz6fWj3NcZ/wsXwz18jU/+/EX/wAdo/4WL4Z/54an/wB+Iv8A47QB2fuaOv0/nXGf8LF8Mn/lhqf/AH4i/wDjtL/wsXw1/wA8NT/78Rf/AB2gDsuv0o9hXG/8LF8NdoNT/wC/EX/x2k/4WL4ZH/LDU/8AvxF/8doA7PpwKOn1rjf+Fi+GR/yw1P8A78Rf/HaT/hYvhnr5Gp/9+Iv/AI7QB2fTk0e5rjP+Fi+Ge8Gp/wDfiL/47R/wsXwyf+WGp/8AfiL/AOO0Adn1+lHX6Vxv/CxfDJ/5Y6nj/rhF/wDHaswePPCUxCtczwZ73FvIAPxTcKAOp9hR7CqtpqGm36b7G7t7hcZJhkVyP94A5H5Va6fWgA6fWjpyaOnJ60e5oAPc0daOtHX6fzoAOv0/nR7Cj2FHsKAD2FHT60dKOn1oAOn1o9zR7mj3NAB7mijr9KKAD2FHTgUfzo6fWgA6fWjpyaOnJo9zQAe5o6/Sjr9KOv0oAOv0o9hR7Cj2FAB7Cjp9aOn1o6fWgA6cmuF8Q+PILNpbPRxHcXKkpJct81vEw4IjA+8R9cfWqfjjxRIHm0TT5Cu0bdRmjOGyR/x7oR/4/wDl6153QBavtQ1LUpTNf3U1w+cjzWyi+yIPlA+gqrRRketMAoqQQXTDK29ww9VhkI/MCl+zXn/Prdf9+Jf/AImgCKipfs15/wA+t1/34l/+Jo+zXn/Prdf9+Jf/AImgCKipfs15/wA+t1/34l/+Jo+zXv8Az63X/fiX/wCJoAioqX7Ne/8APrdf9+Jf/iaPs15/z63X/fiX/wCJoAioqX7Nef8APrdf9+Jf/iaPs15/z63X/fiX/wCJoAioqX7Nef8APrdf9+Jf/iaPs15/z63X/fiX/wCJoAioqX7Ne/8APrdf9+Jf/iaPs17/AM+t1/34l/8AiaAIqKl+zXv/AD63X/fiX/4mj7Nef8+t1/34l/8AiaAIqKl+zXn/AD63X/fiX/4mj7Nef8+t1/34l/8AiaAIqKl+zXn/AD63X/fiX/4mj7Ne/wDPrdf9+Jf/AImgCKipfs17/wA+t1/34l/+Jo+zXn/Prdf9+Jf/AImgCKipfs15/wA+t1/34l/+Jo+zXn/Prdf9+Jf/AImgCKipfs15/wA+t1/34l/+Jo+zXn/Prdf9+Jf/AImgCKipfs15/wA+t1/34l/+Jo+zXv8Az63X/fiX/wCJoAioqX7Ne/8APrdf9+Jf/iaPs15/z63X/fiX/wCJoAioqX7NeD/l1ufxgl/+JqI/KdpBDejDB/I0APilmt5FmglkilU5WSF2RwfZlINdvoXj+9tmjt9aBubfhRdRqBcRj1kUcMPyP1rhaKAPoW3uLa7hiubaVJoJVDxSRncrKfQ1L1rxjwt4ln0K6WOZmfS7hx9pj5PksePPjHqP4h3HuK9lR0lRJEYNG6q6MpyGVhkEEdqQDuv0/nR7CjrwKPYUAHsKOn1o6fWjp9aADp9aPc0e5o9zQAe5o6/Sk6/T+dL1+lAB1+lFHsKKADpR05NHA5o9zQAe5o6/Sjr9KOv0oAOv0o9hR7Cj2FAB7Cjp9aOn1o6fWgA6fWsrX9TGkaTqF/x5scey3B6GeQ7EH5nJ+lavua4L4k3DrY6PbA4We7lmYeohjwM/99UAeZszuzySMWd2Z3ZjkszHJYn3pKKs2Fo9/fWFkhw13cwwbv7odgC34DJpgbnhrwnea832iV2t9NRirTAZkmYdUhB4+p/n29P07w9oGlqq2djCJABmaVRLMSO5kfJ/LFaFtb29nb29pbIEht40ijVeiqowKm6fWkAdMAUdKQlUDMxAABLEkAADnJJrEn8WeE7aRo5dVty6nDCESTAH/eiUj9aANzpyaPc1QsNX0bVMmwvre4K8lI3HmKPUo2G/Sr/X6UAHX6UdfpR1+lHsKAD2FHt3o6cCjp9aADpR060dOTR7n/8AVQAe5oo6/Sjr9P50AHX6UdelHsKPYUAHsKOlHT60dPrQAdOtHuaPc0e5oAPejr9KOv0/nR1oAOtHsKPYUdOBQAe3ejpR0+tHuaADpyaPc0e5o6/SgA6/Sjr9KOv0o9hQAewo9hUF1d2VjEZru4hgiHV53VFz6At3rHHjHwfv2DVYc5xuKTBM/wC8Ux+tAG/0qpeabpd+jJe2dtOrDH72NSw/3WxuH51Lb3NrdRLPbTxTxP8AdkhdXQ+wKnFTe5oA8z8R+Azaxy32i+ZJEgLzWTkvIijktAx5OPQ8+56VwPWvorrzXjXjbTItN1yUwKFgvoxeIq8KrsxWQADtkZ/GgDmq9V+H2rPd6dPpsr5l05l8ok8m2kyVH/ASCPpivKq6vwDcND4hiiBwt1aXMLe+wCUfypgev+wo6fWjp9aOn1pAHT60e5o9zR7mgA9zR1+n86Ov0o6/SgA6/Sj2FHsKOnAoAOnAoo6fWigA96Ov0o/lR1+lAB1+n86PYUewo9hQAewo6fWjp9aOn1oAOn1o9zR7mj3NAB7mvOviZz/wj/pm+/8AaVei9fp/OvOviZ/zL/1vv/aVAHnVbHhf/kYtA/6/V/8AQGrHrY8L/wDIxaB/1+r/AOgNTA9y6dOtHT60dPrVLVZJIdM1aZM+ZHYXbpjqGWJiMUgPLfF3ie51W7uLG1lZNLt5GiCxkj7U6HBkcjqufuj8e/HKUg6D6ClpgPilmgljngkeKaJg0ckTFXRh3DDmvYPCHiJ9dspI7kqNQsiiXBUACZGztlAHrgg+4968crrvh9JIniAxrnZNY3KyemFZGB/P+dAHrnsKOnAo9hR0+tIA6fWjpyaOnJo9zQAe5o6/Sjr9KOv0/nQAdfp/Oj2FJ/IdTWVe+I/Den5W51K1Vxn93G3mycdtkWTQBrewo6fWuJufiNoMWRa2t7cn1KpCh/Fzu/8AHayZviVfkn7PpVsg9Z55JD+SKv8AOgD0zp9aPc15K/xD8Ttysenx+mIZGx+LSVD/AMJ94tP/AC1sv/AYf/FUAewe5o6/T+deRp8QfFK/eFg49Gt2Gf8AvlxVuL4k6uCPO06ykHfynmjJ/PdQB6j1+lHsK4O3+JOmsQLrTbuH1aF45gPwO01u2fjDwpebVj1GOGRuAl2GgOfrIAv60Ab/AE4FHT602OSKRBJG6yI3IaNgyn6EcU73NAB7mj3NHuaOv0oAOv0o6/Sjr9KPYUAHsKo6tqVto+n3d/PysCZVAcGSRjtRB9Tj/Iq97CuF+JMki6ZpcQJ2S3xaT3KRMVz+dAHnmp6pqOr3T3d9KXck+WgJ8qFOyRL0A/nVKiimBpaNrWo6HdJc2bnYWH2i3JPlTp3Vh0z6Ht/P26wvbfUrO0vrc5guYllTPUZ6q3uDkH6V8/1618PJJH0BkYnbFf3KR5/ukJIQPxJpAdh1+n868w+JX/IR0b/ryn/9GivT/YV5h8Sv+Qho3/XlP/6NFAHCV0Xgr/kZtJ+l1/6IeudrovBX/IzaT9Lr/wBEPTA9o6fWj3NHuaPc0gD3NHX6fzo6/T+dHX6UAHX6Uewo9hR04FAB04FHT60dPrR05NAB05NFHuaKADr9KPYUe1HsKAD2FHT60dPrR0+tAB0+tHuaPc0deTQAe5o6/T+dHX6fzo60AHWvOviZ/wAy/wDW+/8AaVei+wrzn4mf8y/9b7/2lQB53Wx4X/5GLQP+v1f/AEBqx62PC/8AyMWgf9fq/wDoDUwPcvc0ySNJY5I5BlJEaN1PdWG0in+5o6/SkB4LrGlXOjahc2M6nEbFrdyOJoCfkdT+h9xWfXvGr6LpWtwCC+h3bMmGVDtmiY943/mOlcRcfDW43n7Jq0Zjz0uYG3gemY2wfyFAHn1ek/DvR5okutZnQqLiP7NZBhgtEG3PLz2JAA+h9as6X8PNMtZEl1G5e9ZSGEITyrfI/vjJYj8RXbqqIqoihVUBVVQAAAMAADjFAC9PrR05NHTk0e5oAPc0dfpUNxcW1rDJcXU0cMEQ3PJKwVVHuTXnuufEJ2Mlvoce1eVN7cLyfeGJv5n8qAO71DVNL0yLzr+6igj/AIfMb539kQfMfwFcPqnxHHzx6PZ56gXF7kD6rChz+bD6V5/cXN1dzPPdTyzzv96SZy7H2ye1LbW13eSrBaW808zdI4EZ2+p20AXdQ17X9ULfbNQndD/yyjbyoR/2zjwPzzWZgDoK7TTfh5rNzsfUJ4bKM4JjXE9xjryFOwf99GuusfAvhazCmW3kvJRj5rxyy59o0wn6GmB48ivI22NWdj0WNSzfkvNaUHh/xJcgNDpN+ynozQtGv5yYFe4W9pZWihba2t4FAxtgiSMY/wCAgVP7mkB4vH4J8YSc/wBnhB/01uLdf03k1N/wgfi8/wDLtbf+BUdexdfp/Ojr9KAPGn8D+MFHFjE3+5dQH/0JhVKbwx4qgzv0i8IHUxIso/8AIRNe5ewo6cDrQB88zQXNudtxBNC3pNG8Z/8AHwKj4+tfQ8kcUilJUSRT1WRQyn8G4rEvfCPhW+DNJp8UMjf8tLPMDD8I/l/NaAPHLPUNS0999jeXFu3/AExkZVP1X7p/Kuu034iarAVTU7eK8jHBkhxDOPcgfIfyFWtR+G8yhpNLvw45IhvV2t9BLGMfmtcZqOkaxpT7NQs5oBnCyEboX/3ZVyv60wPZNK8SaDrO1bS6UTYybaf93OP+AN1/Amtjr9K+dQSCrKSGUgqykggjuCOa6/RfHWsacY4L/df2gwuXIF1Gv+zIev0P50gPW/YUewrP0vWNK1iAT6fcLIBgSRn5ZYie0iHkVodPrQAdPrWB4t0iTWNGuIIRuu4HW6tV/vyRggoP94Ege9b/AE5PWj3NAHzqQylgwKspKsrAgqQcEEHvRXseueDNH1qR7pS9nevy80AUrKfWWM8E++Qa5ofDS+L86tb+Vn7wt5N+P90vj9aAODjjllkjiiRpJZHWONEBLO7HAVQO5r3Hw5pR0fSLGxbHnKrS3JXkefKd7AH26fhVTQvCWj6Gwnj33N7gj7TcAZQHgiJBwM/ifeui9hQAewrzD4lf8hDRv+vKf/0aK9P6fWvMPiV/yENG/wCvKf8A9GigDhK6LwV/yM2k/S6/9J3rna6LwV/yM2k/S6/9J3pge0e5o6/Sjr9KOv0pAHX6Uewo9hR04FAB04FHT60dPrR05NAB05NHuaPc0dfpQAdfpRR1+lFAB7Cjp9aP50dPrQAdPrR7mj3NHXk0AHuaOv0/nR1+n86OtAB1o9hR7Cjpx3oAOnSvOfiZ/wAy/wDW+/8AaVejdPrXnPxM/wCZf+t9/wC0qAPO62PC/wDyMWgf9fi/+gNWPWx4X/5GLQP+v1f/AEBqYHuXX6UdfpR1+lHsKQB7Cj2FHsKOn1oAOn1o6cmjpyaPc0AHuaxNe8SaZoMIM5826kUm3tIyPMftuY9l9z+tZ/inxbBoqNaWmybVHXIU8x2qsOJJcd/7q/06+S3Fxc3c81zcyvNPM26SSQ5Zj/npQBf1jXdW1ybzb2X90rEw20eRBCP9le59zzWfBBcXMsdvbRSTTyHbHHEpZ2PsBWvoPhvVNflxAPKtEbE93Ip8tfVYx/E3t+ZFes6NoGk6HD5VlEDMygTXMmGnlP8AtN6egHFAHGaL8PJH2T63KUBwws7Zhu+kso6fQfnXf2Vhp2mwiCxtYYIx/DEoBY+rN1J9yatdPrR0+tAB0+tHuaPc0e5oAPc0dfp/Ojr9P50dfpQAdfpR7Cj2FHTgUAHTgUdPrR0+tHuaAD3NHuaPc0dfpQAdfpTJI4p0eKWNJInGHSRQysPQq3FP6/Sj2FAHE6z8P9Mu/Mm0lxZXHJ8o5a1c+mPvL+HHtXnGpaVqmkT/AGe/tnhc52MfmilA7xyDg1777Cq15ZWN/bva3sEc8EnVJBnn1U9QfQigDwW0vL2wuI7qynkguI/uvGcEj+6w6EeoIr1Lw141tNUMVnqPl22onCo2cQXJ/wBgnox9D+HoOW8SeCbzShLead5l1p4yzpjdcWy/7QH3lHr19fWuP9/xGKYH0V7mjrXm3hTxqyGHTNalyhIS1vZDyp6CO4J7ejfn6j0jr9P50gF6/T+dHsKPYUewoAPYUdPrR0+tHT60AHT615h8Sv8AkIaN/wBeU/8A6NFen+5rzD4lf8hDRv8Aryn/APRooA4Sui8Ff8jNpP0uv/RD1ztdF4K/5GbSfpdf+iHpge0dfpR7Cj2FHTgUgDpwKOn1o6fWj3NAB05NHuaPc0dfpQAdfpR1+lHX6UewoAPYUUewooAOBzR7mj3o9zQAdeTR1+n86Ov0/nR1oAOtHsKPYUdOnWgA6cDrR0+tHT60e5oAPc15z8TP+Zf+t9/7Sr0b3Nec/Ezn/hH/AK33/tKgDzutjwv/AMjFoH/X6v8A6A1Y9bHhf/kYtA/6/V/9AamB7l7CjpwKPYUdPrSAOn1o6cmjpyaPc0AHuf8A9Vcp4t8UposP2S0ZX1SdMoDhltozx5sg9f7o/HoOdDxJr0Gg2DTkK91NujsoSfvyY+83favU/l3rxW4uLi7nnubmRpZ53MksjdWY/wBPSgBkkksskksrtJJI7PI7ks7uxyWYnvXV+FfCM+ssl7eh4tLVvlAysl2QeQh7L6n8vUHhHwq2syi9vVZdLhfAXkG7kU/cU/3B/Efw+nraqkapHGqqiKFRVACqoGAABxigBkEFvawxW9tEkUMShI441CoijsAKl6fWjp9aOn1oAOn1o9zR7mj3NAB7mjr9P50dfp/Ojr9KADrR7Cj2FHTgUAHTgUdPrR0+tHuaAD3NHuaPc0dfpQAdfpR1+lHX6UewoAPYUewo9hR0+tAB0+tHTk0dOT1o9zQAe5rgPFXgpZxNqWjRBZ+ZLizQALN3LwjoG9R3+vXv+tHX6UAfOpB5BBBBIIIwQRwQQa77wZ4tMLQaPqkv7hiI7G5kP+qJ4EMjH+Hsp7dOnTQ8Z+ExdLNq+mRf6UgL3sEY/wCPhR1kQD+Md/X6/e8x4I9jTA+ivYUdPrXD+CPExvol0i/kzewJ/okrnm4hUfdYn+Jf1H0Ndx0+tIA6fWj3NHuaPc0AHua8w+JX/IQ0b/ryn/8ARor0/r9P515h8Sv+Qho3/XlP/wCjRQBwldF4K/5GbSfpdf8Aoh652ui8Ff8AIzaT9Lr/ANJ3pge0dOBR0+tHT60dOTSAOnJo9zR7mjr9KADr9KOv0o6/Sj2FAB7Cj2FHsKOn1oAOn1oo6fWigAo6/T+dHX6UdaADrR7Cj2FHTgdaADp9aOn1o6fWj3NAB7mj3NHuaOv0oAOv0rzr4mf8y/8AW+/9pV6L1+ledfEz/mX/AK33/tKgDzqtjwv/AMjFoH/X6v8A6A1Y9bHhf/kYtA/6/V/9AamB7l0+tHTk0dOTR7mkAe5qG4uILWCe6uHEcFvG8sjN0VVGSam6/SvN/iFrhZ4tDt3+VdlxqBU9W+9HCf8A0I/hQByOu6xca5qM97LuWLmO1iJ4hgB+Vfqere59qn8N6DPr9+sHzJZwbZL2Yfwx54RT/eboPxPbnIggnuZoLa3QyTzyJFEi9WdzgCvcNB0a30PToLKLDSkeZdSgcyzsPmb6DovsKANGCCC1hhtreNY4YUWOJEGFRFGABUvT60dPrR0+tAB0+tHuaPc0e5oAPc0dfp/Ojr9P50daADrR7Cj2FHTgUAHTgUdPrR0+tHuaAD3NHuaPc0dfpQAdfpR1+lHX6UewoAPYUewo9hR0+tAB0+tHTk0dOT1o9zQAe5o60daOv0/nQAdfp/Oj2FHsKPYUAHsK8u8ceGhZSvrNjHi0nf8A02JBxBM5/wBYAP4WPX0P+9x6j0+tRTwQXEM1vOiyQzo0UqMMh0YYINAHz9DNPbTQ3EEjRzwSLLE69VdTkEV7d4d1qHXNNhvBtWdP3N3ED/q5lAzj2PUfX2ryLX9Gm0PUp7N9zQn97aSH/lpAx4yfUdD9PerfhPWzouqxNKxFleFbe8B+6oJ+SX/gJ6+xNMD2r3NHX6fzpODz27e9L1+lIA6/SvMPiV/yENG/68p//Ror0/2FeYfEr/kIaN/15T/+jRQBwldF4K/5GbSfpdf+iHrna6LwV/yM2k/S6/8ARD0wPaOnJo9zR7mjr9KQB1+lHX6UdfpR7CgA9hR7Cj2FHT60AHT60dPrR069aPc0AHuaKOtFAB7Uewo9hR06UAHTgdaOn1o6fWj3NAB7mj3NHuaOv0oAOv0o6/Sjr9KPYUAHsK86+Jn/ADL/ANb7/wBpV6L04Fec/Ez/AJl/633/ALSoA87rY8L/APIxaB/1+r/6A1Y9bHhf/kYtA/6/F/8AQGpge5e5o6/Sjr9KTr9P50gKep38OmWF7fzf6u2iaTHd36Kg+pwPxrwe5uJ7u4ubqdt09xK80rerOcnHt2FegfEfVONP0eNuv+m3QHoMpEp/8eP4CuAtbae8ubW0gGZrmaOCMf7TnGT9OpoA7v4eaKHefW504jL21gGH8XSWUfT7o/GvSen1qrYWcGnWVnYwDEVtCkS+rYHLH3JyT9atdPrQAdPrR7mj3NHuaAD3NHX6fzo6/T+dHX6UAHWj2FHsP/1UdOBQAdOBR0+tHT60e5oAPc0e5o9zR1+lAB1+lHX6UdfpR7CgA9hR7Cj2FHT60AHT60dOT1o6cnrR7mgA9zR1o60dfp/OgA6/T+dHsKPYUewoAPYUdPrR0+tHT60AHT60e5o9zR7mgDmfGWif2vpUkkSZvbANc22B8zqB+8i/EdPcCvGuCPY19F9fpXini3SRpOtXcca7ba6/0y1x0CyE7kH+6cj6YoA9B8EawdU0hIJXzdaaVtpST8zxY/dP+XB/3a6r2FeMeDNUOm65ahmxb33+hT5PALn92x+jY/M17P04FAB04FeYfEr/AJCGjf8AXlP/AOjRXp/T615h8Sv+Qho3/XlP/wCjRQBwldF4K/5GbSfpdf8ApO9c7XReCv8AkZtJ+l1/6TvTA9o6/Sjr9KOv0o9hSAPYUewo9hR0+tAB0+tHT60dKPc0AHuaOtHWjr9P50AHX6fzoo68UUAH86On1o6Ue5oAPc0e5o9zR1+lAB1+lHX6UdfpR7CgA9hR7Cj2FHT60AHT615z8TP+Zf8Arff+0q9G6cmvOfiZ/wAy/wDW+/8AaVAHndbHhf8A5GLQP+v1f/QGrHrY8L/8jFoH/X6v/oDUwPcuv0/nSE/kOppfYVk+I73+z9D1i5U4dbV44v8ArpL+6XH4nNIDx7XtQOp6xql7nKSXDJD7Qxfu0/QZ/Gui+Hmm/aNUudQdcx6fDtiz08+fK5/Bd351xQGABXsXgWxFn4ftZSMSX8kl4/HO1jsQfkAfxpgdR0+tHuaPc0e5pAHuaOv0/nR1+n86OtAB1+lHsKPYUdOBQAdOBR0+tHT60e5oAPc0e5o9zR1+lAB1+lHX6VDcXNtawy3FzNHDbxKWkkkYKqge5rz3WfiJKWeDRIVVBkfa7pclveOE/wBfyoA9I/zmojcWynaZ4Q3oZEB/ImvCLzV9bv2JvNQu5s/wtKyxj6ImF/SqOB+NAH0SCpGVIIPcc5/EUvTk9a+fLe8v7Rg9rd3MDDoYJpE/RTiuq0rx/rdmyJqKrf24wCxCx3Kj1DqNp/EfjQB6z7mjrWfpWsaXrVv9osZw6rgSRt8s0TH+GRDyP5Vodfp/OgA6/T+dHsKPYUewoAPYUdPrR0+tHT60AHT60e5o9zR7mgA9zR1+n86Ov0o6/SgA6/SuM+IWnC60iK+Rcy6bMGYjr9nmwjj8DtP4V2fsKr3trHe2d5ZyAFLm3lgbPOA6lc0AfPuWBBUkMCGUjqCOQa960W/Gp6Vpl91a4t0Mn/XVfkcfmDXg8kbwySwyDEkMjxOD2ZGKn+Ven/Di98zTdQsmPNndCRB38u4XOB+Ib86AO56cmvMPiV/yENG/68p//Ror0/3NeYfEr/kIaN/15T/+jRQBwldF4K/5GbSfpdf+iHrna6LwV/yM2k/S6/8ARD0wPaPYUewo9hR0+tIA6fWjpz3o6fWj3NAB7mjrR1o6/T+dAB1+n86OvFHXpR7CgA9hRR0+tFAB70e5o96Ov0oAOv0o6/Sjr9KPYUAHsKOnAo9hR0+tAB0+tHTk0dOTR7mgA9zXnPxM/wCZf+t9/wC0q9G6/SvOfiZ/zL/1vv8A2lQB53Wx4X/5GLQP+v1f/QGrHrY8L/8AIxaB/wBfq/8AoDUwPcvYVxPxGufK0iytQebu9Ut7pCjOf12123T615l8SpibzRLfPEdtcTn6yOqf+y0gODVGkZI15aRljX/ec7RX0FaW6WlraWy4228EMC49I0C14f4fgFzrmhQsMq1/bsw/2Y28w/yr3f3NAB7mjr9P50dfp/OjrQAdfpR7Cj2FHTgUAHTgUdPrR0+tHuaAD3NHuaPc0dfpQAdfpUNzcW9rBPc3Eix28EbSyuxwFVRk1N1+leb/ABE1ljJb6JA+EVUur7afvE/6qM/T7x/D0oA5rxH4jvNfuTy8WnwsfstvnAwOBJKB1Y/p+pwqKPQDkngAckk9hTAKK7fRPAF7eRx3OrTPZxOAyW8ag3LKefnLfKv0wT9K6lPAPhJU2tb3LHH33uZd31+UgfpQB4/RXpGqfDm3KPJpF3IkgBIt7wh0f2EqgMPxBrz26tbuyuJrW7heG4hbbJHIMEHsR2wexoAl07Ub/S7qK8spTHNHwe6SJ3SRe6mvatC1u012wju4PkkU+XdQk5aGUDJX6HqD6fp4VXQeEtZfR9Xt2Z8Wl4yWt2CflAY4ST/gJ/QmgD2r2FHT60dPrR0+tIA6fWj3NHuaPc0AHuaOv0/nR1+n86Ov0oAOv0o9hR7CjpwKADpwKOn1o6fWjpyaAPEvF1r9j8RawgGFmlW6THTE6Bzj8c1q/Du58nW7i3J+W7sZAB/twsrj9N1P+I8ATV9PnAx9osNrf70UjD+RFYvhOYweI9Df+/cGA/SWNo/60wPb+v0rzD4lf8hDRv8Aryn/APRor0/r9K8w+JX/ACENG/68p/8A0aKQHCV0Xgr/AJGbSfpdf+iHrna6LwV/yM2k/S6/9EPTA9o6fWjpR0+tHuaQB7mjrR1+lHX6fzoAOv0/nR14o68UewoAPYUdPrR0+tHT60AHT60Ue5ooAOv0o6/SjrR7CgA9hR04FHsKOn1oAOn1o6cmjpyaPc0AHuaOv0o6/Sjr9P50AHX6fzrzr4mf8y/9b7/2lXovsK86+Jn/ADL4977+UVAHnVbHhf8A5GLQP+v1f/QGrHrY8L/8jFoH/X6v/oDUwPcun1ryX4hyFteiU/8ALLT7dfpueRq9a9zXj/j7J8Rzf9ednj8mpAQeCYxJ4l0rP8C3Uv8A3zA4H869n6/T+deO+A+fEtn/ANet5/6BXsXX6UAHWj2FHsKOnAoAOnAo6fWjp9aPc0AHuaPc0e5o6/SgA6/Sjr9KOv0o9hQAf5NeB6veNf6pqt4Tnz7uZl9o1bYg/ICvd7glbe5K/eEMpH1CkivnofqaACu48AaJFeXU+rXKBorF1jtVYZVrkjcX5/ujGPc+1cPXsHgJEXw5asuMvc3bv/veYV5/ACmB1XuaOtHWjr9P50gDr9P51x/jrRIr/TZNRhQfbNNQyFlHMlsOXQ49PvD6H1rsPYVBdqj2l5G+Nj286vnptKEHNAHz5QehFIOAMelLTA928P3jX+iaPducyS2sYkPcyR/u2P5g1qe5rl/AhY+G7Dd/DLdhfp5zGuo9zSAPc0dfpR1+n86Ov0oAOv0o9hR7CjpwKADpwKOn1o6fWjpyaADpyaPc0e5o6/SgDzr4mRjGgTe97H+kbCuH0iQxato0n9zULM/+RVrvfiXg2uhf9fVyP/IYrz2yz9u07H/P5af+jVoA+gvYV5h8Sv8AkIaN/wBeU/8A6NFen+wrzD4lf8hDRv8Aryn/APRooA4Sui8Ff8jNpP0uv/RD1ztdF4J/5GbSfpdf+k70wPaPc0daOv0o6/T+dIA6/T+dHXijrwPxo9hQAewo6fWjpR0+tAB0+tHuaPc0e5oAPc0UdfpRQAe1HTgUfzo6fWgA6fWjpyaOnJo9zQAe5o60dfpR1+n86AE6/T+dL7Cj2FHsKAD2FedfEz/mX/rff+0q9F6fWvOfiZ/zL/1vv/aVAHndbHhf/kYtA/6/F/8AQGrHrY8L/wDIxaB/1+L/AOgNTA9y9zXkXxBQr4gDdpLC2Ye+GkX+leu9fp/OvLviTERqWkzY4kspI8+pjlJ/9mpAZfgZwvibTQf44rxPzhZv6V7L7CvDfDE3keIdBfOAbxIifaUGL+te5dOBQAdOBR0+tHT60e5oAPc0e5o9zR1+lAB1+lHX6UdfpR7CgA9hR7Cj2FHT60AIQCCp5DAg+4PFfPt5bvaXl9auMNbXM8BH+45WvoPpyeteTeP9Kaz1VNRRcW+pKCxA4W5jUKwP1GD+fpQBx1ek/DnVIzDfaRIwEkchvLYH+ONwFkA+hwf+Be1ebVNa3V1ZXEF3aytFcQOJInXqCOxHoehFMD6E6/T+dHsK4/RPHWkX8ccOouljeABWMhItpD0ykh4H0P5mupW8sXUPHdWzJjO5ZYyuPXINICf2FYHi3VI9K0S+bcBcXUbWdqv8TSSqVLAf7Iyfw96NU8W+HNKR912lzcAHbb2bLLIzejFTtH4mvKNc1y/128N1dEKiApbQISY4UJzgZ6k9z/hgAGWBgAenFHTk0VoaLpkusanY2CA7ZZA07D+C3T5pGP4cD3IpgeveE7VrXw9osbjDtb+ewPrOxm5/MVudfpTURFVEQBURQqqOgVRgAU7r9KQB1+lHsKPYUdOBQAdOBR0+tHT60dOTQAdOTR7mj3NHX6UAHX6UdfpR1+lHsKAPPPiY48vQI+/m3j/gFjX+tcHpiGTU9JjHV7+zX85lrr/iTNnUdItwf9VZyykehlk2/wDstc54ZiM3iDQUxnF7HIfpEDIf5UwPc+n415h8Sv8AkIaN/wBeU/8A6NFen9Oe9eYfEr/kIaN/15T/APo0UgOErovBX/IzaT9Lr/0Q9c7XReCv+Rm0n6XX/oh6YHtHX6fzo68CjrxR7CkAewo6fWjp9aOn1oAOn1o9zR7mj3NAB7mjr9KOv0o6/SgA6/Sij2FFAB0o6cmjgc0e5oAPc0dfpR1+lJ1+n86AF6/T+dHsKPYUewoAPYUdPrR0+tHT60AHT615z8TP+Zf+t9/7Sr0b3Nec/Ez/AJl/633/ALSoA87rY8L/APIxaB/1+r/6A1Y9bHhf/kYtA/6/V/8AQGpge5da4P4k2xax0i6A/wBRdyQsfQTR5H6rXeewrA8YWf2zw9qsarmSCNbuMDrmBhIf0zSA8Ygma3ntrhfvQTRTj6xuH/pX0HHIkkccqHKyosiH1VhuFfPHGPrXtnhG9F94f0qRmzJBEbOX1DQHyx+mD+NAG97mj3NHuaOv0oAOv0o6/Sjr9KPYUAHsKPYUewo6fWgA6fWjpyaOnXrR7n/9VAB7ms/WNKtda0+5sbnhZBuikAy0Mq8pIv0/lx3rQ60dfp/OgDwDUdOvtKvJ7K8j2TRHgjOyRD0kjPdT/npVSvdda0LTNdt/Iu0IkQEwXEeBLCx/uk9R6g//AFx5VrPhLXtHZ2aFrq0GStzaqzAL/wBNEGWU/p70wOfpMAcYFLkdqKAAADp+lFH1rQ0zRdZ1eQJYWkki5w0zDZAnu0rfL+WTQBQVXdkRFZndgiIgLMzMcBVA5ya9g8H+G/7EtGnulH9o3iqZ+h8iIcrCD+re/wBKPDfg+w0TbdXDLdalj/WlcRQZGCIFPP4nn6V1PX6UgDr9KPYUewo6cCgA6cCjp9aOn1o6cmgA6cmj3NHuaOv0oAOv0o6/Sjr9KPYUAHsKPYUewpkkkcMcsshwkaPI5PZUBYmgDxzxvci58R6gFOVtkt7UfVEDN+pNT+ALYzeIY5cZW0tLmY+xYCEf+hGubu7l7y7vbx/vXVxNcH/to5YCvQfhrZ7YdY1Bh/rJIrSM+0Y8x/8A0IflTA9C9zXmHxK/5CGjf9eU/wD6NFen9a8w+JX/ACENG/68p/8A0aKQHCV0Xgr/AJGbSfpdf+iHrna6LwV/yM2k/S6/9J3pge0ewo6fWjp9aOn1pAHT60e5o9zR7mgA9zR1+lHX6UdfpQAdfpR7Cj2FHTgUAHTgUUdPrRQAe9HX6Ufyo6/T+dAB1+n86PYUewo9hQAewo6fWjp9aOn1oAOn1o9zR7mj3NAB7mvOfiZz/wAI/wDW+/8AaVejdfp/OvOviZ/zL/1vv/aVAHnVbHhf/kYtA/6/V/8AQGrHrY8L/wDIxaB/1+r/AOgNTA9y6cCmuiSJJHINySKyOD/ErDBFO6fWj3NID5+1CzfT76/sX+9a3EsP1VW+U/iMGu4+G+ohZdT0uRuJAt7bgn+JcRyAf+On8KrfETTTBqFpqaLiO+j8mYjtPCOCfquP++a5XSNQk0rUrDUEzi3mVpFH8cLfLIv4gmmB751+lHX6UyOSOeOKWJg0UqJIjL0ZGG4EU/2FIA9hR7Cj2FHT60AHT60dOTR05NHuaAD3NHWjrR1+n86ADr9P50deBR7Cj2FAB7Cjp9aOn1o6fWgDLvPD/h2/Je7021kkPVxGI5CT6vHhv1rMPgTwgTu+xyr7Lcz4/Vq6f3NHuaAMO18J+FLVlePSrdnXkNPvnP1xMSP0raRERVRFVI1GFVAFUD0AHFO6/Sjr9KADr9KPYUewo6cCgA6cCjp9aOn1o6cmgA6cmj3NHuaOv0oAOv0o6/Sjr9KPYUAHsKPYUewo6fWgA6fWuY8b6j9g0G7RWxPfstlHg4O1+ZCP+Ag/nXT9PrXkfj3VRfauLONswaYhhODwbh8NIfw4X8DQByPQZ9K9v8LaedO0LSoHXErxfaZh38yc+YQfpkD8K8l8O6adW1nTrMrmLzRPc+ggh+ds/XgfjXunsOgoAXr9P515h8Sv+Qho3/XlP/6NFen9eK8w+JX/ACENG/68p/8A0aKAOErovBX/ACM2k/S6/wDRD1ztdF4K/wCRm0n6XX/oh6YHtHT60e5o9zR7mkAe5o6/Sjr9KOv0oAOv0o9hR7CjpwKADpwKOn1o6fWjpyaADpyaKPc0UAHX6Uewo9qPYUAHsKOn1o6fWjp9aADp9aPc0e5o9zQAe5o6/T+dHX6fzo60AHWvOviZ/wAy+P8Ar+/lFXovsK85+Jn/ADL/ANb7/wBpUAed1seF/wDkYtA/6/V/9Aasetjwv/yMWgf9fq/+gNTA9y6cmj3NHuaOv0pAY/iTShrOkXtmoHnBRPaE9p4/mX8+R+NeGkMCVYEMpKsDwQRwQRX0V1+leSeO9FOn6l/aECYtNSZnbA+WO6HLr/wL7w/H0oA6X4f6z9rsJNJmf/SNPGYMnl7Rjxj/AHTx9CK7b2FeBaXqVzpN/aX9vy8D5ZM4EsTcPG31H+eK90sb211C0tb21ffBcxiSM9+eqt7jofpQBZ6fWjpyaOnJ60e5oAPc0daOtHX6fzoAOv0/nR7Cj2FHsKAD2FHT60dPrTWZI1Z3ZVVRlmYhVA9STxQA7p9aPc1y+p+OPDen70ila+uFyPLs8MgPo0x+T8ia5KX4ja604eG0sY7cHiFxI7MP9qQEc/RaAPVfc0dfp/Os/R9Tg1nTrTUIVKLOp3xscmORCUZCR6EVodfpQAdfpR7Cj2FHTgUAHTgUdPrR0+tHTk0AHTk0e5o9zR1+lAB1+lHX6UdfpR7CgA9hR7Cj2FHT60AHT60dPrR060e5/wD1UAZWv6tHoul3d82DKF8q1Q/x3D8IPw6n2Brwt3kkd5JGLSSM0kjNyWdjuLH6103jLXv7Z1LyYHzYWDPFAQflll6PL9Oy+w96yNF0ufWdStLCLIWVt07j/llAnLv/AEHuRQB6B8PNIMFlc6tMuJL4+Vb56i2jPLD/AHj/AOgiu668VHBDDbwwW8ChIYI0ijVeiog2gCpPYUAHsK8w+JX/ACENG/68p/8A0aK9P6fWvMPiV/yENG/68p//AEaKAOErovBX/IzaT9Lr/wBJ3rna6LwT/wAjNpP0uv8A0nemB7R7mjr9KOv0o6/SkAdfpR7Cj2FHTgUAHTgUdPrR0+tHTk0AHTk0e5o9zR1+lAB1+lFHX6UUAHsOtHT60fzo6fWgA6fWj3NHuaPc0AHuaOv0/nR1+n86OtAB1o9hR7D/APVR04FAB04FedfEz/mX/rff+0q9F6fWvOfiZ/zL/wBb7/2lQB53Wx4X/wCRi0D/AK/F/wDQGrHrY8L/APIxaB/1+L/6A1MD3Lr9KOv0o6/Sj2FIA9hWfrGl22safdafPwJVzG4GTFKvKSD6H/PNaHsKOn1oA+fLyzutPurmyuk2XFvIY5B2OOjKfQjkfWup8E+JBpVz/Z15JjT7yQeW7Hi2uG43f7rdD74PrXU+NfDR1W2/tGzjzqNpGdyKObmAclP95eq/l348m9c/Qg/yNMD6K9zR1rz/AMFeKxMsOjanL++UBLCeQ/61R0hcn+Ifw+vTqPm9A6/SkAdfp/Oj2FMkkiiRnkdI41GXeRgqqPctxXLan488O2G6O2Z7+cZG21wIQf8Aamb5fyzQB1nsKz9Q1nRdJTdf3sMJxkRlt0rf7sa5Y/lXlmp+OPEl/vSGVbGBsjZaZ80j/amb5vyxXMszuzO7M7scs7kszH1LNzQB6HqfxH+/HpFlnqBcXvH4rChz+bfhXF6jrOtaqxa/vZplzkRZ2QL9Ikwv6Vn0UwCrmm6ZqGrXSWdjCZJW5Y9I4kzgvI3YVc0Lw/qWv3Hl2y+XbRkfabpwfLiHoPVvQfngV7DpGj6dotqtrZR4HDTStgyzvjG52/l6UAJoelx6Nplnp6P5hhVmlkxjzJXYu5A9MnitL2FHsKOnApAHTgUdPrR0+tHTk0AHTk0e5o9zR1+lAB1+lHX6UdfpR7CgA9hR7Cj2FHT60AHT60dPrR0+tHuaAD3NcR458SCygbSLOTF7dJ/pLoebe3YdMj+J+3oOe4rV8T+JLfQbXCbZNQuFItIDzjt50g/uj9en08bmmnuZpri4kaSaZ2klkc5Z3bkk0AR/y9q9f8F6AdIsDc3KbdQv1V5QR80MPVIfr3b3PtXL+B/DRvp01i9j/wBCtnzaI44uJ1P38H+Ff1P0r1P2FAB7Cjp9aOn1o6fWgA6fWvMPiV/yENG/68p//Ror0/3NeYfEr/kIaN/15T/+jRQBwldF4K/5GbSfpdf+iHrna6LwV/yM2k/S6/8ASd6YHtHX6Uewo9hR04FIA6cCjp9aOn1o6cmgA6cmj3NHuaOv0oAOv0o6/Sjr9KPYUAHsKKPYUUAHTmj3NHvR7mgA9zR1+n86Ov0/nR1oAOv0o9hR7CjpwKADpwKOn1o6fWj3NAB05Nec/Ez/AJl/633/ALSr0b3Nec/Ezn/hH/rff+0qAPO62PC//IxaB/1+r/6A1Y9bHhf/AJGLQP8Ar9X/ANAamB7l7Cj2FHsKOn1pAHT60dOT1o6cnrUcs0ECNNcSxxRqMs8rqiKPdmOKAJPc/wD6q838a+E2Vpta0yIlGzJqFvGMkHqZ41Hb++Px9a2NT8faBZ7ksxJfzDgeT8kAPvK45/AGuJ1Pxp4l1LegnFnbtkeVZZVip4w0p+c/mKAObBPBBIIIIIOCCOQQRXYQ/EDX4bCK08u3kuowU+2z7mcoPuloxgFvU559PXj6sWllqF/J5Njaz3MncQIW2+7N0H4mmBLf6rq+qPvv7ye45yEdsRL/ALsa4QflVLgfyFdzpnw61KbZJql1HaoeTDb4mnx6Fj8g/Wu207w14a0ZTLDaxeZGpZrq7IkkULyW3ycD8AKAPLNM8KeJNV2NDZtDA2D595mGPB7qCN5/BaTVbHRNI32cdy2pakMrPIn7uytW7qoBLM//AALA9M8DofFPjZ7nztP0aRktzlLi8XIeYdCkB6hfU9T245PB8D6UAFdP4Z8JXmuOlzcb7fS1b5pcYkuMHlIM9vVv5npp+FvBMl55OoazG0dpw8Fo2VknHUNN3C+3U+w6+nIiIqRxqqRooVVQBVVQMBVA4xSAhtLOzsbeK0s4Uht4htREGB7knqSe5qx7Cj2FHTgUAHTgUdPrR0+tHTk0AHTk0e5o9zR1+lAB1+lHX6UdfpR7CgA9hR7Cj2FHT60AHT60dOvWjp9aPc//AKqAD3Nc94k8T2WgwlBtm1CVSbe2B6Z48yYjov8AP9Rk+JPHNtZebZ6QyXF6MpJccNb256cdmb9B+leYTTXFzNLPcSvLNKxeWSRizux7kmgCS8vLzULme8vJWluJm3O7foqjoAOgFbfhfw1Pr1zvlDx6ZbuPtMo4MrDnyYj6n+I9h7mk8NeF7zX5hK++HTInxNPjDSkdYoM9/U9vrxXsNra2tjbwWlpEkUEKBI0QcKPU+570APhiht4ooII1jiiRY40QYVEUYAAqTp9aOn1o6fWgA6fWj3NHuaPc0AHua8w+JX/IQ0b/AK8p/wD0aK9P6/SvMPiV/wAhDRv+vKf/ANGigDhK6LwV/wAjNpP0uv8A0Q9c7XReCv8AkZtJ+l1/6IemB7R04FHT60dPrR05NIA6cmj3NHuaOv0oAOv0o6/Sjr9KPYUAHsKPYUewo6fWgA6fWijp9aKACjr9P50dfpR1oAOv0o9hR7CjpwKADpwKOn1o6fWj3NAB7mj3NHuaOv0oAOv0rzn4mf8AMv8A1vv/AGlXo3X6V518TP8AmX/rff8AtKgDzqtjwv8A8jFoH/X6v/oDVj1seF/+Ri0D/r9X/wBAamB7l0+tQ3FzbWcE1zdSpFBCpeWSQ4VVFTdPrXkXjfX5NT1CTT4HP2DT5DGQp+Wa5Xh3bHUL0X8T3pAaWrfEW5d5ItGtkjjBIW5uxukb/aSHoPxJ+lcVe6jqepSebf3c9w2cgSuSi/7qD5R+AqO2tbu9nitrWF5riU7Y44xlj3J9MDua7fTPhzey7ZNWu0gTgmC0xJKfZpG+QfgDTA4LqQO5OAB1J9AK6DTPB/iXVNjram2t2x++vcxAg91jxvP5V6npnh3QNJ2mysoxKAMzy/vZyfXe+SPwxWv7CkBxemfD7RLXY9/JJfzDBKNmK3B/3EO4/i34V18Fva2kaw2sEUMS/djhRUUfgoqXp9az9W1fTdFtWu76XaOVijXBlmfGdka+tAFm6u7Sxt5rq7mSGCJd0kkhwB7D39BXknibxdd62z2ttvt9LVuI+klzjo02O3ov557UNe8Q6lr9x5lwfLtY2JtrVDmOMf3mPdvU/lishUkcsER3KqXYIpYqi9WO3sO9MBFVmZVUEsxCqo5JYnAAFeneFvBMdp5Oo6wiyXfDwWpw0dueoaTsX/Qe56eYdfpW9pPizxDpGyOK5+0Wy4H2e8zIgHojZ3j8D+FAHtnX6Uewri9N+IWh3IRL+OaxlOAWIM1vn/fQbh+K11lrfafexiSzure4QjOYJEfGfXac0gLHTgUdPrR0+tHTk0AHTk0e5o9zR1+lAB1+lHX6UdfpR7CgA9hR7Cj2FMkkhhRpJZEjQcs8jKij6luKAH9PrR0+tcxqPjfwxYb1S4a8nGR5dkN65HYynCfqa4rVfHuvX2+OzCafAcj9yd9wR7ysOPwA+tAHo2reINF0VC19cqJSMx28WHuH+iD+ZwK8y17xlq+s74Ic2VgcgwxMfNlX/ptIP5Dj61zLu8jvJI7PI53O7sWdj6szc1f0vRtX1mXyrC2aQA4kmb5IIv8AfkPH4DJ9qAM/j8Ogrt/DXge5vjFe6wrwWXDx2xys9wOo391X9T7da6jQPBemaQY7m523moLgiR1/cwt/0xjPf3PP0rq/YUARwww28UUEEaRxRKEjSNQqIo6AAVJ0+tHT60dPrQAdPrR7mqV/qmlaXGJtQu4bdW4XzG+ZvZEGWP4CsIePfCJk2m4uQM43m1m2fXgZ/SgDqvc0dfpVWy1DTtSi8+xuobiHoWiYHafRh1B+oq11+lAB1+leYfEr/kIaN/15T/8Ao0V6f7CvMPiV/wAhDRv+vKf/ANGigDhK6LwV/wAjNpP0uv8A0Q9c7XReCv8AkZtJ+l1/6TvTA9o6cmj3NHuaOv0pAHX6UdfpR1+lHsKAD2FHsKPYUdPrQAdPrR0+tHT60e5oAPc0UdeTRQAdeKPYUewo6cCgA6cCjp9aOn1o9zQAdOTR7mj3NHX6UAHX6UdfpR1+lHsKAD2FedfEz/mXx7338oq9F9hXnXxM/wCZf+t9/wC0qAPOq2PC/wDyMWgf9fq/+gNWPWx4X/5GLQP+vxf/AEBqYHs+pXBs9P1K7HDW9pcTL7MkZYV4Blm+ZiSzEsxPUk8kmve9Yge60nWIFBLTWN0iAdSxjbFeBjkD6UgPVPh7pcMOmyao6A3F9JJGjEcrbxNsCqfcgk/h6V2/sK5HwBfRXOhJaBh52nzSxSL32SOZUb6HJH4V13sKAD2FHT60dPrXI+J/GFto4ks7IpPqhGG7xWuf4pcdW9F/P3ANHxB4k07QIMyETX0qk29qjYZu29z2X3/L28f1PVNR1e6e8vpTJKchFHEcKdQkS9hVe4uLm7nmubqV5riZt0kkhyzH/PQVs+HvDOoa/NuXMNhG2J7phxx1SIHq36D9CAUtI0fUtbultbKPOMGaZ8iGBD/FIw/QdT/L2DQvD2m6FbGK3XfNIB9puZAPMmPp7L6D/wDWbmm6Zp+lWsdpYwiKFOT3eRu7yN1JNXev0oA5bWPBGg6oZJYFNjdNkmS2UeU7f7cP3fyxXA6p4M8SabvZbf7Zbrk+bZZcgdfmiPzj8j9a9n9hR04FAHzqQVJUghgcMrAhgfcHmnRySwuJIZJI5B0eJmRh/wACUg17xf6Lompj/TrG3nboHZAso+kiYb9a5a9+HGjy5ayvLq1POEk23EefQbsP/wCPUAcXa+LfFlngJqcsijjbdKk4x6ZkG79a2IPiNryACezsJsd1EsTfozD9KZdfDvxFDk281lcr2Ad4X/Jxt/8AHqyJvCfi2AkPpNw2O8BjlH/kNiaYHVR/EwYHnaOf+2d0P5NHUv8AwsuzP/MIuvwuIv8ACuCfSNci/wBZpeoL9bWb+YWovsWo9PsV5/4DTf8AxNAHfv8AEyHH7vR5c/7d0gH/AI6hqlN8SdWbIt9Ns4/QyySykfgu2uQTTNYk4j06/Y/7NrOf/ZauReGfFU2Nmj3oz0MkYiH5yEUAXbnxv4tuQVF6lup7WsMaH/vptzfrWFc3d9eMXvLq4uHPe4leT8gxxXSW/gDxVMR5qWlsp7zThiP+Awhv51u2fw1gXa2oanI/96O0jWMf99ybj/47QB5vwOvFaum+HfEGrFTZ2UvlH/lvOPKgA9d79fwBr1rT/CvhnTtrQafE0q9JbnM8n1zJkD8AK2vYcAUgOG0n4eafAUm1ac3kgwfIi3R2wPox++36fSu2hgt7eNILeKOGGMbUSJVRFHoAvFSdePzo9hQAewo6fWjp9aOn1oAOn1rN1vVYdF0271CUBmiULDHnHmTOdqJ+fX2FaXua4T4ktINN0lRny2vmL+mVibbn9aAPOb6+vtSupby9maWeUklj91R2RF6BR2FVqKKYF3TNTv8ASLuO8spCkiEb0yfLmTPMci9wf0r3HTNQg1Swsr+34juYg+D1RujIfcHI/CvAa9a+HjSHQJA2dqahdLHn+6VjY/qTSA7DpwK8w+JX/IQ0b/ryn/8ARor0/p9a8w+JX/IQ0b/ryn/9GigDhK6LwT/yM2k/S6/9J3rna6LwV/yM2k/S6/8ASd6YHtHX6UdfpR1+lHsKQB7Cj2FHsKOn1oAOn1o6fWjp9aPc0AHuaPrR15NHX6fzoAOv0/nRR1ooAP50dPrR0o6cmgA9zR7mj3NHX6UAHX6UdfpR1+lHsKAD2FHsKPYUdPrQAdPrXnPxM/5l/wCt9/7Sr0bpyeteffEuJjBoU+DhZrqI+gLorD+RoA82rY8L/wDIxaB/1+L/AOgNWPV/RruOx1bSLyTiK3vIHkPpGW2sfwBNMD3vr9P514p4s0WTRtVnCoRZXjvcWbAfKAxy8WfVT+mK9qBDAFSCCAQRyCDzwao6rpWn6xaSWV7Hujb5kZeJInHR427Ef560gPE9K1bUNGu0vLGQK4GyVHyYpo85KSKO3p6V6HafEfRXjH2yzvIJsDcIVSaMnvtbcp/SuT1jwXr+lu7QRPfWgJKTWykyBf8AprCPmB+mRXNMGQlXVkYdVcFWH4NzTA73WviFLcQyW+jwTW5kyrXc5QShT/zyRSQD7k/h3HAkklmYksxLMzEkknkkk1PbWd9euI7S1uLhzwBBG7/mQMfrXf8AhvwG0bpe66iEphobEMHXPXdcEcH/AHR+PpQBkeF/B1xq5jvtQDwaZkMi8rLdgf3e4T379vUerQW9vbQxW9vEkVvCoSKONQqqo7ACpAAAAAAoAAA4GB7UvX6UgDr9KPYUewo6cCgA6cCjp9aOn1o6cmgA9zR7mj3NHX6UAHX6UdfpR1+lHsKAD2FHsKPYUdPrQAdKOlHTr1o9zQAe5o60daOv0/nQAdfp/OjrwKPpR7CgA9hR0+tHT60dPrQAdPrR7mj3NHuaAD3NYnifSG1vSLm1ix9ojK3NoTwDNHnCk/7QyPxrb6/Sjr9KAPnd0kieSKVGjkjZkkRwVZHU4KsD3pte2a14V0PW2Ms8bw3eAPtNsQkhA6CQEFT+I/GubHw0t9/OsTeX6C2QPj/e34/SmB53BBcXM0NtbxtLPM4jijQZZmPb/GvctB0tdG0qxsMhpI0LzsvR55Dvcj2zwPpUOjeGtE0IFrSFnuWXa9zcEPMR3CnAAH0Ara6cmkAdOTXmHxK/5CGjf9eU/wD6NFen+5ryb4hXkVxrcFvGQfsNoscuOcSSsZCv4Db+dAHHV0Xgr/kZtJ+l1/6IeudrpvAsTSeJbEgcQwXcrH0HlmP+opgeyewo9hR7Cjp9aQB0+tHT60dPrR7mgA9zR15NH1o6/T+dAB1+n86OtHWj2FAB7Cijp0ooAPej3NHvR1+lAB1+lHX6UdfpR7CgA9hR7Cj2FHT60AHT60dOT1o6cmj3NAB7mue8Yaa+p6FepGpae123sCjqzQ5LKPqu4V0PWk6/T+dAHzt157UV1PjHw6+j3r3dsh/sy8kZoyo+W3mb5mhb27r+XbnlqYHofhLxnBDDBpWsS7FiAjtLx+UCDhYpz2x0B/Ppk+io6OivGyujgMrIQysD3BHFfO9XrHV9a0z/AI8b+5gXOfLR8xE+8b5X9KQHvnT61G8FvJzLFE59XRWx+Yrx9fHXjBQAbu3bHdrWHP8A46BTv+E88X/8/Nr/AOAsdAHsCoiDCqqqOgUAD8hTuv0/nXjv/CeeL/8An5tf/AWOj/hPPF//AD82v/gLHQB7F1+lHsK8d/4Tzxf/AM/Nr/4Cx0f8J54v/wCfm1/8BY6APYunAo6fWvHf+E88X/8APza/+AsdH/CeeL/+fm1/8BY6APYunJo9zXjv/CeeL/8An5tf/AWOj/hPPF//AD82v/gLHQB7F1+lHX6V47/wnni//n5tf/AWOj/hPPF//Pza/wDgLHQB7F7Cj2FeO/8ACeeL/wDn5tf/AAFjo/4Tzxf/AM/Nr/4Cx0AexdPrR0+teO/8J54v/wCfm1/8BY6P+E88X/8APza/+AsdAHsXuaOteO/8J54v/wCfm1/8BY6P+E88X/8APza/+AsdAHsXX6fzo68CvHf+E88X/wDPza/+AsdH/CeeL/8An5tf/AWOgD2L2FHT6147/wAJ54v/AOfm1/8AAWOj/hPPF/8Az82v/gLHQB7F0+tHua8d/wCE88X/APPza/8AgLHR/wAJ54v/AOfm1/8AAWOgD2L3NHX6V47/AMJ54v8A+fm1/wDAWOj/AITzxf8A8/Nr/wCAsdAHsXX6Uewrx3/hPPF//Pza/wDgLHR/wnni/wD5+bX/AMBY6APYunAo6fWvHf8AhPPF/wDz82v/AICx0f8ACeeL/wDn5tf/AAFjoA9i6cmj3NeOf8J54v8A+fq2/wDAWP8ArWfe+JvE1+rJc6nceWww0cO2BCPQiED+dAHpPiPxhp+kRy29o8dzqRBVI0IaOA/352HHHp1+nWvIppZriWaeZ2kmmkaWV35Z3Y5JNMopgFejfDjTXVdS1Z1wJMWVsT3VTvkYfjtH4GuJ0jSb3Wr6GxtVOW+aaUjKQQg/NI/9PU17jY2Vtp1naWNsu2G3jWNB3OOrMfUnJP1pAWen1o6UdPrR7mgA9zR70deTR1+n86ADr9P50dfpR1o9hQAewo6fWjp9aOn1oAOn1oo9zRQAfyo6/Sjr9KPYUAHsKPYUewo6fWgA6fWjpyaOnJ60e5oAPc0daOtHX6fzoAOv0/nR7Cj2FHsKAILq1tb23mtLqFJoJlKSxuMqQf6+leVeIfBOo6W0tzp6yXmn5LYUbrm3XriRRyQPUD6jufXOn1o6fWgD51or27U/CvhzVi0lzaLHcN1ntT5MpPqxX5T+INctc/DTkmy1Ugdku4ASB/vxsP8A0GmB51RXbH4b69n5b7TSPUm4H6bDSf8ACuPEH/P7pn/fVx/8boA4qiu1/wCFceIP+f3TP++rj/43R/wrjxB/z+6Z/wB9XH/xugDiqK7X/hXHiD/n90z/AL6uP/jdH/CuPEH/AD+6Z/31cf8AxugDiqK7X/hW/iD/AJ/dM/76uP8A43R/wrfxB/z+6Z/31cf/ABugDiqK7X/hXHiD/n90z/vq4/8AjdH/AArjxB/z+6Z/31cf/G6AOKortf8AhXHiD/n90z/vq4/+N0f8K48Qf8/umf8AfVx/8boA4qiu1/4Vx4g/5/dM/wC+rj/43R/wrfxB/wA/umf99XH/AMboA4qiu1/4Vx4g/wCf3TP++rj/AON0f8K48Qf8/umf99XH/wAboA4qiu1/4Vx4g/5/dM/76uP/AI3R/wAK48Qf8/umf99XH/xugDiqK7X/AIVx4g/5/dM/76uP/jdH/CuPEH/P7pn/AH1cf/G6AOKortf+FceIP+f3TP8Avq4/+N0f8K38Qf8AP7pn/fVx/wDG6AOKortf+FceIP8An90z/vq4/wDjdH/CuPEH/P7pn/fVx/8AG6AOKortf+FceIP+f3TP++rj/wCN0f8ACuPEH/P7pn/fVx/8boA4qiu1/wCFceIP+f3TP++rj/43R/wrjxB/z+6Z/wB9XH/xugDiqK7X/hW/iD/n90z/AL6uP/jdH/CuPEH/AD+6Z/31cf8AxugDiqK7X/hW/iA/8vumY/3rj/43VqD4a3hI+06rAi9/s8DufwMjAfpQBwFbOi+HNY1yRfs0RjtQcSXcwIhUd9vdj7D9K9H07wL4asWR5YpL2ZcHdeMGjBHcRIAn5g11CqkaqiKqqoCqqgKoA7ADikBm6LomnaFai2tFJd8NcTvjzZ3A+8xHYdh2/U6nT60dPrR7mgA9zR15NH1o6/T+dAB1+n86OtHWj2FAB7Cjp9aOnSjp9aADp9aPc0e5o9zQAe5oo6/SigA9qPYUfzo6fWgA6fWjpyaOnJ60e5oAPc0daOtHX6fzoAOv0/nR7Cj2FHsKAD2FHT60dKOn1oAOn1o9zR7mj3NAB7mk6/T+dL1+lHX6UAHX6Uewo9hR04FAB04FHT60dPrR7mgA6cmj3NHuaOv0oAOv0o6/Sjr9KPYUAHsKPYUewo6fWgA6fWjp9aOn1o9zQAe5o60daOv0/nQAdfp/Ojr0/GjrxR7CgA9hR0+tHT60dPrQAdPrR7mj3NHuaAD3NHX6UdfpR1+lAB1+lHsKPYUdOBQAdOBR0+tHT60dOTQAdOTR7mj3NHX6UAHX6UdfpR1+lHsKAD2FHsKPYUdPrQAdPrR0+tHT60e5oAPc0deTR15o6/T+dAB1+n86OtHWj2FAB7Cjp9aOnHejp9aADp9aPc0e5o9zQAe5o6/Sjr9KOv0oAOv0oo9hRQAdKOnJ60dOaPc0AHuaOtHWjr9P50AHX6fzo9hR14FHsKAD2FHT60dPrR0+tAB0+tHuaPc0e5oAPc0dfpSdfp/Ol6/SgA6/Sj2FHsKOnAoAOnAo6fWjp9aOnJoAOnJo9zR7mjr9KADr9KOv0o6/Sj2FAB7Cj2FHsKOn1oAOn1o6fWjp9aPc0AHuaOvNHWjr9P50AHX6fzo+lHXgUewoAPYUdPrR0+tHT60AHT60e5o9zR7mgA9zR1+lHX6UdfpQAdfpR7Cj2FHTgUAHTgUdPrR0+tHTk0AHTk0e5o9zR1+lAB1+lHX6UdfpR7CgA9hR7Cj2FHT60AHT60dPrR0o9zQAe5o+tHXmjr9P50AHX6fzo60dfpR7CgA9hR06UdPrR0+tAB0+tHuaPc0e5oAPc0dfpR1+lHX6UAHX6Uewo9hR7CgA6cCijp9aKAD3o60Udfp/OgA6/T+dHXgUewo9hQAewo6fWjp9aOn1oAOn1o9zR7mj3NAB7mjr9P50dfpR1+lAB1+lHsKPYUdOBQAdOBR0+tHT60dOTQAe5o9zR7mjr9KADr9KOv0o6/Sj2FAB7Cj2FHsKOn1oAOn1o6fWjp9aPc0AHuaOtHWk6/T+dAC9fp/OjrwKPYUewoAPYUdPrR0+tHT60AHT60e5o9zR7mgA9zR1+lHX6UdfpQAdfpR7Cj2FHTgUAHTgUdPrR0+tHTk0AHTk0e5o9zR1+lAB1+lHX6UdfpR7CgA9hR7Cj2FHT60AHT60dPrR0+tHuaAD3NHXmjrR1+n86ADr9P50daOtHsKAD2FHTp1o6fWjp9aADp9aPc0e5o9zQAe5o6/Sjr9KOv0oAOv0o9hR7CjpwKADpwKOn1o6fWjpyaADpyaKPc0UAHX6Uewo9KKAD2FHT60UUAHT60e5oooAPc0dfp/OiigA6/Sj2FFFAB04FHT60UUAHTk0e5oooAOv0o6/SiigA9hR7CiigA6fWjp9aKKAD3NHWiigA6/T+dHXgUUUAHsKOn1oooAOn1o9zRRQAe5o6/SiigA6/Sj2FFFAB04FHT60UUAHTk0e5oooAOv0o6/SiigA9hR7CiigA6fWjp9aKKAD3NH1oooAOv0/nR1oooAPYUdOnWiigA6fWj3NFFAB7mjr9KKKADr9KPYUUUAHTgUdPrRRQAdOTR7miigA6/SiiigD/9k=;imageBorder=default;fontFamily=Fira Code;" vertex="1" parent="HewII5I395oueKauFgrz-9">
          <mxGeometry x="240" y="280" width="80" height="80" as="geometry" />
        </mxCell>
        <mxCell id="HewII5I395oueKauFgrz-20" value="&lt;u&gt;Storage:&lt;/u&gt;" style="text;html=1;align=center;verticalAlign=middle;whiteSpace=wrap;rounded=0;fontFamily=Fira Code;" vertex="1" parent="HewII5I395oueKauFgrz-9">
          <mxGeometry x="40" y="240" width="60" height="30" as="geometry" />
        </mxCell>
        <mxCell id="HewII5I395oueKauFgrz-21" value="&lt;u&gt;Software:&lt;/u&gt;" style="text;html=1;align=center;verticalAlign=middle;whiteSpace=wrap;rounded=0;fontFamily=Fira Code;" vertex="1" parent="HewII5I395oueKauFgrz-9">
          <mxGeometry x="40" y="40" width="60" height="30" as="geometry" />
        </mxCell>
        <mxCell id="HewII5I395oueKauFgrz-16" style="edgeStyle=orthogonalEdgeStyle;rounded=0;orthogonalLoop=1;jettySize=auto;html=1;entryX=0;entryY=0.75;entryDx=0;entryDy=0;" edge="1" parent="1" source="HewII5I395oueKauFgrz-13" target="HewII5I395oueKauFgrz-9">
          <mxGeometry relative="1" as="geometry" />
        </mxCell>
        <mxCell id="HewII5I395oueKauFgrz-13" value="Tailscale" style="shape=image;verticalLabelPosition=bottom;labelBackgroundColor=default;verticalAlign=top;aspect=fixed;imageAspect=0;image=data:image/png,iVBORw0KGgoAAAANSUhEUgAAAgAAAAIACAYAAAD0eNT6AABVU0lEQVR42u29959V1b3///lPvhGYPmfmnOm9986Ail3EBiiIiajEQlGJmnuNCUTxGi+Cirl6BRF7ixpbirEbrAhIbyJSTHLf3/1aA0qQMuXsmbP3ef7wfChtZs7e6/1ar7XWe73f/+//OynFAAAAILn4fzwEAAAADAAAAABgAAAAAAADAAAAABgAAAAAwAAAAAAABgAAAAAwAAAAAIABAAAAAAwAAAAAYAAAAAAAAwAAAAAYAAAAAMAAAAAAAAYAAAAAMAAAAACAAQAAAAAMAAAAAAYAAAAAMAAAAACAAQAAAAAMAAAAAGAAAAAAAAMAAAAAGAAAAADAAAAAAAAGAAAAADAAAAAAgAEAAAAADAAAAABgAAAAAAADAAAAABgAAAAAwAAAAAAABgAAAAADAAAAABgAAAAAwAAAAAAABgAAAAAwAAAAAIABAAAAAAwAAAAAYAAAAAAAAwAAAAAYAAAAAMAAAAAAAAYAAAAAMAAAAACAAQAAAAAMAAAAAGAAAAAAAAMAAACAAQAAAAAMAAAAAGAAAAAAAAMAAAAAGAAAAADAAAAAAAAGAAAAADAAAAAAgAEAAAAADAAAAABgAAAAAAADAAAAABgAAAAAwAAAAAAABgAAAAAwAAAAAIABAAAAwADwIAAAADAAAAAAgAEAAAAADAAAAABgAAAAAAADAInCT0al2kmjRZqNGpPm/qtf/2QUzybZx8WhsaFx0Tc2Ur//fZ4RmvFjzWBcYAAg4VBwjknJsLT0LMvMyrFITtSi0TzLy8u3goJCKyoq8ii24uIS999C79cFBQXuz6PRmEUiUcvIjFiq9+9Hp6TbSQR6SIQ8xQl4SlqmpWdmW3Z2ruXmxiwWy7P8/EIrLCxyY0HjQuj/9Xv6s1gs3/3dLO/fpGdkW0pqhvtaTALhmeQV66lOMyJOA6QFhzSj8AjNKHKaUej9eYHTFmmM/p00R9ojk8BzxQDAcEz4o/om/AxP1HO8QNRkXlZaatVVldZQX2stTQ3W0dpkXR0t1t3ZZj2H6Gr//v+7O1u9P2+1du/vNTc2WF1tjVVVVlhpaYk3ARS4AJfwSyQQ/WBN+KnehJ+VneOEWsJdUV5utTXV1tRQZ23NjdbZ1mzd3rv/t3Fx+Njw/qyzvcX93Ubv39TUVLmvoYkg6pkHfW19jz5DwHMP0oSvmFZsK8YV61WVlVZfV+M0oP17zWg9hma0Oc3oaG12GlNfV2tVnuZIe2QOcjzDKE2SNqEZGACIcwArsDK9lbpWcKUlJU7UWz2RVsD2drfb+LGdQ2JcT4eN9b6OglwBXlNdZSXFxZbrrQwyMAMJvAPUN+lHIrlOiCsrKqyxvs46vIlewq33Go+x0dPV5r5mo2cyKyrK3ffS93RmgBVgwk76il2t7hXLimnFtmJcsR6PsSHtkQZJi6RJ0iZplLRqTCpmAAMAQxJ3bbPJXZd4gSW3LhGOx4TfH8Z6KwCtDOq8wC72BESrB20p69iB95MA4u6JrLZtK70JWcKu1Xs8RL0/hkCi39JU7wyHVpTaEsYkJsaRoGJUsapdG8WuYlixPByaIW2SRkmrZAZ0lCQN45gAAwD9RNur2q6TuGtrvq2lyTn24QjgY6HtQE0y2g7WrkAqRmBkdoK8VVW2t/KWuEtktW07HJP+8cyAVpQNdbXOJOqIACMwcosFHf0oRhWrPV0jqxnSLGmXjidjnpalZWAEMABwXPeelp7pJn459672kRX3ozv8Drei0MpP7l5GALH3n9Fj0t3kqlWVzmy1JZ9I48KZxM42l2tQ7JmTTBkB72fm3flvChWD2ubXRNu3Q5hYmiEN62xrcUcQSjCVxrF4wADAYQlcOuNXUp+CuDMBJ/6jBbWMgFYbWpFK7H/Cu/RlZafdoMKCQje5jh3hVV1/d4v0sxYWFh5c9SH2fmiGdloUe4pBJecFQTOkbdI4aV1fwiDvEgOQ5AKv7Fll02pCTfQgPtqZn7YbiwqL3BYkuwFxEviT+gReuyzaDdLqOkjjYlxPp8scV2JYTm7UfRbeaxx3Cj1jpZ2WVi/2ervbAzY2OqzN07qS0hJ3RRWDiAFI0rP+dHeerszqoAXx0bZ/tcWnFYlyGHi/Q9vWlZlS4mcQVnYn3ilqdvkBqRjEuOQHRXJynbEKmik82uJB2qfdAI6LMABJhZK5lMjVd87fGehAPlzsW1sa3RUxbe/xnge3ulNGvVb9QdjuH8iNkrraavfZWPENMg/EiynduFCNhiCbwh8fC/QZRGki7xkDEP6knfRMV0RjbHdHaAT+cHQdrbyszFLSuAc80OOgaG7M3akOi8D/yCA2N7hjDbLBB6YZiqUyL6Z04yKMmqEbA8oNkDaiGRiA0CbupGdGXIW1MAr8kSs+HQnorJLkwP5t7aoUr3aEwjwutNulRDB9Vo6K+qcZiqHakO0IHcsgqoiVNJLkQAxA6Fy8srl1LzbMQXzklUGVJ9Z5NmPg+Ct/HQeN7WpLmrGha4wqVcxOwPFJ8zSjwZsUe7s7kmZsSCOllewEYABCM/mrapuSoZIliA939bq3jgk49uRfXFIS2uOg42/7drhER0zAMSZ/L2YUO2HfLTwa0soMtxOACcAABH3b33OzyTj5H24CdFVQBUsYE/9uDNVxrTcJJ//Dd4mUAIbQ/zuKFcVMMk7+h5uAvp0AxgMGIKjb/p6LTaZt/+PvBNS7OuWMjb6Vv87Bk1ngDx8behbsBPShGFGsMDYOHgewE4ABCKSLT89091yTPYgPF3rVr0/25C+JWTQWC31S10CTRtVFLtmFXrFRX1vN5H8YSpqWljKnYACC4+JTM9y1FgL5iC1f73modGmyCr0+d3Z2jnW2tzIejqDLeyZZ2cm72jvJ+9yKjWQ+EjrWwkFaSp0ADEAwCnaMSXfnmmO7WeEde7WXn3Rnez9xiV1927uMg6OjZ5OMqz3FQl5+AbtCx0kY1U2ZUVQMxAAkeiU3lbZUdSsC99ioa5mqwiWTCVA9/IqKcnaFTrDaUwvsZOsdoJr4ignGwPF2iFpc6XRyRTAACVzoJ9ud+yPyJy4IU1dbY2OSROglWmrz3N3Zxvs/USXJrjb3rJJF6BUDKv2MZpxYM1QoSM3TuBmAAUjAQM5wHa562frvd/lP9Q0Ie234vjoQ2e5aF++9f+hZ9Ql9auh3DPO9GOC4sP8NhNQ5lV4jGICE3PpXm0sCtf+o7n1GyKt+jUlNd3XcSe4aWH0APbMwHwX0XRPOdjHAOx9IfYAmp7U0lcIAJFDVrkyy/gd55lvuhD4t1MaQ893B5YlEJPQhNYca8+XlZe5mDO974LcC0rgaiAFIlPNdZbV3hryRi59Cnx3JDeUugLq4KakNYzh4oQ9jBUmN9azsHIzhIJHWKk+EhlIYgARo2JHlOt8h8oMX+kpvkgxbQqBb/efGEPkhZn5Ho3mhSwjUWC8v50bIUDRDiZMqFcwchAEY2dW/50Q721j9D+lcT7sA3oooTLsAWrlWsvqPy7XAMJWQdsWgIrnuLJt3PDRzmEy3RTAACdqxq4qz/7hUCCwtLQ1N0tehs39EPj5JX8oFCIs51BgvKytFM+JkDuk0igEYMSefmxuj2Q9Xv46S+Z/hDA2Z//G5EVBaUhKKq1/uSmhWhCuhcWwWpGM2mgVhAEZG5F0vd+7wxqtEcH5+QeATe1TyV1UOmyj5GzeaGur6KkeGoNlPPiV/41pLpCQk5hADEDAyMyOuux2BGD9qlPWdGuzz3lHfV/2j4U/cqgN2tPZlfQf8vDfFG9sa47zT+CENlhYzJ2EAhnUrT+1LyfCO83lvS5NlZQU7GVAJaxVkeMf9vFfPNMjJgO7qnze22zkyjPs1YmnxSRwDYACGs+yvtv8p+xvvY4C2wB8DsP3v0zGA90z1bIO//U8/iHiXBy7lGAADMJwoWa22ppoA9IHKigpLCWjvb2X/R73VSFcH10Ljfu2ro9U926CWgNWY1tjmXcYfabE0mbkJAzAsKPOUGt7+9YQPaoEPXfEqdjtDbP/7cRtAzzaoV0U1QTWzM+RbTxFdu2VuwgAMS/EfdbEjycu/Ah9BvfetO8nVJHn5Rl8N+KxAnv9rguqiXLg/SaKeFidDZ1EMQIKc/5e5O96c//vZJjiIeQCZWTms8nzeHVIiXRDP/wto+0ubYAxAeKr/EXj+ZXy7YA5gHgC1//1vAqNnHMik4VKq/7E7hAEI/v3/LN3/ryXo/KwHUF1lqQFr93mSu/9fwNGQj/R09t0SCVr9d/WF4GjIXxrqawN9SwQDEBB0Pk0pT39p9II5aImAo8ekW1FRMdu8Pm/1FnvPWM86SGNDY7mxvo536HMp8QiJgBgAv4lSAMj/Gt/NjYFz8zqyoMkLx0PH2jVsa+HWkK8FgVqbXOto5igMgK/k5Re4O8kEnZ9nvc2WlZ0TuG1e7nn7bAAO1olIDVhFwOzsXJe/wDv0s05EX3tg5igMgK/XeQoLdQWQal5+F30J2lXAtIwsq6nmnJdkr6NcAcyNsmjw/Spgm7tpQWdADICvld6KiopcMhJB5++93txosNp86pyX6pDDU/UtSPkhrm24N5ZJDvU/QVTaTC0ADICvmd5K9MIA+B3MwSv7mpEZsbpaukP6jZ5xRoC6vx0qD92DARgGA1AcuBsiGICAFfQoLi6xHvp5+76dF43lByqYM2gPPWztX4NlANLcWGbR4LMB8DRZ2hzkRmIYAHYA4OARgDJ6g7UDkM0OwLDsAFRbeoAav7gdAG8scwTADgAGIAQ5AIXkAJADQA4AOQDkACScASgkBwAD4Hcw0whouG4B5HrPm0ZA8O9UVQbvFoButHALYDgaAhUESjMwAEGsA5CXT793v+sAtLUErg5ASlqmVZSXu7vqvEP/qKgod886SGNDY7mT4mG+LxqoA4AB8L8SYDRm7a1NBJ3P/b2DWAmQhi9UAjxWJcDWZsqH+0l7azOVADEAw9ALIBK15kaC2dfGHnUB7gXADRH/WkV7z7YooL0AGmgg5nur6EgklzkKAzAc3QDJ9vb3nDd45V5/6AZIgqhv57wHt3lPCli1N7oBUh8CAxASlICkRCS2ev3b5i0pKXE91IM2NnJyojSK8rPhi/dsg9jxTWO51BvTaIZ/muEWDQFKDsUABJQxKenurJe2r35t8/b1fA9iQQ/tDjU10PbVtzbR3rMNYs93jWWNaY1t3qMPmuFpsTR5dEo6cxQGwP9rPfl0BPS1E2DQGgF9v9WbnulWIrxHP1Z5B4+G0jMDqRnZkVw3tnmX/twAkCafRCMgDMCwJAJ6E1RLE4mAfq3ygpYA+H0ioLcCKSouZnfIp1Wenm1QV3ka043sDvmCtDiIR0MYgICiYK6priL4fDjLKy8rC9w1ryOrvtH73Y+doZbAVYc88pqoxjZ5APFHWhzURQMGIKArvZJirnz5Uc5TWd6jAlzPOyMrYo31rPTivjNUX+uebWAbiblbIjQF8uNqaEmAd4YwAAFd6VEQyKcCQJmRQJfzTPFWemWlrPTiXwCozD3b4GpGihvbGuO803gWAGpyWvwTzv8xAMO60svItjqav8Q1yauyoiLQIn+oHkAsmmdd7SSJxjPJK+a6Qwa705vGtsa4xjrvNU73/z0NzmD7HwMwIglfag3MMUDctv9jKvISgnaeag1M5bc4VobU9n9m8EXemcNYHscA8dIMT3uL2f7HAIxkly9uA8SHpoZ6l8gThm5eEqTiIm4DxIPe7nCJvMY4tSLid2QY1CvDGIAQcKgDXG83571DE/kOKykuCVyN9+Pe+87O5bw3TiKvO/RhEXmNcZlDNGPomlFZUR64kuEYgBBx0uhU14GK8q/x6f4XJiev897ycpIBhyryujoX9LyQI82hxnpbCwnE8Uj+kwYzF2EARrQ3gBp9IPSDF3nVSQ/bOZ6EyfUGaMUcDhZNkpGc3NBVeNNYpybA0G6FKJmS1T8GICESe+REEfpBivz3V//C5+S1cnVHRAh90hWFOtEuQJbbBeCIaLCr/9xcVv8YgARq99mXC0DS10DLu+rsP4iNf/ot9Nk51tpMouigzv6zc0Ob4KUxr+RGNGPgSaHSWlb/GICEa/bRyo2AAdf91xFKGDL/j5v0RdXIAVd3U6JcmK93acxr7HMjYOB1/8OUFIoBCNG5nkSLO779o7uz1WJ5eaHv4OWEPiPL3WUfx3s/8da/7v3X1bpnFmZj6I4PvbGv8sCKBd59/2qFFBUVce8fA5C4Ql9bU01yz4m28Q4m8SRLIOuskiZB/aOjrcVyc6NJc76rGFCbYzTjxDkhtdVVod8xxAAEXOiVtdzG/e8TbOPVu0BOqh2iMelWVlrKUcCJGruUhDcn5HjFgSgodoKckJZGtv4xAMFI7snPL3D1ywnco9R191bBrnlHUhaOyrC62hpWe8dY4dXVVrtnlIy6kZMbo3/EsY4LPS0tKChMOmOIAQjstl6GlZWVsdo7yhleSUlx6M/9j5csqpr2VAhMjmJQAx0bxSXkEB1tV8hdB03JYG7BAARrtad8AEp+/hDIOusMQ7OfoQp9Tk7MOtvIBziEngU13ftqilRVVbJwOKxImM79k3VXCAMQcKFPz8iyxvq6pN/ylaCpbWdKKoF8aGzk5xW4rU22d1vds+Bs94fiUYqVZDcB0kzdnEl3t0EYGxiAgN4MUIJPc2ND0poAFfupr6tl8j+KCSgsKPImwLYknvzbrMB7Bgj8j02AYiZZu0lKK6WZLuOf8YABCEO/AGX5JpsJ0CpGQkbVruOYgMLkNAH6zPrsTP7Hri7qTECS7QRII6WVyXZLCAOQBAHd3FifNCaAbf8BHAcU9N0aGdeTDALf6T6rPjOTP8cBP17517NgwACE2NXXhj8xUJnM6pDI5N9/E6CKcO2tzaE2iPpsap2tz8rk338ToOTZsN8OUHGwhroaJn8MQPjrBFSUV4TW1esus7vqN5o7uwMlMzsntPkih8511RyJdz3w2wEqkNQV0kqS0kI1+OGePwYgebZ98wvcaigsYn/o7E4FTVjdDW3FV11dFSqDOLarzVvFsiM0VM1QAS1V0ewNjWZ0Og2MxdgRwgAk4Q0BFYVxZ3wBz/ZVMxNtU+rGA+82DrtE3oovLz/flT8NskHUz97W0mQF+YXuM/Fuh6gZBxOK1Ucj6A2EpHmq/NhX/Il3iwFI0oAek5LuylyqElrQnL16c6udqc506dDlQx0JzyDKWAUxQVA/c6X3s2dkRljdxb3SaLrrpKl22kFbPMgUSuukedI+Jn8MAGd8o/tKxJaXlwXiWKBvZdfo+txrRXISAu/bLpHEXlu/9bU1gUgE6+lqcz+ruh+OdgLP2PBFM7znqtgrKS5xzccSPbH4UAKoyvpmZGQnTbdHDAD0e8U3OiXNsrNzXEJMe2tTwhkBiYy2dBXEWVkRl7SDgx8eg6js6FhevptcE3H7t8f7mVS5Tbkt+lkxhcNjEBWDmZkRKy0p6dtFTDAjcGji126QuvlJ4zCFGAA4jhHQ1piCpays1CXWjWRCmLaetfLUVn9xUbE7s2NlN3LZ4KnpfUagprrKE9aWETWJh8RdVz5jsTzvZ8vi9seILR7SXWyWFBe7WFXMjuSxkTRL2qUW2FrUqJkPmoEBgAEGdYYX1FpV1Xgi2+6tvpVRPRzCLgHRikIJRxJ3Jfippz1BnBhGIMVbZUdyct31sEZv5d3V0TIsqz99D11H0/fU95ZRVXY/E3+CaIYXo4pVmUTFrmK4zwx0DMttD2mUtEqapWNNFgsYABhiUGubLzU107KyclxgKbBVMUtCrCSgoQa3/r2Ct7O92SUWaYtfiX3aWkTcE/scWAKblpFlOblRl5NRW1Pl8jO6PdGPhyHQ11DZXn1N3VjR99D30vdE3BP3aMCZRC92FcOKZcW0YlsxrliPi2Z42iMNkhZJk6RN0ihpVd/xIGMDAwBxNwMKbLnrnJyoy6YtLS1127DqPCih7vSCUlnYOivucbS5CUG/1u+r/apWBg11te7faSWn4NWKUquHMd7X17UtzveDlSegCVlHBNoKjsbyrKioyMrLy622ttqJtCoNqlBT9/djo+3g2Oj7Pf2ZVnBN3t/VFa2KinLvaxRbNJrnvqa2+PU9SOAKWJ6AF8uKacW22i4r1hXzumEiDZAWSBMOaUYfbU47vtcMzzgo2VAao+MnaY60RxqkpD5pEpM+BgBGwBDofE2JVwpwCXV2dq5bpSkTWxOBCm1EPfRrCYCqsenv6e/r3+nfE7zhOybQZC1hVra4ruPpvUciua5Yk8aCxkXs4LjQ7+nPtIKTudS/SfFWcn0TPjtAYdcMNzZyDmqGZ/iiTjPyjq4Z3tgYw4SPAYDEDnSh1ZoE/KTRad//Hs+HsdE3NhgXcDzNSGVsYAAAAAAAAwAAAAAYAAAAAMAAAAAAAAYAAAAAMAAAAACAAQAAAAAMAAAAAGAAAAAAAAMAAAAAGAAAAADAAAAAAAAGAAAAADAAAAAAgAEAAADAAPAQAAAAMAAAAACAAQAAAAAMAAAAAGAAAAAAAAMAAAAAGAAAAADAAAAAAAAGAAAAADAAAAAAgAEAAAAADAAAAABgAAAAAAADAAAAABgAAAAAwAAAAAAABgAAAAAwAAAAABgAAAAAwAAAAAAABgAAAAAwAAAAAIABAAAAAAwAAAAAYAAAAAAAAwAAAAAYAAAAAMAAwMA4aXSapWfmWG6swIqKy6y8ssZq6xutqbnNWto6rL2jy5pb2q2xudWqa+utrKLaCovKLCeab6npWfaTUak8xxCi9zomNcOyIzHLKyi2ktIKq6qpt/qGZjc22ju6rbW9y/2/fq+yqtZKyird382KRG10SgbPMcRjIy0j4jRAWlBWXm01dY1OI1paD9eMNqupbXCaIm2RxujfSXN4jhgAGInATc92Iq3A7Bk73iaeN8l++rMrbN68G+z222+3u+++2x58cJmtWP6IPb7qMXvqySft0UdX2HLv1/fdt9T+67/+y2677TabPXuuXTptup119rnW1d1rVdV1Fs0rtJS0TExBABk1Jt1N3JroJd6nTjjdLp48xWbNusZuvvkW++3C39rSpUvsoYf+xxsby+1pb1w88fjjbpzo9xYvXmx33HGH+7tXz/q5XXjRZPc19LVKSistKzvqvgfPOniakZKW5WK70otxxfrZXsxfNuNypwHSgrvu+i974IH7nUasemyl04yVjz7qfv3A/ffb7373O6ct0pgZ3r87d+J5TntkGqRFqZ4moRkYAPBphZ+RlWul5VXW3dNrk6dcYvPn/8KWPfCAvf7aq7bm809t+9bNtmf3Tvtu/7f2f/88YPav746J/vzAvj32zdc7bMvmDfbZp6vtlZdesiVLlrgAP/+Ci6zNWwEUlZQ7t09gJy5a4UdjhVZb32SnnX6WzZx5lS1YsMAT8cfsvXffto1frbNdO7ba3j277R8H9h13XIh//WO/+7s7vX+zYf1ae9f7Gk+sWmULFyy0K2Ze6X2PM9330kpwDDsECb/CVwxrp0cxPXfuPLv33ntdrCvmt27Z5DRAWtAfzZC2SGO2ef/ui88/cdqzbNkym/+LX9jkyVOdsZBGSavYIcAAwBCRay8oLLWOzh6bNn2GLbpzkb326itOmCXSJwragfIv7+vt2b3L1n75hb3wwvOe4/+1W0HqGCGWX+QmG95LYhjCzOxcq6iqdZP+7Nlz7OGHHrIP3n/Pdm7f6k30e+M6LoS+5o7tW7zv8a49/PBDdv31s+1073tr1ygzO4rgJ4whzHSx2tzaYRdfPNXF8IteLK/zYlqxHW/N0NeTFkmTXv3jK7Zo0SJPqy6zzq4eKywqPbibyHvBAEC/nbvO83Umd+aZZ9svf/kf9srLL9mWTRt8EfbjccBz/Ars55571m644UY7+ZQJVuytKGRMeFfDz+gx6ZYbLXBn9jq6uW/pUvvwg/e8VdzOuAv7iURfK8ePPnzf7r//fif4zd7PFMnN54hghDRDW/CKTcWodvGeefopF7sH9n07rJohjZJWyQz853/+p51xxllWXlFtaRnZGAEMABwPBbGC5cILL7Yl995rqz/60PZ9u3tYA/hYaOvvnbffsgULFtqE086wwuIyjMAwrvgjOXluK/fa66534r5541duu36kx4WOFTZv+sr9TFdfPcvlC2R7P+sodgSGZ5fQW/EXl1S4M33lb7zzt7fcSj8RNEPatfrvH7rcEuUMlJZVkiuAAYAfrexS0l0izRneiv/+++5z23X9Oa8dCfbv/catOhcuXOhWG7mxQm/Vh9j7thuUEXHJnldddbW9/NKL9vXO7cO62h/IroCOCJ5//lm70vtZ6+qb3Bk079G/hE/lYYwbf6rd6U38n6z+yJ3RJ6Jm6OdSzoAWNWeddY6ndSXsFGEAQAKfkZljrW2d9pvfLLBPP1mdsEH8YyOwx972Vhtz593grhzK2fNO4yvw+YUlLnlLCX3bt21OyIn/qEZg2xZbtXKlTZp0gcXyCtkN8CG5T9c2b7ppvtuVkykPgmboeEAa96tf/crtFKVjEDEAybytq1X/9Okz7C9/ftP2fRuMID6Sr3dtd1eGzjlnotumJhksHkdBWdbU3Gp33nmnrVv7RUJs9Q84odT7mZVM+utf/9pq6xo5LoqTZmjVL1P43LPP2O6vdwRSM3Q08OYbr9mUKVNdTguagQFIsi3/DJfBrbOxHQFZ2Z1I7HUV8ZZbbnXnfGzvDWFHKCvXJp53vr3++qu2b+83gR4XQhnir7zykp07cZL7bJz/Dn5HSEWadGd/7ZrPA2kKj9wp2r51k9216C5Xm4CiUxiApJn8VUDjDU/gg7Ld31+UGa6tXyWrYQIGPvlrdacM7nVfrgm8wB8p9l+t+9Lmzb3B5YxgAgaeI6RjQhXo+Sagq/5j3jTa9629/uqrNm78KZgADED47/VfPHmqrffEMEwC/+8JP3vtb3/9i5122hnuTjLvvX+Tv65w3bf0PnelL4zj4pBBXLz4XlfbAhPQ/3v9Z58z0eXbKLbCOC6khevXrnE5IxwVYQBCu/K//rrr3XW6sAr84QH95ZrPbMZll+Pq+4GOTV76w4uuIlvYx4Y+oz6rPjPv/sSaoRhSLIV1wXDkVWNpJJqBAQgVyna96aabQrflf6Jt300b1tusWT9nJ+A4VNc22F/+9MawF3ka6Wzwv/zpTffZGQPHXvkrdhRDQc8RGuiVQd1u4IYABiAUqEyqmqskw+ruaCZg6+aNdu2112ECjjH5v/23vybV5H+4CdC2Nibg6JO/Ykaxk0yT/+G7RNJMaSfjAQMQWNSZbc6cubZ3z9dJF8SHmwCVBv3Zz2aytXfYmb+2wJNt5X+snQA9C3ICftj2V6woZpJx8v/h9sjXTjuloYwLDEDwJn/PvV5zzbWuq1qyBvHhOQEbv1pr06ZNT/o7v4cS/nQOnsyT/+EmQM9CzyTZTYBiQzGiWEmGM/8TIe2UhmaxE4ABCBKq1DXp/Att7ZovktrFH2kC1IK0d9zJSX7Vr9C1ZE3GI6HjbfnqBoSuQSazCRjbe7J9svrv9s/vmPwP7R6uX7fGzr/gQspKYwACcn6XkuH6YqspBy7+x6u9P7/5hhWXJueWrwrh6C582O5yx+eK4E5XA0HPKCl3hbyYUGywK/TjhYPKHXf39NKOHAOQ+Ft41TX1tvLRR5Mq43+gq72lS5e6jnHJZAJ0v1nV8FQQh3FwdFQASVUQVQo5mSb/rEjMNQFjV+jYNwMeXbHCJYxSNhgDkLDE8orsxptust27WOGd6GzvyiuvSpqiH6qKWN/Q4kriciR0/NWeSiCrD0KyVJJMScu0GTN+arvIFTou0lSVGlf/FOYaDEDinfunZ7ue3B+v/pCA7Qfvv/eOtXcmR8ngWH6RLVz4W1cXn3d/gkYxe79xTZDUCTHsO0Qa+00t7fbuu2/z7vvBJx//3SZOOt/SM8kHwAAk2NZ/XUOzrVi+nDO8AWzr/fd//7dF84pCLfQuIXTSBbZu7Rreez9Rsxsl0YY58UtjPppXaPcuXsxx4QByiB555BGntRwFYAASBmV2X3NNX+EOArX/bPxqnU264EJLTc8O5wpPxrC+yTVIIiG0//zzu32u8U1NiM98NeYvvGiyiwHeef+RxqpCYk60gLkHA5AY23g9PePslZdfQuQHceb7xBOrrLyyJpRCr0THK6+62nZs28L7HiDbt222q7xnF/GeYRh3DMsrqu3JJx5HMwZxNfDll/9gPWPHuS6JzEEYgBElL7/YbrjhBvt65zYCdDAJgdu32BVXzLTM7NzQGcPmlnZ7/vlnSfwbrNC/9KJrLT06ZHki6Zk5duml0z1juJl3PQi+3rXdJQQWFJUyB2EARlbkVdjmFc+RIvKDF/rnnn3GXZ8M0y5AJDffrr56lu3Yzup/0EK/c7urBJcTzQ/V6r+yus6eeHwVmjEEzdBtkfEnn5o0t0UwAAm8+qfc79DYtmWjTZ481a2MwiLyLa3t9uwzTyPyQxT6p5960l0LDIs5VKGjSy+d5o35TbzjIe0cbnW9ApRIyVyEARiRLN7Orh5EPk65AL9/8EErCUlTGDUwueyyy20LSaFDZvPGr+zSadNDcUSksV1WXmUPP/QQmhEHzXjKM4c6IqKRFAZg2FGryst/eoVtWL+WgIwDX3z+qU2YcIYrjBL0sVFVXWcPPPCAy2bn3Q5d6O9butQqqmpDUQ3y9DPOsjXeWOfdDp2vPO2dMeNyy8jKYU7CAAwvlVV1ds8999h3+7n3H78e4De7aopB7wVx+uln2Ucfvs97jRMffvCenXb6mYGvBa+xrT73B/Zx7z9etUSkwZXVtcxJGIDhPePVavXNN14nEOPIC88/Z/UNzYHe0lNHu+uvn03Dn7g2Ctphs2fPsWisMNDb/6oJ8fxzz/JO44gaKE047QwKA2EAhnf7XxneWzZvIAjjuaW37ks759yJgS4MVOuJ/MMPc8Yb72RAnZvr2Qa58M8550x029a80/ixZdMGu8rTYmkycxMGYFioqKyxu+++mxKecWb/vj12003zA3sMoCtJ2qr+4P13eZ9xRs9Uzzao175co7Abb3JjnPcZ32MAabE0mbkJAzAsjO092V584QUC0AfU9rOqpj6Y2f/eKuSKmVdy99+nglEzZ17lblgEMzG03lYsf4R36QN/ePFFV4+FuQkDMCyrvMlTptpnn35M8Pm00uvu6Q3kmV5JaaUtXLiQhlA+NYJZsGCB94wrApkz1D12HDtDPiEtvnjyVIoCYQCGo757zObMnUfxH7+afWzZ6JqkBLETXHNru6vwxnv0h1WPPebKKwexI+RFF0+h+I/PRYGyIzHmKAyAz6u8skpbtGgRV3n8ygPY+01fha8AZnyfOuF0erv7yHves9UzDtotEXULne2NaY1t3qMfV4i/dZpcWlbFHIUB8JfGplb734cfJvB8zPi+6667nNEK0rgYnZLhdi4oDOVv++iLJ08JXD2A4tIKu+OOO7gZ4iPLlz9iTS1tzFEYAH8Zf/IEe/mlPxB0PvLYYyvdnelglf+N2dWzfs7RkI/s8p7trFnXBG6rV9cXV658lHfoI2rHfvIpE5ijMAD+ct6kC0jm8ZnXX3vVWts6AzUu8gtL7JZbb7V937LN6xd79+x2lfTyCooDNTba2rvsT29SNMzv46GJEycxR2EA/OWSS6fZ2jVfEHQ+8vePPrCeseMCNS5KyyrdNq9q1/MO/boJsM9+u/C3gbsJMLZ3vH28+iPeoY+s+eJTmzr1UuYoDIC/VwBnzrySLm/DUBHwtNPODNRVQNUuWLp0Ce/PZ/SMg1QnQmNYBYy+WkduiN8VAa+44kquAmIA/L3Oc91119v2bZsJOh/ZtHG9nTtxUqCSvRoaW0gOHQYeeuh/XL+IwDSHSs10x4Zqa8z784/tWzfbNddeF+gy4hiABCc9M8c1JdmxjUpvfrv58y+40LVPDcrYaGpusxXLl/P+fEbPWM86SC2ANZY1pnl//iFNljZLo5mrMAC+EMnJs/nz59vXO7cRdH66+W2bXa5FemZwigG1d3Tb008+yfvzmaefetI96+AsGiJuLLNr6C/SZGmzNJq5CgOAAQgwqpg2ZeolgaoGiAEYHp54/HFrbe/CAMARV0S3uWZLWVQDxABwBBBsNnMEAMc8AniEIwA46hHA9RwBYAD87ul9zTXXuYQTgo4kwMNRYpoS1Hh/JAH+WxJgSoYbyxrTvD+SADEAAb8GqKsmuHl/Wb92TeBqvqvd69IlXAP0m8WLF1tlVW2wrgGedqa72sr783fX8Kc/uyKQXUQxAAFCxSZUdIKg8w8VTenpHR+wVsAVrkiNitXwDv1BRZZUbClofSJU1ErFrXiH/rF2zed2ySXTmKMwAP6icpPv0fHNV9547bXAlQJWeVqVqVW5Wt4hpYAPR2NZ5a15h36XAj6fOQoD4C9qOKHGEwSdf6x89FGrrWsM1LhQgxo1qtlFMyD/+r57z1YNl7Ii0UCNDTW2UoMr3qF/qEGbGrUxR2EA/M32bmlzrScJOv/aAWubtzhg9d5V8e3iyVNdy1reoz+o1bJaLqv1cqCOh8oqXYtr2gH7h6pwqlU7cxQGwN+mL+VVtmjRIjuw71sCzwf27/3GZs+ea7mxwkCNCyUsnjrhDI6HfORd79kqOTRomhH1xvKcuXPd2OY9xh9p8aI7FwUuNwQDEECyc2I2Z85c27mdrV6/igBddPGUQBUBOkRzS7utWvUY79GvIkCrVrlnHMQeItq52LqFJmJ+HQ3NmTvPaTNzFAbA96uA2ur97NOPCT4f+OD9d6177LhAXufRTYAFCxbYPw7s5V3GvRXwXlu4YKH3jIO3ytNY7u7pdWObdxl/pMWTp0ylEyAGYHjoHXey/eHFFwk+nyq96U59EMeFktNmzrzKdm6nUmTcK715z/SKmVdaVnY0kGNDLYwfXbGCd+kDL77wgo3tPZm5CQMwPFRU1tjdd99t3+0nDyCu5//79rh63rG8osDuDqn3Oys9f3aG9GyDusrTmL7ppvlujPM+44c0WFosTWZuwgAMC5neKuSqq2ZRETDOfLV+rZ1zzsRAl/OsrW+yhx96iIzvON8Mefjhh9yzDXIZcY1tKgLGuXX45g129dWznCYzN2EAhu1Mb8JpZ9if33yDIIwjzz/3rLszHaQSwEfL+FbDqG++3sE7jRN6ltdfP9tyYwWBHRca0+ph8MLzz/FO48ibb7xuEyacQQlgDMDwUllda/fccw/HAHG8yqMqb0Hd/v+hHkCG26r+8IP3eK9x4qMP37fTTz/LNdYJ8tjQ2L755pu9sc4xQHy2//c6Da6sqmNOwgAMLxlZOTZjxuVu25pgHDprPv/UTj/jrEC1AD5mjkhVrd23dKmrXc+7HRr//G6fPXD/A1ZVHXyRT0nLdKvVLz6nl0i8CkNd/tMr2P7HAIzMll57R7c99dSTCH08zngfesjKyqsCvf3/Q45Irl06bbpt3vgV73fIZ7wb7bLLLg9c+d9jaYaK1fz+wQfRjDhoxrPPPGOdXWNDoRkYgCBu6eUX2dy582zXjm0E5RCL/1x66XTLyMoNTY6ISkY/+8zTJAPGQeRbWjtCc8arncMpUy9x/et5x0Mr/nPDDTdaXn4xcxEGYGRQTfJTTj3NJaIg9IMX+Scef9wqq+tClcijhDUlrn29azvveQh3/5XhHcnND1UCcU1do73w3HNoxhA0Qw3ZVI+F4j8YgBGlsKjUbr31Vtu9i6zvQYn8ti1u9Z+emRMuc+gJk46IJFQI/eBE/vnnn3Olf8Mm8joiUlEjyokPjq93bmf1jwFInF2Asb3jEfpBoHPQJ594wsorqkN5jSeSm2ezrv65bd/Gdu9gjOGVV11t2Tl5obxGrERRjX1yAQauGdLanp5xrP4xAIlBTrTAZv38GttGs48Boda5apIS5MI/J9zurW2wVY89htAPUORXrVzpakKMCun9bo358y+40DZtWM87HwBbN2+0a665LnDdQjEAIS8MVN/YYo+uWE4jmAGU8Lx38WKL5hWGOos3PSPiCf1Ftm7tF7z3frJu7RqbNOnCQHaEHMiNANUFWLLkXmqJDKAh1Irly62uoZnCPxiABBP6zIhNnHS+ffLx3wnWfvZ2bwrh+e7RhD6/sMTuvPNO20c/+BOyd89uW7jwt+6GTTJ0Fm3v7Lb333uHd98PPl79oZ199rmWFtIdQwxAwMkrKLZbbiEh8ETs2rnNZsz4qSuMkiwtpJuaW+3111/lKOAEiX9/fOVlq29oSZrzXRW+uvLKq9y1NsbA8ctBq5lS0CuFYgBCfhRQXdtgjz66gm29Y5b83WPLli2zrEgsqQp4pKZn2cTzzrd1X65hHBwnJ0TPKDUE1SAHskOkRMel9y2lRPBxjguVRyNtZesfA5DwteC7e3rtnbffYrV3lDM8NVAqLq1MyupdKnQ0b94N3mpmJ+PhKCu8eXNvCE0xqIGaAMWEYoMcoh8nhL7zt7esq7s38L0gMABJQppL/LrQ1q9bw9XA72u677dPVv/dxvaenNTlo1Ug6L6l97HaO2JX6N57F7vM7mQu66rCNp99upqFw2FHQmvXfGGTzr/A01TO/TEAASIrO+quq+zibM8JmrZ3p02bnvRbeG61V1JuL/3hD6z2Du4K6VnomSR7TXfFxrRpl7lYwQT0lfu95pprnZYyp2AAgmcCIjFXsWrvnq+T2sVv2bTBfvazma5oEuOizwSo8dFbf/1zUpsAffa//OlNKy2roqHLYYXFlBS4ZfOGpN49lGbOmTPPaSjjAgMQTKE/uBOgPvfJuOUrAVPhjmuvvc7GpGYyJo5ARYLe+dtfk9IE6DO/7X12JXYxFo7MI8p0MaPYSUYTIK2UZtLmFwMQmmIwusKSTDcDJFyqcjZr1s+Z/I+DJkCtgpPJBBxa+TP5H98EKHYUQ8lkAqSR0sr0EBeBwgAk6dbe9dfNtj27dybFmf+Xaz6zGZddzrZ/P9AWuM7Bk2GXSJ9Rn1WfmXd/Ys1QDCmWkiEnQNoojUQzMAChLfpx4UUX2fq1X4Y2oL/br63dt+zscyay8h9gYqAy4XUdLrxX/Xa6GxAk/A1sJ+CMM8+2t9/6q4utsC4Y1q/70i6ePNVpJO8dAxBqVz/u5FPszTdeC92RgCavVY+ttNa2Tu9z0qlr4FcEC12dAGWBh2nbVwKvAkj6bLoGyeQ/uJLBjz++KnQ1JKSBb7z+qvWMHc/KHwOQPCagqqbe7r77btu+dXPgxV4Cv3bN53bbbbdZSVklbTqHYAJUCEfV8F774yu279vdgRd49T9QCWR9Jn02Jv/BmwDdHPnlL//D1nwR/CMBad6ObZtt8eLFrjUykz8GIOnu/Ebzimz69Bn2pzffCKzY7/ZW/c89+4zreKfVHaU641A2OC3LGppabOFvf+s64wVR7N2qf+0XrgmS+iCoFDLvduiakRPNt/PPv9CefeZp271rezBN4bff2F/+/KbTPvVPQTMwAMm74svMseaWdvv1r39tn336cWCywfd7KzuVO1bGbn1Ds6t+yOouvis+dcS7wDNWj696zFstbQnETpF+xu3eyk6122UK1QmRHaH4Vxqtq2+yG2680d59+29eLO4JzHb/p5+stt/8ZoE7JpT2oRkYAMTeE0gJ5Vlnn2tL7l1iX3z+ScLmB7gg/ni1LVq0yMaNP9Wt+hF4H6+QZvaJ/ZVXXW3PP/+c7diemEZAP9PX3or0lZdfsllX/9zVOEjHFPqoGdpBLLSTTznNtU/+8IP3nClPzGuf+1zi87JlD7iERq36yRHCAMARuwGp6dnuetS5Eye5s7GPV3+UMEG9Z/cut+LXlu45555nxaUVlkKW//CI/eg01zFOO0VXXz3Lbf9u2bzR/vndvoTY6t+88Sv3M11//Wxr7+i2SG4e27rDeLOosLjMJpx2pi1YsNDefedt+/abXQmy1b/bVv/9Q1u6ZIlddPFkK6+scRrHe8MAwHGMgBpflFdUux2B2277lb36x1dcOd3hPh44sO9b27B+rT3z9FMug/vkUya4iV8/Hyu7kdkpiuTmW0trh1122eX2wAMP2Ecfvu9uXwznroC+l76nVp33LV1ql06bbk0tbW43aDS7QSNmBIpLKuzUCae7Y7nnnnvWxe6BYd5JlEZJq7QT9Mtf/tLO9Fb8ZZ6WZWSx3Y8BgIHtCBx0951dY23a9Blu211mQIG9d8/uuIu+vp5W+uu+/MJefOF5u/322+3ii6dYc2u7O4/mXn/iJINlRaJWVV1np59+llt5P/zwQ/bB+++6IwI/jKK+5s7tW933ePih/7HZs+fYaaef6TK4M7NzWfEnUN2AvPxia2nrdPfqb7/91/aCF8trvZhWbP/LB82QFkmTXnv1FVt05yJPqy6zjs4eKygs5V4/BgDiIfi6QlVaXuX6Yk/2Anv+L262ZcuW2euvvepyBrZt2eQqaUmoT2QM9OeqyKZV3Fbv36kF6R9fedmWLFlic+fe4JK3tJVbVFJOcl+iC35Khlt519Y3uQn5iplX2sKFC+2Jx1fZu+++7YRZXdWUed2f2wT6OxJ0dbFUPYL3vK/xxOOP28IFC23mzKvc96itb7RorNCbbLi6ldg7iREXw20dXS6mtYunGNfqXDGvhkPSAOX19Ecz9PekMbq6vObzT+2N11+zBz0Nmj//FzZ5yiXW3dPrNEpahSHEAICPuQJKpKmpa7Se3vF27sTzbMaMn7rOg7/59W/snnvusf/5/e9txfJHXAb5008+6UR8xfLl9sAD99vdd/+Xu7M/e/Zcu2zG5Xb22edalxe8WlEqsUiunUk/mEcEaj5VUlrpdm20HXzhRZPt6lk/t1tuudXuuOMOW7p0if3vww+7saBxIVaufNQe8lb1+jP9HTVimTXrGm8FOcV9DR056Gtq14GEz2BqRkpapovtqup6t4jQ8eKl0y6zOXPnup0+1ST5/YMP2nJPM1TM6ylpxhOeZqxYbg8+uMzTlN+5vycT8dOfXWETz5tkYz3tqfU0SFqUls6xIAYARmyHQG5fqzI5/orKGqtraLam5jZraetwq/nW9k73a5kG5RcUFpW5O8Ws8MNfdEotVfMLSqy0rNIVoGpobHFjQeNCKLmwvrHZ/Zn+jgQ92/s3WuEzNsK8kMiy3GiBO2aUJui2SWNzqzN87R1d1tbe5caJdnykKUXe39NuU3pmDit8DAAAAABgAAAAAAADAAAAABgAAAAAwAAAAAAABgAAAAAwAAAAAIABAAAAAAwAAAAAYAAAAAAAAwAAAAAYAAAAAMAAAAAAAAYAAAAAAwAAAAAYAAAAAMAAAAAAAAYAAAAAMAAAAACAAQAAAAAMAAAAAGAAAAAAAAMAAAAAGAAAAADAAAAAAAAGAAAAADAAAAAAgAEAAAAADAAAAABgAAAAAAADAAAAgAEAAAAADAAAAABgAAAAAAADAAAAABgAAAAAwAAAAAAABgAAAAAwAAAAAIABAAAAAAwAAAAAYAAAAAAAAwD95yejUh0njRZp7r99v8ezSWY0FsakZlhKWpalZ0YsLSPi/l+/p/HBM0Iz0AwMAAQkYEeN6RP01HRP0DOyLTMrYlnZORbJiVpuNGbRWJ5HvkWjee7XkZxc9+f6e/r7qWmZNiYlw30dJoDwTPKa2KOxQispq7S6+iZrbeu0nrHj7bTTzrRzJ06y8y+40C65dJpNmXqJ+3/93qkTTree3vHu79bWNVpxaYXlel9DX0tfk2cbIs3wYl6xf1TNiB7UjNghzYiiGRgASJTgTfEmfAWiArOgoMBKS0utprrKGuvrrK250Trbm62ro9W6O1utp1P/bXP/L/T7nW0t1trcYA11tVZVWWElJSWWn5/vzIG+rgzFqNFpOP8AjYvU9GyL5RVZVU29dff02oUXTbY5c+baXXfdZY89ttJef+1V+/tHH9hX6760TRvX25ZNG2z7ts22bcsm2+z9v35v/do19vHqj+yN116zlY8+anfccYfNnj3XLrp4inWPHWdV1fXue+h7IfxBGRspLpbHHNSM7Eiui3XFfHVVpdMAaUFn2w+a0acbR2hGe4vTFmmM/p00R9qT42lQRma20yQMAQYAfJr0U1MzLSsrxwveAqusqLDmxnrr8oJybHe7jevpsPFjOweN/v3YrjZnHBob6qy8rMzy8vItMzPiAvskzEBCjosUbyWmCbm+odnOOXei3XTTfHt0xQr74P13beuWjbZ/7zf2f/88YPav7waF/q2+hkyCvuaK5Y/YjTfeZOecM9HtKuh76/gA0U/MXSDFrmJYsayYVmwrxhXrcdEMT3ukQdIiaZK0SRqV4mkVZgADAEMU+NEp6c5dK7BqPNfd3tLkgncogdvf4NYKoNVz/ArsmCcgWj2MGpNOUCeAsKdn5rit/QkTzrCbb77ZXnj+Obey379vz6An+/6i7/HV+rX2/HPPet/7Fjvt9LOstKzKG6c5HBMkgmZ4MapYjcXyXOwqhhXLQ53w+4O0SRolrZJmZXjmQxqGZmAAYABBrPO17OwcKysttZamBi+w2n0P3mObgU4nIFo9FBcXu3NAgnpkJv7M7Fyrrm2wyVMusd8/+KB98fmndmAYJv1jcWDft/bFZ5+4n2XKlEutsrrOmROMwMgsFhSbxUXF1uTFat+k3zliuiHNam6qd0cFOnYYg2ZgAOBEQZzmgkXn8h1tzcPi2gdCb3eHW1Ho/FBbi33bfLy74TjfL6+ssSuumOlW3tu2brJ//WP/iE38Rzsq0DHBE4+vsksvnW7lFdXkCQzX+b4Xg5r4tcXf5q2+FaOJpBnSsPbWJisvL3eJhNI4xgUGAP5tdZdqGRnZLogTceI/mhFQQlBJcYmlpXMG7Bc6ctE5u7L0n3hile3cvmVIZ/rDYQR2bNtsTz7xuEtCjOYVus/Au/RBM7yYU+xpV661pdF6E1wzpGnStvLyMndEIc3jPWIAkt7Ba2ussKDQTaiJPvH/aJuvu90dDei60GiEPs4JflnW3tltS5bca5s2rE+oFf+J0M+68at1tnjxYmtsbrUxqZmYxDii7X4l9mmrv7e7PVCaIaOiXcT8/EI0AwOQ3JO/tu7qaqvdRBqkID6S7o5Wl3DkdgN4t0Oe/LNz8uzKK6+y9997x77b/21gJv6j5Qi8/be37LLLZlhWJIYJiANaPeuIUNfzgqwZyhGora52n4djRAxA0ol8LJZ/cLu/M9CBfLizV9KPCocg9IOnuLTSlt631Hbu2BrYif9Idnmf5f777nOfjXc8eM3IyY25pOCg7RSe6FggL68AzcAAJMu5bppLiBnJzH4/0b3gkpJiMsEHkeXfO+5k+/Obb4xoZr9/uwF73Gcb23syYj+IsVHsxVRXe2soNUNaWOFporSR940BCC0q3FJfV5PwCTtDRVeQKisrXPUx3nt/znQzbNq06fbZp6vtHwf2hm7yP4Q+myoNTp16qfvMvPsToxiqqqp0MRVmzVBisY5DpZG8dwxA6FD9bFXMGhfyyf9wV19XU+2qkfH+jyfwmfazn820jV+tDVSi32D553f7bYP3WfWZ9dkZA8dZMHixoxgK627h0Y4EpJGpmAAMQJhQclyYzu4GYgLq62oJ6ONM/tdee52ry58Mk//htwT0mfXZMQHHXjAodpJl8j/cBEgrpZmMAwxAsBN3Dk7+zY3JN/kfflVQQsZOwI+3/WfN+rlt3bwxoe/2+1kzQJ9dz4DjgB+v/N3k392elJrRtxPQwK0iDECws3bTMrKsob42aSf/I48DyAn4YeU/47LL3f3+ZJz8DzcBegZ6FuwE/HDmn0zb/sczAdJOaShJoxiAACb8ZVhtdVXCleYcSROgZKZkvx2gynhnnHm2fbnms6Se/A83AXoWZ58z0RW4SfZsf93xT/bJ//DEwFrlEaWxcMAABMnFp2S4sr4E8o9vB+iKYLI6ek3+7R3d9vZbf02qM//+5ASoYFBrW2fSlg5WaV/FRtiz/QezcJCWjuGYCAMQlHv+BQWFrjoeAXy0OgGtrqBJMq7uSssqbdXKlfbd/r1M/EegZ7LqsZWuzXGy7RLpnFsFtFRDA404eqVRtRemTgAGIPHLuEZyXXMOAvfYKMtXJUCTaWxEcvLslltutW++3sGEfwz0bG677TbLjSVXZTiXKNxUjzYcB/VKieTk0kQIA5C4tf0VyDr3T/akv/4k+FRVVibNmW9aRsQmTbrQ1nz+KRP9CVi75nM7/4KL3DNLlsY+6qPRi2acUDOUD9CXFMh8gwFIwEAuKiriDK+/23rec4rl5bmzz7AfCdXWN9mzzzzNuX8/8wH0rOq8Zxb2fADXE8SLgaA39hnOHCJpbLIni2IAEnTrX1vbBGr/UTtTd9c3xI4+N1Zoc+fdYLt3bWeC7yd6VjfeeJM7Cgj7jqHaaaMFAzs+lNZyNRADkFBVu9TMorebrP+BXfNpt+LiktAm96SkZdnJp0xwGe5M7APjnbffsnHjT7WUkNYH0Jgv8cb+WDRjwJohraW6KAYgQbK7Uy03N2btrU0E6CBQwmRmViSUjr6wuMwWLlxo+/fuYVIfIPv3fmN33nGnFZdUhG5s6PNkZkZcYhsaMHCktdFojI6jGIDEWP0riYfEv0E6eu+5lZWVhe5cT6v/CaedYR9+8B4T+iD5ZPVHduZZ51hqerhujGisl5SUUCRsKEnEVZX0C8AAJMDqP8rqf8hXfFqaQrcLUFxSbgsWLHQrWSbzwdYG+NZ+u3ChFXnPMlSrf2+st7L6H+IuQPPBXQByATAAI7bKy7SKinKcfBxKfhYXFdvokGR9q679qRNOs3ff+RsT+RB5+29/dXkUYekVoDFeXFyMZsRBM5QLkEIuAAZgpJx8JCdqLc1k/sfrRkBYigPl5RfbTTfNt2+/2cUkPkT27N5l8+bdYLH8olBk/muMN5H5H7cbAdJgbgRgAEbkHE9Ovod6/3G74xuL5QU+sUdi1NLWYc899ywTeJx45umnrLm1I/BCr7Edy8unVki8NMPT3iLtHFIXAAMw3GR4Tl5tOwnEeCX2dLpkypSAtwxWBbuLJ0+xDevXMnnHCT3Liy+eGvjqgBrbfQnDxHu8kAZnJFlZcQxAAqzySP7z4Upgc6O7HhXkwkBKWLv99l/bgf3fMnnHiQP7vnXPNMjJgBrTGtsk//lzJZBjAAzA8F7jKS6m3a8PxwB5efk2KqDHABKhto4ue+GF55m448yL3jNVK+WgCr3GdB7b/760C5YWcwyAARg2lMhTU11FAPpwv9f1/g7oMYAyktXIZu2XXzBpx5l13jPVs1V9hWDeDMlwY5t6IfFHWpzOMQAGYPhau0ap++8TjQG+DRDNK3QZ68pcZ9KO/22AuXPnuWcc1EUDdf/9vQ3A3IQB8D+Td1Sq5ecXWFcHHbz8oLO9ObDNPqqq62zJkiX2r38eYNKOM//nPdN7773XKr1nHNQrwxrbxHj8kRZLk8kDwAAMy/l/aWkpTTx8O9Nrc8EcxAZBXd299srLLzFh+8QrL73knnEQG/9oTGtsE+M+aIanxdLkMeQBYAB8r/2fnmVVldT+9zMPoLSkxAvmjMCt8s46+1z77NPVTNY+8dmnH9vZZ08M3EpPY1m1/9EMH3sDVNIbAAMwHPf/MyNWV1tD4PlIdVVl4Np9yhheOm26bdm8gcnaJ7Zu2WSXzbg8cPUANJa1aCC2/aO+rsb1WGCOwgD4ngDYTAKgrzTU1QYuETA3WmBz5s61b77ewWTtE3q2s2fPtZxofuASADWmiW3/aG6st0gklzkKA+Bzpnc0zzpaSebxtyBQQ+DcfGFxmd1+++2ugx2TtV8FgfbYbbfdZoVFZYEaGxrLbRQAGpaCQMxRGAB/G73k5XMDwO+bAG3NlpWdE6hxUV5RbXfffbfLVmey9u8mwF133WVl5VWBGhsay51tLcS2rzcBWpw2M0dhAHxN9CooLLTuTgyA39d6gtblq66+yX7/4INM1D7zwAP3W01dY6A0Iyc3yqLBZ6TJBQWFXAXEAPjZzSvVCouKKOc5DMGcG7D63o3NrbZ8+SNM0j6jZ6xnHbS+ISwa/C8jLm2WRjNXYQB8a+ep9pMYAP8NgHItghTMLa0dtuqxlUzSPqNnrGcdpEWDxjIGwH8DIG0OejtxDECCF/QoLi5xfagJOn+DORrLD1Qwt3d02VNPPskk7TNPPfWke9ZBWjRoLLNo8FkzPE2WNgexgBgGgB0AOHIHIBawHYC2Dnt81WNM0j6zcuWj1tzSHqwdAG8s97ADwA4ABiD4OQBF5ACQA3AUmprbbAU5AMOUA9BGDgCQA4ABGIFbAAW6BYABGJ5bAMEZG7V1TfbgsmVM0n7fArj/fqupbQhcIyBuAfi9aGjjFgAGYLjqAHCn19+OgC0BrANQQx2AYagD8Lvf/c7KK2uCVweAToC+Lxry8gqYozAAw1EJsImg8xFVTQtaJcAiKgH6jp6tnrGeNZUA4XBUnVXazByFAfC9F0ALvQB8pbE+gL0AYgU2b94Ntmf3TiZrn9Cz1TPWsw5aL4DG+jpi20ekydJm5igMgM9uPsca6mnsQTfAI0Q+M8d++rMrbPvWzUzWPrFtyyabEcRugOlZVlNdRWzTDRADEHTUc1oTFEHnX2/v0tJS10M9aFdEJ553vq35/FMma5/44vNP7NyJ5wXuqteY1Awr88a0xjYx7g9VniZLm5mjMAD+BnNKXzD3dlMMyA/Ges9V2bxBLOjR0zveXn/tVSZrn9Cz7Rk7PpAFxDSmx6IZviAtLgvgogEDENBaAH1XAbnW40s2b3uL5QSsEdAhauoabNmyB7gJ4NMNgGXLlgWqEdCPrgK2c3vIz0ZAFAHCAAwLmqBayer1hebGesvIzA7kuMgrKLb5839he/fsZtKOM3qm839xs3vGQRwbSgTU2CbG44+0OCc3xtyEARgeNEHV1lQTfD5QWVFhKakZAc0PybbJUy6xDevXMmnHGT3TyZOnWmp6MM2hxrTGNjEef6TFQV00YAACmgdQWlJCHkC8z/+72iw/vyCwDT201dvd02uvvfoKk3acefWPr1hXd29gK71pTGtsa4wT6/E9/5cWc/6PARi+PABPhGKxPOtoo7pXPGlvabKsrJxAl/MsLa+yRXcusn8c2MvEHSf0LPVM9WyDXEZcY1tjnFiPYwEgT4OlxSdRAhgDMKz1ADIj7u4pQRg/anT/PzUz2MdDWbk2bfoM27JpA5N3nNCz1DPVsw3y2NDYruEKcfzv/2dy/x8DMALHACUlJVztidv2f3ugt/8PrwfQ0dljr7z8EpN3HLf/O7vGBj7L+4djADQjXleG3fZ/Ktv/GIAR2NJT5mkbW3pxK+WZkRUJRTevgsJS++Uv/8P2fcttgKGyf+83dtttv7LCgNX/P5ZmKFmNUuJx6hniaW9ubowOgBiAkasKWFVZQYWvOFT/Kysrs9Ep6aEYFylpWXbmmWfb6r9/yCQ+RD5e/ZGddfa5lpoWjipvGuNUBYyPZlRT/Q8DMNLbva49MAU+hpb819pk2ZHcUDn5sopqW7pkif3jwD4m8iF0/1u8eLGVe88yLGNDnyM7kkMC8VBbhre1OO0dRfEfDMBIF/ioq632HClBOVgnX1FebmNCsvr/IRkwxy66eLKtX/slk/mQav9PsrSMcN3x1pk1O4dD0ww1V0rLYPWPAUiAxB52AYZ2jSc7Oyd053j6POWVNa40sFayTOgDv/q35N4lVlpWFbqxoStrkUguuwCDXf17WhuLsfrHACRMLkCmO4/C0Q+wiIf3vMrLdfYfzkBW1bozzjzbPv1kNZP6ANEzO+uscwNb+e/EuQBpVl5WhmYM+uw/k7kHA5A4DYLUH0Bn2QTpwGp4Z2RkhzqLV7Xrf/ObBbbv22+Y2PuJbk/86le/8p5dSWjHhrsR4I39NnqKDDhfSForzWXuwQDQJjjgbX/DHsjK+m5t67S//PlNugT2s+vfn958w5pb2m3UmPTQLxwKaRM8sLK/pZT9xQAkpKPvaxLUWF9LQmA/tvHqaqpDl/h37OZROTZ9+gzbsW0zk/wJ2L51k02bfpl7ZsmxcEgnibifmiFtTc/MdlrLnIMBSMhrgbnRGAmB/Uj8S8/ITiJzmOqOAnSljYTA41/7u+uuuyw3VpBUC4fMrAgJgSdM/Gtm6x8DEIRbAelWVFRsY7tJ7jleyd9kc/EyhxVVtfbG66/av/6xnwn/CPRM3nzjNauqqQ98yd/BmABltVMi+NjHhSXFxTZ6TDpzDAYgIPd8uRVwlDO8vjv/ydq5a3RKhvWMHW/r11Eb4EhUL2Hc+FPcM0rW0uLlXmz0ohlHzfpPod4/BiBYV8AyrbGhjiA+LJDra6sD3+wnHibg4slTbc/unUz8B9GzuPDCi5J28j+8poi627Fw+AGd+6dy5Q8DEMzGHxGaBR2c/Jsb6y01jUA+1Cvg+utmkw9w8NxfzyIljapubuHgxYhiBRPQ1+xHGkqzHwxAoE1Ae2tzUk/+6n7G5H/kMVGm3XzzzXZgX/KagAP79thNN81P+pX/0ZqMKWaS2QRIM9MzyPjHAGACAr7yb6Bj1zH7SEQ8E3CL7d3zddJN/vrM+ux6BoyFo5sAxU4ymgBpJSt/DECoTIDcbDIdByjhr6G+lsn/BGRmR23OnHm2c8fWpCgUpM+oz6rPrM/OGDi+CVAM9SbRjSJpZHrIq4NiAJK2UFDkYKGgjtBf9VOhn/SMLPsJ7/6EZEVids0119raNV+E+oqgPtv6dWu8z3qd+8y8+xNohtslyrLa6qrQXxGUJjY11B1c+fPuMQAh3QlIdY2DqkJb/rO7o9U1OUlJy8DFD8QEeKvhSedfYO/87a1QJgfqM73z9lt2/gUXus/KO++/ZiiWFFOKrXDe8++76idtRDMwAElRJ0CFLVTdKiy7AfocamyiIj/U6h7klm9GtnX19Nqqxx6zb77eEZrJf/eu7fboiuXW7X22NM78B91rRL0z2loaQ6QZna5qqgqnjeGePwYgqe6Dj0m33NyoOxIIegOhns42q62ptkhObtLf84+HOayubbBf/OIX9vHqj+wfB/YGduLXz/7Jx3+3W2651X0mRH7odQKyI7lerFW5mAt6Yx9pn0qnj6LCHwYgOXsHpLoGQupwpTaXQXP2CuLWpgYr9hx8WkYWdbrjWDY4ll9kZ58z0VasWGFbN28MVG6AEv22bdnoVv0TJ53v+iAkW3lf38bGqFSXHFhUVOSuCgZt8SCNk9apc6q0j3GBAUj65EBt7+XkRt05WGd7S8IbAf18Ha3NrqyvViRqeUvijh9Z4NlW39Bi1157nb3y8kv29c7tCX1TQD/b7l073M866+fXWH1ji6VnsuXvh2Yo5hR7FRXlgVg8HNrul8apqY80D83AAMBhuwFp6ZmuKUhNdZV1tiWeEdB1JHUtUxBHozFX3IekHf93A3JjhdbTM85uuOFGN7km2pVB7U7s2rHN3nzjdbv11lttbO94y4kWsLobjqRiLwZzc2NWWVHhjECiXRmUhmniV8vjvLx8p3HsFGIA4FjnfJ5oajtdwaKJVvdiR/rGQE9Xu9tu1Io/Gs1zW5CI+3Cf/6ZbXn6x9Y472RmBZ595xjasX2vf7d87opn9X63/0p566kmbO3eenXLqaVZYVEplvxFYPMgIyJRXVpRba3ODi9mR7uAn7aqqrHBaprv95AdhAGAgRsCbaOXuS0tKXJMQrb6H68xP9461otB9fmXpRnKilpKGe08UI9DZNdYu/+kVds8997iV95bNG4bl+qC+x5ZNG+zPb77hfe/f2YwZl1t7R7fLWWDiTwwjoFgtLi52sasYHq4aAtImaZS0qsTTrBxPu1gsYABgiNt8yp7OzIxYLJbnzIAy7lubG627szUuhkDbdHLsXR2tbqWvIwhdU9SKIsNz7n1n/Ez8iTYuVEmvsqrOJkw4w66+epbdfffd9uILL9hnn37sjglUaz8e9fp3eV/rc+9r/uHFF933uMr7XhNOO8Mqq2stIyuHsZGAY0Mxq9hVDCuWFdOKbcW4Yj0ex4vSHmmQtEiaJG2SRkmr+s74GRcYAIhrBrACS9mzcte6F6xsWh0VNNTVugCXA1eQd3e2uatCDm8F4PD+XwGrP1e9bdUal1uvqqy0Uu/r6A6/Vg/pTPqByxOQGaiorLGxvSfb5ClTbc7cebbozkX2vw8/bC+/9Af74P13XaVB7RRs37bZdmzbYl/v3ObYuX2rbd+62a3s9Xfee/dtl2uwfPkjtmjRIre9r6+p4wd9D30vVnXBMgOKacW2Ylyxrq35+toaa/Y0Q1rQpxmtP9aMrjanJfpzJf5KY1SeWJoj7ZEGKYFZmiRtOgnNwADA8Am/gk7bbJlZERfgUc+B53lBXlhY6K4Kafu+uLjEUej9WgGrMzmd5UciUffvUr1/L5EgeMNzTJCd4638yiqtsanVxp88wc6bdIFdcuk0mznzSrvuuutt9uw5Nn/+fMfcOXPtmmuvsyuuuNL9nYkTz7eTT5lgTS1tVlpW5X2tPO5qh2gRoVhXzGul7jTD0wJpQoGnGYVHaEbR95pR0KcZOdKMHKc5bsLnSBADAInp/BWcMglKvhH6Nat6zIGq8aVn5nhinufQNn5qejaTPJpxFM1IQzMwAAAAAIABAAAAAAwAAAAAYAAAAAAAAwAAAAAYAAAAAMAAAAAAAAYAAAAAMAAAAACAAQAAAAAMAAAAAGAAAAAAAAMAAAAAGAAAAADAAAAAAGAAAAAAAAMAAAAAGAAAAADAAAAAAAAGAAAAADAAAAAAgAEAAAAADAAAAABgAAAAAAADAAAAABgAAAAAwAAAAAAABgAAAAAwAAAAAIABAAAAAAwAAAAAYAAAAAAwADwEAAAADAAAAABgAAAAAAADAAAAABgAAAAAwAAAAAAABgAAAAAwAAAAAIABAAAAAAwAAAAAYAAAAAAAAwAAAAAYAAAAAMAAAAAAAAYAAAAAMAAAAACAAQAAAAAMAAAAAAYAAAAAMAAAAACAAQAAAAAMAAAAAGAAAAAAAAMAAAAAGAAAAADAAAAAAAAGAAAAADAAAAAAgAEAAAAADAAAAABgAAAAAAADAAAAABgAAAAAwAAAAAAABgAAAAADAAAAABgAAAAAwAAAAAAABgAAAAAwAAAAAIABAAAAAAwAAAAAYAAAAABgZPn/AaER/ue6M+JNAAAAAElFTkSuQmCC;fontFamily=Fira Code;" vertex="1" parent="1">
          <mxGeometry x="400" y="430" width="80" height="80" as="geometry" />
        </mxCell>
        <mxCell id="HewII5I395oueKauFgrz-15" style="edgeStyle=orthogonalEdgeStyle;rounded=0;orthogonalLoop=1;jettySize=auto;html=1;entryX=0;entryY=0.5;entryDx=0;entryDy=0;endArrow=none;endFill=0;" edge="1" parent="1" source="HewII5I395oueKauFgrz-14" target="HewII5I395oueKauFgrz-13">
          <mxGeometry relative="1" as="geometry" />
        </mxCell>
        <mxCell id="HewII5I395oueKauFgrz-14" value="Users" style="shape=image;verticalLabelPosition=bottom;labelBackgroundColor=default;verticalAlign=top;aspect=fixed;imageAspect=0;image=data:image/jpeg,/9j/4AAQSkZJRgABAQEAAAAAAAD/4QBCRXhpZgAATU0AKgAAAAgAAYdpAAQAAAABAAAAGgAAAAAAAkAAAAMAAAABAAAAAEABAAEAAAABAAAAAAAAAAAAAP/bAEMACwkJBwkJBwkJCQkLCQkJCQkJCwkLCwwLCwsMDRAMEQ4NDgwSGRIlGh0lHRkfHCkpFiU3NTYaKjI+LSkwGTshE//bAEMBBwgICwkLFQsLFSwdGR0sLCwsLCwsLCwsLCwsLCwsLCwsLCwsLCwsLCwsLCwsLCwsLCwsLCwsLCwsLCwsLCwsLP/AABEIAdoB2gMBIgACEQEDEQH/xAAfAAABBQEBAQEBAQAAAAAAAAAAAQIDBAUGBwgJCgv/xAC1EAACAQMDAgQDBQUEBAAAAX0BAgMABBEFEiExQQYTUWEHInEUMoGRoQgjQrHBFVLR8CQzYnKCCQoWFxgZGiUmJygpKjQ1Njc4OTpDREVGR0hJSlNUVVZXWFlaY2RlZmdoaWpzdHV2d3h5eoOEhYaHiImKkpOUlZaXmJmaoqOkpaanqKmqsrO0tba3uLm6wsPExcbHyMnK0tPU1dbX2Nna4eLj5OXm5+jp6vHy8/T19vf4+fr/xAAfAQADAQEBAQEBAQEBAAAAAAAAAQIDBAUGBwgJCgv/xAC1EQACAQIEBAMEBwUEBAABAncAAQIDEQQFITEGEkFRB2FxEyIygQgUQpGhscEJIzNS8BVictEKFiQ04SXxFxgZGiYnKCkqNTY3ODk6Q0RFRkdISUpTVFVWV1hZWmNkZWZnaGlqc3R1dnd4eXqCg4SFhoeIiYqSk5SVlpeYmZqio6Slpqeoqaqys7S1tre4ubrCw8TFxsfIycrS09TV1tfY2dri4+Tl5ufo6ery8/T19vf4+fr/2gAMAwEAAhEDEQA/APXKKKKACiiigAooooAKKKKACiiigAooooAKKKKACiiigAooooAKKKKACiiigAooooAKKKKACiiigAooooAKKKKACiiigAooooAKKKKACiiigAooooAKKKKACiiigAooooAKKKKACiiigAooooAKKKKACiiigAooooAKKKKACiiigAooooAKKKKACiiigAooooAKKKKACiiigAooooAKKKKACiiigAooooAKKKKACiiigAooooAKKKKACiiigAooooAKKKKACiiigAooooAKKKKACiiigAooooAKKKKACiiigAooooAKKKKACiiigAooooAKKKKACiiigAooooAKKKKACiiigAooooAKKKKACiiigAooooAKKKKACiiigAooooAKKKKACiiigAooooAKKKKACiiigAooooAKKKKACiiigAooooAKKKKACiiigAooooAKKKKACiiigAooooAKKKKACiiigAooooAKKKKACiiigAooooAKKKKACiiigAooooAKKKKACiiigAooooAKKKKACiiigAooooAKKKOBknoOtABRWJf+K/CumlludUtvMXrFATPLn0KwhiPxrnLr4n6HGSLSwv7j/afyoFP/AH0S3/jtAHfUV5ZL8Ur4k+Ro9uo7edcyOf8AxxBUH/C0Nf7abpv/AH1cH/2anYVz1qivKY/ilqoI83SbJh38ueZD/wCPK1aVv8UtOYgXek3cQ7tbyxTD8m2GiwXPRKK5qy8c+D74qo1BbeRiAEvkaDn/AH2Gz/x6ujjlhmRZIZEkjblXjZXUj2ZeKQx1FFFABRRRQAUUUUAFFFFABRRRQAUUUUAFFFFABRRRQAUUUUAFFFFABRRRQAUUUUAFFFFABRRRQAUUUUAFFFFABRRRQAUUUUAFFFFABRRRQAUUUUAFFFFABRRRQAUUUUAFRzT29tFJPcSxxQxrukklZURB6szcVheI/Fmk+Ho9kh+0X7ruhs4mAfB6PK38K/5APbx7WvEGs69N5l/OfKVi0NrFlbaH/dTPJ9zk07CPQda+JVhbl4NFg+2SjI+0z7o7YH1VeHb9PrXn2p+I/EWsFvt2oTNEf+WEJ8m3Ht5ceAfxzWTRTEAAHQAfSiiigAooooAKKKKACrdjqWqaZIJNPvLi2bOT5MhCN/vIfkP4iqlFAHouj/Ey7jKRa3aiZOAbqzUJKPd4Sdp/Aj6V6Npuq6Vq8AudOuoriLgNsOHjJ/hkQ/MD9RXzpVmyvr/TrhLqxuZbe4To8TYyP7rg8EexBosO59H0Vwvhnx/aakYrHV/Ltb9tqRTD5ba5bpjJ+6x9CcHse1d1UjCiiigAooooAKKKKACiiigAooooAKKKKACiiigAooooAKKKKACiiigAooooAKKKKACiiigAooooAKKKKACiiigAooooAKKKKACiiigAooooAKKKKACuJ8YeNI9HEmnaayS6qy/vHOGjsww4LDoX9B+J9Gn8aeK10K2FnZMrardISnQi1iPHnOPX+4Px6Dnxhmd3eSRmeSRmd3clmd2OSzE85PemhMdNNPcSyzzyySzzOZJZZWLO7nqWY1HRRTEFFFFABRRRQAUUUUAFFFFABRRRQAUUUUAHXrXoPg/xzJZmDS9alZ7M7Y7a8kJL23YJMx5Keh7fT7vn1FAH0wCrAMpBVgCCDkEHkEEUV5X4D8XNbvBoWpy5t5CI9OnkP+pc8C3cn+E/wenToRt9UqSgooooAKKKKACiiigAooooAKKKKACiiigAooooAKKKKACiiigAooooAKKKKACiiigAooooAKKKKACiiigAooooAKKKKACiiigAooooAKzNd1i10LTbrUJ/mMY2QRZwZp24SMfXv7AntWnXi3jzXTq2rtaQvmx0tngjwflkueksnHp90fQ+tAHMXt5d6hd3V7dyGS5uZDJK3bJ4CqOwA4A9BVeiiqJCiiigAooooAKKKKACiiigAooooAKKKKACiiigAooooAK9n8C+JW1mxaxvJN2paeih2Y/NcW/3Vl+o6N74P8VeMVf0jVLnRtRstRt8lreTMiA4EsLcSRn6j9celAH0TRUNrdW97bWt3buHguYo5omHdHG4f/XqapKCiiigAooooAKKKKACiiigAooooAKKKKACiiigAooooAKKKKACiiigAooooAKKKKACiiigAooooAKKKKACiiigAooooAKKKKAMPxXq50XQ9Qu0bFw6i2tPX7RN8qkf7vLf8BrwPnuST3J5JPqa9C+J2omW+0zSkb5LWFryYD/nrMSiA/QAn/gVee1SJYUUUUAFFFFABRRRQAUUUUAFFFFABRRRQAUUUUAFFFFABRRRQAUUUUAerfDPVzPZ3ujStl7JvtNrk8/Z5W+ZR/ut/wChV6FXgfhPUTpfiDSbgttikmFpcZ6eVcfu8n6Hafwr3ykxoKKKKQwooooAKKKKACiiigAooooAKKKKACiiigAooooAKKKKACiiigAooooAKKKKACiiigAooooAKKKKACiiigAooooAKKKiuZhb211OekMEsx/4AhagDwTxNeG/8Qa5c7tym8khjP8A0zg/cLj/AL5rHpSzOS7fecl2+rHcaSqJCiiigAooooAKKKKACiiigAooooAKKKKACiiigAooooAKKKKACiiigA56g4I5B9COQa+itHvBqGlaTe5ybmzt5XP+2yDcPzzXzrXtvw/uDP4Y09Sebaa7tvwWVnH6EUmNHV0UUUhhRRRQAUUUUAFFFFABRRRQAUUUUAFFFFABRRRQAUUUUAFFFFABRRRQAUUUUAFFFFABRRRQAUUUUAFFFFABRRRQAVmeIJDFoXiBx1XTL7H4wsK06yfEqlvD/iFR1OmXn6RMaAPn0cAfSiiiqJCiiigAooooAKKKKACiiigAooooAKKKKACiiigAooooAKKKKACiiigAr174YuW0K+T/AJ56pNj/AIFDEa8hr1z4YKRo2pt2bU3A/CCKhgjvKKKKkoKKKKACiiigAooooAKKKKACiiigAooooAKKKKACiiigAooooAKKKKACiiigAooooAKKKKACiiigAooooAKKKKACqmpwm403VIAMmayuogPd4mWrdFAHzMudq564GaWrmqWpsdT1WzIx9mvbmEf7qyHb+mKp1RIUUUUAFFFFABRRRQAUUUUAFFFFABRRRQAUUUUAFFFFABRRRQAUUUUAFezfDeEx+G1cj/j4vryUe4BWL/2WvGScAn05r37wraGy8O6DbsMOLKOVx/tzZmOf++qTGjaooopDCiiigAooooAKKKKACiiigAooooAKKKKACiiigAooooAKKKKACiiigAooooAKKKKACiiigAooooAKKKKACiiigAooooA8Y+ItgbTxA1yq4i1K2iuAQOPNjHkuP0U/jXHV7N8RNKN9of2yNcz6VJ9p46m3cbJR+HDf8BrxmqRLCiiigAooooAKKKKACiiigAooooAKKKKACiiigAooooAKKKKACiiigC5pdk+palplgo5u7qGFvaMtlz+Aya+i1VUVUUAKoCqB0AAwAK8n+GelGfUL3VpF/dWMZtrcnobiYZYj/dXj/gdes0mNBRRRSGFFFFABRRRQAUUUUAFFFFABRRRQAUUUUAFFFFABRRRQAUUUUAFFFFABRRRQAUUUUAFFFFABRRRQAUUUUAFFFFABRRRQA2SOOWOSKRQ8cqNHIrchkYbSD9a+fdf0iXQ9VvdOcHy438y1c/8ALS2fJjbP6H3Br6ErkPHfh06zpwu7WPdqOnK8kQUfNPAeZIfr3X3GP4qaEzxaiiimIKKKKACiiigAooooAKKKKACiiigAooooAKKKKACiiigApyJLK8cUSM8srpHEijLO7naqge5pteh/Drw6bi4OvXcf7i2Zo9PVhxJP91puey9B75/u0Ad/4d0hND0ix08YMqJ5l06/x3EnzO358D2ArWooqSgooooAKKKKACiiigAooooAKKKKACiiigAooooAKKKKACiiigAooooAKKKKACiiigAooooAKKKKACiiigAooooAKKKKACiiigAooooA8k8e+FWsJ5dasIv9BuH3XsaDi2nc/wCsAH8DHr6H2bjgq+lpYopo5IZUWSKVGjkRwGV0YYKsDxg14x4v8Hz6FK97ZK8mkSNnPLPZsx+5Ieu3+6fwPqzQmchRRRTEFFFFABRRRQAUUUUAFFFFABRRRQAUUUUAFFFa2haDqXiC8FraLtjQqbq5cExW6HufVj/CO/05ABP4Z8PXXiLUFt03JZwlXv7gf8s4yfuIf77dB+fbn3a2trazt7e1to1igt41iijQYVUUYAqrpGkafoljDYWSbY0+Z3bBkmkP3pJG7k//AFugq/SGFFFFIYUUUUAFFFFABRRRQAUUUUAFFFFABRRRQAUUUUAFFFFABRRRQAUUUUAFFFFABRRRQAUUUUAFFFFABRRRQAUUUUAFFFFABRRRQAUUUUAFNdI5UeORFeORSjo6hlZWGCrA8YNOooA8q8UfD+a3M1/oMbS2+S8tgMmWLuTb56r/ALPX0z0HnpBBIIIKkqwIIII4IIPOa+l65rX/AAboevb5mU2t+Rxd26gFz/02To36H3p3FY8MorodZ8IeI9FLvNbG4tFyRdWYaSML6yIPnX8Rj3rngQenP0piCiiigAooooAKKKKACiiigAorR0vRNa1mQJp1nLMM4eYjZbx/78rfL/M+1emaB8O9NsTHc6u6X10pDLCARZxsOeVblj9ePagDivDXg3VNfaOeQPaaXnLXLr88wB5W3Vuv+90+vSvZNN0zTtJtIrKwgWKCPnA5Z2PV5GPJY9yauAKoVVACqAFAGAAOAABRUlBRRRQAUUUUAFFFFABRRRQAUUUUAFFFFABRRRQAUUUUAFFFFABRRRQAUUUUAFFFFABRRRQAUUUUAFFFFABRRRQAUUUUAFFFFABRRRQAUUUUAFFFFABRRRQAUUUUAFc/qng7wtqxeSexWG4bkz2Z8iUn1bb8p/FTXQUUAeW33wuu1LNpmpxSLyRHfRlG+nmRZH/jgrnbrwR4ztc50xplH8VpLFKD/wAB3Bv/AB2vdKKdxWPnaXRtegJE2lalHjrutJ8fmFxVc2l+Dg2l2D6G3m/+Jr6RoouFj5zj0zWJiBFpuoOT/ctLg/8AstaVv4Q8YXRAj0e6QH+K58uAfj5rA/pXvVFFwseR2Pwy12Yq19e2doh+8sQe4lA/8dT/AMeNddpnw+8LWBR54pb+ZcHdesDFkdxCmE/PNddRRcLDY44oUSOKNI40GESNQqKPQKvFOoopDCiiigAooooAKKKKACiiigAooooAKKKKACiiigAooooAKKKKACiiigAooooAKKKKACiiigAooooAKKKKACiiigAooooAKKKKACiiigAooooAKKKKACiiqt/qGnaZbvd39zFbwJ1eQ4yf7qqOSfQAUAWqytW8QaFoibtQvI45CMpAn7y4k/3Yl+b8eB7153r3xGv7vzLfREazt+VN1IAbqQdMopyqj8z9K4KSSWWSSWWR5JZCWkklZndye7M3NOwrnfat8TNTn3xaPapaRcgT3IWW4I9VQfux+O6sGx8Z+LbG4ecajLciRg0sN7+9hb6LwV/4CRXO0UxHrelfEvRrgJHqlvLYynAMqAz2xPrlR5g/75P1rs7PUdL1GMSWN5bXKEZzBKjkf7wByPxFfONOR5InEkTvHIOQ8TMjj6MpBpWHc+lqK8Gs/GPjCywItVnkQcBLsJcDHpmUFv8Ax6t23+J3iCMAXFjp8+OpTzoWP/jzD9KLBc9corzSP4ppgedoj57mK8Uj8mjFTf8AC09P76PeZ9p4aLBc9Forzd/inb8+Xos5PbzLqNR/46hqhP8AFHV2yLbS7KP0M0s0pH4KEosFz1eo5p7e3RpbiaKGNfvPM6og+rMQK8Su/HfjK7DKL5LZD2s4Y4yP+Bvuf9a5+5u729cyXlzcXL9d1zK8p/DeTRYLnsep/EHwvYB0t5ZNQnGQEsx+6yP70z4T8s1wOr+PfEup7o4JRp1sT9yzJ84j/bnPzfkFrk6KdhXOw0r4heJdPKJdtHqNuMAi5+ScD/ZmQfzU16Fovjbw3rBSITm0vGwBb3u1Czekcmdh/PPtXhtHB60WC59MUV4foXjbXtFMcLub6wXANvcuS6L/ANMZjlh9Dkewr1fQ/Emi6/FuspsTooM1rNhLiL3K9x7jIpWGbNFFFIYUUUUAFFFFABRRRQAUUUUAFFFFABRRRQAUUUUAFFFFABRRRQAUUUUAFFFFABRRRQAUUUUAFFFFABRRRQAUUUUAFFFFABRRXn3i/wAdLZGfS9FkV70ZjursYZLU9CkXYv69h7n7oBs+JvGOm6ArW8e261NlylsjYWLPR7hh0Ht1P6jx7VNX1XWbk3Wo3DSyciNPuwwqf4YoxwB+vqTVJ3eR3kkdnkkYvI7sWd2bkszHkk02qJCiiigAooooAKKKKACiiigAooooAKKKKACiiigAooooAKKKKACpIZri2miuLeWSGeJg8UsTFHRh3VhzUdFAHqvhf4gxXJhsNeZIbgkJDfDCQSk8ATDore/T6d/QwQQCOQeQRXzPXb+EvG9xpJi0/VHebSyQkUpy0tl2+pj9uo7elKw7nsNFMilhnjimhkSSKVFeOSNgyOrDIZSOMU+kMKKKKACiiigAooooAKKKKACiiigAooooAKKKKACiiigAooooAKKKKACiiigAooooAKKKKACiiigAooooAKKK4fxz4sOkwnStPkxqVzHmaVTzZwMOo/22/h9OvpkAoeN/GjQGfRdIlxNzHf3cZ5i7GGFh/F/ePbp1+75dR/8ArJPJJPck0VRIUUUUAFFFFABRRRQAUUUUAFFFFABRRRQAUUUUAFFFFABRRRQAUUUUAFFFFABRRRQB13hDxfNoUy2d4zyaRK/I5ZrN2PMkY/u/3h+I54b2iKWKaOOaJ1kilRZI3QhldGGQykcYNfNNd34F8WHTZotH1GX/AIl077bWVzxaTOfukn+Bj+R9jwmNHrtFFFIYUUUUAFFFFABRRRQAUUUUAFFFFABRRRQAUUUUAFFFFABRRRQAUUUUAFFFFABRRRQAUUUUAFFFNd0jR5JGVY41Z3ZjhVVRkkk9hQBjeJtft/D2mS3bbXuZcw2MJP8ArZyMgnvtXq3/ANevB7i4uLqee5uZGluLiRpZpH6u7HJP+FbHinXpPEGqzXILCzg3QWEZ4xCD/rCPV+p/AdqwqokKKKKACiiigAooooAKKKKACiiigAooooAKKKKACiiigAooooAKKKKACiiigAooooAKKKKACjrwaKKAPXPAHic6hb/2NfSZvrOPNrI5+a5tl4wSerJ0PqMHsa7yvm60u7qwurW9tX8u4tpVlibtuXsR6HofY19AaJq1trem2eowcCZMSx5yYZl4eM/Q/pg96TGjRooopDCiiigAooooAKKKKACiiigAooooAKKKKACiiigAooooAKKKKACiiigAooooAKKKKACuC+I+um0sYtGt3xcaipe5KnlLNTgr/wADPH0B9a7uWSOGOWaVgkUSPJIzdFRBuJP0r561vVJdZ1XUNRkzieUiBT/yzt0+WNPy6+5NNCZnUUUUxBRRRQAUUUUAFFFFABRRRQAUUUUAFFFFABRRRQAUUUUAFFFFABRRRQAUUUUAFFFFABRRRQAUUUUAFdr8PddOnaodNnfFnqjKiZPEd4BhD/wL7p98elcVSgspVkYq6sGRl4KspyGB9RQB9L0Vj+GtXXW9GsL4kecU8m7Ufw3EXyv+fUexFbFSUFFFFABRRRQAUUUUAFFFFABRRRQAUUUUAFFFFABRRRQAUUUUAFFFFABRRRQAUUUUAcb8RNVNjof2ONsT6rJ9m46i3X55T+PC/wDAq8Zrr/iFqP23xBLbq2YtMhS1XHTzX/eyH9QP+A1yFUiWFFFFABRRRQAUUUUAFFFFABRRRQAUUUUAFFFFABRRRQAUUUUAFFFFABRRRQAUUUUAFFFFABRRRQAUUUUAFFFFAHoHwz1UwahfaTI37u+j+024Pa4hGGA+q8/8Ar1ivnLTL6TTNR07UEzus7mKYgfxIDh1/EZH419FxuksccsZDJIiujDoVYZBFJjQ6iiikMKKKKACiiigAooooAKKKKACiiigAooooAKKKKACiiigAooooAKKKKACmTSxwQzzyHEcMckrn0VFLE0+ue8aXZs/DOturbXmgFonrm4dYj+hNAHh11cyXl1d3khzJdXE1y+fWVy+P1qGiiqJCiiigAooooAKKKKACiiigAooooAKKKKACiiigAooooAKKKKACiiigAooooAKKKKACiiigAooooAKKKKACiiigAr3XwTfG/8ADWkuzbpLZGsZSeubdti/+O7a8Kr1H4W3e631yxLf6qeC7jHtKhjb/wBBH50MEej0UUVJQUUUUAFFFFABRRRQAUUUUAFFFFABRRRQAUUUUAFFFFABRRRQAUUUUAFcH8Trjy9G0+2B5udRRj7rDG7/AM8V3leZfFOX5vDsHoL6Y/8AkJB/WmhM80ooopiCiiigAooooAKKKKACiiigAooooAKKKKACiiigAooooAKKKKACiiigAooooAKKKKACiiigAooooAKKKKACiiigArt/hpceVr9zBni606YY/wBqKRHH6ZriK6XwNL5XinRj/wA9DdQn/gdvJ/hQB7nRRRUlBRRRQAUUUUAFFFFABRRRQAUUUUAFFFFABRRRQAUUUUAFFFFABRRRQAV5R8UWP9p6IvYWM7f99Sgf0r1evJvih/yFtH/7B0n/AKONNCZwFFFFMQUUUUAFFFFABRRRQAUUUUAFFFFABRRRQAUUUUAFFFFABRRRQAUUUUAFFFFABRRRQAUUUUAFFFFABRRRQAUUUUAFbfhRiviXw6fW+Rf++kZaxK2fC/8AyMfhz/sIwf1oA9/oooqSgooooAKKKKACiiigAooooAKKKKACiiigAooooAKKKKACiiigAooooAK8m+KH/IW0f/sHSf8Ao416zXmfxE0nWtR1PSpLDT7u6jjsXR3t4i6q5lJ2kjvTQmeZ0Vr/APCM+LP+gHqf/gO1H/CM+LP+gHqf/gO1MRkUVr/8Iz4s/wCgHqf/AIDtR/wjPiz/AKAep/8AgO1AGRRWv/wjPiz/AKAep/8AgO1H/CM+LP8AoB6n/wCA7UAZFFa//CM+LP8AoB6n/wCA7Uf8Iz4s/wCgHqf/AIDtQBkUVr/8Iz4s/wCgHqf/AIDtR/wjPiz/AKAep/8AgO1AGRRWv/wjPiz/AKAep/8AgO1H/CM+LP8AoB6n/wCA7UAZFFa//CM+LP8AoB6n/wCA7Uf8Iz4s/wCgHqf/AIDtQBkUVr/8Iz4s/wCgHqf/AIDtR/wjPiz/AKAep/8AgO1AGRRWv/wjPiz/AKAep/8AgO1H/CM+LP8AoB6n/wCA7UAZFFa//CM+LP8AoB6n/wCA7Uf8Iz4s/wCgHqf/AIDtQBkUVr/8Iz4s/wCgHqf/AIDtR/wjPiz/AKAep/8AgO1AGRRWv/wjPiz/AKAep/8AgO1H/CM+LP8AoB6n/wCA7UAZFFa//CM+LP8AoB6n/wCA7Uf8Iz4s/wCgHqf/AIDtQBkUVr/8Iz4s/wCgHqf/AIDtR/wjPiz/AKAep/8AgO1AGRRWv/wjPiz/AKAep/8AgO1H/CM+LP8AoB6n/wCA7UAZFFa//CM+LP8AoB6n/wCA7Uf8Iz4s/wCgHqf/AIDtQBkUVr/8Iz4s/wCgHqf/AIDtR/wjPiz/AKAep/8AgO1AGRWz4X/5GPw5/wBhGD+tN/4RnxZ/0A9T/wDAdq1fDvh/xLb69oM8+kahFBDfQvLJJAyoiDOWY+lAHtlFFFSUFFFFABRRRQAUUUUAFFFFABRRRQAUUUUAFFFFABRRRQAUUUUAFFFFABRRRQAUUUUAFFFFABRRRQAUUUUAFFFFABRRRQAUUUUAFFFFABRRRQAUUUUAFFFFABRRRQAUUUUAFFFFABRRRQAUUUUAFFFFABRRRQAUUUUAFFFFABRRRQAUUUUAFFFFABRRRQAUUUUAFFFFABRRRQAUUUUAFFFFABRRRQAUUUUAFFFFABRRRQAUUUUAFFFFABRRRQAUUUUAFFFFABRRRQAUUUUAFFFFABRRRQAUUUUAFFFFABRRRQAUUUUAFFFFABRRRQAUUUUAFFFFABRRRQAUUUUAFFFFABRRRQAUUUUAFFFFABRRRQAUUUUAFFFFABRRRQAUUUUAFFFFABRRRQAUUUUAFFFFABRRRQAUUUUAFFFFABRRRQAUUUUAFFFFABRRRQAUUUUAFFFFABRRRQAUUUUAFFFFABRRRQAUUUUAFFFFABRRRQAUUUUAFFFFABRRRQAUUUUAFFFFABRRRQAUUUUAFFFFABRRRQAUUUUAFFFFABRRRQAUUUUAFFFFABRRRQAUUUUAFFFFABRRRQAUUUUAFFFFABRRRQAUUUUAFFFFABRRRQAUUUUAFFFFABRRRQAUUUUAFFFFABRRRQAUUUUAFFFFABRRRQB//9k=;imageBorder=default;fontFamily=Fira Code;" vertex="1" parent="1">
          <mxGeometry x="240" y="430" width="80" height="80" as="geometry" />
        </mxCell>
      </root>
    </mxGraphModel>
  </diagram>
</mxfile>
